%TF.GenerationSoftware,KiCad,Pcbnew,(7.0.0)*%
%TF.CreationDate,2023-06-29T20:35:03+03:00*%
%TF.ProjectId,kapeebar-a,6b617065-6562-4617-922d-612e6b696361,rev?*%
%TF.SameCoordinates,Original*%
%TF.FileFunction,Legend,Bot*%
%TF.FilePolarity,Positive*%
%FSLAX46Y46*%
G04 Gerber Fmt 4.6, Leading zero omitted, Abs format (unit mm)*
G04 Created by KiCad (PCBNEW (7.0.0)) date 2023-06-29 20:35:03*
%MOMM*%
%LPD*%
G01*
G04 APERTURE LIST*
G04 Aperture macros list*
%AMRoundRect*
0 Rectangle with rounded corners*
0 $1 Rounding radius*
0 $2 $3 $4 $5 $6 $7 $8 $9 X,Y pos of 4 corners*
0 Add a 4 corners polygon primitive as box body*
4,1,4,$2,$3,$4,$5,$6,$7,$8,$9,$2,$3,0*
0 Add four circle primitives for the rounded corners*
1,1,$1+$1,$2,$3*
1,1,$1+$1,$4,$5*
1,1,$1+$1,$6,$7*
1,1,$1+$1,$8,$9*
0 Add four rect primitives between the rounded corners*
20,1,$1+$1,$2,$3,$4,$5,0*
20,1,$1+$1,$4,$5,$6,$7,0*
20,1,$1+$1,$6,$7,$8,$9,0*
20,1,$1+$1,$8,$9,$2,$3,0*%
G04 Aperture macros list end*
%ADD10C,0.150000*%
%ADD11C,0.120000*%
%ADD12RoundRect,0.375000X-0.375000X0.375000X-0.375000X-0.375000X0.375000X-0.375000X0.375000X0.375000X0*%
%ADD13C,1.500000*%
G04 APERTURE END LIST*
D10*
%TO.C,SW12*%
X224651369Y-67161905D02*
X224603750Y-67209524D01*
X224603750Y-67209524D02*
X224556130Y-67304762D01*
X224556130Y-67304762D02*
X224556130Y-67542857D01*
X224556130Y-67542857D02*
X224603750Y-67638095D01*
X224603750Y-67638095D02*
X224651369Y-67685714D01*
X224651369Y-67685714D02*
X224746607Y-67733333D01*
X224746607Y-67733333D02*
X224841845Y-67733333D01*
X224841845Y-67733333D02*
X224984702Y-67685714D01*
X224984702Y-67685714D02*
X225556130Y-67114286D01*
X225556130Y-67114286D02*
X225556130Y-67733333D01*
X224889464Y-68590476D02*
X225556130Y-68590476D01*
X224889464Y-68161905D02*
X225413273Y-68161905D01*
X225413273Y-68161905D02*
X225508511Y-68209524D01*
X225508511Y-68209524D02*
X225556130Y-68304762D01*
X225556130Y-68304762D02*
X225556130Y-68447619D01*
X225556130Y-68447619D02*
X225508511Y-68542857D01*
X225508511Y-68542857D02*
X225460892Y-68590476D01*
%TO.C,2u*%
X174206844Y-118982619D02*
X174159225Y-118935000D01*
X174159225Y-118935000D02*
X174063987Y-118887380D01*
X174063987Y-118887380D02*
X173825892Y-118887380D01*
X173825892Y-118887380D02*
X173730654Y-118935000D01*
X173730654Y-118935000D02*
X173683035Y-118982619D01*
X173683035Y-118982619D02*
X173635416Y-119077857D01*
X173635416Y-119077857D02*
X173635416Y-119173095D01*
X173635416Y-119173095D02*
X173683035Y-119315952D01*
X173683035Y-119315952D02*
X174254463Y-119887380D01*
X174254463Y-119887380D02*
X173635416Y-119887380D01*
X172778273Y-119220714D02*
X172778273Y-119887380D01*
X173206844Y-119220714D02*
X173206844Y-119744523D01*
X173206844Y-119744523D02*
X173159225Y-119839761D01*
X173159225Y-119839761D02*
X173063987Y-119887380D01*
X173063987Y-119887380D02*
X172921130Y-119887380D01*
X172921130Y-119887380D02*
X172825892Y-119839761D01*
X172825892Y-119839761D02*
X172778273Y-119792142D01*
%TO.C,SW19*%
X224551369Y-105261905D02*
X224503750Y-105309524D01*
X224503750Y-105309524D02*
X224456130Y-105404762D01*
X224456130Y-105404762D02*
X224456130Y-105642857D01*
X224456130Y-105642857D02*
X224503750Y-105738095D01*
X224503750Y-105738095D02*
X224551369Y-105785714D01*
X224551369Y-105785714D02*
X224646607Y-105833333D01*
X224646607Y-105833333D02*
X224741845Y-105833333D01*
X224741845Y-105833333D02*
X224884702Y-105785714D01*
X224884702Y-105785714D02*
X225456130Y-105214286D01*
X225456130Y-105214286D02*
X225456130Y-105833333D01*
X224789464Y-106690476D02*
X225456130Y-106690476D01*
X224789464Y-106261905D02*
X225313273Y-106261905D01*
X225313273Y-106261905D02*
X225408511Y-106309524D01*
X225408511Y-106309524D02*
X225456130Y-106404762D01*
X225456130Y-106404762D02*
X225456130Y-106547619D01*
X225456130Y-106547619D02*
X225408511Y-106642857D01*
X225408511Y-106642857D02*
X225360892Y-106690476D01*
D11*
%TO.C,D6*%
X196843450Y-83926300D02*
X195731450Y-83926300D01*
X195477450Y-83672300D02*
X195477450Y-82896300D01*
X197097450Y-83672300D02*
X197097450Y-82896300D01*
X195477450Y-83672300D02*
G75*
G03*
X195731450Y-83926300I254000J0D01*
G01*
X196843450Y-83926300D02*
G75*
G03*
X197097450Y-83672300I0J254000D01*
G01*
%TO.C,D13*%
X218319750Y-122102000D02*
X217207750Y-122102000D01*
X216953750Y-121848000D02*
X216953750Y-121072000D01*
X218573750Y-121848000D02*
X218573750Y-121072000D01*
X216953750Y-121848000D02*
G75*
G03*
X217207750Y-122102000I254000J0D01*
G01*
X218319750Y-122102000D02*
G75*
G03*
X218573750Y-121848000I0J254000D01*
G01*
%TO.C,D8*%
X158769750Y-83926300D02*
X157657750Y-83926300D01*
X157403750Y-83672300D02*
X157403750Y-82896300D01*
X159023750Y-83672300D02*
X159023750Y-82896300D01*
X157403750Y-83672300D02*
G75*
G03*
X157657750Y-83926300I254000J0D01*
G01*
X158769750Y-83926300D02*
G75*
G03*
X159023750Y-83672300I0J254000D01*
G01*
%TO.C,D4*%
X158769750Y-65000000D02*
X157657750Y-65000000D01*
X157403750Y-64746000D02*
X157403750Y-63970000D01*
X159023750Y-64746000D02*
X159023750Y-63970000D01*
X157403750Y-64746000D02*
G75*
G03*
X157657750Y-65000000I254000J0D01*
G01*
X158769750Y-65000000D02*
G75*
G03*
X159023750Y-64746000I0J254000D01*
G01*
%TO.C,D14*%
X196843450Y-122102000D02*
X195731450Y-122102000D01*
X195477450Y-121848000D02*
X195477450Y-121072000D01*
X197097450Y-121848000D02*
X197097450Y-121072000D01*
X195477450Y-121848000D02*
G75*
G03*
X195731450Y-122102000I254000J0D01*
G01*
X196843450Y-122102000D02*
G75*
G03*
X197097450Y-121848000I0J254000D01*
G01*
%TO.C,D15*%
X177819750Y-122102000D02*
X176707750Y-122102000D01*
X176453750Y-121848000D02*
X176453750Y-121072000D01*
X178073750Y-121848000D02*
X178073750Y-121072000D01*
X176453750Y-121848000D02*
G75*
G03*
X176707750Y-122102000I254000J0D01*
G01*
X177819750Y-122102000D02*
G75*
G03*
X178073750Y-121848000I0J254000D01*
G01*
%TO.C,D2*%
X196843450Y-65000000D02*
X195731450Y-65000000D01*
X195477450Y-64746000D02*
X195477450Y-63970000D01*
X197097450Y-64746000D02*
X197097450Y-63970000D01*
X195477450Y-64746000D02*
G75*
G03*
X195731450Y-65000000I254000J0D01*
G01*
X196843450Y-65000000D02*
G75*
G03*
X197097450Y-64746000I0J254000D01*
G01*
%TO.C,D11*%
X177819750Y-103093000D02*
X176707750Y-103093000D01*
X176453750Y-102839000D02*
X176453750Y-102063000D01*
X178073750Y-102839000D02*
X178073750Y-102063000D01*
X176453750Y-102839000D02*
G75*
G03*
X176707750Y-103093000I254000J0D01*
G01*
X177819750Y-103093000D02*
G75*
G03*
X178073750Y-102839000I0J254000D01*
G01*
%TO.C,D9*%
X215936400Y-103093000D02*
X214824400Y-103093000D01*
X214570400Y-102839000D02*
X214570400Y-102063000D01*
X216190400Y-102839000D02*
X216190400Y-102063000D01*
X214570400Y-102839000D02*
G75*
G03*
X214824400Y-103093000I254000J0D01*
G01*
X215936400Y-103093000D02*
G75*
G03*
X216190400Y-102839000I0J254000D01*
G01*
%TO.C,D7*%
X177819750Y-83926300D02*
X176707750Y-83926300D01*
X176453750Y-83672300D02*
X176453750Y-82896300D01*
X178073750Y-83672300D02*
X178073750Y-82896300D01*
X176453750Y-83672300D02*
G75*
G03*
X176707750Y-83926300I254000J0D01*
G01*
X177819750Y-83926300D02*
G75*
G03*
X178073750Y-83672300I0J254000D01*
G01*
%TO.C,D3*%
X177819750Y-65000000D02*
X176707750Y-65000000D01*
X176453750Y-64746000D02*
X176453750Y-63970000D01*
X178073750Y-64746000D02*
X178073750Y-63970000D01*
X176453750Y-64746000D02*
G75*
G03*
X176707750Y-65000000I254000J0D01*
G01*
X177819750Y-65000000D02*
G75*
G03*
X178073750Y-64746000I0J254000D01*
G01*
%TO.C,D10*%
X196843450Y-103093000D02*
X195731450Y-103093000D01*
X195477450Y-102839000D02*
X195477450Y-102063000D01*
X197097450Y-102839000D02*
X197097450Y-102063000D01*
X195477450Y-102839000D02*
G75*
G03*
X195731450Y-103093000I254000J0D01*
G01*
X196843450Y-103093000D02*
G75*
G03*
X197097450Y-102839000I0J254000D01*
G01*
%TO.C,D16*%
X158769750Y-122102000D02*
X157657750Y-122102000D01*
X157403750Y-121848000D02*
X157403750Y-121072000D01*
X159023750Y-121848000D02*
X159023750Y-121072000D01*
X157403750Y-121848000D02*
G75*
G03*
X157657750Y-122102000I254000J0D01*
G01*
X158769750Y-122102000D02*
G75*
G03*
X159023750Y-121848000I0J254000D01*
G01*
%TO.C,D12*%
X158769750Y-103093000D02*
X157657750Y-103093000D01*
X157403750Y-102839000D02*
X157403750Y-102063000D01*
X159023750Y-102839000D02*
X159023750Y-102063000D01*
X157403750Y-102839000D02*
G75*
G03*
X157657750Y-103093000I254000J0D01*
G01*
X158769750Y-103093000D02*
G75*
G03*
X159023750Y-102839000I0J254000D01*
G01*
%TO.C,D1*%
X215973450Y-65000000D02*
X214861450Y-65000000D01*
X214607450Y-64746000D02*
X214607450Y-63970000D01*
X216227450Y-64746000D02*
X216227450Y-63970000D01*
X214607450Y-64746000D02*
G75*
G03*
X214861450Y-65000000I254000J0D01*
G01*
X215973450Y-65000000D02*
G75*
G03*
X216227450Y-64746000I0J254000D01*
G01*
%TO.C,D5*%
X218319750Y-83926300D02*
X217207750Y-83926300D01*
X216953750Y-83672300D02*
X216953750Y-82896300D01*
X218573750Y-83672300D02*
X218573750Y-82896300D01*
X216953750Y-83672300D02*
G75*
G03*
X217207750Y-83926300I254000J0D01*
G01*
X218319750Y-83926300D02*
G75*
G03*
X218573750Y-83672300I0J254000D01*
G01*
%TD*%
D12*
%TO.C,J1*%
X135731250Y-77787500D03*
%TD*%
D13*
%TO.C,J2*%
X135731250Y-75406250D03*
%TD*%
M02*
