%TF.GenerationSoftware,KiCad,Pcbnew,(7.0.0)*%
%TF.CreationDate,2023-06-29T20:35:01+03:00*%
%TF.ProjectId,kapeebar-a,6b617065-6562-4617-922d-612e6b696361,rev?*%
%TF.SameCoordinates,Original*%
%TF.FileFunction,Drillmap*%
%TF.FilePolarity,Positive*%
%FSLAX45Y45*%
G04 Gerber Fmt 4.5, Leading zero omitted, Abs format (unit mm)*
G04 Created by KiCad (PCBNEW (7.0.0)) date 2023-06-29 20:35:01*
%MOMM*%
%LPD*%
G01*
G04 APERTURE LIST*
%ADD10C,0.100000*%
%ADD11C,0.200000*%
%ADD12C,0.070000*%
%ADD13C,0.150000*%
%ADD14C,0.170180*%
%ADD15C,0.304800*%
%ADD16C,0.398780*%
G04 APERTURE END LIST*
D10*
X22903120Y-12505000D02*
X13457495Y-12505000D01*
X22903125Y-12505005D02*
G75*
G03*
X23061875Y-12346250I-5J158755D01*
G01*
X13457495Y-4884995D02*
G75*
G03*
X13298745Y-5043750I5J-158755D01*
G01*
X23061870Y-5043750D02*
G75*
G03*
X22903125Y-4885000I-158750J0D01*
G01*
X13457495Y-4885000D02*
X22903125Y-4885000D01*
X23061875Y-12346250D02*
X23061875Y-5043750D01*
X13298750Y-12346250D02*
G75*
G03*
X13457495Y-12505000I158750J0D01*
G01*
X13298745Y-12346250D02*
X13298745Y-5043750D01*
D11*
D12*
X13435000Y-8814375D02*
X13505000Y-8884375D01*
X13505000Y-8814375D02*
X13435000Y-8884375D01*
X13440000Y-8514375D02*
X13510000Y-8584375D01*
X13510000Y-8514375D02*
X13440000Y-8584375D01*
D13*
X13954375Y-11552500D02*
G75*
G03*
X13954375Y-11552500I-75000J0D01*
G01*
D11*
X13804375Y-11487500D02*
X13804375Y-11617500D01*
X13804375Y-11617500D02*
G75*
G03*
X13954375Y-11617500I75000J0D01*
G01*
X13954375Y-11617500D02*
X13954375Y-11487500D01*
X13954375Y-11487500D02*
G75*
G03*
X13804375Y-11487500I-75000J0D01*
G01*
D13*
X15074375Y-11552500D02*
G75*
G03*
X15074375Y-11552500I-75000J0D01*
G01*
D11*
X14924375Y-11487500D02*
X14924375Y-11617500D01*
X14924375Y-11617500D02*
G75*
G03*
X15074375Y-11617500I75000J0D01*
G01*
X15074375Y-11617500D02*
X15074375Y-11487500D01*
X15074375Y-11487500D02*
G75*
G03*
X14924375Y-11487500I-75000J0D01*
G01*
D14*
X15886375Y-5752410D02*
X15886375Y-5922590D01*
X15801285Y-5837500D02*
X15971465Y-5837500D01*
X15886375Y-7657410D02*
X15886375Y-7827590D01*
X15801285Y-7742500D02*
X15971465Y-7742500D01*
X15886375Y-9562410D02*
X15886375Y-9732590D01*
X15801285Y-9647500D02*
X15971465Y-9647500D01*
X15886375Y-11467410D02*
X15886375Y-11637590D01*
X15801285Y-11552500D02*
X15971465Y-11552500D01*
X16838875Y-11467410D02*
X16838875Y-11637590D01*
X16753785Y-11552500D02*
X16923965Y-11552500D01*
X16902375Y-5752410D02*
X16902375Y-5922590D01*
X16817285Y-5837500D02*
X16987465Y-5837500D01*
X16902375Y-7657410D02*
X16902375Y-7827590D01*
X16817285Y-7742500D02*
X16987465Y-7742500D01*
X16902375Y-9562410D02*
X16902375Y-9732590D01*
X16817285Y-9647500D02*
X16987465Y-9647500D01*
X16902375Y-11467410D02*
X16902375Y-11637590D01*
X16817285Y-11552500D02*
X16987465Y-11552500D01*
X17791375Y-5752410D02*
X17791375Y-5922590D01*
X17706285Y-5837500D02*
X17876465Y-5837500D01*
X17791375Y-7657410D02*
X17791375Y-7827590D01*
X17706285Y-7742500D02*
X17876465Y-7742500D01*
X17791375Y-9562410D02*
X17791375Y-9732590D01*
X17706285Y-9647500D02*
X17876465Y-9647500D01*
X17791375Y-11467410D02*
X17791375Y-11637590D01*
X17706285Y-11552500D02*
X17876465Y-11552500D01*
X17854875Y-11467410D02*
X17854875Y-11637590D01*
X17769785Y-11552500D02*
X17939965Y-11552500D01*
X18807375Y-5752410D02*
X18807375Y-5922590D01*
X18722285Y-5837500D02*
X18892465Y-5837500D01*
X18807375Y-7657410D02*
X18807375Y-7827590D01*
X18722285Y-7742500D02*
X18892465Y-7742500D01*
X18807375Y-9562410D02*
X18807375Y-9732590D01*
X18722285Y-9647500D02*
X18892465Y-9647500D01*
X18807375Y-11467410D02*
X18807375Y-11637590D01*
X18722285Y-11552500D02*
X18892465Y-11552500D01*
X19697150Y-5752410D02*
X19697150Y-5922590D01*
X19612060Y-5837500D02*
X19782240Y-5837500D01*
X19697150Y-7657410D02*
X19697150Y-7827590D01*
X19612060Y-7742500D02*
X19782240Y-7742500D01*
X19697150Y-9562410D02*
X19697150Y-9732590D01*
X19612060Y-9647500D02*
X19782240Y-9647500D01*
X19697150Y-11467410D02*
X19697150Y-11637590D01*
X19612060Y-11552500D02*
X19782240Y-11552500D01*
X20713150Y-5752410D02*
X20713150Y-5922590D01*
X20628060Y-5837500D02*
X20798240Y-5837500D01*
X20713150Y-7657410D02*
X20713150Y-7827590D01*
X20628060Y-7742500D02*
X20798240Y-7742500D01*
X20713150Y-9562410D02*
X20713150Y-9732590D01*
X20628060Y-9647500D02*
X20798240Y-9647500D01*
X20713150Y-11467410D02*
X20713150Y-11637590D01*
X20628060Y-11552500D02*
X20798240Y-11552500D01*
X21601375Y-5752410D02*
X21601375Y-5922590D01*
X21516285Y-5837500D02*
X21686465Y-5837500D01*
X21601375Y-7657410D02*
X21601375Y-7827590D01*
X21516285Y-7742500D02*
X21686465Y-7742500D01*
X21601375Y-9562410D02*
X21601375Y-9732590D01*
X21516285Y-9647500D02*
X21686465Y-9647500D01*
X21601375Y-11467410D02*
X21601375Y-11637590D01*
X21516285Y-11552500D02*
X21686465Y-11552500D01*
X22109375Y-6196910D02*
X22109375Y-6367090D01*
X22024285Y-6282000D02*
X22194465Y-6282000D01*
X22109375Y-7212910D02*
X22109375Y-7383090D01*
X22024285Y-7298000D02*
X22194465Y-7298000D01*
X22109375Y-10006910D02*
X22109375Y-10177090D01*
X22024285Y-10092000D02*
X22194465Y-10092000D01*
X22109375Y-11022910D02*
X22109375Y-11193090D01*
X22024285Y-11108000D02*
X22194465Y-11108000D01*
X22617375Y-5752410D02*
X22617375Y-5922590D01*
X22532285Y-5837500D02*
X22702465Y-5837500D01*
X22617375Y-7657410D02*
X22617375Y-7827590D01*
X22532285Y-7742500D02*
X22702465Y-7742500D01*
X22617375Y-9562410D02*
X22617375Y-9732590D01*
X22532285Y-9647500D02*
X22702465Y-9647500D01*
X22617375Y-11467410D02*
X22617375Y-11637590D01*
X22532285Y-11552500D02*
X22702465Y-11552500D01*
D15*
X16264639Y-12358764D02*
X16264639Y-12143236D01*
X16049111Y-12143236D01*
X16049111Y-12358764D01*
X16264639Y-12358764D01*
X18644639Y-12358764D02*
X18644639Y-12143236D01*
X18429111Y-12143236D01*
X18429111Y-12358764D01*
X18644639Y-12358764D01*
X22915639Y-5707764D02*
X22915639Y-5492236D01*
X22700111Y-5492236D01*
X22700111Y-5707764D01*
X22915639Y-5707764D01*
X22915639Y-8087764D02*
X22915639Y-7872236D01*
X22700111Y-7872236D01*
X22700111Y-8087764D01*
X22915639Y-8087764D01*
X22915639Y-9517764D02*
X22915639Y-9302236D01*
X22700111Y-9302236D01*
X22700111Y-9517764D01*
X22915639Y-9517764D01*
X22915639Y-11897764D02*
X22915639Y-11682236D01*
X22700111Y-11682236D01*
X22700111Y-11897764D01*
X22915639Y-11897764D01*
D16*
X16156875Y-10926390D02*
X16356265Y-10727000D01*
X16156875Y-10527610D01*
X15957485Y-10727000D01*
X16156875Y-10926390D01*
X16394375Y-6036890D02*
X16593765Y-5837500D01*
X16394375Y-5638110D01*
X16194985Y-5837500D01*
X16394375Y-6036890D01*
X16394375Y-7941890D02*
X16593765Y-7742500D01*
X16394375Y-7543110D01*
X16194985Y-7742500D01*
X16394375Y-7941890D01*
X16394375Y-9846890D02*
X16593765Y-9647500D01*
X16394375Y-9448110D01*
X16194985Y-9647500D01*
X16394375Y-9846890D01*
X16394375Y-11751890D02*
X16593765Y-11552500D01*
X16394375Y-11353110D01*
X16194985Y-11552500D01*
X16394375Y-11751890D01*
X17346875Y-11751890D02*
X17546265Y-11552500D01*
X17346875Y-11353110D01*
X17147485Y-11552500D01*
X17346875Y-11751890D01*
X18299375Y-6036890D02*
X18498765Y-5837500D01*
X18299375Y-5638110D01*
X18099985Y-5837500D01*
X18299375Y-6036890D01*
X18299375Y-7941890D02*
X18498765Y-7742500D01*
X18299375Y-7543110D01*
X18099985Y-7742500D01*
X18299375Y-7941890D01*
X18299375Y-9846890D02*
X18498765Y-9647500D01*
X18299375Y-9448110D01*
X18099985Y-9647500D01*
X18299375Y-9846890D01*
X18299375Y-11751890D02*
X18498765Y-11552500D01*
X18299375Y-11353110D01*
X18099985Y-11552500D01*
X18299375Y-11751890D01*
X18536875Y-10926390D02*
X18736265Y-10727000D01*
X18536875Y-10527610D01*
X18337485Y-10727000D01*
X18536875Y-10926390D01*
X20205150Y-6036890D02*
X20404540Y-5837500D01*
X20205150Y-5638110D01*
X20005760Y-5837500D01*
X20205150Y-6036890D01*
X20205150Y-7941890D02*
X20404540Y-7742500D01*
X20205150Y-7543110D01*
X20005760Y-7742500D01*
X20205150Y-7941890D01*
X20205150Y-9846890D02*
X20404540Y-9647500D01*
X20205150Y-9448110D01*
X20005760Y-9647500D01*
X20205150Y-9846890D01*
X20205150Y-11751890D02*
X20404540Y-11552500D01*
X20205150Y-11353110D01*
X20005760Y-11552500D01*
X20205150Y-11751890D01*
X21283875Y-5799390D02*
X21483265Y-5600000D01*
X21283875Y-5400610D01*
X21084485Y-5600000D01*
X21283875Y-5799390D01*
X21283875Y-8179390D02*
X21483265Y-7980000D01*
X21283875Y-7780610D01*
X21084485Y-7980000D01*
X21283875Y-8179390D01*
X21283875Y-9609390D02*
X21483265Y-9410000D01*
X21283875Y-9210610D01*
X21084485Y-9410000D01*
X21283875Y-9609390D01*
X21283875Y-11989390D02*
X21483265Y-11790000D01*
X21283875Y-11590610D01*
X21084485Y-11790000D01*
X21283875Y-11989390D01*
X22109375Y-6036890D02*
X22308765Y-5837500D01*
X22109375Y-5638110D01*
X21909985Y-5837500D01*
X22109375Y-6036890D01*
X22109375Y-6989390D02*
X22308765Y-6790000D01*
X22109375Y-6590610D01*
X21909985Y-6790000D01*
X22109375Y-6989390D01*
X22109375Y-7941890D02*
X22308765Y-7742500D01*
X22109375Y-7543110D01*
X21909985Y-7742500D01*
X22109375Y-7941890D01*
X22109375Y-9846890D02*
X22308765Y-9647500D01*
X22109375Y-9448110D01*
X21909985Y-9647500D01*
X22109375Y-9846890D01*
X22109375Y-10799390D02*
X22308765Y-10600000D01*
X22109375Y-10400610D01*
X21909985Y-10600000D01*
X22109375Y-10799390D01*
X22109375Y-11751890D02*
X22308765Y-11552500D01*
X22109375Y-11353110D01*
X21909985Y-11552500D01*
X22109375Y-11751890D01*
D11*
X13541364Y-12803476D02*
X13541364Y-12603476D01*
X13541364Y-12603476D02*
X13588983Y-12603476D01*
X13588983Y-12603476D02*
X13617554Y-12613000D01*
X13617554Y-12613000D02*
X13636602Y-12632048D01*
X13636602Y-12632048D02*
X13646126Y-12651095D01*
X13646126Y-12651095D02*
X13655650Y-12689190D01*
X13655650Y-12689190D02*
X13655650Y-12717762D01*
X13655650Y-12717762D02*
X13646126Y-12755857D01*
X13646126Y-12755857D02*
X13636602Y-12774905D01*
X13636602Y-12774905D02*
X13617554Y-12793952D01*
X13617554Y-12793952D02*
X13588983Y-12803476D01*
X13588983Y-12803476D02*
X13541364Y-12803476D01*
X13741364Y-12803476D02*
X13741364Y-12670143D01*
X13741364Y-12708238D02*
X13750888Y-12689190D01*
X13750888Y-12689190D02*
X13760412Y-12679667D01*
X13760412Y-12679667D02*
X13779459Y-12670143D01*
X13779459Y-12670143D02*
X13798507Y-12670143D01*
X13865173Y-12803476D02*
X13865173Y-12670143D01*
X13865173Y-12603476D02*
X13855650Y-12613000D01*
X13855650Y-12613000D02*
X13865173Y-12622524D01*
X13865173Y-12622524D02*
X13874697Y-12613000D01*
X13874697Y-12613000D02*
X13865173Y-12603476D01*
X13865173Y-12603476D02*
X13865173Y-12622524D01*
X13988983Y-12803476D02*
X13969935Y-12793952D01*
X13969935Y-12793952D02*
X13960412Y-12774905D01*
X13960412Y-12774905D02*
X13960412Y-12603476D01*
X14093745Y-12803476D02*
X14074697Y-12793952D01*
X14074697Y-12793952D02*
X14065173Y-12774905D01*
X14065173Y-12774905D02*
X14065173Y-12603476D01*
X14289935Y-12803476D02*
X14289935Y-12603476D01*
X14289935Y-12603476D02*
X14356602Y-12746333D01*
X14356602Y-12746333D02*
X14423269Y-12603476D01*
X14423269Y-12603476D02*
X14423269Y-12803476D01*
X14604221Y-12803476D02*
X14604221Y-12698714D01*
X14604221Y-12698714D02*
X14594697Y-12679667D01*
X14594697Y-12679667D02*
X14575650Y-12670143D01*
X14575650Y-12670143D02*
X14537554Y-12670143D01*
X14537554Y-12670143D02*
X14518507Y-12679667D01*
X14604221Y-12793952D02*
X14585173Y-12803476D01*
X14585173Y-12803476D02*
X14537554Y-12803476D01*
X14537554Y-12803476D02*
X14518507Y-12793952D01*
X14518507Y-12793952D02*
X14508983Y-12774905D01*
X14508983Y-12774905D02*
X14508983Y-12755857D01*
X14508983Y-12755857D02*
X14518507Y-12736809D01*
X14518507Y-12736809D02*
X14537554Y-12727286D01*
X14537554Y-12727286D02*
X14585173Y-12727286D01*
X14585173Y-12727286D02*
X14604221Y-12717762D01*
X14699459Y-12670143D02*
X14699459Y-12870143D01*
X14699459Y-12679667D02*
X14718507Y-12670143D01*
X14718507Y-12670143D02*
X14756602Y-12670143D01*
X14756602Y-12670143D02*
X14775650Y-12679667D01*
X14775650Y-12679667D02*
X14785173Y-12689190D01*
X14785173Y-12689190D02*
X14794697Y-12708238D01*
X14794697Y-12708238D02*
X14794697Y-12765381D01*
X14794697Y-12765381D02*
X14785173Y-12784428D01*
X14785173Y-12784428D02*
X14775650Y-12793952D01*
X14775650Y-12793952D02*
X14756602Y-12803476D01*
X14756602Y-12803476D02*
X14718507Y-12803476D01*
X14718507Y-12803476D02*
X14699459Y-12793952D01*
X14880412Y-12784428D02*
X14889935Y-12793952D01*
X14889935Y-12793952D02*
X14880412Y-12803476D01*
X14880412Y-12803476D02*
X14870888Y-12793952D01*
X14870888Y-12793952D02*
X14880412Y-12784428D01*
X14880412Y-12784428D02*
X14880412Y-12803476D01*
X14880412Y-12679667D02*
X14889935Y-12689190D01*
X14889935Y-12689190D02*
X14880412Y-12698714D01*
X14880412Y-12698714D02*
X14870888Y-12689190D01*
X14870888Y-12689190D02*
X14880412Y-12679667D01*
X14880412Y-12679667D02*
X14880412Y-12698714D01*
D12*
X13223745Y-13115000D02*
X13293745Y-13185000D01*
X13293745Y-13115000D02*
X13223745Y-13185000D01*
D11*
X13579459Y-13023476D02*
X13598507Y-13023476D01*
X13598507Y-13023476D02*
X13617554Y-13033000D01*
X13617554Y-13033000D02*
X13627078Y-13042524D01*
X13627078Y-13042524D02*
X13636602Y-13061571D01*
X13636602Y-13061571D02*
X13646126Y-13099667D01*
X13646126Y-13099667D02*
X13646126Y-13147286D01*
X13646126Y-13147286D02*
X13636602Y-13185381D01*
X13636602Y-13185381D02*
X13627078Y-13204428D01*
X13627078Y-13204428D02*
X13617554Y-13213952D01*
X13617554Y-13213952D02*
X13598507Y-13223476D01*
X13598507Y-13223476D02*
X13579459Y-13223476D01*
X13579459Y-13223476D02*
X13560412Y-13213952D01*
X13560412Y-13213952D02*
X13550888Y-13204428D01*
X13550888Y-13204428D02*
X13541364Y-13185381D01*
X13541364Y-13185381D02*
X13531840Y-13147286D01*
X13531840Y-13147286D02*
X13531840Y-13099667D01*
X13531840Y-13099667D02*
X13541364Y-13061571D01*
X13541364Y-13061571D02*
X13550888Y-13042524D01*
X13550888Y-13042524D02*
X13560412Y-13033000D01*
X13560412Y-13033000D02*
X13579459Y-13023476D01*
X13731840Y-13204428D02*
X13741364Y-13213952D01*
X13741364Y-13213952D02*
X13731840Y-13223476D01*
X13731840Y-13223476D02*
X13722316Y-13213952D01*
X13722316Y-13213952D02*
X13731840Y-13204428D01*
X13731840Y-13204428D02*
X13731840Y-13223476D01*
X13808031Y-13023476D02*
X13941364Y-13023476D01*
X13941364Y-13023476D02*
X13855650Y-13223476D01*
X14055650Y-13023476D02*
X14074697Y-13023476D01*
X14074697Y-13023476D02*
X14093745Y-13033000D01*
X14093745Y-13033000D02*
X14103269Y-13042524D01*
X14103269Y-13042524D02*
X14112793Y-13061571D01*
X14112793Y-13061571D02*
X14122316Y-13099667D01*
X14122316Y-13099667D02*
X14122316Y-13147286D01*
X14122316Y-13147286D02*
X14112793Y-13185381D01*
X14112793Y-13185381D02*
X14103269Y-13204428D01*
X14103269Y-13204428D02*
X14093745Y-13213952D01*
X14093745Y-13213952D02*
X14074697Y-13223476D01*
X14074697Y-13223476D02*
X14055650Y-13223476D01*
X14055650Y-13223476D02*
X14036602Y-13213952D01*
X14036602Y-13213952D02*
X14027078Y-13204428D01*
X14027078Y-13204428D02*
X14017554Y-13185381D01*
X14017554Y-13185381D02*
X14008031Y-13147286D01*
X14008031Y-13147286D02*
X14008031Y-13099667D01*
X14008031Y-13099667D02*
X14017554Y-13061571D01*
X14017554Y-13061571D02*
X14027078Y-13042524D01*
X14027078Y-13042524D02*
X14036602Y-13033000D01*
X14036602Y-13033000D02*
X14055650Y-13023476D01*
X14246126Y-13023476D02*
X14265174Y-13023476D01*
X14265174Y-13023476D02*
X14284221Y-13033000D01*
X14284221Y-13033000D02*
X14293745Y-13042524D01*
X14293745Y-13042524D02*
X14303269Y-13061571D01*
X14303269Y-13061571D02*
X14312793Y-13099667D01*
X14312793Y-13099667D02*
X14312793Y-13147286D01*
X14312793Y-13147286D02*
X14303269Y-13185381D01*
X14303269Y-13185381D02*
X14293745Y-13204428D01*
X14293745Y-13204428D02*
X14284221Y-13213952D01*
X14284221Y-13213952D02*
X14265174Y-13223476D01*
X14265174Y-13223476D02*
X14246126Y-13223476D01*
X14246126Y-13223476D02*
X14227078Y-13213952D01*
X14227078Y-13213952D02*
X14217554Y-13204428D01*
X14217554Y-13204428D02*
X14208031Y-13185381D01*
X14208031Y-13185381D02*
X14198507Y-13147286D01*
X14198507Y-13147286D02*
X14198507Y-13099667D01*
X14198507Y-13099667D02*
X14208031Y-13061571D01*
X14208031Y-13061571D02*
X14217554Y-13042524D01*
X14217554Y-13042524D02*
X14227078Y-13033000D01*
X14227078Y-13033000D02*
X14246126Y-13023476D01*
X14398507Y-13223476D02*
X14398507Y-13090143D01*
X14398507Y-13109190D02*
X14408031Y-13099667D01*
X14408031Y-13099667D02*
X14427078Y-13090143D01*
X14427078Y-13090143D02*
X14455650Y-13090143D01*
X14455650Y-13090143D02*
X14474697Y-13099667D01*
X14474697Y-13099667D02*
X14484221Y-13118714D01*
X14484221Y-13118714D02*
X14484221Y-13223476D01*
X14484221Y-13118714D02*
X14493745Y-13099667D01*
X14493745Y-13099667D02*
X14512793Y-13090143D01*
X14512793Y-13090143D02*
X14541364Y-13090143D01*
X14541364Y-13090143D02*
X14560412Y-13099667D01*
X14560412Y-13099667D02*
X14569935Y-13118714D01*
X14569935Y-13118714D02*
X14569935Y-13223476D01*
X14665174Y-13223476D02*
X14665174Y-13090143D01*
X14665174Y-13109190D02*
X14674697Y-13099667D01*
X14674697Y-13099667D02*
X14693745Y-13090143D01*
X14693745Y-13090143D02*
X14722316Y-13090143D01*
X14722316Y-13090143D02*
X14741364Y-13099667D01*
X14741364Y-13099667D02*
X14750888Y-13118714D01*
X14750888Y-13118714D02*
X14750888Y-13223476D01*
X14750888Y-13118714D02*
X14760412Y-13099667D01*
X14760412Y-13099667D02*
X14779459Y-13090143D01*
X14779459Y-13090143D02*
X14808031Y-13090143D01*
X14808031Y-13090143D02*
X14827078Y-13099667D01*
X14827078Y-13099667D02*
X14836602Y-13118714D01*
X14836602Y-13118714D02*
X14836602Y-13223476D01*
X15194697Y-13013952D02*
X15023269Y-13271095D01*
X15419459Y-13023476D02*
X15438507Y-13023476D01*
X15438507Y-13023476D02*
X15457555Y-13033000D01*
X15457555Y-13033000D02*
X15467078Y-13042524D01*
X15467078Y-13042524D02*
X15476602Y-13061571D01*
X15476602Y-13061571D02*
X15486126Y-13099667D01*
X15486126Y-13099667D02*
X15486126Y-13147286D01*
X15486126Y-13147286D02*
X15476602Y-13185381D01*
X15476602Y-13185381D02*
X15467078Y-13204428D01*
X15467078Y-13204428D02*
X15457555Y-13213952D01*
X15457555Y-13213952D02*
X15438507Y-13223476D01*
X15438507Y-13223476D02*
X15419459Y-13223476D01*
X15419459Y-13223476D02*
X15400412Y-13213952D01*
X15400412Y-13213952D02*
X15390888Y-13204428D01*
X15390888Y-13204428D02*
X15381364Y-13185381D01*
X15381364Y-13185381D02*
X15371840Y-13147286D01*
X15371840Y-13147286D02*
X15371840Y-13099667D01*
X15371840Y-13099667D02*
X15381364Y-13061571D01*
X15381364Y-13061571D02*
X15390888Y-13042524D01*
X15390888Y-13042524D02*
X15400412Y-13033000D01*
X15400412Y-13033000D02*
X15419459Y-13023476D01*
X15571840Y-13204428D02*
X15581364Y-13213952D01*
X15581364Y-13213952D02*
X15571840Y-13223476D01*
X15571840Y-13223476D02*
X15562316Y-13213952D01*
X15562316Y-13213952D02*
X15571840Y-13204428D01*
X15571840Y-13204428D02*
X15571840Y-13223476D01*
X15705174Y-13023476D02*
X15724221Y-13023476D01*
X15724221Y-13023476D02*
X15743269Y-13033000D01*
X15743269Y-13033000D02*
X15752793Y-13042524D01*
X15752793Y-13042524D02*
X15762316Y-13061571D01*
X15762316Y-13061571D02*
X15771840Y-13099667D01*
X15771840Y-13099667D02*
X15771840Y-13147286D01*
X15771840Y-13147286D02*
X15762316Y-13185381D01*
X15762316Y-13185381D02*
X15752793Y-13204428D01*
X15752793Y-13204428D02*
X15743269Y-13213952D01*
X15743269Y-13213952D02*
X15724221Y-13223476D01*
X15724221Y-13223476D02*
X15705174Y-13223476D01*
X15705174Y-13223476D02*
X15686126Y-13213952D01*
X15686126Y-13213952D02*
X15676602Y-13204428D01*
X15676602Y-13204428D02*
X15667078Y-13185381D01*
X15667078Y-13185381D02*
X15657555Y-13147286D01*
X15657555Y-13147286D02*
X15657555Y-13099667D01*
X15657555Y-13099667D02*
X15667078Y-13061571D01*
X15667078Y-13061571D02*
X15676602Y-13042524D01*
X15676602Y-13042524D02*
X15686126Y-13033000D01*
X15686126Y-13033000D02*
X15705174Y-13023476D01*
X15848031Y-13042524D02*
X15857555Y-13033000D01*
X15857555Y-13033000D02*
X15876602Y-13023476D01*
X15876602Y-13023476D02*
X15924221Y-13023476D01*
X15924221Y-13023476D02*
X15943269Y-13033000D01*
X15943269Y-13033000D02*
X15952793Y-13042524D01*
X15952793Y-13042524D02*
X15962316Y-13061571D01*
X15962316Y-13061571D02*
X15962316Y-13080619D01*
X15962316Y-13080619D02*
X15952793Y-13109190D01*
X15952793Y-13109190D02*
X15838507Y-13223476D01*
X15838507Y-13223476D02*
X15962316Y-13223476D01*
X16028983Y-13023476D02*
X16162316Y-13023476D01*
X16162316Y-13023476D02*
X16076602Y-13223476D01*
X16324221Y-13023476D02*
X16286126Y-13023476D01*
X16286126Y-13023476D02*
X16267078Y-13033000D01*
X16267078Y-13033000D02*
X16257555Y-13042524D01*
X16257555Y-13042524D02*
X16238507Y-13071095D01*
X16238507Y-13071095D02*
X16228983Y-13109190D01*
X16228983Y-13109190D02*
X16228983Y-13185381D01*
X16228983Y-13185381D02*
X16238507Y-13204428D01*
X16238507Y-13204428D02*
X16248031Y-13213952D01*
X16248031Y-13213952D02*
X16267078Y-13223476D01*
X16267078Y-13223476D02*
X16305174Y-13223476D01*
X16305174Y-13223476D02*
X16324221Y-13213952D01*
X16324221Y-13213952D02*
X16333745Y-13204428D01*
X16333745Y-13204428D02*
X16343269Y-13185381D01*
X16343269Y-13185381D02*
X16343269Y-13137762D01*
X16343269Y-13137762D02*
X16333745Y-13118714D01*
X16333745Y-13118714D02*
X16324221Y-13109190D01*
X16324221Y-13109190D02*
X16305174Y-13099667D01*
X16305174Y-13099667D02*
X16267078Y-13099667D01*
X16267078Y-13099667D02*
X16248031Y-13109190D01*
X16248031Y-13109190D02*
X16238507Y-13118714D01*
X16238507Y-13118714D02*
X16228983Y-13137762D01*
X16419459Y-13023476D02*
X16419459Y-13061571D01*
X16495650Y-13023476D02*
X16495650Y-13061571D01*
X16758507Y-13299667D02*
X16748983Y-13290143D01*
X16748983Y-13290143D02*
X16729936Y-13261571D01*
X16729936Y-13261571D02*
X16720412Y-13242524D01*
X16720412Y-13242524D02*
X16710888Y-13213952D01*
X16710888Y-13213952D02*
X16701364Y-13166333D01*
X16701364Y-13166333D02*
X16701364Y-13128238D01*
X16701364Y-13128238D02*
X16710888Y-13080619D01*
X16710888Y-13080619D02*
X16720412Y-13052048D01*
X16720412Y-13052048D02*
X16729936Y-13033000D01*
X16729936Y-13033000D02*
X16748983Y-13004428D01*
X16748983Y-13004428D02*
X16758507Y-12994905D01*
X16825174Y-13042524D02*
X16834698Y-13033000D01*
X16834698Y-13033000D02*
X16853745Y-13023476D01*
X16853745Y-13023476D02*
X16901364Y-13023476D01*
X16901364Y-13023476D02*
X16920412Y-13033000D01*
X16920412Y-13033000D02*
X16929936Y-13042524D01*
X16929936Y-13042524D02*
X16939459Y-13061571D01*
X16939459Y-13061571D02*
X16939459Y-13080619D01*
X16939459Y-13080619D02*
X16929936Y-13109190D01*
X16929936Y-13109190D02*
X16815650Y-13223476D01*
X16815650Y-13223476D02*
X16939459Y-13223476D01*
X17145174Y-13223476D02*
X17145174Y-13023476D01*
X17230888Y-13223476D02*
X17230888Y-13118714D01*
X17230888Y-13118714D02*
X17221364Y-13099667D01*
X17221364Y-13099667D02*
X17202317Y-13090143D01*
X17202317Y-13090143D02*
X17173745Y-13090143D01*
X17173745Y-13090143D02*
X17154698Y-13099667D01*
X17154698Y-13099667D02*
X17145174Y-13109190D01*
X17354698Y-13223476D02*
X17335650Y-13213952D01*
X17335650Y-13213952D02*
X17326126Y-13204428D01*
X17326126Y-13204428D02*
X17316602Y-13185381D01*
X17316602Y-13185381D02*
X17316602Y-13128238D01*
X17316602Y-13128238D02*
X17326126Y-13109190D01*
X17326126Y-13109190D02*
X17335650Y-13099667D01*
X17335650Y-13099667D02*
X17354698Y-13090143D01*
X17354698Y-13090143D02*
X17383269Y-13090143D01*
X17383269Y-13090143D02*
X17402317Y-13099667D01*
X17402317Y-13099667D02*
X17411840Y-13109190D01*
X17411840Y-13109190D02*
X17421364Y-13128238D01*
X17421364Y-13128238D02*
X17421364Y-13185381D01*
X17421364Y-13185381D02*
X17411840Y-13204428D01*
X17411840Y-13204428D02*
X17402317Y-13213952D01*
X17402317Y-13213952D02*
X17383269Y-13223476D01*
X17383269Y-13223476D02*
X17354698Y-13223476D01*
X17535650Y-13223476D02*
X17516602Y-13213952D01*
X17516602Y-13213952D02*
X17507079Y-13194905D01*
X17507079Y-13194905D02*
X17507079Y-13023476D01*
X17688031Y-13213952D02*
X17668983Y-13223476D01*
X17668983Y-13223476D02*
X17630888Y-13223476D01*
X17630888Y-13223476D02*
X17611840Y-13213952D01*
X17611840Y-13213952D02*
X17602317Y-13194905D01*
X17602317Y-13194905D02*
X17602317Y-13118714D01*
X17602317Y-13118714D02*
X17611840Y-13099667D01*
X17611840Y-13099667D02*
X17630888Y-13090143D01*
X17630888Y-13090143D02*
X17668983Y-13090143D01*
X17668983Y-13090143D02*
X17688031Y-13099667D01*
X17688031Y-13099667D02*
X17697555Y-13118714D01*
X17697555Y-13118714D02*
X17697555Y-13137762D01*
X17697555Y-13137762D02*
X17602317Y-13156809D01*
X17773745Y-13213952D02*
X17792793Y-13223476D01*
X17792793Y-13223476D02*
X17830888Y-13223476D01*
X17830888Y-13223476D02*
X17849936Y-13213952D01*
X17849936Y-13213952D02*
X17859460Y-13194905D01*
X17859460Y-13194905D02*
X17859460Y-13185381D01*
X17859460Y-13185381D02*
X17849936Y-13166333D01*
X17849936Y-13166333D02*
X17830888Y-13156809D01*
X17830888Y-13156809D02*
X17802317Y-13156809D01*
X17802317Y-13156809D02*
X17783269Y-13147286D01*
X17783269Y-13147286D02*
X17773745Y-13128238D01*
X17773745Y-13128238D02*
X17773745Y-13118714D01*
X17773745Y-13118714D02*
X17783269Y-13099667D01*
X17783269Y-13099667D02*
X17802317Y-13090143D01*
X17802317Y-13090143D02*
X17830888Y-13090143D01*
X17830888Y-13090143D02*
X17849936Y-13099667D01*
X17926126Y-13299667D02*
X17935650Y-13290143D01*
X17935650Y-13290143D02*
X17954698Y-13261571D01*
X17954698Y-13261571D02*
X17964221Y-13242524D01*
X17964221Y-13242524D02*
X17973745Y-13213952D01*
X17973745Y-13213952D02*
X17983269Y-13166333D01*
X17983269Y-13166333D02*
X17983269Y-13128238D01*
X17983269Y-13128238D02*
X17973745Y-13080619D01*
X17973745Y-13080619D02*
X17964221Y-13052048D01*
X17964221Y-13052048D02*
X17954698Y-13033000D01*
X17954698Y-13033000D02*
X17935650Y-13004428D01*
X17935650Y-13004428D02*
X17926126Y-12994905D01*
X18255650Y-13299667D02*
X18246126Y-13290143D01*
X18246126Y-13290143D02*
X18227079Y-13261571D01*
X18227079Y-13261571D02*
X18217555Y-13242524D01*
X18217555Y-13242524D02*
X18208031Y-13213952D01*
X18208031Y-13213952D02*
X18198507Y-13166333D01*
X18198507Y-13166333D02*
X18198507Y-13128238D01*
X18198507Y-13128238D02*
X18208031Y-13080619D01*
X18208031Y-13080619D02*
X18217555Y-13052048D01*
X18217555Y-13052048D02*
X18227079Y-13033000D01*
X18227079Y-13033000D02*
X18246126Y-13004428D01*
X18246126Y-13004428D02*
X18255650Y-12994905D01*
X18331840Y-13090143D02*
X18331840Y-13223476D01*
X18331840Y-13109190D02*
X18341364Y-13099667D01*
X18341364Y-13099667D02*
X18360412Y-13090143D01*
X18360412Y-13090143D02*
X18388983Y-13090143D01*
X18388983Y-13090143D02*
X18408031Y-13099667D01*
X18408031Y-13099667D02*
X18417555Y-13118714D01*
X18417555Y-13118714D02*
X18417555Y-13223476D01*
X18541364Y-13223476D02*
X18522317Y-13213952D01*
X18522317Y-13213952D02*
X18512793Y-13204428D01*
X18512793Y-13204428D02*
X18503269Y-13185381D01*
X18503269Y-13185381D02*
X18503269Y-13128238D01*
X18503269Y-13128238D02*
X18512793Y-13109190D01*
X18512793Y-13109190D02*
X18522317Y-13099667D01*
X18522317Y-13099667D02*
X18541364Y-13090143D01*
X18541364Y-13090143D02*
X18569936Y-13090143D01*
X18569936Y-13090143D02*
X18588983Y-13099667D01*
X18588983Y-13099667D02*
X18598507Y-13109190D01*
X18598507Y-13109190D02*
X18608031Y-13128238D01*
X18608031Y-13128238D02*
X18608031Y-13185381D01*
X18608031Y-13185381D02*
X18598507Y-13204428D01*
X18598507Y-13204428D02*
X18588983Y-13213952D01*
X18588983Y-13213952D02*
X18569936Y-13223476D01*
X18569936Y-13223476D02*
X18541364Y-13223476D01*
X18665174Y-13090143D02*
X18741364Y-13090143D01*
X18693745Y-13023476D02*
X18693745Y-13194905D01*
X18693745Y-13194905D02*
X18703269Y-13213952D01*
X18703269Y-13213952D02*
X18722317Y-13223476D01*
X18722317Y-13223476D02*
X18741364Y-13223476D01*
X18928031Y-13090143D02*
X18928031Y-13290143D01*
X18928031Y-13099667D02*
X18947079Y-13090143D01*
X18947079Y-13090143D02*
X18985174Y-13090143D01*
X18985174Y-13090143D02*
X19004221Y-13099667D01*
X19004221Y-13099667D02*
X19013745Y-13109190D01*
X19013745Y-13109190D02*
X19023269Y-13128238D01*
X19023269Y-13128238D02*
X19023269Y-13185381D01*
X19023269Y-13185381D02*
X19013745Y-13204428D01*
X19013745Y-13204428D02*
X19004221Y-13213952D01*
X19004221Y-13213952D02*
X18985174Y-13223476D01*
X18985174Y-13223476D02*
X18947079Y-13223476D01*
X18947079Y-13223476D02*
X18928031Y-13213952D01*
X19137555Y-13223476D02*
X19118507Y-13213952D01*
X19118507Y-13213952D02*
X19108983Y-13194905D01*
X19108983Y-13194905D02*
X19108983Y-13023476D01*
X19299460Y-13223476D02*
X19299460Y-13118714D01*
X19299460Y-13118714D02*
X19289936Y-13099667D01*
X19289936Y-13099667D02*
X19270888Y-13090143D01*
X19270888Y-13090143D02*
X19232793Y-13090143D01*
X19232793Y-13090143D02*
X19213745Y-13099667D01*
X19299460Y-13213952D02*
X19280412Y-13223476D01*
X19280412Y-13223476D02*
X19232793Y-13223476D01*
X19232793Y-13223476D02*
X19213745Y-13213952D01*
X19213745Y-13213952D02*
X19204221Y-13194905D01*
X19204221Y-13194905D02*
X19204221Y-13175857D01*
X19204221Y-13175857D02*
X19213745Y-13156809D01*
X19213745Y-13156809D02*
X19232793Y-13147286D01*
X19232793Y-13147286D02*
X19280412Y-13147286D01*
X19280412Y-13147286D02*
X19299460Y-13137762D01*
X19366126Y-13090143D02*
X19442317Y-13090143D01*
X19394698Y-13023476D02*
X19394698Y-13194905D01*
X19394698Y-13194905D02*
X19404221Y-13213952D01*
X19404221Y-13213952D02*
X19423269Y-13223476D01*
X19423269Y-13223476D02*
X19442317Y-13223476D01*
X19585174Y-13213952D02*
X19566126Y-13223476D01*
X19566126Y-13223476D02*
X19528031Y-13223476D01*
X19528031Y-13223476D02*
X19508983Y-13213952D01*
X19508983Y-13213952D02*
X19499460Y-13194905D01*
X19499460Y-13194905D02*
X19499460Y-13118714D01*
X19499460Y-13118714D02*
X19508983Y-13099667D01*
X19508983Y-13099667D02*
X19528031Y-13090143D01*
X19528031Y-13090143D02*
X19566126Y-13090143D01*
X19566126Y-13090143D02*
X19585174Y-13099667D01*
X19585174Y-13099667D02*
X19594698Y-13118714D01*
X19594698Y-13118714D02*
X19594698Y-13137762D01*
X19594698Y-13137762D02*
X19499460Y-13156809D01*
X19766126Y-13223476D02*
X19766126Y-13023476D01*
X19766126Y-13213952D02*
X19747079Y-13223476D01*
X19747079Y-13223476D02*
X19708983Y-13223476D01*
X19708983Y-13223476D02*
X19689936Y-13213952D01*
X19689936Y-13213952D02*
X19680412Y-13204428D01*
X19680412Y-13204428D02*
X19670888Y-13185381D01*
X19670888Y-13185381D02*
X19670888Y-13128238D01*
X19670888Y-13128238D02*
X19680412Y-13109190D01*
X19680412Y-13109190D02*
X19689936Y-13099667D01*
X19689936Y-13099667D02*
X19708983Y-13090143D01*
X19708983Y-13090143D02*
X19747079Y-13090143D01*
X19747079Y-13090143D02*
X19766126Y-13099667D01*
X19842317Y-13299667D02*
X19851841Y-13290143D01*
X19851841Y-13290143D02*
X19870888Y-13261571D01*
X19870888Y-13261571D02*
X19880412Y-13242524D01*
X19880412Y-13242524D02*
X19889936Y-13213952D01*
X19889936Y-13213952D02*
X19899460Y-13166333D01*
X19899460Y-13166333D02*
X19899460Y-13128238D01*
X19899460Y-13128238D02*
X19889936Y-13080619D01*
X19889936Y-13080619D02*
X19880412Y-13052048D01*
X19880412Y-13052048D02*
X19870888Y-13033000D01*
X19870888Y-13033000D02*
X19851841Y-13004428D01*
X19851841Y-13004428D02*
X19842317Y-12994905D01*
D13*
X13293745Y-13414000D02*
G75*
G03*
X13293745Y-13414000I-75000J0D01*
G01*
D11*
X13646126Y-13487476D02*
X13531840Y-13487476D01*
X13588983Y-13487476D02*
X13588983Y-13287476D01*
X13588983Y-13287476D02*
X13569935Y-13316048D01*
X13569935Y-13316048D02*
X13550888Y-13335095D01*
X13550888Y-13335095D02*
X13531840Y-13344619D01*
X13731840Y-13468428D02*
X13741364Y-13477952D01*
X13741364Y-13477952D02*
X13731840Y-13487476D01*
X13731840Y-13487476D02*
X13722316Y-13477952D01*
X13722316Y-13477952D02*
X13731840Y-13468428D01*
X13731840Y-13468428D02*
X13731840Y-13487476D01*
X13922316Y-13287476D02*
X13827078Y-13287476D01*
X13827078Y-13287476D02*
X13817554Y-13382714D01*
X13817554Y-13382714D02*
X13827078Y-13373190D01*
X13827078Y-13373190D02*
X13846126Y-13363667D01*
X13846126Y-13363667D02*
X13893745Y-13363667D01*
X13893745Y-13363667D02*
X13912793Y-13373190D01*
X13912793Y-13373190D02*
X13922316Y-13382714D01*
X13922316Y-13382714D02*
X13931840Y-13401762D01*
X13931840Y-13401762D02*
X13931840Y-13449381D01*
X13931840Y-13449381D02*
X13922316Y-13468428D01*
X13922316Y-13468428D02*
X13912793Y-13477952D01*
X13912793Y-13477952D02*
X13893745Y-13487476D01*
X13893745Y-13487476D02*
X13846126Y-13487476D01*
X13846126Y-13487476D02*
X13827078Y-13477952D01*
X13827078Y-13477952D02*
X13817554Y-13468428D01*
X14055650Y-13287476D02*
X14074697Y-13287476D01*
X14074697Y-13287476D02*
X14093745Y-13297000D01*
X14093745Y-13297000D02*
X14103269Y-13306524D01*
X14103269Y-13306524D02*
X14112793Y-13325571D01*
X14112793Y-13325571D02*
X14122316Y-13363667D01*
X14122316Y-13363667D02*
X14122316Y-13411286D01*
X14122316Y-13411286D02*
X14112793Y-13449381D01*
X14112793Y-13449381D02*
X14103269Y-13468428D01*
X14103269Y-13468428D02*
X14093745Y-13477952D01*
X14093745Y-13477952D02*
X14074697Y-13487476D01*
X14074697Y-13487476D02*
X14055650Y-13487476D01*
X14055650Y-13487476D02*
X14036602Y-13477952D01*
X14036602Y-13477952D02*
X14027078Y-13468428D01*
X14027078Y-13468428D02*
X14017554Y-13449381D01*
X14017554Y-13449381D02*
X14008031Y-13411286D01*
X14008031Y-13411286D02*
X14008031Y-13363667D01*
X14008031Y-13363667D02*
X14017554Y-13325571D01*
X14017554Y-13325571D02*
X14027078Y-13306524D01*
X14027078Y-13306524D02*
X14036602Y-13297000D01*
X14036602Y-13297000D02*
X14055650Y-13287476D01*
X14246126Y-13287476D02*
X14265174Y-13287476D01*
X14265174Y-13287476D02*
X14284221Y-13297000D01*
X14284221Y-13297000D02*
X14293745Y-13306524D01*
X14293745Y-13306524D02*
X14303269Y-13325571D01*
X14303269Y-13325571D02*
X14312793Y-13363667D01*
X14312793Y-13363667D02*
X14312793Y-13411286D01*
X14312793Y-13411286D02*
X14303269Y-13449381D01*
X14303269Y-13449381D02*
X14293745Y-13468428D01*
X14293745Y-13468428D02*
X14284221Y-13477952D01*
X14284221Y-13477952D02*
X14265174Y-13487476D01*
X14265174Y-13487476D02*
X14246126Y-13487476D01*
X14246126Y-13487476D02*
X14227078Y-13477952D01*
X14227078Y-13477952D02*
X14217554Y-13468428D01*
X14217554Y-13468428D02*
X14208031Y-13449381D01*
X14208031Y-13449381D02*
X14198507Y-13411286D01*
X14198507Y-13411286D02*
X14198507Y-13363667D01*
X14198507Y-13363667D02*
X14208031Y-13325571D01*
X14208031Y-13325571D02*
X14217554Y-13306524D01*
X14217554Y-13306524D02*
X14227078Y-13297000D01*
X14227078Y-13297000D02*
X14246126Y-13287476D01*
X14398507Y-13487476D02*
X14398507Y-13354143D01*
X14398507Y-13373190D02*
X14408031Y-13363667D01*
X14408031Y-13363667D02*
X14427078Y-13354143D01*
X14427078Y-13354143D02*
X14455650Y-13354143D01*
X14455650Y-13354143D02*
X14474697Y-13363667D01*
X14474697Y-13363667D02*
X14484221Y-13382714D01*
X14484221Y-13382714D02*
X14484221Y-13487476D01*
X14484221Y-13382714D02*
X14493745Y-13363667D01*
X14493745Y-13363667D02*
X14512793Y-13354143D01*
X14512793Y-13354143D02*
X14541364Y-13354143D01*
X14541364Y-13354143D02*
X14560412Y-13363667D01*
X14560412Y-13363667D02*
X14569935Y-13382714D01*
X14569935Y-13382714D02*
X14569935Y-13487476D01*
X14665174Y-13487476D02*
X14665174Y-13354143D01*
X14665174Y-13373190D02*
X14674697Y-13363667D01*
X14674697Y-13363667D02*
X14693745Y-13354143D01*
X14693745Y-13354143D02*
X14722316Y-13354143D01*
X14722316Y-13354143D02*
X14741364Y-13363667D01*
X14741364Y-13363667D02*
X14750888Y-13382714D01*
X14750888Y-13382714D02*
X14750888Y-13487476D01*
X14750888Y-13382714D02*
X14760412Y-13363667D01*
X14760412Y-13363667D02*
X14779459Y-13354143D01*
X14779459Y-13354143D02*
X14808031Y-13354143D01*
X14808031Y-13354143D02*
X14827078Y-13363667D01*
X14827078Y-13363667D02*
X14836602Y-13382714D01*
X14836602Y-13382714D02*
X14836602Y-13487476D01*
X15194697Y-13277952D02*
X15023269Y-13535095D01*
X15419459Y-13287476D02*
X15438507Y-13287476D01*
X15438507Y-13287476D02*
X15457555Y-13297000D01*
X15457555Y-13297000D02*
X15467078Y-13306524D01*
X15467078Y-13306524D02*
X15476602Y-13325571D01*
X15476602Y-13325571D02*
X15486126Y-13363667D01*
X15486126Y-13363667D02*
X15486126Y-13411286D01*
X15486126Y-13411286D02*
X15476602Y-13449381D01*
X15476602Y-13449381D02*
X15467078Y-13468428D01*
X15467078Y-13468428D02*
X15457555Y-13477952D01*
X15457555Y-13477952D02*
X15438507Y-13487476D01*
X15438507Y-13487476D02*
X15419459Y-13487476D01*
X15419459Y-13487476D02*
X15400412Y-13477952D01*
X15400412Y-13477952D02*
X15390888Y-13468428D01*
X15390888Y-13468428D02*
X15381364Y-13449381D01*
X15381364Y-13449381D02*
X15371840Y-13411286D01*
X15371840Y-13411286D02*
X15371840Y-13363667D01*
X15371840Y-13363667D02*
X15381364Y-13325571D01*
X15381364Y-13325571D02*
X15390888Y-13306524D01*
X15390888Y-13306524D02*
X15400412Y-13297000D01*
X15400412Y-13297000D02*
X15419459Y-13287476D01*
X15571840Y-13468428D02*
X15581364Y-13477952D01*
X15581364Y-13477952D02*
X15571840Y-13487476D01*
X15571840Y-13487476D02*
X15562316Y-13477952D01*
X15562316Y-13477952D02*
X15571840Y-13468428D01*
X15571840Y-13468428D02*
X15571840Y-13487476D01*
X15705174Y-13287476D02*
X15724221Y-13287476D01*
X15724221Y-13287476D02*
X15743269Y-13297000D01*
X15743269Y-13297000D02*
X15752793Y-13306524D01*
X15752793Y-13306524D02*
X15762316Y-13325571D01*
X15762316Y-13325571D02*
X15771840Y-13363667D01*
X15771840Y-13363667D02*
X15771840Y-13411286D01*
X15771840Y-13411286D02*
X15762316Y-13449381D01*
X15762316Y-13449381D02*
X15752793Y-13468428D01*
X15752793Y-13468428D02*
X15743269Y-13477952D01*
X15743269Y-13477952D02*
X15724221Y-13487476D01*
X15724221Y-13487476D02*
X15705174Y-13487476D01*
X15705174Y-13487476D02*
X15686126Y-13477952D01*
X15686126Y-13477952D02*
X15676602Y-13468428D01*
X15676602Y-13468428D02*
X15667078Y-13449381D01*
X15667078Y-13449381D02*
X15657555Y-13411286D01*
X15657555Y-13411286D02*
X15657555Y-13363667D01*
X15657555Y-13363667D02*
X15667078Y-13325571D01*
X15667078Y-13325571D02*
X15676602Y-13306524D01*
X15676602Y-13306524D02*
X15686126Y-13297000D01*
X15686126Y-13297000D02*
X15705174Y-13287476D01*
X15952793Y-13287476D02*
X15857555Y-13287476D01*
X15857555Y-13287476D02*
X15848031Y-13382714D01*
X15848031Y-13382714D02*
X15857555Y-13373190D01*
X15857555Y-13373190D02*
X15876602Y-13363667D01*
X15876602Y-13363667D02*
X15924221Y-13363667D01*
X15924221Y-13363667D02*
X15943269Y-13373190D01*
X15943269Y-13373190D02*
X15952793Y-13382714D01*
X15952793Y-13382714D02*
X15962316Y-13401762D01*
X15962316Y-13401762D02*
X15962316Y-13449381D01*
X15962316Y-13449381D02*
X15952793Y-13468428D01*
X15952793Y-13468428D02*
X15943269Y-13477952D01*
X15943269Y-13477952D02*
X15924221Y-13487476D01*
X15924221Y-13487476D02*
X15876602Y-13487476D01*
X15876602Y-13487476D02*
X15857555Y-13477952D01*
X15857555Y-13477952D02*
X15848031Y-13468428D01*
X16057555Y-13487476D02*
X16095650Y-13487476D01*
X16095650Y-13487476D02*
X16114697Y-13477952D01*
X16114697Y-13477952D02*
X16124221Y-13468428D01*
X16124221Y-13468428D02*
X16143269Y-13439857D01*
X16143269Y-13439857D02*
X16152793Y-13401762D01*
X16152793Y-13401762D02*
X16152793Y-13325571D01*
X16152793Y-13325571D02*
X16143269Y-13306524D01*
X16143269Y-13306524D02*
X16133745Y-13297000D01*
X16133745Y-13297000D02*
X16114697Y-13287476D01*
X16114697Y-13287476D02*
X16076602Y-13287476D01*
X16076602Y-13287476D02*
X16057555Y-13297000D01*
X16057555Y-13297000D02*
X16048031Y-13306524D01*
X16048031Y-13306524D02*
X16038507Y-13325571D01*
X16038507Y-13325571D02*
X16038507Y-13373190D01*
X16038507Y-13373190D02*
X16048031Y-13392238D01*
X16048031Y-13392238D02*
X16057555Y-13401762D01*
X16057555Y-13401762D02*
X16076602Y-13411286D01*
X16076602Y-13411286D02*
X16114697Y-13411286D01*
X16114697Y-13411286D02*
X16133745Y-13401762D01*
X16133745Y-13401762D02*
X16143269Y-13392238D01*
X16143269Y-13392238D02*
X16152793Y-13373190D01*
X16343269Y-13487476D02*
X16228983Y-13487476D01*
X16286126Y-13487476D02*
X16286126Y-13287476D01*
X16286126Y-13287476D02*
X16267078Y-13316048D01*
X16267078Y-13316048D02*
X16248031Y-13335095D01*
X16248031Y-13335095D02*
X16228983Y-13344619D01*
X16419459Y-13287476D02*
X16419459Y-13325571D01*
X16495650Y-13287476D02*
X16495650Y-13325571D01*
X16758507Y-13563667D02*
X16748983Y-13554143D01*
X16748983Y-13554143D02*
X16729936Y-13525571D01*
X16729936Y-13525571D02*
X16720412Y-13506524D01*
X16720412Y-13506524D02*
X16710888Y-13477952D01*
X16710888Y-13477952D02*
X16701364Y-13430333D01*
X16701364Y-13430333D02*
X16701364Y-13392238D01*
X16701364Y-13392238D02*
X16710888Y-13344619D01*
X16710888Y-13344619D02*
X16720412Y-13316048D01*
X16720412Y-13316048D02*
X16729936Y-13297000D01*
X16729936Y-13297000D02*
X16748983Y-13268428D01*
X16748983Y-13268428D02*
X16758507Y-13258905D01*
X16872793Y-13287476D02*
X16891840Y-13287476D01*
X16891840Y-13287476D02*
X16910888Y-13297000D01*
X16910888Y-13297000D02*
X16920412Y-13306524D01*
X16920412Y-13306524D02*
X16929936Y-13325571D01*
X16929936Y-13325571D02*
X16939459Y-13363667D01*
X16939459Y-13363667D02*
X16939459Y-13411286D01*
X16939459Y-13411286D02*
X16929936Y-13449381D01*
X16929936Y-13449381D02*
X16920412Y-13468428D01*
X16920412Y-13468428D02*
X16910888Y-13477952D01*
X16910888Y-13477952D02*
X16891840Y-13487476D01*
X16891840Y-13487476D02*
X16872793Y-13487476D01*
X16872793Y-13487476D02*
X16853745Y-13477952D01*
X16853745Y-13477952D02*
X16844221Y-13468428D01*
X16844221Y-13468428D02*
X16834698Y-13449381D01*
X16834698Y-13449381D02*
X16825174Y-13411286D01*
X16825174Y-13411286D02*
X16825174Y-13363667D01*
X16825174Y-13363667D02*
X16834698Y-13325571D01*
X16834698Y-13325571D02*
X16844221Y-13306524D01*
X16844221Y-13306524D02*
X16853745Y-13297000D01*
X16853745Y-13297000D02*
X16872793Y-13287476D01*
X17145174Y-13487476D02*
X17145174Y-13287476D01*
X17230888Y-13487476D02*
X17230888Y-13382714D01*
X17230888Y-13382714D02*
X17221364Y-13363667D01*
X17221364Y-13363667D02*
X17202317Y-13354143D01*
X17202317Y-13354143D02*
X17173745Y-13354143D01*
X17173745Y-13354143D02*
X17154698Y-13363667D01*
X17154698Y-13363667D02*
X17145174Y-13373190D01*
X17354698Y-13487476D02*
X17335650Y-13477952D01*
X17335650Y-13477952D02*
X17326126Y-13468428D01*
X17326126Y-13468428D02*
X17316602Y-13449381D01*
X17316602Y-13449381D02*
X17316602Y-13392238D01*
X17316602Y-13392238D02*
X17326126Y-13373190D01*
X17326126Y-13373190D02*
X17335650Y-13363667D01*
X17335650Y-13363667D02*
X17354698Y-13354143D01*
X17354698Y-13354143D02*
X17383269Y-13354143D01*
X17383269Y-13354143D02*
X17402317Y-13363667D01*
X17402317Y-13363667D02*
X17411840Y-13373190D01*
X17411840Y-13373190D02*
X17421364Y-13392238D01*
X17421364Y-13392238D02*
X17421364Y-13449381D01*
X17421364Y-13449381D02*
X17411840Y-13468428D01*
X17411840Y-13468428D02*
X17402317Y-13477952D01*
X17402317Y-13477952D02*
X17383269Y-13487476D01*
X17383269Y-13487476D02*
X17354698Y-13487476D01*
X17535650Y-13487476D02*
X17516602Y-13477952D01*
X17516602Y-13477952D02*
X17507079Y-13458905D01*
X17507079Y-13458905D02*
X17507079Y-13287476D01*
X17688031Y-13477952D02*
X17668983Y-13487476D01*
X17668983Y-13487476D02*
X17630888Y-13487476D01*
X17630888Y-13487476D02*
X17611840Y-13477952D01*
X17611840Y-13477952D02*
X17602317Y-13458905D01*
X17602317Y-13458905D02*
X17602317Y-13382714D01*
X17602317Y-13382714D02*
X17611840Y-13363667D01*
X17611840Y-13363667D02*
X17630888Y-13354143D01*
X17630888Y-13354143D02*
X17668983Y-13354143D01*
X17668983Y-13354143D02*
X17688031Y-13363667D01*
X17688031Y-13363667D02*
X17697555Y-13382714D01*
X17697555Y-13382714D02*
X17697555Y-13401762D01*
X17697555Y-13401762D02*
X17602317Y-13420809D01*
X17773745Y-13477952D02*
X17792793Y-13487476D01*
X17792793Y-13487476D02*
X17830888Y-13487476D01*
X17830888Y-13487476D02*
X17849936Y-13477952D01*
X17849936Y-13477952D02*
X17859460Y-13458905D01*
X17859460Y-13458905D02*
X17859460Y-13449381D01*
X17859460Y-13449381D02*
X17849936Y-13430333D01*
X17849936Y-13430333D02*
X17830888Y-13420809D01*
X17830888Y-13420809D02*
X17802317Y-13420809D01*
X17802317Y-13420809D02*
X17783269Y-13411286D01*
X17783269Y-13411286D02*
X17773745Y-13392238D01*
X17773745Y-13392238D02*
X17773745Y-13382714D01*
X17773745Y-13382714D02*
X17783269Y-13363667D01*
X17783269Y-13363667D02*
X17802317Y-13354143D01*
X17802317Y-13354143D02*
X17830888Y-13354143D01*
X17830888Y-13354143D02*
X17849936Y-13363667D01*
X18065174Y-13411286D02*
X18217555Y-13411286D01*
X18141364Y-13487476D02*
X18141364Y-13335095D01*
X18423269Y-13306524D02*
X18432793Y-13297000D01*
X18432793Y-13297000D02*
X18451840Y-13287476D01*
X18451840Y-13287476D02*
X18499460Y-13287476D01*
X18499460Y-13287476D02*
X18518507Y-13297000D01*
X18518507Y-13297000D02*
X18528031Y-13306524D01*
X18528031Y-13306524D02*
X18537555Y-13325571D01*
X18537555Y-13325571D02*
X18537555Y-13344619D01*
X18537555Y-13344619D02*
X18528031Y-13373190D01*
X18528031Y-13373190D02*
X18413745Y-13487476D01*
X18413745Y-13487476D02*
X18537555Y-13487476D01*
X18733745Y-13477952D02*
X18752793Y-13487476D01*
X18752793Y-13487476D02*
X18790888Y-13487476D01*
X18790888Y-13487476D02*
X18809936Y-13477952D01*
X18809936Y-13477952D02*
X18819460Y-13458905D01*
X18819460Y-13458905D02*
X18819460Y-13449381D01*
X18819460Y-13449381D02*
X18809936Y-13430333D01*
X18809936Y-13430333D02*
X18790888Y-13420809D01*
X18790888Y-13420809D02*
X18762317Y-13420809D01*
X18762317Y-13420809D02*
X18743269Y-13411286D01*
X18743269Y-13411286D02*
X18733745Y-13392238D01*
X18733745Y-13392238D02*
X18733745Y-13382714D01*
X18733745Y-13382714D02*
X18743269Y-13363667D01*
X18743269Y-13363667D02*
X18762317Y-13354143D01*
X18762317Y-13354143D02*
X18790888Y-13354143D01*
X18790888Y-13354143D02*
X18809936Y-13363667D01*
X18933745Y-13487476D02*
X18914698Y-13477952D01*
X18914698Y-13477952D02*
X18905174Y-13458905D01*
X18905174Y-13458905D02*
X18905174Y-13287476D01*
X19038507Y-13487476D02*
X19019460Y-13477952D01*
X19019460Y-13477952D02*
X19009936Y-13468428D01*
X19009936Y-13468428D02*
X19000412Y-13449381D01*
X19000412Y-13449381D02*
X19000412Y-13392238D01*
X19000412Y-13392238D02*
X19009936Y-13373190D01*
X19009936Y-13373190D02*
X19019460Y-13363667D01*
X19019460Y-13363667D02*
X19038507Y-13354143D01*
X19038507Y-13354143D02*
X19067079Y-13354143D01*
X19067079Y-13354143D02*
X19086126Y-13363667D01*
X19086126Y-13363667D02*
X19095650Y-13373190D01*
X19095650Y-13373190D02*
X19105174Y-13392238D01*
X19105174Y-13392238D02*
X19105174Y-13449381D01*
X19105174Y-13449381D02*
X19095650Y-13468428D01*
X19095650Y-13468428D02*
X19086126Y-13477952D01*
X19086126Y-13477952D02*
X19067079Y-13487476D01*
X19067079Y-13487476D02*
X19038507Y-13487476D01*
X19162317Y-13354143D02*
X19238507Y-13354143D01*
X19190888Y-13287476D02*
X19190888Y-13458905D01*
X19190888Y-13458905D02*
X19200412Y-13477952D01*
X19200412Y-13477952D02*
X19219460Y-13487476D01*
X19219460Y-13487476D02*
X19238507Y-13487476D01*
X19295650Y-13477952D02*
X19314698Y-13487476D01*
X19314698Y-13487476D02*
X19352793Y-13487476D01*
X19352793Y-13487476D02*
X19371841Y-13477952D01*
X19371841Y-13477952D02*
X19381364Y-13458905D01*
X19381364Y-13458905D02*
X19381364Y-13449381D01*
X19381364Y-13449381D02*
X19371841Y-13430333D01*
X19371841Y-13430333D02*
X19352793Y-13420809D01*
X19352793Y-13420809D02*
X19324221Y-13420809D01*
X19324221Y-13420809D02*
X19305174Y-13411286D01*
X19305174Y-13411286D02*
X19295650Y-13392238D01*
X19295650Y-13392238D02*
X19295650Y-13382714D01*
X19295650Y-13382714D02*
X19305174Y-13363667D01*
X19305174Y-13363667D02*
X19324221Y-13354143D01*
X19324221Y-13354143D02*
X19352793Y-13354143D01*
X19352793Y-13354143D02*
X19371841Y-13363667D01*
X19448031Y-13563667D02*
X19457555Y-13554143D01*
X19457555Y-13554143D02*
X19476602Y-13525571D01*
X19476602Y-13525571D02*
X19486126Y-13506524D01*
X19486126Y-13506524D02*
X19495650Y-13477952D01*
X19495650Y-13477952D02*
X19505174Y-13430333D01*
X19505174Y-13430333D02*
X19505174Y-13392238D01*
X19505174Y-13392238D02*
X19495650Y-13344619D01*
X19495650Y-13344619D02*
X19486126Y-13316048D01*
X19486126Y-13316048D02*
X19476602Y-13297000D01*
X19476602Y-13297000D02*
X19457555Y-13268428D01*
X19457555Y-13268428D02*
X19448031Y-13258905D01*
X19777555Y-13563667D02*
X19768031Y-13554143D01*
X19768031Y-13554143D02*
X19748983Y-13525571D01*
X19748983Y-13525571D02*
X19739460Y-13506524D01*
X19739460Y-13506524D02*
X19729936Y-13477952D01*
X19729936Y-13477952D02*
X19720412Y-13430333D01*
X19720412Y-13430333D02*
X19720412Y-13392238D01*
X19720412Y-13392238D02*
X19729936Y-13344619D01*
X19729936Y-13344619D02*
X19739460Y-13316048D01*
X19739460Y-13316048D02*
X19748983Y-13297000D01*
X19748983Y-13297000D02*
X19768031Y-13268428D01*
X19768031Y-13268428D02*
X19777555Y-13258905D01*
X19853745Y-13354143D02*
X19853745Y-13487476D01*
X19853745Y-13373190D02*
X19863269Y-13363667D01*
X19863269Y-13363667D02*
X19882317Y-13354143D01*
X19882317Y-13354143D02*
X19910888Y-13354143D01*
X19910888Y-13354143D02*
X19929936Y-13363667D01*
X19929936Y-13363667D02*
X19939460Y-13382714D01*
X19939460Y-13382714D02*
X19939460Y-13487476D01*
X20063269Y-13487476D02*
X20044221Y-13477952D01*
X20044221Y-13477952D02*
X20034698Y-13468428D01*
X20034698Y-13468428D02*
X20025174Y-13449381D01*
X20025174Y-13449381D02*
X20025174Y-13392238D01*
X20025174Y-13392238D02*
X20034698Y-13373190D01*
X20034698Y-13373190D02*
X20044221Y-13363667D01*
X20044221Y-13363667D02*
X20063269Y-13354143D01*
X20063269Y-13354143D02*
X20091841Y-13354143D01*
X20091841Y-13354143D02*
X20110888Y-13363667D01*
X20110888Y-13363667D02*
X20120412Y-13373190D01*
X20120412Y-13373190D02*
X20129936Y-13392238D01*
X20129936Y-13392238D02*
X20129936Y-13449381D01*
X20129936Y-13449381D02*
X20120412Y-13468428D01*
X20120412Y-13468428D02*
X20110888Y-13477952D01*
X20110888Y-13477952D02*
X20091841Y-13487476D01*
X20091841Y-13487476D02*
X20063269Y-13487476D01*
X20187079Y-13354143D02*
X20263269Y-13354143D01*
X20215650Y-13287476D02*
X20215650Y-13458905D01*
X20215650Y-13458905D02*
X20225174Y-13477952D01*
X20225174Y-13477952D02*
X20244221Y-13487476D01*
X20244221Y-13487476D02*
X20263269Y-13487476D01*
X20449936Y-13354143D02*
X20449936Y-13554143D01*
X20449936Y-13363667D02*
X20468983Y-13354143D01*
X20468983Y-13354143D02*
X20507079Y-13354143D01*
X20507079Y-13354143D02*
X20526126Y-13363667D01*
X20526126Y-13363667D02*
X20535650Y-13373190D01*
X20535650Y-13373190D02*
X20545174Y-13392238D01*
X20545174Y-13392238D02*
X20545174Y-13449381D01*
X20545174Y-13449381D02*
X20535650Y-13468428D01*
X20535650Y-13468428D02*
X20526126Y-13477952D01*
X20526126Y-13477952D02*
X20507079Y-13487476D01*
X20507079Y-13487476D02*
X20468983Y-13487476D01*
X20468983Y-13487476D02*
X20449936Y-13477952D01*
X20659460Y-13487476D02*
X20640412Y-13477952D01*
X20640412Y-13477952D02*
X20630888Y-13458905D01*
X20630888Y-13458905D02*
X20630888Y-13287476D01*
X20821364Y-13487476D02*
X20821364Y-13382714D01*
X20821364Y-13382714D02*
X20811841Y-13363667D01*
X20811841Y-13363667D02*
X20792793Y-13354143D01*
X20792793Y-13354143D02*
X20754698Y-13354143D01*
X20754698Y-13354143D02*
X20735650Y-13363667D01*
X20821364Y-13477952D02*
X20802317Y-13487476D01*
X20802317Y-13487476D02*
X20754698Y-13487476D01*
X20754698Y-13487476D02*
X20735650Y-13477952D01*
X20735650Y-13477952D02*
X20726126Y-13458905D01*
X20726126Y-13458905D02*
X20726126Y-13439857D01*
X20726126Y-13439857D02*
X20735650Y-13420809D01*
X20735650Y-13420809D02*
X20754698Y-13411286D01*
X20754698Y-13411286D02*
X20802317Y-13411286D01*
X20802317Y-13411286D02*
X20821364Y-13401762D01*
X20888031Y-13354143D02*
X20964221Y-13354143D01*
X20916602Y-13287476D02*
X20916602Y-13458905D01*
X20916602Y-13458905D02*
X20926126Y-13477952D01*
X20926126Y-13477952D02*
X20945174Y-13487476D01*
X20945174Y-13487476D02*
X20964221Y-13487476D01*
X21107079Y-13477952D02*
X21088031Y-13487476D01*
X21088031Y-13487476D02*
X21049936Y-13487476D01*
X21049936Y-13487476D02*
X21030888Y-13477952D01*
X21030888Y-13477952D02*
X21021364Y-13458905D01*
X21021364Y-13458905D02*
X21021364Y-13382714D01*
X21021364Y-13382714D02*
X21030888Y-13363667D01*
X21030888Y-13363667D02*
X21049936Y-13354143D01*
X21049936Y-13354143D02*
X21088031Y-13354143D01*
X21088031Y-13354143D02*
X21107079Y-13363667D01*
X21107079Y-13363667D02*
X21116602Y-13382714D01*
X21116602Y-13382714D02*
X21116602Y-13401762D01*
X21116602Y-13401762D02*
X21021364Y-13420809D01*
X21288031Y-13487476D02*
X21288031Y-13287476D01*
X21288031Y-13477952D02*
X21268983Y-13487476D01*
X21268983Y-13487476D02*
X21230888Y-13487476D01*
X21230888Y-13487476D02*
X21211841Y-13477952D01*
X21211841Y-13477952D02*
X21202317Y-13468428D01*
X21202317Y-13468428D02*
X21192793Y-13449381D01*
X21192793Y-13449381D02*
X21192793Y-13392238D01*
X21192793Y-13392238D02*
X21202317Y-13373190D01*
X21202317Y-13373190D02*
X21211841Y-13363667D01*
X21211841Y-13363667D02*
X21230888Y-13354143D01*
X21230888Y-13354143D02*
X21268983Y-13354143D01*
X21268983Y-13354143D02*
X21288031Y-13363667D01*
X21364222Y-13563667D02*
X21373745Y-13554143D01*
X21373745Y-13554143D02*
X21392793Y-13525571D01*
X21392793Y-13525571D02*
X21402317Y-13506524D01*
X21402317Y-13506524D02*
X21411841Y-13477952D01*
X21411841Y-13477952D02*
X21421364Y-13430333D01*
X21421364Y-13430333D02*
X21421364Y-13392238D01*
X21421364Y-13392238D02*
X21411841Y-13344619D01*
X21411841Y-13344619D02*
X21402317Y-13316048D01*
X21402317Y-13316048D02*
X21392793Y-13297000D01*
X21392793Y-13297000D02*
X21373745Y-13268428D01*
X21373745Y-13268428D02*
X21364222Y-13258905D01*
D14*
X13208655Y-13598910D02*
X13208655Y-13769090D01*
X13123565Y-13684000D02*
X13293745Y-13684000D01*
D11*
X13646126Y-13757476D02*
X13531840Y-13757476D01*
X13588983Y-13757476D02*
X13588983Y-13557476D01*
X13588983Y-13557476D02*
X13569935Y-13586048D01*
X13569935Y-13586048D02*
X13550888Y-13605095D01*
X13550888Y-13605095D02*
X13531840Y-13614619D01*
X13731840Y-13738428D02*
X13741364Y-13747952D01*
X13741364Y-13747952D02*
X13731840Y-13757476D01*
X13731840Y-13757476D02*
X13722316Y-13747952D01*
X13722316Y-13747952D02*
X13731840Y-13738428D01*
X13731840Y-13738428D02*
X13731840Y-13757476D01*
X13808031Y-13557476D02*
X13941364Y-13557476D01*
X13941364Y-13557476D02*
X13855650Y-13757476D01*
X14055650Y-13557476D02*
X14074697Y-13557476D01*
X14074697Y-13557476D02*
X14093745Y-13567000D01*
X14093745Y-13567000D02*
X14103269Y-13576524D01*
X14103269Y-13576524D02*
X14112793Y-13595571D01*
X14112793Y-13595571D02*
X14122316Y-13633667D01*
X14122316Y-13633667D02*
X14122316Y-13681286D01*
X14122316Y-13681286D02*
X14112793Y-13719381D01*
X14112793Y-13719381D02*
X14103269Y-13738428D01*
X14103269Y-13738428D02*
X14093745Y-13747952D01*
X14093745Y-13747952D02*
X14074697Y-13757476D01*
X14074697Y-13757476D02*
X14055650Y-13757476D01*
X14055650Y-13757476D02*
X14036602Y-13747952D01*
X14036602Y-13747952D02*
X14027078Y-13738428D01*
X14027078Y-13738428D02*
X14017554Y-13719381D01*
X14017554Y-13719381D02*
X14008031Y-13681286D01*
X14008031Y-13681286D02*
X14008031Y-13633667D01*
X14008031Y-13633667D02*
X14017554Y-13595571D01*
X14017554Y-13595571D02*
X14027078Y-13576524D01*
X14027078Y-13576524D02*
X14036602Y-13567000D01*
X14036602Y-13567000D02*
X14055650Y-13557476D01*
X14198507Y-13576524D02*
X14208031Y-13567000D01*
X14208031Y-13567000D02*
X14227078Y-13557476D01*
X14227078Y-13557476D02*
X14274697Y-13557476D01*
X14274697Y-13557476D02*
X14293745Y-13567000D01*
X14293745Y-13567000D02*
X14303269Y-13576524D01*
X14303269Y-13576524D02*
X14312793Y-13595571D01*
X14312793Y-13595571D02*
X14312793Y-13614619D01*
X14312793Y-13614619D02*
X14303269Y-13643190D01*
X14303269Y-13643190D02*
X14188983Y-13757476D01*
X14188983Y-13757476D02*
X14312793Y-13757476D01*
X14398507Y-13757476D02*
X14398507Y-13624143D01*
X14398507Y-13643190D02*
X14408031Y-13633667D01*
X14408031Y-13633667D02*
X14427078Y-13624143D01*
X14427078Y-13624143D02*
X14455650Y-13624143D01*
X14455650Y-13624143D02*
X14474697Y-13633667D01*
X14474697Y-13633667D02*
X14484221Y-13652714D01*
X14484221Y-13652714D02*
X14484221Y-13757476D01*
X14484221Y-13652714D02*
X14493745Y-13633667D01*
X14493745Y-13633667D02*
X14512793Y-13624143D01*
X14512793Y-13624143D02*
X14541364Y-13624143D01*
X14541364Y-13624143D02*
X14560412Y-13633667D01*
X14560412Y-13633667D02*
X14569935Y-13652714D01*
X14569935Y-13652714D02*
X14569935Y-13757476D01*
X14665174Y-13757476D02*
X14665174Y-13624143D01*
X14665174Y-13643190D02*
X14674697Y-13633667D01*
X14674697Y-13633667D02*
X14693745Y-13624143D01*
X14693745Y-13624143D02*
X14722316Y-13624143D01*
X14722316Y-13624143D02*
X14741364Y-13633667D01*
X14741364Y-13633667D02*
X14750888Y-13652714D01*
X14750888Y-13652714D02*
X14750888Y-13757476D01*
X14750888Y-13652714D02*
X14760412Y-13633667D01*
X14760412Y-13633667D02*
X14779459Y-13624143D01*
X14779459Y-13624143D02*
X14808031Y-13624143D01*
X14808031Y-13624143D02*
X14827078Y-13633667D01*
X14827078Y-13633667D02*
X14836602Y-13652714D01*
X14836602Y-13652714D02*
X14836602Y-13757476D01*
X15194697Y-13547952D02*
X15023269Y-13805095D01*
X15419459Y-13557476D02*
X15438507Y-13557476D01*
X15438507Y-13557476D02*
X15457555Y-13567000D01*
X15457555Y-13567000D02*
X15467078Y-13576524D01*
X15467078Y-13576524D02*
X15476602Y-13595571D01*
X15476602Y-13595571D02*
X15486126Y-13633667D01*
X15486126Y-13633667D02*
X15486126Y-13681286D01*
X15486126Y-13681286D02*
X15476602Y-13719381D01*
X15476602Y-13719381D02*
X15467078Y-13738428D01*
X15467078Y-13738428D02*
X15457555Y-13747952D01*
X15457555Y-13747952D02*
X15438507Y-13757476D01*
X15438507Y-13757476D02*
X15419459Y-13757476D01*
X15419459Y-13757476D02*
X15400412Y-13747952D01*
X15400412Y-13747952D02*
X15390888Y-13738428D01*
X15390888Y-13738428D02*
X15381364Y-13719381D01*
X15381364Y-13719381D02*
X15371840Y-13681286D01*
X15371840Y-13681286D02*
X15371840Y-13633667D01*
X15371840Y-13633667D02*
X15381364Y-13595571D01*
X15381364Y-13595571D02*
X15390888Y-13576524D01*
X15390888Y-13576524D02*
X15400412Y-13567000D01*
X15400412Y-13567000D02*
X15419459Y-13557476D01*
X15571840Y-13738428D02*
X15581364Y-13747952D01*
X15581364Y-13747952D02*
X15571840Y-13757476D01*
X15571840Y-13757476D02*
X15562316Y-13747952D01*
X15562316Y-13747952D02*
X15571840Y-13738428D01*
X15571840Y-13738428D02*
X15571840Y-13757476D01*
X15705174Y-13557476D02*
X15724221Y-13557476D01*
X15724221Y-13557476D02*
X15743269Y-13567000D01*
X15743269Y-13567000D02*
X15752793Y-13576524D01*
X15752793Y-13576524D02*
X15762316Y-13595571D01*
X15762316Y-13595571D02*
X15771840Y-13633667D01*
X15771840Y-13633667D02*
X15771840Y-13681286D01*
X15771840Y-13681286D02*
X15762316Y-13719381D01*
X15762316Y-13719381D02*
X15752793Y-13738428D01*
X15752793Y-13738428D02*
X15743269Y-13747952D01*
X15743269Y-13747952D02*
X15724221Y-13757476D01*
X15724221Y-13757476D02*
X15705174Y-13757476D01*
X15705174Y-13757476D02*
X15686126Y-13747952D01*
X15686126Y-13747952D02*
X15676602Y-13738428D01*
X15676602Y-13738428D02*
X15667078Y-13719381D01*
X15667078Y-13719381D02*
X15657555Y-13681286D01*
X15657555Y-13681286D02*
X15657555Y-13633667D01*
X15657555Y-13633667D02*
X15667078Y-13595571D01*
X15667078Y-13595571D02*
X15676602Y-13576524D01*
X15676602Y-13576524D02*
X15686126Y-13567000D01*
X15686126Y-13567000D02*
X15705174Y-13557476D01*
X15943269Y-13557476D02*
X15905174Y-13557476D01*
X15905174Y-13557476D02*
X15886126Y-13567000D01*
X15886126Y-13567000D02*
X15876602Y-13576524D01*
X15876602Y-13576524D02*
X15857555Y-13605095D01*
X15857555Y-13605095D02*
X15848031Y-13643190D01*
X15848031Y-13643190D02*
X15848031Y-13719381D01*
X15848031Y-13719381D02*
X15857555Y-13738428D01*
X15857555Y-13738428D02*
X15867078Y-13747952D01*
X15867078Y-13747952D02*
X15886126Y-13757476D01*
X15886126Y-13757476D02*
X15924221Y-13757476D01*
X15924221Y-13757476D02*
X15943269Y-13747952D01*
X15943269Y-13747952D02*
X15952793Y-13738428D01*
X15952793Y-13738428D02*
X15962316Y-13719381D01*
X15962316Y-13719381D02*
X15962316Y-13671762D01*
X15962316Y-13671762D02*
X15952793Y-13652714D01*
X15952793Y-13652714D02*
X15943269Y-13643190D01*
X15943269Y-13643190D02*
X15924221Y-13633667D01*
X15924221Y-13633667D02*
X15886126Y-13633667D01*
X15886126Y-13633667D02*
X15867078Y-13643190D01*
X15867078Y-13643190D02*
X15857555Y-13652714D01*
X15857555Y-13652714D02*
X15848031Y-13671762D01*
X16028983Y-13557476D02*
X16162316Y-13557476D01*
X16162316Y-13557476D02*
X16076602Y-13757476D01*
X16276602Y-13557476D02*
X16295650Y-13557476D01*
X16295650Y-13557476D02*
X16314697Y-13567000D01*
X16314697Y-13567000D02*
X16324221Y-13576524D01*
X16324221Y-13576524D02*
X16333745Y-13595571D01*
X16333745Y-13595571D02*
X16343269Y-13633667D01*
X16343269Y-13633667D02*
X16343269Y-13681286D01*
X16343269Y-13681286D02*
X16333745Y-13719381D01*
X16333745Y-13719381D02*
X16324221Y-13738428D01*
X16324221Y-13738428D02*
X16314697Y-13747952D01*
X16314697Y-13747952D02*
X16295650Y-13757476D01*
X16295650Y-13757476D02*
X16276602Y-13757476D01*
X16276602Y-13757476D02*
X16257555Y-13747952D01*
X16257555Y-13747952D02*
X16248031Y-13738428D01*
X16248031Y-13738428D02*
X16238507Y-13719381D01*
X16238507Y-13719381D02*
X16228983Y-13681286D01*
X16228983Y-13681286D02*
X16228983Y-13633667D01*
X16228983Y-13633667D02*
X16238507Y-13595571D01*
X16238507Y-13595571D02*
X16248031Y-13576524D01*
X16248031Y-13576524D02*
X16257555Y-13567000D01*
X16257555Y-13567000D02*
X16276602Y-13557476D01*
X16419459Y-13557476D02*
X16419459Y-13595571D01*
X16495650Y-13557476D02*
X16495650Y-13595571D01*
X16758507Y-13833667D02*
X16748983Y-13824143D01*
X16748983Y-13824143D02*
X16729936Y-13795571D01*
X16729936Y-13795571D02*
X16720412Y-13776524D01*
X16720412Y-13776524D02*
X16710888Y-13747952D01*
X16710888Y-13747952D02*
X16701364Y-13700333D01*
X16701364Y-13700333D02*
X16701364Y-13662238D01*
X16701364Y-13662238D02*
X16710888Y-13614619D01*
X16710888Y-13614619D02*
X16720412Y-13586048D01*
X16720412Y-13586048D02*
X16729936Y-13567000D01*
X16729936Y-13567000D02*
X16748983Y-13538428D01*
X16748983Y-13538428D02*
X16758507Y-13528905D01*
X16815650Y-13557476D02*
X16939459Y-13557476D01*
X16939459Y-13557476D02*
X16872793Y-13633667D01*
X16872793Y-13633667D02*
X16901364Y-13633667D01*
X16901364Y-13633667D02*
X16920412Y-13643190D01*
X16920412Y-13643190D02*
X16929936Y-13652714D01*
X16929936Y-13652714D02*
X16939459Y-13671762D01*
X16939459Y-13671762D02*
X16939459Y-13719381D01*
X16939459Y-13719381D02*
X16929936Y-13738428D01*
X16929936Y-13738428D02*
X16920412Y-13747952D01*
X16920412Y-13747952D02*
X16901364Y-13757476D01*
X16901364Y-13757476D02*
X16844221Y-13757476D01*
X16844221Y-13757476D02*
X16825174Y-13747952D01*
X16825174Y-13747952D02*
X16815650Y-13738428D01*
X17053745Y-13643190D02*
X17034698Y-13633667D01*
X17034698Y-13633667D02*
X17025174Y-13624143D01*
X17025174Y-13624143D02*
X17015650Y-13605095D01*
X17015650Y-13605095D02*
X17015650Y-13595571D01*
X17015650Y-13595571D02*
X17025174Y-13576524D01*
X17025174Y-13576524D02*
X17034698Y-13567000D01*
X17034698Y-13567000D02*
X17053745Y-13557476D01*
X17053745Y-13557476D02*
X17091840Y-13557476D01*
X17091840Y-13557476D02*
X17110888Y-13567000D01*
X17110888Y-13567000D02*
X17120412Y-13576524D01*
X17120412Y-13576524D02*
X17129936Y-13595571D01*
X17129936Y-13595571D02*
X17129936Y-13605095D01*
X17129936Y-13605095D02*
X17120412Y-13624143D01*
X17120412Y-13624143D02*
X17110888Y-13633667D01*
X17110888Y-13633667D02*
X17091840Y-13643190D01*
X17091840Y-13643190D02*
X17053745Y-13643190D01*
X17053745Y-13643190D02*
X17034698Y-13652714D01*
X17034698Y-13652714D02*
X17025174Y-13662238D01*
X17025174Y-13662238D02*
X17015650Y-13681286D01*
X17015650Y-13681286D02*
X17015650Y-13719381D01*
X17015650Y-13719381D02*
X17025174Y-13738428D01*
X17025174Y-13738428D02*
X17034698Y-13747952D01*
X17034698Y-13747952D02*
X17053745Y-13757476D01*
X17053745Y-13757476D02*
X17091840Y-13757476D01*
X17091840Y-13757476D02*
X17110888Y-13747952D01*
X17110888Y-13747952D02*
X17120412Y-13738428D01*
X17120412Y-13738428D02*
X17129936Y-13719381D01*
X17129936Y-13719381D02*
X17129936Y-13681286D01*
X17129936Y-13681286D02*
X17120412Y-13662238D01*
X17120412Y-13662238D02*
X17110888Y-13652714D01*
X17110888Y-13652714D02*
X17091840Y-13643190D01*
X17335650Y-13757476D02*
X17335650Y-13557476D01*
X17421364Y-13757476D02*
X17421364Y-13652714D01*
X17421364Y-13652714D02*
X17411840Y-13633667D01*
X17411840Y-13633667D02*
X17392793Y-13624143D01*
X17392793Y-13624143D02*
X17364221Y-13624143D01*
X17364221Y-13624143D02*
X17345174Y-13633667D01*
X17345174Y-13633667D02*
X17335650Y-13643190D01*
X17545174Y-13757476D02*
X17526126Y-13747952D01*
X17526126Y-13747952D02*
X17516602Y-13738428D01*
X17516602Y-13738428D02*
X17507079Y-13719381D01*
X17507079Y-13719381D02*
X17507079Y-13662238D01*
X17507079Y-13662238D02*
X17516602Y-13643190D01*
X17516602Y-13643190D02*
X17526126Y-13633667D01*
X17526126Y-13633667D02*
X17545174Y-13624143D01*
X17545174Y-13624143D02*
X17573745Y-13624143D01*
X17573745Y-13624143D02*
X17592793Y-13633667D01*
X17592793Y-13633667D02*
X17602317Y-13643190D01*
X17602317Y-13643190D02*
X17611840Y-13662238D01*
X17611840Y-13662238D02*
X17611840Y-13719381D01*
X17611840Y-13719381D02*
X17602317Y-13738428D01*
X17602317Y-13738428D02*
X17592793Y-13747952D01*
X17592793Y-13747952D02*
X17573745Y-13757476D01*
X17573745Y-13757476D02*
X17545174Y-13757476D01*
X17726126Y-13757476D02*
X17707079Y-13747952D01*
X17707079Y-13747952D02*
X17697555Y-13728905D01*
X17697555Y-13728905D02*
X17697555Y-13557476D01*
X17878507Y-13747952D02*
X17859460Y-13757476D01*
X17859460Y-13757476D02*
X17821364Y-13757476D01*
X17821364Y-13757476D02*
X17802317Y-13747952D01*
X17802317Y-13747952D02*
X17792793Y-13728905D01*
X17792793Y-13728905D02*
X17792793Y-13652714D01*
X17792793Y-13652714D02*
X17802317Y-13633667D01*
X17802317Y-13633667D02*
X17821364Y-13624143D01*
X17821364Y-13624143D02*
X17859460Y-13624143D01*
X17859460Y-13624143D02*
X17878507Y-13633667D01*
X17878507Y-13633667D02*
X17888031Y-13652714D01*
X17888031Y-13652714D02*
X17888031Y-13671762D01*
X17888031Y-13671762D02*
X17792793Y-13690809D01*
X17964221Y-13747952D02*
X17983269Y-13757476D01*
X17983269Y-13757476D02*
X18021364Y-13757476D01*
X18021364Y-13757476D02*
X18040412Y-13747952D01*
X18040412Y-13747952D02*
X18049936Y-13728905D01*
X18049936Y-13728905D02*
X18049936Y-13719381D01*
X18049936Y-13719381D02*
X18040412Y-13700333D01*
X18040412Y-13700333D02*
X18021364Y-13690809D01*
X18021364Y-13690809D02*
X17992793Y-13690809D01*
X17992793Y-13690809D02*
X17973745Y-13681286D01*
X17973745Y-13681286D02*
X17964221Y-13662238D01*
X17964221Y-13662238D02*
X17964221Y-13652714D01*
X17964221Y-13652714D02*
X17973745Y-13633667D01*
X17973745Y-13633667D02*
X17992793Y-13624143D01*
X17992793Y-13624143D02*
X18021364Y-13624143D01*
X18021364Y-13624143D02*
X18040412Y-13633667D01*
X18116602Y-13833667D02*
X18126126Y-13824143D01*
X18126126Y-13824143D02*
X18145174Y-13795571D01*
X18145174Y-13795571D02*
X18154698Y-13776524D01*
X18154698Y-13776524D02*
X18164221Y-13747952D01*
X18164221Y-13747952D02*
X18173745Y-13700333D01*
X18173745Y-13700333D02*
X18173745Y-13662238D01*
X18173745Y-13662238D02*
X18164221Y-13614619D01*
X18164221Y-13614619D02*
X18154698Y-13586048D01*
X18154698Y-13586048D02*
X18145174Y-13567000D01*
X18145174Y-13567000D02*
X18126126Y-13538428D01*
X18126126Y-13538428D02*
X18116602Y-13528905D01*
X18446126Y-13833667D02*
X18436602Y-13824143D01*
X18436602Y-13824143D02*
X18417555Y-13795571D01*
X18417555Y-13795571D02*
X18408031Y-13776524D01*
X18408031Y-13776524D02*
X18398507Y-13747952D01*
X18398507Y-13747952D02*
X18388983Y-13700333D01*
X18388983Y-13700333D02*
X18388983Y-13662238D01*
X18388983Y-13662238D02*
X18398507Y-13614619D01*
X18398507Y-13614619D02*
X18408031Y-13586048D01*
X18408031Y-13586048D02*
X18417555Y-13567000D01*
X18417555Y-13567000D02*
X18436602Y-13538428D01*
X18436602Y-13538428D02*
X18446126Y-13528905D01*
X18522317Y-13624143D02*
X18522317Y-13757476D01*
X18522317Y-13643190D02*
X18531840Y-13633667D01*
X18531840Y-13633667D02*
X18550888Y-13624143D01*
X18550888Y-13624143D02*
X18579460Y-13624143D01*
X18579460Y-13624143D02*
X18598507Y-13633667D01*
X18598507Y-13633667D02*
X18608031Y-13652714D01*
X18608031Y-13652714D02*
X18608031Y-13757476D01*
X18731840Y-13757476D02*
X18712793Y-13747952D01*
X18712793Y-13747952D02*
X18703269Y-13738428D01*
X18703269Y-13738428D02*
X18693745Y-13719381D01*
X18693745Y-13719381D02*
X18693745Y-13662238D01*
X18693745Y-13662238D02*
X18703269Y-13643190D01*
X18703269Y-13643190D02*
X18712793Y-13633667D01*
X18712793Y-13633667D02*
X18731840Y-13624143D01*
X18731840Y-13624143D02*
X18760412Y-13624143D01*
X18760412Y-13624143D02*
X18779460Y-13633667D01*
X18779460Y-13633667D02*
X18788983Y-13643190D01*
X18788983Y-13643190D02*
X18798507Y-13662238D01*
X18798507Y-13662238D02*
X18798507Y-13719381D01*
X18798507Y-13719381D02*
X18788983Y-13738428D01*
X18788983Y-13738428D02*
X18779460Y-13747952D01*
X18779460Y-13747952D02*
X18760412Y-13757476D01*
X18760412Y-13757476D02*
X18731840Y-13757476D01*
X18855650Y-13624143D02*
X18931840Y-13624143D01*
X18884221Y-13557476D02*
X18884221Y-13728905D01*
X18884221Y-13728905D02*
X18893745Y-13747952D01*
X18893745Y-13747952D02*
X18912793Y-13757476D01*
X18912793Y-13757476D02*
X18931840Y-13757476D01*
X19118507Y-13624143D02*
X19118507Y-13824143D01*
X19118507Y-13633667D02*
X19137555Y-13624143D01*
X19137555Y-13624143D02*
X19175650Y-13624143D01*
X19175650Y-13624143D02*
X19194698Y-13633667D01*
X19194698Y-13633667D02*
X19204221Y-13643190D01*
X19204221Y-13643190D02*
X19213745Y-13662238D01*
X19213745Y-13662238D02*
X19213745Y-13719381D01*
X19213745Y-13719381D02*
X19204221Y-13738428D01*
X19204221Y-13738428D02*
X19194698Y-13747952D01*
X19194698Y-13747952D02*
X19175650Y-13757476D01*
X19175650Y-13757476D02*
X19137555Y-13757476D01*
X19137555Y-13757476D02*
X19118507Y-13747952D01*
X19328031Y-13757476D02*
X19308983Y-13747952D01*
X19308983Y-13747952D02*
X19299460Y-13728905D01*
X19299460Y-13728905D02*
X19299460Y-13557476D01*
X19489936Y-13757476D02*
X19489936Y-13652714D01*
X19489936Y-13652714D02*
X19480412Y-13633667D01*
X19480412Y-13633667D02*
X19461364Y-13624143D01*
X19461364Y-13624143D02*
X19423269Y-13624143D01*
X19423269Y-13624143D02*
X19404221Y-13633667D01*
X19489936Y-13747952D02*
X19470888Y-13757476D01*
X19470888Y-13757476D02*
X19423269Y-13757476D01*
X19423269Y-13757476D02*
X19404221Y-13747952D01*
X19404221Y-13747952D02*
X19394698Y-13728905D01*
X19394698Y-13728905D02*
X19394698Y-13709857D01*
X19394698Y-13709857D02*
X19404221Y-13690809D01*
X19404221Y-13690809D02*
X19423269Y-13681286D01*
X19423269Y-13681286D02*
X19470888Y-13681286D01*
X19470888Y-13681286D02*
X19489936Y-13671762D01*
X19556602Y-13624143D02*
X19632793Y-13624143D01*
X19585174Y-13557476D02*
X19585174Y-13728905D01*
X19585174Y-13728905D02*
X19594698Y-13747952D01*
X19594698Y-13747952D02*
X19613745Y-13757476D01*
X19613745Y-13757476D02*
X19632793Y-13757476D01*
X19775650Y-13747952D02*
X19756602Y-13757476D01*
X19756602Y-13757476D02*
X19718507Y-13757476D01*
X19718507Y-13757476D02*
X19699460Y-13747952D01*
X19699460Y-13747952D02*
X19689936Y-13728905D01*
X19689936Y-13728905D02*
X19689936Y-13652714D01*
X19689936Y-13652714D02*
X19699460Y-13633667D01*
X19699460Y-13633667D02*
X19718507Y-13624143D01*
X19718507Y-13624143D02*
X19756602Y-13624143D01*
X19756602Y-13624143D02*
X19775650Y-13633667D01*
X19775650Y-13633667D02*
X19785174Y-13652714D01*
X19785174Y-13652714D02*
X19785174Y-13671762D01*
X19785174Y-13671762D02*
X19689936Y-13690809D01*
X19956602Y-13757476D02*
X19956602Y-13557476D01*
X19956602Y-13747952D02*
X19937555Y-13757476D01*
X19937555Y-13757476D02*
X19899460Y-13757476D01*
X19899460Y-13757476D02*
X19880412Y-13747952D01*
X19880412Y-13747952D02*
X19870888Y-13738428D01*
X19870888Y-13738428D02*
X19861364Y-13719381D01*
X19861364Y-13719381D02*
X19861364Y-13662238D01*
X19861364Y-13662238D02*
X19870888Y-13643190D01*
X19870888Y-13643190D02*
X19880412Y-13633667D01*
X19880412Y-13633667D02*
X19899460Y-13624143D01*
X19899460Y-13624143D02*
X19937555Y-13624143D01*
X19937555Y-13624143D02*
X19956602Y-13633667D01*
X20032793Y-13833667D02*
X20042317Y-13824143D01*
X20042317Y-13824143D02*
X20061364Y-13795571D01*
X20061364Y-13795571D02*
X20070888Y-13776524D01*
X20070888Y-13776524D02*
X20080412Y-13747952D01*
X20080412Y-13747952D02*
X20089936Y-13700333D01*
X20089936Y-13700333D02*
X20089936Y-13662238D01*
X20089936Y-13662238D02*
X20080412Y-13614619D01*
X20080412Y-13614619D02*
X20070888Y-13586048D01*
X20070888Y-13586048D02*
X20061364Y-13567000D01*
X20061364Y-13567000D02*
X20042317Y-13538428D01*
X20042317Y-13538428D02*
X20032793Y-13528905D01*
X13264456Y-14044891D02*
X13264456Y-13903469D01*
X13123034Y-13903469D01*
X13123034Y-14044891D01*
X13264456Y-14044891D01*
X13522316Y-13847656D02*
X13646126Y-13847656D01*
X13646126Y-13847656D02*
X13579459Y-13923847D01*
X13579459Y-13923847D02*
X13608031Y-13923847D01*
X13608031Y-13923847D02*
X13627078Y-13933370D01*
X13627078Y-13933370D02*
X13636602Y-13942894D01*
X13636602Y-13942894D02*
X13646126Y-13961942D01*
X13646126Y-13961942D02*
X13646126Y-14009561D01*
X13646126Y-14009561D02*
X13636602Y-14028608D01*
X13636602Y-14028608D02*
X13627078Y-14038132D01*
X13627078Y-14038132D02*
X13608031Y-14047656D01*
X13608031Y-14047656D02*
X13550888Y-14047656D01*
X13550888Y-14047656D02*
X13531840Y-14038132D01*
X13531840Y-14038132D02*
X13522316Y-14028608D01*
X13731840Y-14028608D02*
X13741364Y-14038132D01*
X13741364Y-14038132D02*
X13731840Y-14047656D01*
X13731840Y-14047656D02*
X13722316Y-14038132D01*
X13722316Y-14038132D02*
X13731840Y-14028608D01*
X13731840Y-14028608D02*
X13731840Y-14047656D01*
X13865173Y-13847656D02*
X13884221Y-13847656D01*
X13884221Y-13847656D02*
X13903269Y-13857180D01*
X13903269Y-13857180D02*
X13912793Y-13866704D01*
X13912793Y-13866704D02*
X13922316Y-13885751D01*
X13922316Y-13885751D02*
X13931840Y-13923847D01*
X13931840Y-13923847D02*
X13931840Y-13971466D01*
X13931840Y-13971466D02*
X13922316Y-14009561D01*
X13922316Y-14009561D02*
X13912793Y-14028608D01*
X13912793Y-14028608D02*
X13903269Y-14038132D01*
X13903269Y-14038132D02*
X13884221Y-14047656D01*
X13884221Y-14047656D02*
X13865173Y-14047656D01*
X13865173Y-14047656D02*
X13846126Y-14038132D01*
X13846126Y-14038132D02*
X13836602Y-14028608D01*
X13836602Y-14028608D02*
X13827078Y-14009561D01*
X13827078Y-14009561D02*
X13817554Y-13971466D01*
X13817554Y-13971466D02*
X13817554Y-13923847D01*
X13817554Y-13923847D02*
X13827078Y-13885751D01*
X13827078Y-13885751D02*
X13836602Y-13866704D01*
X13836602Y-13866704D02*
X13846126Y-13857180D01*
X13846126Y-13857180D02*
X13865173Y-13847656D01*
X14103269Y-13914323D02*
X14103269Y-14047656D01*
X14055650Y-13838132D02*
X14008031Y-13980989D01*
X14008031Y-13980989D02*
X14131840Y-13980989D01*
X14236602Y-13933370D02*
X14217554Y-13923847D01*
X14217554Y-13923847D02*
X14208031Y-13914323D01*
X14208031Y-13914323D02*
X14198507Y-13895275D01*
X14198507Y-13895275D02*
X14198507Y-13885751D01*
X14198507Y-13885751D02*
X14208031Y-13866704D01*
X14208031Y-13866704D02*
X14217554Y-13857180D01*
X14217554Y-13857180D02*
X14236602Y-13847656D01*
X14236602Y-13847656D02*
X14274697Y-13847656D01*
X14274697Y-13847656D02*
X14293745Y-13857180D01*
X14293745Y-13857180D02*
X14303269Y-13866704D01*
X14303269Y-13866704D02*
X14312793Y-13885751D01*
X14312793Y-13885751D02*
X14312793Y-13895275D01*
X14312793Y-13895275D02*
X14303269Y-13914323D01*
X14303269Y-13914323D02*
X14293745Y-13923847D01*
X14293745Y-13923847D02*
X14274697Y-13933370D01*
X14274697Y-13933370D02*
X14236602Y-13933370D01*
X14236602Y-13933370D02*
X14217554Y-13942894D01*
X14217554Y-13942894D02*
X14208031Y-13952418D01*
X14208031Y-13952418D02*
X14198507Y-13971466D01*
X14198507Y-13971466D02*
X14198507Y-14009561D01*
X14198507Y-14009561D02*
X14208031Y-14028608D01*
X14208031Y-14028608D02*
X14217554Y-14038132D01*
X14217554Y-14038132D02*
X14236602Y-14047656D01*
X14236602Y-14047656D02*
X14274697Y-14047656D01*
X14274697Y-14047656D02*
X14293745Y-14038132D01*
X14293745Y-14038132D02*
X14303269Y-14028608D01*
X14303269Y-14028608D02*
X14312793Y-14009561D01*
X14312793Y-14009561D02*
X14312793Y-13971466D01*
X14312793Y-13971466D02*
X14303269Y-13952418D01*
X14303269Y-13952418D02*
X14293745Y-13942894D01*
X14293745Y-13942894D02*
X14274697Y-13933370D01*
X14398507Y-14047656D02*
X14398507Y-13914323D01*
X14398507Y-13933370D02*
X14408031Y-13923847D01*
X14408031Y-13923847D02*
X14427078Y-13914323D01*
X14427078Y-13914323D02*
X14455650Y-13914323D01*
X14455650Y-13914323D02*
X14474697Y-13923847D01*
X14474697Y-13923847D02*
X14484221Y-13942894D01*
X14484221Y-13942894D02*
X14484221Y-14047656D01*
X14484221Y-13942894D02*
X14493745Y-13923847D01*
X14493745Y-13923847D02*
X14512793Y-13914323D01*
X14512793Y-13914323D02*
X14541364Y-13914323D01*
X14541364Y-13914323D02*
X14560412Y-13923847D01*
X14560412Y-13923847D02*
X14569935Y-13942894D01*
X14569935Y-13942894D02*
X14569935Y-14047656D01*
X14665174Y-14047656D02*
X14665174Y-13914323D01*
X14665174Y-13933370D02*
X14674697Y-13923847D01*
X14674697Y-13923847D02*
X14693745Y-13914323D01*
X14693745Y-13914323D02*
X14722316Y-13914323D01*
X14722316Y-13914323D02*
X14741364Y-13923847D01*
X14741364Y-13923847D02*
X14750888Y-13942894D01*
X14750888Y-13942894D02*
X14750888Y-14047656D01*
X14750888Y-13942894D02*
X14760412Y-13923847D01*
X14760412Y-13923847D02*
X14779459Y-13914323D01*
X14779459Y-13914323D02*
X14808031Y-13914323D01*
X14808031Y-13914323D02*
X14827078Y-13923847D01*
X14827078Y-13923847D02*
X14836602Y-13942894D01*
X14836602Y-13942894D02*
X14836602Y-14047656D01*
X15194697Y-13838132D02*
X15023269Y-14095275D01*
X15419459Y-13847656D02*
X15438507Y-13847656D01*
X15438507Y-13847656D02*
X15457555Y-13857180D01*
X15457555Y-13857180D02*
X15467078Y-13866704D01*
X15467078Y-13866704D02*
X15476602Y-13885751D01*
X15476602Y-13885751D02*
X15486126Y-13923847D01*
X15486126Y-13923847D02*
X15486126Y-13971466D01*
X15486126Y-13971466D02*
X15476602Y-14009561D01*
X15476602Y-14009561D02*
X15467078Y-14028608D01*
X15467078Y-14028608D02*
X15457555Y-14038132D01*
X15457555Y-14038132D02*
X15438507Y-14047656D01*
X15438507Y-14047656D02*
X15419459Y-14047656D01*
X15419459Y-14047656D02*
X15400412Y-14038132D01*
X15400412Y-14038132D02*
X15390888Y-14028608D01*
X15390888Y-14028608D02*
X15381364Y-14009561D01*
X15381364Y-14009561D02*
X15371840Y-13971466D01*
X15371840Y-13971466D02*
X15371840Y-13923847D01*
X15371840Y-13923847D02*
X15381364Y-13885751D01*
X15381364Y-13885751D02*
X15390888Y-13866704D01*
X15390888Y-13866704D02*
X15400412Y-13857180D01*
X15400412Y-13857180D02*
X15419459Y-13847656D01*
X15571840Y-14028608D02*
X15581364Y-14038132D01*
X15581364Y-14038132D02*
X15571840Y-14047656D01*
X15571840Y-14047656D02*
X15562316Y-14038132D01*
X15562316Y-14038132D02*
X15571840Y-14028608D01*
X15571840Y-14028608D02*
X15571840Y-14047656D01*
X15771840Y-14047656D02*
X15657555Y-14047656D01*
X15714697Y-14047656D02*
X15714697Y-13847656D01*
X15714697Y-13847656D02*
X15695650Y-13876228D01*
X15695650Y-13876228D02*
X15676602Y-13895275D01*
X15676602Y-13895275D02*
X15657555Y-13904799D01*
X15848031Y-13866704D02*
X15857555Y-13857180D01*
X15857555Y-13857180D02*
X15876602Y-13847656D01*
X15876602Y-13847656D02*
X15924221Y-13847656D01*
X15924221Y-13847656D02*
X15943269Y-13857180D01*
X15943269Y-13857180D02*
X15952793Y-13866704D01*
X15952793Y-13866704D02*
X15962316Y-13885751D01*
X15962316Y-13885751D02*
X15962316Y-13904799D01*
X15962316Y-13904799D02*
X15952793Y-13933370D01*
X15952793Y-13933370D02*
X15838507Y-14047656D01*
X15838507Y-14047656D02*
X15962316Y-14047656D01*
X16086126Y-13847656D02*
X16105174Y-13847656D01*
X16105174Y-13847656D02*
X16124221Y-13857180D01*
X16124221Y-13857180D02*
X16133745Y-13866704D01*
X16133745Y-13866704D02*
X16143269Y-13885751D01*
X16143269Y-13885751D02*
X16152793Y-13923847D01*
X16152793Y-13923847D02*
X16152793Y-13971466D01*
X16152793Y-13971466D02*
X16143269Y-14009561D01*
X16143269Y-14009561D02*
X16133745Y-14028608D01*
X16133745Y-14028608D02*
X16124221Y-14038132D01*
X16124221Y-14038132D02*
X16105174Y-14047656D01*
X16105174Y-14047656D02*
X16086126Y-14047656D01*
X16086126Y-14047656D02*
X16067078Y-14038132D01*
X16067078Y-14038132D02*
X16057555Y-14028608D01*
X16057555Y-14028608D02*
X16048031Y-14009561D01*
X16048031Y-14009561D02*
X16038507Y-13971466D01*
X16038507Y-13971466D02*
X16038507Y-13923847D01*
X16038507Y-13923847D02*
X16048031Y-13885751D01*
X16048031Y-13885751D02*
X16057555Y-13866704D01*
X16057555Y-13866704D02*
X16067078Y-13857180D01*
X16067078Y-13857180D02*
X16086126Y-13847656D01*
X16276602Y-13847656D02*
X16295650Y-13847656D01*
X16295650Y-13847656D02*
X16314697Y-13857180D01*
X16314697Y-13857180D02*
X16324221Y-13866704D01*
X16324221Y-13866704D02*
X16333745Y-13885751D01*
X16333745Y-13885751D02*
X16343269Y-13923847D01*
X16343269Y-13923847D02*
X16343269Y-13971466D01*
X16343269Y-13971466D02*
X16333745Y-14009561D01*
X16333745Y-14009561D02*
X16324221Y-14028608D01*
X16324221Y-14028608D02*
X16314697Y-14038132D01*
X16314697Y-14038132D02*
X16295650Y-14047656D01*
X16295650Y-14047656D02*
X16276602Y-14047656D01*
X16276602Y-14047656D02*
X16257555Y-14038132D01*
X16257555Y-14038132D02*
X16248031Y-14028608D01*
X16248031Y-14028608D02*
X16238507Y-14009561D01*
X16238507Y-14009561D02*
X16228983Y-13971466D01*
X16228983Y-13971466D02*
X16228983Y-13923847D01*
X16228983Y-13923847D02*
X16238507Y-13885751D01*
X16238507Y-13885751D02*
X16248031Y-13866704D01*
X16248031Y-13866704D02*
X16257555Y-13857180D01*
X16257555Y-13857180D02*
X16276602Y-13847656D01*
X16419459Y-13847656D02*
X16419459Y-13885751D01*
X16495650Y-13847656D02*
X16495650Y-13885751D01*
X16758507Y-14123847D02*
X16748983Y-14114323D01*
X16748983Y-14114323D02*
X16729936Y-14085751D01*
X16729936Y-14085751D02*
X16720412Y-14066704D01*
X16720412Y-14066704D02*
X16710888Y-14038132D01*
X16710888Y-14038132D02*
X16701364Y-13990513D01*
X16701364Y-13990513D02*
X16701364Y-13952418D01*
X16701364Y-13952418D02*
X16710888Y-13904799D01*
X16710888Y-13904799D02*
X16720412Y-13876228D01*
X16720412Y-13876228D02*
X16729936Y-13857180D01*
X16729936Y-13857180D02*
X16748983Y-13828608D01*
X16748983Y-13828608D02*
X16758507Y-13819085D01*
X16920412Y-13847656D02*
X16882317Y-13847656D01*
X16882317Y-13847656D02*
X16863269Y-13857180D01*
X16863269Y-13857180D02*
X16853745Y-13866704D01*
X16853745Y-13866704D02*
X16834698Y-13895275D01*
X16834698Y-13895275D02*
X16825174Y-13933370D01*
X16825174Y-13933370D02*
X16825174Y-14009561D01*
X16825174Y-14009561D02*
X16834698Y-14028608D01*
X16834698Y-14028608D02*
X16844221Y-14038132D01*
X16844221Y-14038132D02*
X16863269Y-14047656D01*
X16863269Y-14047656D02*
X16901364Y-14047656D01*
X16901364Y-14047656D02*
X16920412Y-14038132D01*
X16920412Y-14038132D02*
X16929936Y-14028608D01*
X16929936Y-14028608D02*
X16939459Y-14009561D01*
X16939459Y-14009561D02*
X16939459Y-13961942D01*
X16939459Y-13961942D02*
X16929936Y-13942894D01*
X16929936Y-13942894D02*
X16920412Y-13933370D01*
X16920412Y-13933370D02*
X16901364Y-13923847D01*
X16901364Y-13923847D02*
X16863269Y-13923847D01*
X16863269Y-13923847D02*
X16844221Y-13933370D01*
X16844221Y-13933370D02*
X16834698Y-13942894D01*
X16834698Y-13942894D02*
X16825174Y-13961942D01*
X17145174Y-14047656D02*
X17145174Y-13847656D01*
X17230888Y-14047656D02*
X17230888Y-13942894D01*
X17230888Y-13942894D02*
X17221364Y-13923847D01*
X17221364Y-13923847D02*
X17202317Y-13914323D01*
X17202317Y-13914323D02*
X17173745Y-13914323D01*
X17173745Y-13914323D02*
X17154698Y-13923847D01*
X17154698Y-13923847D02*
X17145174Y-13933370D01*
X17354698Y-14047656D02*
X17335650Y-14038132D01*
X17335650Y-14038132D02*
X17326126Y-14028608D01*
X17326126Y-14028608D02*
X17316602Y-14009561D01*
X17316602Y-14009561D02*
X17316602Y-13952418D01*
X17316602Y-13952418D02*
X17326126Y-13933370D01*
X17326126Y-13933370D02*
X17335650Y-13923847D01*
X17335650Y-13923847D02*
X17354698Y-13914323D01*
X17354698Y-13914323D02*
X17383269Y-13914323D01*
X17383269Y-13914323D02*
X17402317Y-13923847D01*
X17402317Y-13923847D02*
X17411840Y-13933370D01*
X17411840Y-13933370D02*
X17421364Y-13952418D01*
X17421364Y-13952418D02*
X17421364Y-14009561D01*
X17421364Y-14009561D02*
X17411840Y-14028608D01*
X17411840Y-14028608D02*
X17402317Y-14038132D01*
X17402317Y-14038132D02*
X17383269Y-14047656D01*
X17383269Y-14047656D02*
X17354698Y-14047656D01*
X17535650Y-14047656D02*
X17516602Y-14038132D01*
X17516602Y-14038132D02*
X17507079Y-14019085D01*
X17507079Y-14019085D02*
X17507079Y-13847656D01*
X17688031Y-14038132D02*
X17668983Y-14047656D01*
X17668983Y-14047656D02*
X17630888Y-14047656D01*
X17630888Y-14047656D02*
X17611840Y-14038132D01*
X17611840Y-14038132D02*
X17602317Y-14019085D01*
X17602317Y-14019085D02*
X17602317Y-13942894D01*
X17602317Y-13942894D02*
X17611840Y-13923847D01*
X17611840Y-13923847D02*
X17630888Y-13914323D01*
X17630888Y-13914323D02*
X17668983Y-13914323D01*
X17668983Y-13914323D02*
X17688031Y-13923847D01*
X17688031Y-13923847D02*
X17697555Y-13942894D01*
X17697555Y-13942894D02*
X17697555Y-13961942D01*
X17697555Y-13961942D02*
X17602317Y-13980989D01*
X17773745Y-14038132D02*
X17792793Y-14047656D01*
X17792793Y-14047656D02*
X17830888Y-14047656D01*
X17830888Y-14047656D02*
X17849936Y-14038132D01*
X17849936Y-14038132D02*
X17859460Y-14019085D01*
X17859460Y-14019085D02*
X17859460Y-14009561D01*
X17859460Y-14009561D02*
X17849936Y-13990513D01*
X17849936Y-13990513D02*
X17830888Y-13980989D01*
X17830888Y-13980989D02*
X17802317Y-13980989D01*
X17802317Y-13980989D02*
X17783269Y-13971466D01*
X17783269Y-13971466D02*
X17773745Y-13952418D01*
X17773745Y-13952418D02*
X17773745Y-13942894D01*
X17773745Y-13942894D02*
X17783269Y-13923847D01*
X17783269Y-13923847D02*
X17802317Y-13914323D01*
X17802317Y-13914323D02*
X17830888Y-13914323D01*
X17830888Y-13914323D02*
X17849936Y-13923847D01*
X17926126Y-14123847D02*
X17935650Y-14114323D01*
X17935650Y-14114323D02*
X17954698Y-14085751D01*
X17954698Y-14085751D02*
X17964221Y-14066704D01*
X17964221Y-14066704D02*
X17973745Y-14038132D01*
X17973745Y-14038132D02*
X17983269Y-13990513D01*
X17983269Y-13990513D02*
X17983269Y-13952418D01*
X17983269Y-13952418D02*
X17973745Y-13904799D01*
X17973745Y-13904799D02*
X17964221Y-13876228D01*
X17964221Y-13876228D02*
X17954698Y-13857180D01*
X17954698Y-13857180D02*
X17935650Y-13828608D01*
X17935650Y-13828608D02*
X17926126Y-13819085D01*
X18255650Y-14123847D02*
X18246126Y-14114323D01*
X18246126Y-14114323D02*
X18227079Y-14085751D01*
X18227079Y-14085751D02*
X18217555Y-14066704D01*
X18217555Y-14066704D02*
X18208031Y-14038132D01*
X18208031Y-14038132D02*
X18198507Y-13990513D01*
X18198507Y-13990513D02*
X18198507Y-13952418D01*
X18198507Y-13952418D02*
X18208031Y-13904799D01*
X18208031Y-13904799D02*
X18217555Y-13876228D01*
X18217555Y-13876228D02*
X18227079Y-13857180D01*
X18227079Y-13857180D02*
X18246126Y-13828608D01*
X18246126Y-13828608D02*
X18255650Y-13819085D01*
X18331840Y-13914323D02*
X18331840Y-14047656D01*
X18331840Y-13933370D02*
X18341364Y-13923847D01*
X18341364Y-13923847D02*
X18360412Y-13914323D01*
X18360412Y-13914323D02*
X18388983Y-13914323D01*
X18388983Y-13914323D02*
X18408031Y-13923847D01*
X18408031Y-13923847D02*
X18417555Y-13942894D01*
X18417555Y-13942894D02*
X18417555Y-14047656D01*
X18541364Y-14047656D02*
X18522317Y-14038132D01*
X18522317Y-14038132D02*
X18512793Y-14028608D01*
X18512793Y-14028608D02*
X18503269Y-14009561D01*
X18503269Y-14009561D02*
X18503269Y-13952418D01*
X18503269Y-13952418D02*
X18512793Y-13933370D01*
X18512793Y-13933370D02*
X18522317Y-13923847D01*
X18522317Y-13923847D02*
X18541364Y-13914323D01*
X18541364Y-13914323D02*
X18569936Y-13914323D01*
X18569936Y-13914323D02*
X18588983Y-13923847D01*
X18588983Y-13923847D02*
X18598507Y-13933370D01*
X18598507Y-13933370D02*
X18608031Y-13952418D01*
X18608031Y-13952418D02*
X18608031Y-14009561D01*
X18608031Y-14009561D02*
X18598507Y-14028608D01*
X18598507Y-14028608D02*
X18588983Y-14038132D01*
X18588983Y-14038132D02*
X18569936Y-14047656D01*
X18569936Y-14047656D02*
X18541364Y-14047656D01*
X18665174Y-13914323D02*
X18741364Y-13914323D01*
X18693745Y-13847656D02*
X18693745Y-14019085D01*
X18693745Y-14019085D02*
X18703269Y-14038132D01*
X18703269Y-14038132D02*
X18722317Y-14047656D01*
X18722317Y-14047656D02*
X18741364Y-14047656D01*
X18928031Y-13914323D02*
X18928031Y-14114323D01*
X18928031Y-13923847D02*
X18947079Y-13914323D01*
X18947079Y-13914323D02*
X18985174Y-13914323D01*
X18985174Y-13914323D02*
X19004221Y-13923847D01*
X19004221Y-13923847D02*
X19013745Y-13933370D01*
X19013745Y-13933370D02*
X19023269Y-13952418D01*
X19023269Y-13952418D02*
X19023269Y-14009561D01*
X19023269Y-14009561D02*
X19013745Y-14028608D01*
X19013745Y-14028608D02*
X19004221Y-14038132D01*
X19004221Y-14038132D02*
X18985174Y-14047656D01*
X18985174Y-14047656D02*
X18947079Y-14047656D01*
X18947079Y-14047656D02*
X18928031Y-14038132D01*
X19137555Y-14047656D02*
X19118507Y-14038132D01*
X19118507Y-14038132D02*
X19108983Y-14019085D01*
X19108983Y-14019085D02*
X19108983Y-13847656D01*
X19299460Y-14047656D02*
X19299460Y-13942894D01*
X19299460Y-13942894D02*
X19289936Y-13923847D01*
X19289936Y-13923847D02*
X19270888Y-13914323D01*
X19270888Y-13914323D02*
X19232793Y-13914323D01*
X19232793Y-13914323D02*
X19213745Y-13923847D01*
X19299460Y-14038132D02*
X19280412Y-14047656D01*
X19280412Y-14047656D02*
X19232793Y-14047656D01*
X19232793Y-14047656D02*
X19213745Y-14038132D01*
X19213745Y-14038132D02*
X19204221Y-14019085D01*
X19204221Y-14019085D02*
X19204221Y-14000037D01*
X19204221Y-14000037D02*
X19213745Y-13980989D01*
X19213745Y-13980989D02*
X19232793Y-13971466D01*
X19232793Y-13971466D02*
X19280412Y-13971466D01*
X19280412Y-13971466D02*
X19299460Y-13961942D01*
X19366126Y-13914323D02*
X19442317Y-13914323D01*
X19394698Y-13847656D02*
X19394698Y-14019085D01*
X19394698Y-14019085D02*
X19404221Y-14038132D01*
X19404221Y-14038132D02*
X19423269Y-14047656D01*
X19423269Y-14047656D02*
X19442317Y-14047656D01*
X19585174Y-14038132D02*
X19566126Y-14047656D01*
X19566126Y-14047656D02*
X19528031Y-14047656D01*
X19528031Y-14047656D02*
X19508983Y-14038132D01*
X19508983Y-14038132D02*
X19499460Y-14019085D01*
X19499460Y-14019085D02*
X19499460Y-13942894D01*
X19499460Y-13942894D02*
X19508983Y-13923847D01*
X19508983Y-13923847D02*
X19528031Y-13914323D01*
X19528031Y-13914323D02*
X19566126Y-13914323D01*
X19566126Y-13914323D02*
X19585174Y-13923847D01*
X19585174Y-13923847D02*
X19594698Y-13942894D01*
X19594698Y-13942894D02*
X19594698Y-13961942D01*
X19594698Y-13961942D02*
X19499460Y-13980989D01*
X19766126Y-14047656D02*
X19766126Y-13847656D01*
X19766126Y-14038132D02*
X19747079Y-14047656D01*
X19747079Y-14047656D02*
X19708983Y-14047656D01*
X19708983Y-14047656D02*
X19689936Y-14038132D01*
X19689936Y-14038132D02*
X19680412Y-14028608D01*
X19680412Y-14028608D02*
X19670888Y-14009561D01*
X19670888Y-14009561D02*
X19670888Y-13952418D01*
X19670888Y-13952418D02*
X19680412Y-13933370D01*
X19680412Y-13933370D02*
X19689936Y-13923847D01*
X19689936Y-13923847D02*
X19708983Y-13914323D01*
X19708983Y-13914323D02*
X19747079Y-13914323D01*
X19747079Y-13914323D02*
X19766126Y-13923847D01*
X19842317Y-14123847D02*
X19851841Y-14114323D01*
X19851841Y-14114323D02*
X19870888Y-14085751D01*
X19870888Y-14085751D02*
X19880412Y-14066704D01*
X19880412Y-14066704D02*
X19889936Y-14038132D01*
X19889936Y-14038132D02*
X19899460Y-13990513D01*
X19899460Y-13990513D02*
X19899460Y-13952418D01*
X19899460Y-13952418D02*
X19889936Y-13904799D01*
X19889936Y-13904799D02*
X19880412Y-13876228D01*
X19880412Y-13876228D02*
X19870888Y-13857180D01*
X19870888Y-13857180D02*
X19851841Y-13828608D01*
X19851841Y-13828608D02*
X19842317Y-13819085D01*
X13193745Y-14394180D02*
X13293745Y-14294180D01*
X13193745Y-14194180D01*
X13093745Y-14294180D01*
X13193745Y-14394180D01*
X13522316Y-14167656D02*
X13646126Y-14167656D01*
X13646126Y-14167656D02*
X13579459Y-14243847D01*
X13579459Y-14243847D02*
X13608031Y-14243847D01*
X13608031Y-14243847D02*
X13627078Y-14253370D01*
X13627078Y-14253370D02*
X13636602Y-14262894D01*
X13636602Y-14262894D02*
X13646126Y-14281942D01*
X13646126Y-14281942D02*
X13646126Y-14329561D01*
X13646126Y-14329561D02*
X13636602Y-14348608D01*
X13636602Y-14348608D02*
X13627078Y-14358132D01*
X13627078Y-14358132D02*
X13608031Y-14367656D01*
X13608031Y-14367656D02*
X13550888Y-14367656D01*
X13550888Y-14367656D02*
X13531840Y-14358132D01*
X13531840Y-14358132D02*
X13522316Y-14348608D01*
X13731840Y-14348608D02*
X13741364Y-14358132D01*
X13741364Y-14358132D02*
X13731840Y-14367656D01*
X13731840Y-14367656D02*
X13722316Y-14358132D01*
X13722316Y-14358132D02*
X13731840Y-14348608D01*
X13731840Y-14348608D02*
X13731840Y-14367656D01*
X13836602Y-14367656D02*
X13874697Y-14367656D01*
X13874697Y-14367656D02*
X13893745Y-14358132D01*
X13893745Y-14358132D02*
X13903269Y-14348608D01*
X13903269Y-14348608D02*
X13922316Y-14320037D01*
X13922316Y-14320037D02*
X13931840Y-14281942D01*
X13931840Y-14281942D02*
X13931840Y-14205751D01*
X13931840Y-14205751D02*
X13922316Y-14186704D01*
X13922316Y-14186704D02*
X13912793Y-14177180D01*
X13912793Y-14177180D02*
X13893745Y-14167656D01*
X13893745Y-14167656D02*
X13855650Y-14167656D01*
X13855650Y-14167656D02*
X13836602Y-14177180D01*
X13836602Y-14177180D02*
X13827078Y-14186704D01*
X13827078Y-14186704D02*
X13817554Y-14205751D01*
X13817554Y-14205751D02*
X13817554Y-14253370D01*
X13817554Y-14253370D02*
X13827078Y-14272418D01*
X13827078Y-14272418D02*
X13836602Y-14281942D01*
X13836602Y-14281942D02*
X13855650Y-14291466D01*
X13855650Y-14291466D02*
X13893745Y-14291466D01*
X13893745Y-14291466D02*
X13912793Y-14281942D01*
X13912793Y-14281942D02*
X13922316Y-14272418D01*
X13922316Y-14272418D02*
X13931840Y-14253370D01*
X14046126Y-14253370D02*
X14027078Y-14243847D01*
X14027078Y-14243847D02*
X14017554Y-14234323D01*
X14017554Y-14234323D02*
X14008031Y-14215275D01*
X14008031Y-14215275D02*
X14008031Y-14205751D01*
X14008031Y-14205751D02*
X14017554Y-14186704D01*
X14017554Y-14186704D02*
X14027078Y-14177180D01*
X14027078Y-14177180D02*
X14046126Y-14167656D01*
X14046126Y-14167656D02*
X14084221Y-14167656D01*
X14084221Y-14167656D02*
X14103269Y-14177180D01*
X14103269Y-14177180D02*
X14112793Y-14186704D01*
X14112793Y-14186704D02*
X14122316Y-14205751D01*
X14122316Y-14205751D02*
X14122316Y-14215275D01*
X14122316Y-14215275D02*
X14112793Y-14234323D01*
X14112793Y-14234323D02*
X14103269Y-14243847D01*
X14103269Y-14243847D02*
X14084221Y-14253370D01*
X14084221Y-14253370D02*
X14046126Y-14253370D01*
X14046126Y-14253370D02*
X14027078Y-14262894D01*
X14027078Y-14262894D02*
X14017554Y-14272418D01*
X14017554Y-14272418D02*
X14008031Y-14291466D01*
X14008031Y-14291466D02*
X14008031Y-14329561D01*
X14008031Y-14329561D02*
X14017554Y-14348608D01*
X14017554Y-14348608D02*
X14027078Y-14358132D01*
X14027078Y-14358132D02*
X14046126Y-14367656D01*
X14046126Y-14367656D02*
X14084221Y-14367656D01*
X14084221Y-14367656D02*
X14103269Y-14358132D01*
X14103269Y-14358132D02*
X14112793Y-14348608D01*
X14112793Y-14348608D02*
X14122316Y-14329561D01*
X14122316Y-14329561D02*
X14122316Y-14291466D01*
X14122316Y-14291466D02*
X14112793Y-14272418D01*
X14112793Y-14272418D02*
X14103269Y-14262894D01*
X14103269Y-14262894D02*
X14084221Y-14253370D01*
X14236602Y-14253370D02*
X14217554Y-14243847D01*
X14217554Y-14243847D02*
X14208031Y-14234323D01*
X14208031Y-14234323D02*
X14198507Y-14215275D01*
X14198507Y-14215275D02*
X14198507Y-14205751D01*
X14198507Y-14205751D02*
X14208031Y-14186704D01*
X14208031Y-14186704D02*
X14217554Y-14177180D01*
X14217554Y-14177180D02*
X14236602Y-14167656D01*
X14236602Y-14167656D02*
X14274697Y-14167656D01*
X14274697Y-14167656D02*
X14293745Y-14177180D01*
X14293745Y-14177180D02*
X14303269Y-14186704D01*
X14303269Y-14186704D02*
X14312793Y-14205751D01*
X14312793Y-14205751D02*
X14312793Y-14215275D01*
X14312793Y-14215275D02*
X14303269Y-14234323D01*
X14303269Y-14234323D02*
X14293745Y-14243847D01*
X14293745Y-14243847D02*
X14274697Y-14253370D01*
X14274697Y-14253370D02*
X14236602Y-14253370D01*
X14236602Y-14253370D02*
X14217554Y-14262894D01*
X14217554Y-14262894D02*
X14208031Y-14272418D01*
X14208031Y-14272418D02*
X14198507Y-14291466D01*
X14198507Y-14291466D02*
X14198507Y-14329561D01*
X14198507Y-14329561D02*
X14208031Y-14348608D01*
X14208031Y-14348608D02*
X14217554Y-14358132D01*
X14217554Y-14358132D02*
X14236602Y-14367656D01*
X14236602Y-14367656D02*
X14274697Y-14367656D01*
X14274697Y-14367656D02*
X14293745Y-14358132D01*
X14293745Y-14358132D02*
X14303269Y-14348608D01*
X14303269Y-14348608D02*
X14312793Y-14329561D01*
X14312793Y-14329561D02*
X14312793Y-14291466D01*
X14312793Y-14291466D02*
X14303269Y-14272418D01*
X14303269Y-14272418D02*
X14293745Y-14262894D01*
X14293745Y-14262894D02*
X14274697Y-14253370D01*
X14398507Y-14367656D02*
X14398507Y-14234323D01*
X14398507Y-14253370D02*
X14408031Y-14243847D01*
X14408031Y-14243847D02*
X14427078Y-14234323D01*
X14427078Y-14234323D02*
X14455650Y-14234323D01*
X14455650Y-14234323D02*
X14474697Y-14243847D01*
X14474697Y-14243847D02*
X14484221Y-14262894D01*
X14484221Y-14262894D02*
X14484221Y-14367656D01*
X14484221Y-14262894D02*
X14493745Y-14243847D01*
X14493745Y-14243847D02*
X14512793Y-14234323D01*
X14512793Y-14234323D02*
X14541364Y-14234323D01*
X14541364Y-14234323D02*
X14560412Y-14243847D01*
X14560412Y-14243847D02*
X14569935Y-14262894D01*
X14569935Y-14262894D02*
X14569935Y-14367656D01*
X14665174Y-14367656D02*
X14665174Y-14234323D01*
X14665174Y-14253370D02*
X14674697Y-14243847D01*
X14674697Y-14243847D02*
X14693745Y-14234323D01*
X14693745Y-14234323D02*
X14722316Y-14234323D01*
X14722316Y-14234323D02*
X14741364Y-14243847D01*
X14741364Y-14243847D02*
X14750888Y-14262894D01*
X14750888Y-14262894D02*
X14750888Y-14367656D01*
X14750888Y-14262894D02*
X14760412Y-14243847D01*
X14760412Y-14243847D02*
X14779459Y-14234323D01*
X14779459Y-14234323D02*
X14808031Y-14234323D01*
X14808031Y-14234323D02*
X14827078Y-14243847D01*
X14827078Y-14243847D02*
X14836602Y-14262894D01*
X14836602Y-14262894D02*
X14836602Y-14367656D01*
X15194697Y-14158132D02*
X15023269Y-14415275D01*
X15419459Y-14167656D02*
X15438507Y-14167656D01*
X15438507Y-14167656D02*
X15457555Y-14177180D01*
X15457555Y-14177180D02*
X15467078Y-14186704D01*
X15467078Y-14186704D02*
X15476602Y-14205751D01*
X15476602Y-14205751D02*
X15486126Y-14243847D01*
X15486126Y-14243847D02*
X15486126Y-14291466D01*
X15486126Y-14291466D02*
X15476602Y-14329561D01*
X15476602Y-14329561D02*
X15467078Y-14348608D01*
X15467078Y-14348608D02*
X15457555Y-14358132D01*
X15457555Y-14358132D02*
X15438507Y-14367656D01*
X15438507Y-14367656D02*
X15419459Y-14367656D01*
X15419459Y-14367656D02*
X15400412Y-14358132D01*
X15400412Y-14358132D02*
X15390888Y-14348608D01*
X15390888Y-14348608D02*
X15381364Y-14329561D01*
X15381364Y-14329561D02*
X15371840Y-14291466D01*
X15371840Y-14291466D02*
X15371840Y-14243847D01*
X15371840Y-14243847D02*
X15381364Y-14205751D01*
X15381364Y-14205751D02*
X15390888Y-14186704D01*
X15390888Y-14186704D02*
X15400412Y-14177180D01*
X15400412Y-14177180D02*
X15419459Y-14167656D01*
X15571840Y-14348608D02*
X15581364Y-14358132D01*
X15581364Y-14358132D02*
X15571840Y-14367656D01*
X15571840Y-14367656D02*
X15562316Y-14358132D01*
X15562316Y-14358132D02*
X15571840Y-14348608D01*
X15571840Y-14348608D02*
X15571840Y-14367656D01*
X15771840Y-14367656D02*
X15657555Y-14367656D01*
X15714697Y-14367656D02*
X15714697Y-14167656D01*
X15714697Y-14167656D02*
X15695650Y-14196228D01*
X15695650Y-14196228D02*
X15676602Y-14215275D01*
X15676602Y-14215275D02*
X15657555Y-14224799D01*
X15952793Y-14167656D02*
X15857555Y-14167656D01*
X15857555Y-14167656D02*
X15848031Y-14262894D01*
X15848031Y-14262894D02*
X15857555Y-14253370D01*
X15857555Y-14253370D02*
X15876602Y-14243847D01*
X15876602Y-14243847D02*
X15924221Y-14243847D01*
X15924221Y-14243847D02*
X15943269Y-14253370D01*
X15943269Y-14253370D02*
X15952793Y-14262894D01*
X15952793Y-14262894D02*
X15962316Y-14281942D01*
X15962316Y-14281942D02*
X15962316Y-14329561D01*
X15962316Y-14329561D02*
X15952793Y-14348608D01*
X15952793Y-14348608D02*
X15943269Y-14358132D01*
X15943269Y-14358132D02*
X15924221Y-14367656D01*
X15924221Y-14367656D02*
X15876602Y-14367656D01*
X15876602Y-14367656D02*
X15857555Y-14358132D01*
X15857555Y-14358132D02*
X15848031Y-14348608D01*
X16028983Y-14167656D02*
X16162316Y-14167656D01*
X16162316Y-14167656D02*
X16076602Y-14367656D01*
X16276602Y-14167656D02*
X16295650Y-14167656D01*
X16295650Y-14167656D02*
X16314697Y-14177180D01*
X16314697Y-14177180D02*
X16324221Y-14186704D01*
X16324221Y-14186704D02*
X16333745Y-14205751D01*
X16333745Y-14205751D02*
X16343269Y-14243847D01*
X16343269Y-14243847D02*
X16343269Y-14291466D01*
X16343269Y-14291466D02*
X16333745Y-14329561D01*
X16333745Y-14329561D02*
X16324221Y-14348608D01*
X16324221Y-14348608D02*
X16314697Y-14358132D01*
X16314697Y-14358132D02*
X16295650Y-14367656D01*
X16295650Y-14367656D02*
X16276602Y-14367656D01*
X16276602Y-14367656D02*
X16257555Y-14358132D01*
X16257555Y-14358132D02*
X16248031Y-14348608D01*
X16248031Y-14348608D02*
X16238507Y-14329561D01*
X16238507Y-14329561D02*
X16228983Y-14291466D01*
X16228983Y-14291466D02*
X16228983Y-14243847D01*
X16228983Y-14243847D02*
X16238507Y-14205751D01*
X16238507Y-14205751D02*
X16248031Y-14186704D01*
X16248031Y-14186704D02*
X16257555Y-14177180D01*
X16257555Y-14177180D02*
X16276602Y-14167656D01*
X16419459Y-14167656D02*
X16419459Y-14205751D01*
X16495650Y-14167656D02*
X16495650Y-14205751D01*
X16758507Y-14443847D02*
X16748983Y-14434323D01*
X16748983Y-14434323D02*
X16729936Y-14405751D01*
X16729936Y-14405751D02*
X16720412Y-14386704D01*
X16720412Y-14386704D02*
X16710888Y-14358132D01*
X16710888Y-14358132D02*
X16701364Y-14310513D01*
X16701364Y-14310513D02*
X16701364Y-14272418D01*
X16701364Y-14272418D02*
X16710888Y-14224799D01*
X16710888Y-14224799D02*
X16720412Y-14196228D01*
X16720412Y-14196228D02*
X16729936Y-14177180D01*
X16729936Y-14177180D02*
X16748983Y-14148608D01*
X16748983Y-14148608D02*
X16758507Y-14139085D01*
X16825174Y-14186704D02*
X16834698Y-14177180D01*
X16834698Y-14177180D02*
X16853745Y-14167656D01*
X16853745Y-14167656D02*
X16901364Y-14167656D01*
X16901364Y-14167656D02*
X16920412Y-14177180D01*
X16920412Y-14177180D02*
X16929936Y-14186704D01*
X16929936Y-14186704D02*
X16939459Y-14205751D01*
X16939459Y-14205751D02*
X16939459Y-14224799D01*
X16939459Y-14224799D02*
X16929936Y-14253370D01*
X16929936Y-14253370D02*
X16815650Y-14367656D01*
X16815650Y-14367656D02*
X16939459Y-14367656D01*
X17120412Y-14167656D02*
X17025174Y-14167656D01*
X17025174Y-14167656D02*
X17015650Y-14262894D01*
X17015650Y-14262894D02*
X17025174Y-14253370D01*
X17025174Y-14253370D02*
X17044221Y-14243847D01*
X17044221Y-14243847D02*
X17091840Y-14243847D01*
X17091840Y-14243847D02*
X17110888Y-14253370D01*
X17110888Y-14253370D02*
X17120412Y-14262894D01*
X17120412Y-14262894D02*
X17129936Y-14281942D01*
X17129936Y-14281942D02*
X17129936Y-14329561D01*
X17129936Y-14329561D02*
X17120412Y-14348608D01*
X17120412Y-14348608D02*
X17110888Y-14358132D01*
X17110888Y-14358132D02*
X17091840Y-14367656D01*
X17091840Y-14367656D02*
X17044221Y-14367656D01*
X17044221Y-14367656D02*
X17025174Y-14358132D01*
X17025174Y-14358132D02*
X17015650Y-14348608D01*
X17335650Y-14367656D02*
X17335650Y-14167656D01*
X17421364Y-14367656D02*
X17421364Y-14262894D01*
X17421364Y-14262894D02*
X17411840Y-14243847D01*
X17411840Y-14243847D02*
X17392793Y-14234323D01*
X17392793Y-14234323D02*
X17364221Y-14234323D01*
X17364221Y-14234323D02*
X17345174Y-14243847D01*
X17345174Y-14243847D02*
X17335650Y-14253370D01*
X17545174Y-14367656D02*
X17526126Y-14358132D01*
X17526126Y-14358132D02*
X17516602Y-14348608D01*
X17516602Y-14348608D02*
X17507079Y-14329561D01*
X17507079Y-14329561D02*
X17507079Y-14272418D01*
X17507079Y-14272418D02*
X17516602Y-14253370D01*
X17516602Y-14253370D02*
X17526126Y-14243847D01*
X17526126Y-14243847D02*
X17545174Y-14234323D01*
X17545174Y-14234323D02*
X17573745Y-14234323D01*
X17573745Y-14234323D02*
X17592793Y-14243847D01*
X17592793Y-14243847D02*
X17602317Y-14253370D01*
X17602317Y-14253370D02*
X17611840Y-14272418D01*
X17611840Y-14272418D02*
X17611840Y-14329561D01*
X17611840Y-14329561D02*
X17602317Y-14348608D01*
X17602317Y-14348608D02*
X17592793Y-14358132D01*
X17592793Y-14358132D02*
X17573745Y-14367656D01*
X17573745Y-14367656D02*
X17545174Y-14367656D01*
X17726126Y-14367656D02*
X17707079Y-14358132D01*
X17707079Y-14358132D02*
X17697555Y-14339085D01*
X17697555Y-14339085D02*
X17697555Y-14167656D01*
X17878507Y-14358132D02*
X17859460Y-14367656D01*
X17859460Y-14367656D02*
X17821364Y-14367656D01*
X17821364Y-14367656D02*
X17802317Y-14358132D01*
X17802317Y-14358132D02*
X17792793Y-14339085D01*
X17792793Y-14339085D02*
X17792793Y-14262894D01*
X17792793Y-14262894D02*
X17802317Y-14243847D01*
X17802317Y-14243847D02*
X17821364Y-14234323D01*
X17821364Y-14234323D02*
X17859460Y-14234323D01*
X17859460Y-14234323D02*
X17878507Y-14243847D01*
X17878507Y-14243847D02*
X17888031Y-14262894D01*
X17888031Y-14262894D02*
X17888031Y-14281942D01*
X17888031Y-14281942D02*
X17792793Y-14300989D01*
X17964221Y-14358132D02*
X17983269Y-14367656D01*
X17983269Y-14367656D02*
X18021364Y-14367656D01*
X18021364Y-14367656D02*
X18040412Y-14358132D01*
X18040412Y-14358132D02*
X18049936Y-14339085D01*
X18049936Y-14339085D02*
X18049936Y-14329561D01*
X18049936Y-14329561D02*
X18040412Y-14310513D01*
X18040412Y-14310513D02*
X18021364Y-14300989D01*
X18021364Y-14300989D02*
X17992793Y-14300989D01*
X17992793Y-14300989D02*
X17973745Y-14291466D01*
X17973745Y-14291466D02*
X17964221Y-14272418D01*
X17964221Y-14272418D02*
X17964221Y-14262894D01*
X17964221Y-14262894D02*
X17973745Y-14243847D01*
X17973745Y-14243847D02*
X17992793Y-14234323D01*
X17992793Y-14234323D02*
X18021364Y-14234323D01*
X18021364Y-14234323D02*
X18040412Y-14243847D01*
X18116602Y-14443847D02*
X18126126Y-14434323D01*
X18126126Y-14434323D02*
X18145174Y-14405751D01*
X18145174Y-14405751D02*
X18154698Y-14386704D01*
X18154698Y-14386704D02*
X18164221Y-14358132D01*
X18164221Y-14358132D02*
X18173745Y-14310513D01*
X18173745Y-14310513D02*
X18173745Y-14272418D01*
X18173745Y-14272418D02*
X18164221Y-14224799D01*
X18164221Y-14224799D02*
X18154698Y-14196228D01*
X18154698Y-14196228D02*
X18145174Y-14177180D01*
X18145174Y-14177180D02*
X18126126Y-14148608D01*
X18126126Y-14148608D02*
X18116602Y-14139085D01*
X18446126Y-14443847D02*
X18436602Y-14434323D01*
X18436602Y-14434323D02*
X18417555Y-14405751D01*
X18417555Y-14405751D02*
X18408031Y-14386704D01*
X18408031Y-14386704D02*
X18398507Y-14358132D01*
X18398507Y-14358132D02*
X18388983Y-14310513D01*
X18388983Y-14310513D02*
X18388983Y-14272418D01*
X18388983Y-14272418D02*
X18398507Y-14224799D01*
X18398507Y-14224799D02*
X18408031Y-14196228D01*
X18408031Y-14196228D02*
X18417555Y-14177180D01*
X18417555Y-14177180D02*
X18436602Y-14148608D01*
X18436602Y-14148608D02*
X18446126Y-14139085D01*
X18522317Y-14234323D02*
X18522317Y-14367656D01*
X18522317Y-14253370D02*
X18531840Y-14243847D01*
X18531840Y-14243847D02*
X18550888Y-14234323D01*
X18550888Y-14234323D02*
X18579460Y-14234323D01*
X18579460Y-14234323D02*
X18598507Y-14243847D01*
X18598507Y-14243847D02*
X18608031Y-14262894D01*
X18608031Y-14262894D02*
X18608031Y-14367656D01*
X18731840Y-14367656D02*
X18712793Y-14358132D01*
X18712793Y-14358132D02*
X18703269Y-14348608D01*
X18703269Y-14348608D02*
X18693745Y-14329561D01*
X18693745Y-14329561D02*
X18693745Y-14272418D01*
X18693745Y-14272418D02*
X18703269Y-14253370D01*
X18703269Y-14253370D02*
X18712793Y-14243847D01*
X18712793Y-14243847D02*
X18731840Y-14234323D01*
X18731840Y-14234323D02*
X18760412Y-14234323D01*
X18760412Y-14234323D02*
X18779460Y-14243847D01*
X18779460Y-14243847D02*
X18788983Y-14253370D01*
X18788983Y-14253370D02*
X18798507Y-14272418D01*
X18798507Y-14272418D02*
X18798507Y-14329561D01*
X18798507Y-14329561D02*
X18788983Y-14348608D01*
X18788983Y-14348608D02*
X18779460Y-14358132D01*
X18779460Y-14358132D02*
X18760412Y-14367656D01*
X18760412Y-14367656D02*
X18731840Y-14367656D01*
X18855650Y-14234323D02*
X18931840Y-14234323D01*
X18884221Y-14167656D02*
X18884221Y-14339085D01*
X18884221Y-14339085D02*
X18893745Y-14358132D01*
X18893745Y-14358132D02*
X18912793Y-14367656D01*
X18912793Y-14367656D02*
X18931840Y-14367656D01*
X19118507Y-14234323D02*
X19118507Y-14434323D01*
X19118507Y-14243847D02*
X19137555Y-14234323D01*
X19137555Y-14234323D02*
X19175650Y-14234323D01*
X19175650Y-14234323D02*
X19194698Y-14243847D01*
X19194698Y-14243847D02*
X19204221Y-14253370D01*
X19204221Y-14253370D02*
X19213745Y-14272418D01*
X19213745Y-14272418D02*
X19213745Y-14329561D01*
X19213745Y-14329561D02*
X19204221Y-14348608D01*
X19204221Y-14348608D02*
X19194698Y-14358132D01*
X19194698Y-14358132D02*
X19175650Y-14367656D01*
X19175650Y-14367656D02*
X19137555Y-14367656D01*
X19137555Y-14367656D02*
X19118507Y-14358132D01*
X19328031Y-14367656D02*
X19308983Y-14358132D01*
X19308983Y-14358132D02*
X19299460Y-14339085D01*
X19299460Y-14339085D02*
X19299460Y-14167656D01*
X19489936Y-14367656D02*
X19489936Y-14262894D01*
X19489936Y-14262894D02*
X19480412Y-14243847D01*
X19480412Y-14243847D02*
X19461364Y-14234323D01*
X19461364Y-14234323D02*
X19423269Y-14234323D01*
X19423269Y-14234323D02*
X19404221Y-14243847D01*
X19489936Y-14358132D02*
X19470888Y-14367656D01*
X19470888Y-14367656D02*
X19423269Y-14367656D01*
X19423269Y-14367656D02*
X19404221Y-14358132D01*
X19404221Y-14358132D02*
X19394698Y-14339085D01*
X19394698Y-14339085D02*
X19394698Y-14320037D01*
X19394698Y-14320037D02*
X19404221Y-14300989D01*
X19404221Y-14300989D02*
X19423269Y-14291466D01*
X19423269Y-14291466D02*
X19470888Y-14291466D01*
X19470888Y-14291466D02*
X19489936Y-14281942D01*
X19556602Y-14234323D02*
X19632793Y-14234323D01*
X19585174Y-14167656D02*
X19585174Y-14339085D01*
X19585174Y-14339085D02*
X19594698Y-14358132D01*
X19594698Y-14358132D02*
X19613745Y-14367656D01*
X19613745Y-14367656D02*
X19632793Y-14367656D01*
X19775650Y-14358132D02*
X19756602Y-14367656D01*
X19756602Y-14367656D02*
X19718507Y-14367656D01*
X19718507Y-14367656D02*
X19699460Y-14358132D01*
X19699460Y-14358132D02*
X19689936Y-14339085D01*
X19689936Y-14339085D02*
X19689936Y-14262894D01*
X19689936Y-14262894D02*
X19699460Y-14243847D01*
X19699460Y-14243847D02*
X19718507Y-14234323D01*
X19718507Y-14234323D02*
X19756602Y-14234323D01*
X19756602Y-14234323D02*
X19775650Y-14243847D01*
X19775650Y-14243847D02*
X19785174Y-14262894D01*
X19785174Y-14262894D02*
X19785174Y-14281942D01*
X19785174Y-14281942D02*
X19689936Y-14300989D01*
X19956602Y-14367656D02*
X19956602Y-14167656D01*
X19956602Y-14358132D02*
X19937555Y-14367656D01*
X19937555Y-14367656D02*
X19899460Y-14367656D01*
X19899460Y-14367656D02*
X19880412Y-14358132D01*
X19880412Y-14358132D02*
X19870888Y-14348608D01*
X19870888Y-14348608D02*
X19861364Y-14329561D01*
X19861364Y-14329561D02*
X19861364Y-14272418D01*
X19861364Y-14272418D02*
X19870888Y-14253370D01*
X19870888Y-14253370D02*
X19880412Y-14243847D01*
X19880412Y-14243847D02*
X19899460Y-14234323D01*
X19899460Y-14234323D02*
X19937555Y-14234323D01*
X19937555Y-14234323D02*
X19956602Y-14243847D01*
X20032793Y-14443847D02*
X20042317Y-14434323D01*
X20042317Y-14434323D02*
X20061364Y-14405751D01*
X20061364Y-14405751D02*
X20070888Y-14386704D01*
X20070888Y-14386704D02*
X20080412Y-14358132D01*
X20080412Y-14358132D02*
X20089936Y-14310513D01*
X20089936Y-14310513D02*
X20089936Y-14272418D01*
X20089936Y-14272418D02*
X20080412Y-14224799D01*
X20080412Y-14224799D02*
X20070888Y-14196228D01*
X20070888Y-14196228D02*
X20061364Y-14177180D01*
X20061364Y-14177180D02*
X20042317Y-14148608D01*
X20042317Y-14148608D02*
X20032793Y-14139085D01*
M02*
