%TF.GenerationSoftware,KiCad,Pcbnew,(7.0.0)*%
%TF.CreationDate,2023-06-29T20:35:03+03:00*%
%TF.ProjectId,kapeebar-a,6b617065-6562-4617-922d-612e6b696361,rev?*%
%TF.SameCoordinates,Original*%
%TF.FileFunction,Copper,L2,Bot*%
%TF.FilePolarity,Positive*%
%FSLAX46Y46*%
G04 Gerber Fmt 4.6, Leading zero omitted, Abs format (unit mm)*
G04 Created by KiCad (PCBNEW (7.0.0)) date 2023-06-29 20:35:03*
%MOMM*%
%LPD*%
G01*
G04 APERTURE LIST*
G04 Aperture macros list*
%AMRoundRect*
0 Rectangle with rounded corners*
0 $1 Rounding radius*
0 $2 $3 $4 $5 $6 $7 $8 $9 X,Y pos of 4 corners*
0 Add a 4 corners polygon primitive as box body*
4,1,4,$2,$3,$4,$5,$6,$7,$8,$9,$2,$3,0*
0 Add four circle primitives for the rounded corners*
1,1,$1+$1,$2,$3*
1,1,$1+$1,$4,$5*
1,1,$1+$1,$6,$7*
1,1,$1+$1,$8,$9*
0 Add four rect primitives between the rounded corners*
20,1,$1+$1,$2,$3,$4,$5,0*
20,1,$1+$1,$4,$5,$6,$7,0*
20,1,$1+$1,$6,$7,$8,$9,0*
20,1,$1+$1,$8,$9,$2,$3,0*%
G04 Aperture macros list end*
%TA.AperFunction,ComponentPad*%
%ADD10O,2.750000X1.800000*%
%TD*%
%TA.AperFunction,ComponentPad*%
%ADD11C,1.397000*%
%TD*%
%TA.AperFunction,ComponentPad*%
%ADD12C,2.286000*%
%TD*%
%TA.AperFunction,ComponentPad*%
%ADD13R,2.500000X1.800000*%
%TD*%
%TA.AperFunction,ComponentPad*%
%ADD14RoundRect,0.375000X-0.375000X0.375000X-0.375000X-0.375000X0.375000X-0.375000X0.375000X0.375000X0*%
%TD*%
%TA.AperFunction,WasherPad*%
%ADD15C,0.900000*%
%TD*%
%TA.AperFunction,ComponentPad*%
%ADD16C,1.500000*%
%TD*%
%TA.AperFunction,WasherPad*%
%ADD17O,2.000000X3.200000*%
%TD*%
%TA.AperFunction,ComponentPad*%
%ADD18R,2.000000X2.000000*%
%TD*%
%TA.AperFunction,ComponentPad*%
%ADD19C,2.000000*%
%TD*%
%TA.AperFunction,ComponentPad*%
%ADD20C,0.800000*%
%TD*%
%TA.AperFunction,SMDPad,CuDef*%
%ADD21RoundRect,0.225000X0.375000X-0.225000X0.375000X0.225000X-0.375000X0.225000X-0.375000X-0.225000X0*%
%TD*%
%TA.AperFunction,ViaPad*%
%ADD22C,0.800000*%
%TD*%
%TA.AperFunction,Conductor*%
%ADD23C,0.250000*%
%TD*%
G04 APERTURE END LIST*
D10*
%TO.P,U1,1,A0*%
%TO.N,col3*%
X135634219Y-51814179D03*
%TO.P,U1,2,A1*%
%TO.N,col2*%
X135634219Y-54354179D03*
%TO.P,U1,3,A2*%
%TO.N,col1*%
X135634219Y-56894179D03*
%TO.P,U1,4,A3*%
%TO.N,col0*%
X135634219Y-59434179D03*
%TO.P,U1,5,A4*%
%TO.N,row4*%
X135634219Y-61974179D03*
%TO.P,U1,6,A5*%
%TO.N,ENC0*%
X135634219Y-64514179D03*
%TO.P,U1,7,A6*%
%TO.N,ENC1*%
X135634219Y-67054179D03*
%TO.P,U1,8,A7*%
%TO.N,row3*%
X151824219Y-67054179D03*
%TO.P,U1,9,A8*%
%TO.N,row2*%
X151824219Y-64514179D03*
%TO.P,U1,10,A9*%
%TO.N,row1*%
X151824219Y-61974179D03*
%TO.P,U1,11,A10*%
%TO.N,row0*%
X151824219Y-59434179D03*
%TO.P,U1,12,3V3*%
%TO.N,unconnected-(U1-3V3-Pad12)*%
X151824219Y-56894179D03*
%TO.P,U1,13,GND*%
%TO.N,GND*%
X151824219Y-54354179D03*
%TO.P,U1,14,5V*%
%TO.N,unconnected-(U1-5V-Pad14)*%
X151824219Y-51814179D03*
D11*
%TO.P,U1,15,5V*%
%TO.N,unconnected-(U1-5V-Pad15)*%
X142459220Y-50862180D03*
%TO.P,U1,16,GND*%
%TO.N,unconnected-(U1-GND-Pad16)*%
X144999220Y-50862180D03*
%TO.P,U1,17*%
%TO.N,N/C*%
X142459220Y-53402180D03*
%TO.P,U1,18*%
X144999220Y-53402180D03*
%TO.P,U1,19*%
%TO.N,V+*%
X139284220Y-59117180D03*
%TO.P,U1,20*%
%TO.N,GND*%
X139284220Y-57212180D03*
%TD*%
D12*
%TO.P,SW9,1,1*%
%TO.N,col2*%
X204591500Y-72345000D03*
%TO.P,SW9,2,2*%
%TO.N,Net-(D7-A)*%
X198241500Y-74885000D03*
%TD*%
%TO.P,SW5,1,1*%
%TO.N,col0*%
X166483750Y-72345000D03*
%TO.P,SW5,2,2*%
%TO.N,Net-(D5-A)*%
X160133750Y-74885000D03*
%TD*%
%TO.P,SW14,1,1*%
%TO.N,col0*%
X166483750Y-110445000D03*
%TO.P,SW14,2,2*%
%TO.N,Net-(D13-A)*%
X160133750Y-112985000D03*
%TD*%
D13*
%TO.P,SW16,1,1*%
%TO.N,col1*%
X185533749Y-110444999D03*
D12*
%TO.P,SW16,2,2*%
%TO.N,Net-(D14-A)*%
X179183750Y-112985000D03*
%TD*%
%TO.P,SW17,1,1*%
%TO.N,col2*%
X204591500Y-110445000D03*
%TO.P,SW17,2,2*%
%TO.N,Net-(D15-A)*%
X198241500Y-112985000D03*
%TD*%
%TO.P,SW7,1,1*%
%TO.N,col1*%
X185533750Y-91395000D03*
%TO.P,SW7,2,2*%
%TO.N,Net-(D10-A)*%
X179183750Y-93935000D03*
%TD*%
%TO.P,SW2,1,1*%
%TO.N,col1*%
X185533750Y-53295000D03*
%TO.P,SW2,2,2*%
%TO.N,Net-(D2-A)*%
X179183750Y-55835000D03*
%TD*%
%TO.P,SW11,1,1*%
%TO.N,col3*%
X223633750Y-91395000D03*
%TO.P,SW11,2,2*%
%TO.N,Net-(D12-A)*%
X217283750Y-93935000D03*
%TD*%
D14*
%TO.P,J1,1*%
%TO.N,vbat*%
X135731250Y-77787500D03*
%TD*%
D12*
%TO.P,SW10,1,1*%
%TO.N,col2*%
X204591500Y-91395000D03*
%TO.P,SW10,2,2*%
%TO.N,Net-(D11-A)*%
X198241500Y-93935000D03*
%TD*%
%TO.P,SW12,1,1*%
%TO.N,col3*%
X226173750Y-70440000D03*
%TO.P,SW12,2,2*%
%TO.N,Net-(D4-A)*%
X223633750Y-64090000D03*
%TD*%
%TO.P,SW13,1,1*%
%TO.N,col3*%
X223633750Y-72345000D03*
%TO.P,SW13,2,2*%
%TO.N,Net-(D8-A)*%
X217283750Y-74885000D03*
%TD*%
%TO.P,SW4,1,1*%
%TO.N,col3*%
X223633750Y-53295000D03*
%TO.P,SW4,2,2*%
%TO.N,Net-(D4-A)*%
X217283750Y-55835000D03*
%TD*%
%TO.P,SW18,1,1*%
%TO.N,col3*%
X223633750Y-110445000D03*
%TO.P,SW18,2,2*%
%TO.N,Net-(D16-A)*%
X217283750Y-112985000D03*
%TD*%
D15*
%TO.P,switch,*%
%TO.N,*%
X134700000Y-88493750D03*
X134750000Y-85493750D03*
%TD*%
D12*
%TO.P,SW8,1,1*%
%TO.N,col1*%
X185533750Y-72345000D03*
%TO.P,SW8,2,2*%
%TO.N,Net-(D6-A)*%
X179183750Y-74885000D03*
%TD*%
%TO.P,2u,1,1*%
%TO.N,col1*%
X176008750Y-110445000D03*
%TO.P,2u,2,2*%
%TO.N,Net-(D14-A)*%
X169658750Y-112985000D03*
%TD*%
D16*
%TO.P,J2,1*%
%TO.N,GND*%
X135731250Y-75406250D03*
%TD*%
D12*
%TO.P,SW1,1,1*%
%TO.N,col0*%
X166483750Y-53295000D03*
%TO.P,SW1,2,2*%
%TO.N,Net-(D1-A)*%
X160133750Y-55835000D03*
%TD*%
%TO.P,SW6,1,1*%
%TO.N,col0*%
X166483750Y-91395000D03*
%TO.P,SW6,2,2*%
%TO.N,Net-(D9-A)*%
X160133750Y-93935000D03*
%TD*%
%TO.P,SW3,1,1*%
%TO.N,col2*%
X204591500Y-53295000D03*
%TO.P,SW3,2,2*%
%TO.N,Net-(D3-A)*%
X198241500Y-55835000D03*
%TD*%
D17*
%TO.P,SW15,*%
%TO.N,*%
X149993749Y-115524999D03*
X138793749Y-115524999D03*
D18*
%TO.P,SW15,A,A*%
%TO.N,ENC0*%
X146893749Y-108024999D03*
D19*
%TO.P,SW15,B,B*%
%TO.N,ENC1*%
X141893750Y-108025000D03*
%TO.P,SW15,C,C*%
%TO.N,GND*%
X144393750Y-108025000D03*
%TO.P,SW15,S1,S1*%
%TO.N,row4*%
X141893750Y-122525000D03*
%TO.P,SW15,S2,S2*%
%TO.N,col0*%
X146893750Y-122525000D03*
%TD*%
D12*
%TO.P,SW19,1,1*%
%TO.N,col3*%
X226173750Y-108540000D03*
%TO.P,SW19,2,2*%
%TO.N,Net-(D12-A)*%
X223633750Y-102190000D03*
%TD*%
D20*
%TO.P,D6,1,K*%
%TO.N,row1*%
X196287450Y-83276300D03*
D21*
X196287450Y-83276300D03*
D20*
%TO.P,D6,2,A*%
%TO.N,Net-(D7-A)*%
X196287450Y-79976300D03*
D21*
X196287450Y-79976300D03*
%TD*%
D20*
%TO.P,D13,1,K*%
%TO.N,row3*%
X217763750Y-121452000D03*
D21*
X217763750Y-121452000D03*
D20*
%TO.P,D13,2,A*%
%TO.N,Net-(D16-A)*%
X217763750Y-118152000D03*
D21*
X217763750Y-118152000D03*
%TD*%
D20*
%TO.P,D8,1,K*%
%TO.N,row1*%
X158213750Y-83276300D03*
D21*
X158213750Y-83276300D03*
D20*
%TO.P,D8,2,A*%
%TO.N,Net-(D5-A)*%
X158213750Y-79976300D03*
D21*
X158213750Y-79976300D03*
%TD*%
D20*
%TO.P,D4,1,K*%
%TO.N,row0*%
X158213750Y-64350000D03*
D21*
X158213750Y-64350000D03*
D20*
%TO.P,D4,2,A*%
%TO.N,Net-(D1-A)*%
X158213750Y-61050000D03*
D21*
X158213750Y-61050000D03*
%TD*%
D20*
%TO.P,D14,1,K*%
%TO.N,row3*%
X196287450Y-121452000D03*
D21*
X196287450Y-121452000D03*
D20*
%TO.P,D14,2,A*%
%TO.N,Net-(D15-A)*%
X196287450Y-118152000D03*
D21*
X196287450Y-118152000D03*
%TD*%
D20*
%TO.P,D15,1,K*%
%TO.N,row3*%
X177263750Y-121452000D03*
D21*
X177263750Y-121452000D03*
D20*
%TO.P,D15,2,A*%
%TO.N,Net-(D14-A)*%
X177263750Y-118152000D03*
D21*
X177263750Y-118152000D03*
%TD*%
D20*
%TO.P,D2,1,K*%
%TO.N,row0*%
X196287450Y-64350000D03*
D21*
X196287450Y-64350000D03*
D20*
%TO.P,D2,2,A*%
%TO.N,Net-(D3-A)*%
X196287450Y-61050000D03*
D21*
X196287450Y-61050000D03*
%TD*%
D20*
%TO.P,D11,1,K*%
%TO.N,row2*%
X177263750Y-102443000D03*
D21*
X177263750Y-102443000D03*
D20*
%TO.P,D11,2,A*%
%TO.N,Net-(D10-A)*%
X177263750Y-99143000D03*
D21*
X177263750Y-99143000D03*
%TD*%
D20*
%TO.P,D9,1,K*%
%TO.N,row2*%
X215380400Y-102443000D03*
D21*
X215380400Y-102443000D03*
D20*
%TO.P,D9,2,A*%
%TO.N,Net-(D12-A)*%
X215380400Y-99143000D03*
D21*
X215380400Y-99143000D03*
%TD*%
D20*
%TO.P,D7,1,K*%
%TO.N,row1*%
X177263750Y-83276300D03*
D21*
X177263750Y-83276300D03*
D20*
%TO.P,D7,2,A*%
%TO.N,Net-(D6-A)*%
X177263750Y-79976300D03*
D21*
X177263750Y-79976300D03*
%TD*%
D20*
%TO.P,D3,1,K*%
%TO.N,row0*%
X177263750Y-64350000D03*
D21*
X177263750Y-64350000D03*
D20*
%TO.P,D3,2,A*%
%TO.N,Net-(D2-A)*%
X177263750Y-61050000D03*
D21*
X177263750Y-61050000D03*
%TD*%
D20*
%TO.P,D10,1,K*%
%TO.N,row2*%
X196287450Y-102443000D03*
D21*
X196287450Y-102443000D03*
D20*
%TO.P,D10,2,A*%
%TO.N,Net-(D11-A)*%
X196287450Y-99143000D03*
D21*
X196287450Y-99143000D03*
%TD*%
D20*
%TO.P,D16,1,K*%
%TO.N,row3*%
X158213750Y-121452000D03*
D21*
X158213750Y-121452000D03*
D20*
%TO.P,D16,2,A*%
%TO.N,Net-(D13-A)*%
X158213750Y-118152000D03*
D21*
X158213750Y-118152000D03*
%TD*%
D20*
%TO.P,D12,1,K*%
%TO.N,row2*%
X158213750Y-102443000D03*
D21*
X158213750Y-102443000D03*
D20*
%TO.P,D12,2,A*%
%TO.N,Net-(D9-A)*%
X158213750Y-99143000D03*
D21*
X158213750Y-99143000D03*
%TD*%
D20*
%TO.P,D1,1,K*%
%TO.N,row0*%
X215417450Y-64350000D03*
D21*
X215417450Y-64350000D03*
D20*
%TO.P,D1,2,A*%
%TO.N,Net-(D4-A)*%
X215417450Y-61050000D03*
D21*
X215417450Y-61050000D03*
%TD*%
D20*
%TO.P,D5,1,K*%
%TO.N,row1*%
X217763750Y-83276300D03*
D21*
X217763750Y-83276300D03*
D20*
%TO.P,D5,2,A*%
%TO.N,Net-(D8-A)*%
X217763750Y-79976300D03*
D21*
X217763750Y-79976300D03*
%TD*%
D22*
%TO.N,col0*%
X163137750Y-88049000D03*
%TO.N,col1*%
X160987450Y-87324500D03*
%TO.N,col2*%
X158587450Y-86600000D03*
%TO.N,col3*%
X156387450Y-85875500D03*
%TO.N,row4*%
X140387450Y-66200000D03*
%TD*%
D23*
%TO.N,col0*%
X166483750Y-53295000D02*
X166483750Y-72345000D01*
X153723804Y-122163646D02*
X156148110Y-119739340D01*
X144148110Y-67473070D02*
X136109220Y-59434180D01*
X144587450Y-79851472D02*
X144587450Y-68533730D01*
X163137750Y-88049000D02*
X152784978Y-88049000D01*
X158903110Y-110884340D02*
X156933930Y-112853495D01*
X151724318Y-87609660D02*
X145026790Y-80912132D01*
X166483750Y-72345000D02*
X166483750Y-91395000D01*
X159963747Y-110445000D02*
X166483750Y-110445000D01*
X166483750Y-91395000D02*
X166483750Y-110445000D01*
X146893750Y-122525000D02*
X152851418Y-122525000D01*
X156587450Y-118678680D02*
X156587450Y-113689965D01*
X156148131Y-119739361D02*
G75*
G03*
X156587450Y-118678680I-1060731J1060661D01*
G01*
X156933946Y-112853511D02*
G75*
G03*
X156587450Y-113689965I836454J-836489D01*
G01*
X144587413Y-68533730D02*
G75*
G03*
X144148109Y-67473071I-1500013J30D01*
G01*
X151724329Y-87609649D02*
G75*
G03*
X152784978Y-88049000I1060671J1060649D01*
G01*
X152851418Y-122525024D02*
G75*
G03*
X153723804Y-122163646I-18J1233724D01*
G01*
X144587485Y-79851472D02*
G75*
G03*
X145026790Y-80912132I1500015J-28D01*
G01*
X159963747Y-110445021D02*
G75*
G03*
X158903110Y-110884340I-47J-1499879D01*
G01*
%TO.N,col1*%
X144598110Y-58647056D02*
X141428189Y-55477135D01*
X185543881Y-110445000D02*
X187197268Y-108791613D01*
X185533750Y-91395000D02*
X185533750Y-72345000D01*
X185533750Y-72345000D02*
X185533750Y-53295000D01*
X185533750Y-103105322D02*
X185533750Y-91395000D01*
X138136352Y-55494638D02*
X136109220Y-57521770D01*
X151636214Y-86885160D02*
X145476790Y-80725736D01*
X186769138Y-104754924D02*
X185826643Y-103812429D01*
X160987450Y-87324500D02*
X152696874Y-87324500D01*
X187800000Y-107336485D02*
X187800000Y-107243629D01*
X145037450Y-79665076D02*
X145037450Y-59707716D01*
X151636227Y-86885147D02*
G75*
G03*
X152696874Y-87324500I1060673J1060647D01*
G01*
X187799963Y-107243629D02*
G75*
G03*
X186769138Y-104754924I-3519563J29D01*
G01*
X139803297Y-54804170D02*
G75*
G03*
X138136352Y-55494638I3J-2357430D01*
G01*
X187197262Y-108791607D02*
G75*
G03*
X187800000Y-107336485I-1455062J1455107D01*
G01*
X185533720Y-103105322D02*
G75*
G03*
X185826643Y-103812429I999980J22D01*
G01*
X145037423Y-59707716D02*
G75*
G03*
X144598109Y-58647057I-1500023J16D01*
G01*
X141428180Y-55477144D02*
G75*
G03*
X139803297Y-54804172I-1624680J-1624656D01*
G01*
X145037482Y-79665076D02*
G75*
G03*
X145476790Y-80725736I1500018J-24D01*
G01*
%TO.N,col2*%
X140147546Y-54354180D02*
X136109220Y-54354180D01*
X204591500Y-53295000D02*
X204591500Y-72345000D01*
X145048110Y-58460660D02*
X141503132Y-54915682D01*
X151548110Y-86160660D02*
X145926790Y-80539340D01*
X204591500Y-72345000D02*
X204591500Y-91395000D01*
X145487450Y-79478680D02*
X145487450Y-59521320D01*
X204591500Y-110445000D02*
X204591500Y-91395000D01*
X158587450Y-86600000D02*
X152608770Y-86600000D01*
X151548125Y-86160645D02*
G75*
G03*
X152608770Y-86600000I1060675J1060645D01*
G01*
X145487420Y-59521320D02*
G75*
G03*
X145048109Y-58460661I-1500020J20D01*
G01*
X141503116Y-54915698D02*
G75*
G03*
X140147546Y-54354180I-1355616J-1355602D01*
G01*
X145487480Y-79478680D02*
G75*
G03*
X145926791Y-80539339I1500020J-20D01*
G01*
%TO.N,col3*%
X145498110Y-58274264D02*
X141588937Y-54365091D01*
X224268750Y-110445000D02*
X226173750Y-108540000D01*
X224268750Y-72345000D02*
X226173750Y-70440000D01*
X225734410Y-97769344D02*
X224073090Y-96108024D01*
X152169910Y-85836513D02*
X151945678Y-85763651D01*
X145937450Y-59334924D02*
X145935301Y-59217040D01*
X145937450Y-79292284D02*
X145937450Y-59334924D01*
X145939568Y-79410171D02*
X145937450Y-79292284D01*
X223633750Y-91395000D02*
X223633750Y-72345000D01*
X152520666Y-85875500D02*
X152402779Y-85873401D01*
X151945678Y-85763651D02*
X151735604Y-85656608D01*
X145898423Y-58984173D02*
X145825572Y-58759942D01*
X226173750Y-70440000D02*
X226173750Y-60730004D01*
X156387450Y-85875500D02*
X152520666Y-85875500D01*
X223633750Y-95047364D02*
X223633750Y-91395000D01*
X145976448Y-79643042D02*
X145939568Y-79410171D01*
X223633750Y-56947364D02*
X223633750Y-53295000D01*
X225734410Y-59669344D02*
X224073090Y-58008024D01*
X146049301Y-79867277D02*
X145976448Y-79643042D01*
X140224687Y-53800000D02*
X139538162Y-53800000D01*
X137074600Y-52779560D02*
X136109220Y-51814180D01*
X145825572Y-58759942D02*
X145718541Y-58549867D01*
X151544862Y-85518021D02*
X151460006Y-85436160D01*
X145579965Y-58359122D02*
X145498110Y-58274264D01*
X152402779Y-85873401D02*
X152169910Y-85836513D01*
X146376790Y-80352944D02*
X146294914Y-80268103D01*
X145718541Y-58549867D02*
X145579965Y-58359122D01*
X151460006Y-85436160D02*
X146376790Y-80352944D01*
X145935301Y-59217040D02*
X145898423Y-58984173D01*
X151735604Y-85656608D02*
X151544862Y-85518021D01*
X146156335Y-80077355D02*
X146049301Y-79867277D01*
X226173750Y-108540000D02*
X226173750Y-98830004D01*
X146294914Y-80268103D02*
X146156335Y-80077355D01*
X137074620Y-52779540D02*
G75*
G03*
X139538162Y-53800000I2463580J2463540D01*
G01*
X226173732Y-60730004D02*
G75*
G03*
X225734410Y-59669344I-1500032J4D01*
G01*
X226173732Y-98830004D02*
G75*
G03*
X225734410Y-97769344I-1500032J4D01*
G01*
X141588935Y-54365093D02*
G75*
G03*
X140224687Y-53800000I-1364235J-1364207D01*
G01*
X223633791Y-56947364D02*
G75*
G03*
X224073090Y-58008024I1500009J-36D01*
G01*
X223633791Y-95047364D02*
G75*
G03*
X224073090Y-96108024I1500009J-36D01*
G01*
%TO.N,ENC0*%
X146893750Y-108025000D02*
X144576790Y-105708040D01*
X144137450Y-104647380D02*
X144137450Y-73163730D01*
X143698110Y-72103070D02*
X136109220Y-64514180D01*
X144137480Y-104647380D02*
G75*
G03*
X144576791Y-105708039I1500020J-20D01*
G01*
X144137413Y-73163730D02*
G75*
G03*
X143698109Y-72103071I-1500013J30D01*
G01*
%TO.N,ENC1*%
X143687450Y-104057359D02*
X143687450Y-75253730D01*
X143248110Y-74193070D02*
X136109220Y-67054180D01*
X142333090Y-106654360D02*
X142808771Y-106178679D01*
X141893750Y-108025000D02*
X141893750Y-107715020D01*
X142333069Y-106654339D02*
G75*
G03*
X141893750Y-107715020I1060731J-1060661D01*
G01*
X142808781Y-106178689D02*
G75*
G03*
X143687450Y-104057359I-2121281J2121289D01*
G01*
X143687413Y-75253730D02*
G75*
G03*
X143248109Y-74193071I-1500013J30D01*
G01*
%TO.N,row4*%
X140387450Y-66200000D02*
X136161630Y-61974180D01*
%TD*%
%TA.AperFunction,Conductor*%
%TO.N,col3*%
G36*
X223639149Y-91396808D02*
G01*
X224622201Y-91908212D01*
X224626882Y-91912656D01*
X224628495Y-91918909D01*
X224626544Y-91925065D01*
X224406117Y-92256840D01*
X224405002Y-92258265D01*
X224171546Y-92513313D01*
X224171510Y-92513352D01*
X224171475Y-92513392D01*
X224171442Y-92513429D01*
X224171411Y-92513466D01*
X223964387Y-92757566D01*
X223964384Y-92757569D01*
X223963900Y-92758141D01*
X223963576Y-92758817D01*
X223963574Y-92758821D01*
X223815871Y-93067529D01*
X223815869Y-93067535D01*
X223815466Y-93068378D01*
X223815349Y-93069309D01*
X223815349Y-93069310D01*
X223760035Y-93510391D01*
X223756167Y-93517708D01*
X223748426Y-93520635D01*
X223519074Y-93520635D01*
X223511333Y-93517708D01*
X223507465Y-93510391D01*
X223452033Y-93068378D01*
X223303599Y-92758141D01*
X223096024Y-92513392D01*
X222862493Y-92258262D01*
X222861380Y-92256840D01*
X222640954Y-91925063D01*
X222639004Y-91918910D01*
X222640617Y-91912657D01*
X222645298Y-91908212D01*
X223628350Y-91396808D01*
X223633750Y-91395489D01*
X223639149Y-91396808D01*
G37*
%TD.AperFunction*%
%TD*%
%TA.AperFunction,Conductor*%
%TO.N,col1*%
G36*
X185656167Y-89272292D02*
G01*
X185660034Y-89279608D01*
X185715466Y-89721621D01*
X185715869Y-89722465D01*
X185715871Y-89722469D01*
X185863574Y-90031176D01*
X185863900Y-90031857D01*
X186071475Y-90276607D01*
X186071535Y-90276672D01*
X186071546Y-90276685D01*
X186305002Y-90531732D01*
X186306117Y-90533157D01*
X186526544Y-90864934D01*
X186528495Y-90871090D01*
X186526882Y-90877343D01*
X186522199Y-90881789D01*
X185539150Y-91393190D01*
X185533750Y-91394510D01*
X185528350Y-91393190D01*
X184545300Y-90881788D01*
X184540617Y-90877342D01*
X184539004Y-90871089D01*
X184540953Y-90864937D01*
X184761387Y-90533148D01*
X184762487Y-90531741D01*
X184996024Y-90276607D01*
X185203599Y-90031857D01*
X185352033Y-89721621D01*
X185407465Y-89279608D01*
X185411333Y-89272292D01*
X185419074Y-89269365D01*
X185648426Y-89269365D01*
X185656167Y-89272292D01*
G37*
%TD.AperFunction*%
%TD*%
%TA.AperFunction,Conductor*%
%TO.N,col2*%
G36*
X158435268Y-86236957D02*
G01*
X158439146Y-86241888D01*
X158494075Y-86373637D01*
X158540860Y-86485854D01*
X158586573Y-86595497D01*
X158587474Y-86599999D01*
X158586573Y-86604501D01*
X158439146Y-86958111D01*
X158435268Y-86963042D01*
X158429400Y-86965262D01*
X158423230Y-86964130D01*
X158278126Y-86893552D01*
X158277132Y-86893008D01*
X158168330Y-86826360D01*
X158168234Y-86826301D01*
X158168150Y-86826254D01*
X158168131Y-86826243D01*
X158073088Y-86773273D01*
X158073086Y-86773272D01*
X158072544Y-86772970D01*
X158071953Y-86772789D01*
X158071946Y-86772787D01*
X157957464Y-86737916D01*
X157957458Y-86737914D01*
X157956848Y-86737729D01*
X157956212Y-86737681D01*
X157956206Y-86737680D01*
X157798273Y-86725813D01*
X157790572Y-86722103D01*
X157787450Y-86714146D01*
X157787450Y-86485854D01*
X157790572Y-86477897D01*
X157798273Y-86474187D01*
X157889079Y-86467362D01*
X157956848Y-86462270D01*
X158072544Y-86427029D01*
X158168234Y-86373697D01*
X158277144Y-86306982D01*
X158278121Y-86306448D01*
X158423232Y-86235868D01*
X158429400Y-86234737D01*
X158435268Y-86236957D01*
G37*
%TD.AperFunction*%
%TD*%
%TA.AperFunction,Conductor*%
%TO.N,col0*%
G36*
X166489149Y-53296808D02*
G01*
X167472201Y-53808212D01*
X167476882Y-53812656D01*
X167478495Y-53818909D01*
X167476544Y-53825065D01*
X167256117Y-54156840D01*
X167255002Y-54158265D01*
X167021546Y-54413313D01*
X167021510Y-54413352D01*
X167021475Y-54413392D01*
X167021442Y-54413429D01*
X167021411Y-54413466D01*
X166814387Y-54657566D01*
X166814384Y-54657569D01*
X166813900Y-54658141D01*
X166813576Y-54658817D01*
X166813574Y-54658821D01*
X166665871Y-54967529D01*
X166665869Y-54967535D01*
X166665466Y-54968378D01*
X166665349Y-54969309D01*
X166665349Y-54969310D01*
X166610035Y-55410391D01*
X166606167Y-55417708D01*
X166598426Y-55420635D01*
X166369074Y-55420635D01*
X166361333Y-55417708D01*
X166357465Y-55410391D01*
X166302033Y-54968378D01*
X166153599Y-54658141D01*
X165946024Y-54413392D01*
X165712493Y-54158262D01*
X165711380Y-54156840D01*
X165490954Y-53825063D01*
X165489004Y-53818910D01*
X165490617Y-53812657D01*
X165495298Y-53808212D01*
X166478350Y-53296808D01*
X166483750Y-53295489D01*
X166489149Y-53296808D01*
G37*
%TD.AperFunction*%
%TD*%
%TA.AperFunction,Conductor*%
%TO.N,col2*%
G36*
X204596899Y-72346808D02*
G01*
X205579951Y-72858212D01*
X205584632Y-72862656D01*
X205586245Y-72868909D01*
X205584294Y-72875065D01*
X205363867Y-73206840D01*
X205362752Y-73208265D01*
X205129296Y-73463313D01*
X205129260Y-73463352D01*
X205129225Y-73463392D01*
X205129192Y-73463429D01*
X205129161Y-73463466D01*
X204922137Y-73707566D01*
X204922134Y-73707569D01*
X204921650Y-73708141D01*
X204921326Y-73708817D01*
X204921324Y-73708821D01*
X204773621Y-74017529D01*
X204773619Y-74017535D01*
X204773216Y-74018378D01*
X204773099Y-74019309D01*
X204773099Y-74019310D01*
X204717785Y-74460391D01*
X204713917Y-74467708D01*
X204706176Y-74470635D01*
X204476824Y-74470635D01*
X204469083Y-74467708D01*
X204465215Y-74460391D01*
X204409783Y-74018378D01*
X204261349Y-73708141D01*
X204053774Y-73463392D01*
X203820243Y-73208262D01*
X203819130Y-73206840D01*
X203598704Y-72875063D01*
X203596754Y-72868910D01*
X203598367Y-72862657D01*
X203603048Y-72858212D01*
X204586100Y-72346808D01*
X204591500Y-72345489D01*
X204596899Y-72346808D01*
G37*
%TD.AperFunction*%
%TD*%
%TA.AperFunction,Conductor*%
%TO.N,col0*%
G36*
X166606167Y-108322292D02*
G01*
X166610034Y-108329608D01*
X166665466Y-108771621D01*
X166665869Y-108772465D01*
X166665871Y-108772469D01*
X166813574Y-109081176D01*
X166813900Y-109081857D01*
X167021475Y-109326607D01*
X167021535Y-109326672D01*
X167021546Y-109326685D01*
X167255002Y-109581732D01*
X167256117Y-109583157D01*
X167476544Y-109914934D01*
X167478495Y-109921090D01*
X167476882Y-109927343D01*
X167472199Y-109931789D01*
X166489150Y-110443190D01*
X166483750Y-110444510D01*
X166478350Y-110443190D01*
X165495300Y-109931788D01*
X165490617Y-109927342D01*
X165489004Y-109921089D01*
X165490953Y-109914937D01*
X165711387Y-109583148D01*
X165712487Y-109581741D01*
X165946024Y-109326607D01*
X166153599Y-109081857D01*
X166302033Y-108771621D01*
X166357465Y-108329608D01*
X166361333Y-108322292D01*
X166369074Y-108319365D01*
X166598426Y-108319365D01*
X166606167Y-108322292D01*
G37*
%TD.AperFunction*%
%TD*%
%TA.AperFunction,Conductor*%
%TO.N,col2*%
G36*
X204713917Y-108322292D02*
G01*
X204717784Y-108329608D01*
X204773216Y-108771621D01*
X204773619Y-108772465D01*
X204773621Y-108772469D01*
X204921324Y-109081176D01*
X204921650Y-109081857D01*
X205129225Y-109326607D01*
X205129285Y-109326672D01*
X205129296Y-109326685D01*
X205362752Y-109581732D01*
X205363867Y-109583157D01*
X205584294Y-109914934D01*
X205586245Y-109921090D01*
X205584632Y-109927343D01*
X205579949Y-109931789D01*
X204596900Y-110443190D01*
X204591500Y-110444510D01*
X204586100Y-110443190D01*
X203603050Y-109931788D01*
X203598367Y-109927342D01*
X203596754Y-109921089D01*
X203598703Y-109914937D01*
X203819137Y-109583148D01*
X203820237Y-109581741D01*
X204053774Y-109326607D01*
X204261349Y-109081857D01*
X204409783Y-108771621D01*
X204465215Y-108329608D01*
X204469083Y-108322292D01*
X204476824Y-108319365D01*
X204706176Y-108319365D01*
X204713917Y-108322292D01*
G37*
%TD.AperFunction*%
%TD*%
%TA.AperFunction,Conductor*%
%TO.N,col0*%
G36*
X166489149Y-72346808D02*
G01*
X167472201Y-72858212D01*
X167476882Y-72862656D01*
X167478495Y-72868909D01*
X167476544Y-72875065D01*
X167256117Y-73206840D01*
X167255002Y-73208265D01*
X167021546Y-73463313D01*
X167021510Y-73463352D01*
X167021475Y-73463392D01*
X167021442Y-73463429D01*
X167021411Y-73463466D01*
X166814387Y-73707566D01*
X166814384Y-73707569D01*
X166813900Y-73708141D01*
X166813576Y-73708817D01*
X166813574Y-73708821D01*
X166665871Y-74017529D01*
X166665869Y-74017535D01*
X166665466Y-74018378D01*
X166665349Y-74019309D01*
X166665349Y-74019310D01*
X166610035Y-74460391D01*
X166606167Y-74467708D01*
X166598426Y-74470635D01*
X166369074Y-74470635D01*
X166361333Y-74467708D01*
X166357465Y-74460391D01*
X166302033Y-74018378D01*
X166153599Y-73708141D01*
X165946024Y-73463392D01*
X165712493Y-73208262D01*
X165711380Y-73206840D01*
X165490954Y-72875063D01*
X165489004Y-72868910D01*
X165490617Y-72862657D01*
X165495298Y-72858212D01*
X166478350Y-72346808D01*
X166483750Y-72345489D01*
X166489149Y-72346808D01*
G37*
%TD.AperFunction*%
%TD*%
%TA.AperFunction,Conductor*%
%TO.N,col3*%
G36*
X225315818Y-109234957D02*
G01*
X225477803Y-109396942D01*
X225481227Y-109404938D01*
X225478186Y-109413087D01*
X225206918Y-109711349D01*
X225206910Y-109711359D01*
X225206640Y-109711656D01*
X225206413Y-109711988D01*
X225206406Y-109711998D01*
X225032330Y-109967504D01*
X225032325Y-109967512D01*
X225032053Y-109967912D01*
X225031849Y-109968355D01*
X225031847Y-109968360D01*
X224919329Y-110213596D01*
X224919323Y-110213610D01*
X224919206Y-110213866D01*
X224919117Y-110214126D01*
X224919110Y-110214145D01*
X224825370Y-110489782D01*
X224825370Y-110489783D01*
X224711660Y-110824615D01*
X224708233Y-110829704D01*
X224702702Y-110832359D01*
X224696588Y-110831851D01*
X223640077Y-110448260D01*
X223634780Y-110444375D01*
X223632412Y-110438248D01*
X223592640Y-109967912D01*
X223538941Y-109332884D01*
X223540267Y-109326410D01*
X223544892Y-109321686D01*
X223551338Y-109320223D01*
X223948878Y-109345419D01*
X223951142Y-109345789D01*
X224304908Y-109440164D01*
X224630783Y-109512640D01*
X224956003Y-109472183D01*
X225300892Y-109233607D01*
X225308598Y-109231577D01*
X225315818Y-109234957D01*
G37*
%TD.AperFunction*%
%TD*%
%TA.AperFunction,Conductor*%
%TO.N,col0*%
G36*
X162985568Y-87685957D02*
G01*
X162989446Y-87690888D01*
X163136873Y-88044498D01*
X163137774Y-88049000D01*
X163136873Y-88053502D01*
X162989446Y-88407111D01*
X162985568Y-88412043D01*
X162979700Y-88414262D01*
X162973530Y-88413130D01*
X162828426Y-88342552D01*
X162827432Y-88342008D01*
X162718630Y-88275360D01*
X162718534Y-88275301D01*
X162718450Y-88275254D01*
X162718431Y-88275243D01*
X162623388Y-88222273D01*
X162623386Y-88222272D01*
X162622844Y-88221970D01*
X162622253Y-88221789D01*
X162622246Y-88221787D01*
X162507764Y-88186916D01*
X162507758Y-88186914D01*
X162507148Y-88186729D01*
X162506512Y-88186681D01*
X162506506Y-88186680D01*
X162348573Y-88174813D01*
X162340872Y-88171103D01*
X162337750Y-88163146D01*
X162337750Y-87934854D01*
X162340872Y-87926897D01*
X162348573Y-87923187D01*
X162439379Y-87916362D01*
X162507148Y-87911270D01*
X162622844Y-87876029D01*
X162718534Y-87822697D01*
X162827444Y-87755982D01*
X162828421Y-87755448D01*
X162973532Y-87684868D01*
X162979700Y-87683737D01*
X162985568Y-87685957D01*
G37*
%TD.AperFunction*%
%TD*%
%TA.AperFunction,Conductor*%
%TO.N,col1*%
G36*
X185539149Y-53296808D02*
G01*
X186522201Y-53808212D01*
X186526882Y-53812656D01*
X186528495Y-53818909D01*
X186526544Y-53825065D01*
X186306117Y-54156840D01*
X186305002Y-54158265D01*
X186071546Y-54413313D01*
X186071510Y-54413352D01*
X186071475Y-54413392D01*
X186071442Y-54413429D01*
X186071411Y-54413466D01*
X185864387Y-54657566D01*
X185864384Y-54657569D01*
X185863900Y-54658141D01*
X185863576Y-54658817D01*
X185863574Y-54658821D01*
X185715871Y-54967529D01*
X185715869Y-54967535D01*
X185715466Y-54968378D01*
X185715349Y-54969309D01*
X185715349Y-54969310D01*
X185660035Y-55410391D01*
X185656167Y-55417708D01*
X185648426Y-55420635D01*
X185419074Y-55420635D01*
X185411333Y-55417708D01*
X185407465Y-55410391D01*
X185352033Y-54968378D01*
X185203599Y-54658141D01*
X184996024Y-54413392D01*
X184762493Y-54158262D01*
X184761380Y-54156840D01*
X184540954Y-53825063D01*
X184539004Y-53818910D01*
X184540617Y-53812657D01*
X184545298Y-53808212D01*
X185528350Y-53296808D01*
X185533750Y-53295489D01*
X185539149Y-53296808D01*
G37*
%TD.AperFunction*%
%TD*%
%TA.AperFunction,Conductor*%
%TO.N,col3*%
G36*
X225101239Y-70114488D02*
G01*
X225305426Y-70176284D01*
X226167567Y-70437207D01*
X226172932Y-70440643D01*
X226175701Y-70446382D01*
X226370058Y-71553268D01*
X226369428Y-71559558D01*
X226365619Y-71564602D01*
X226359741Y-71566929D01*
X225988214Y-71605455D01*
X225987301Y-71605513D01*
X225667290Y-71613562D01*
X225667274Y-71613563D01*
X225667001Y-71613570D01*
X225666740Y-71613601D01*
X225666719Y-71613603D01*
X225377635Y-71648493D01*
X225377629Y-71648494D01*
X225376846Y-71648589D01*
X225376112Y-71648891D01*
X225376111Y-71648892D01*
X225085002Y-71768987D01*
X225085000Y-71768987D01*
X225084222Y-71769309D01*
X225083565Y-71769839D01*
X225083563Y-71769841D01*
X224764232Y-72027866D01*
X224756260Y-72030450D01*
X224748606Y-72027039D01*
X224586578Y-71865011D01*
X224583173Y-71857461D01*
X224585619Y-71849550D01*
X224857693Y-71500222D01*
X224971683Y-71178619D01*
X224997416Y-70861059D01*
X225011032Y-70516579D01*
X225011233Y-70514840D01*
X225086361Y-70123477D01*
X225089273Y-70117728D01*
X225094792Y-70114393D01*
X225101239Y-70114488D01*
G37*
%TD.AperFunction*%
%TD*%
%TA.AperFunction,Conductor*%
%TO.N,row4*%
G36*
X139918379Y-65553002D02*
G01*
X140038936Y-65656707D01*
X140145664Y-65713598D01*
X140251038Y-65743549D01*
X140375217Y-65773385D01*
X140376283Y-65773696D01*
X140528808Y-65826400D01*
X140533970Y-65829962D01*
X140536550Y-65835680D01*
X140535806Y-65841909D01*
X140390013Y-66196195D01*
X140387466Y-66200016D01*
X140383645Y-66202563D01*
X140029359Y-66348356D01*
X140023130Y-66349100D01*
X140017412Y-66346520D01*
X140013850Y-66341358D01*
X139961146Y-66188833D01*
X139960835Y-66187767D01*
X139930999Y-66063588D01*
X139901048Y-65958214D01*
X139844157Y-65851486D01*
X139740452Y-65730929D01*
X139737631Y-65722862D01*
X139741049Y-65715029D01*
X139902479Y-65553599D01*
X139910312Y-65550181D01*
X139918379Y-65553002D01*
G37*
%TD.AperFunction*%
%TD*%
%TA.AperFunction,Conductor*%
%TO.N,ENC0*%
G36*
X136940753Y-64177065D02*
G01*
X136944141Y-64182673D01*
X137046632Y-64568467D01*
X137046641Y-64568500D01*
X137046649Y-64568528D01*
X137152587Y-64920792D01*
X137152623Y-64920896D01*
X137152634Y-64920930D01*
X137257240Y-65222851D01*
X137258524Y-65226555D01*
X137258568Y-65226664D01*
X137258579Y-65226692D01*
X137364381Y-65485622D01*
X137364386Y-65485633D01*
X137364462Y-65485819D01*
X137364554Y-65486005D01*
X137364556Y-65486008D01*
X137466648Y-65691047D01*
X137467721Y-65698146D01*
X137464447Y-65704535D01*
X137300057Y-65868925D01*
X137293236Y-65872262D01*
X137285803Y-65870708D01*
X136982479Y-65690298D01*
X136982473Y-65690294D01*
X136982184Y-65690123D01*
X136981878Y-65689987D01*
X136981871Y-65689983D01*
X136671093Y-65551542D01*
X136671092Y-65551541D01*
X136670745Y-65551387D01*
X136670374Y-65551277D01*
X136670371Y-65551276D01*
X136359709Y-65459271D01*
X136359704Y-65459269D01*
X136359306Y-65459152D01*
X136358900Y-65459092D01*
X136358894Y-65459091D01*
X136048294Y-65413478D01*
X136048284Y-65413477D01*
X136047867Y-65413416D01*
X136047434Y-65413417D01*
X135753967Y-65414136D01*
X135746834Y-65411732D01*
X135742641Y-65405481D01*
X135743123Y-65397971D01*
X136106658Y-64517961D01*
X136109198Y-64514158D01*
X136113002Y-64511618D01*
X136928369Y-64174862D01*
X136934881Y-64174158D01*
X136940753Y-64177065D01*
G37*
%TD.AperFunction*%
%TD*%
%TA.AperFunction,Conductor*%
%TO.N,col0*%
G36*
X166489149Y-91396808D02*
G01*
X167472201Y-91908212D01*
X167476882Y-91912656D01*
X167478495Y-91918909D01*
X167476544Y-91925065D01*
X167256117Y-92256840D01*
X167255002Y-92258265D01*
X167021546Y-92513313D01*
X167021510Y-92513352D01*
X167021475Y-92513392D01*
X167021442Y-92513429D01*
X167021411Y-92513466D01*
X166814387Y-92757566D01*
X166814384Y-92757569D01*
X166813900Y-92758141D01*
X166813576Y-92758817D01*
X166813574Y-92758821D01*
X166665871Y-93067529D01*
X166665869Y-93067535D01*
X166665466Y-93068378D01*
X166665349Y-93069309D01*
X166665349Y-93069310D01*
X166610035Y-93510391D01*
X166606167Y-93517708D01*
X166598426Y-93520635D01*
X166369074Y-93520635D01*
X166361333Y-93517708D01*
X166357465Y-93510391D01*
X166302033Y-93068378D01*
X166153599Y-92758141D01*
X165946024Y-92513392D01*
X165712493Y-92258262D01*
X165711380Y-92256840D01*
X165490954Y-91925063D01*
X165489004Y-91918910D01*
X165490617Y-91912657D01*
X165495298Y-91908212D01*
X166478350Y-91396808D01*
X166483750Y-91395489D01*
X166489149Y-91396808D01*
G37*
%TD.AperFunction*%
%TD*%
%TA.AperFunction,Conductor*%
%TO.N,ENC0*%
G36*
X145282977Y-106234666D02*
G01*
X145681388Y-106493455D01*
X145681393Y-106493458D01*
X145681618Y-106493604D01*
X146088204Y-106705203D01*
X146494791Y-106864302D01*
X146901377Y-106970901D01*
X147292885Y-107022993D01*
X147299251Y-107025970D01*
X147302763Y-107032057D01*
X147302154Y-107039059D01*
X146896312Y-108021217D01*
X146893772Y-108025022D01*
X146889967Y-108027562D01*
X145905586Y-108434322D01*
X145899232Y-108435056D01*
X145893442Y-108432339D01*
X145889946Y-108426983D01*
X145734651Y-107927627D01*
X145575551Y-107468541D01*
X145416453Y-107061954D01*
X145257354Y-106707868D01*
X145102279Y-106413911D01*
X145101059Y-106406706D01*
X145104353Y-106400183D01*
X145268332Y-106236204D01*
X145275382Y-106232842D01*
X145282977Y-106234666D01*
G37*
%TD.AperFunction*%
%TD*%
%TA.AperFunction,Conductor*%
%TO.N,col3*%
G36*
X226296167Y-68317292D02*
G01*
X226300034Y-68324608D01*
X226355466Y-68766621D01*
X226355869Y-68767465D01*
X226355871Y-68767469D01*
X226503574Y-69076176D01*
X226503900Y-69076857D01*
X226711475Y-69321607D01*
X226711535Y-69321672D01*
X226711546Y-69321685D01*
X226945002Y-69576732D01*
X226946117Y-69578157D01*
X227166544Y-69909934D01*
X227168495Y-69916090D01*
X227166882Y-69922343D01*
X227162199Y-69926789D01*
X226179150Y-70438190D01*
X226173750Y-70439510D01*
X226168350Y-70438190D01*
X225185300Y-69926788D01*
X225180617Y-69922342D01*
X225179004Y-69916089D01*
X225180953Y-69909937D01*
X225401387Y-69578148D01*
X225402487Y-69576741D01*
X225636024Y-69321607D01*
X225843599Y-69076857D01*
X225992033Y-68766621D01*
X226047465Y-68324608D01*
X226051333Y-68317292D01*
X226059074Y-68314365D01*
X226288426Y-68314365D01*
X226296167Y-68317292D01*
G37*
%TD.AperFunction*%
%TD*%
%TA.AperFunction,Conductor*%
%TO.N,col1*%
G36*
X137517046Y-55947197D02*
G01*
X137680349Y-56110500D01*
X137683399Y-56115828D01*
X137683331Y-56121968D01*
X137680164Y-56127227D01*
X137539457Y-56261834D01*
X137539451Y-56261839D01*
X137539188Y-56262092D01*
X137538962Y-56262368D01*
X137538952Y-56262380D01*
X137389746Y-56445405D01*
X137389739Y-56445414D01*
X137389569Y-56445623D01*
X137389416Y-56445851D01*
X137389413Y-56445856D01*
X137240075Y-56669362D01*
X137240067Y-56669373D01*
X137239950Y-56669550D01*
X137239846Y-56669732D01*
X137239839Y-56669745D01*
X137112399Y-56894887D01*
X137090331Y-56933874D01*
X137090273Y-56933991D01*
X137090256Y-56934024D01*
X136945544Y-57228752D01*
X136939178Y-57234539D01*
X136930576Y-57234409D01*
X136649534Y-57118335D01*
X136113858Y-56897094D01*
X136109529Y-56893996D01*
X136107020Y-56889300D01*
X135872994Y-56013388D01*
X135873671Y-56005477D01*
X135879245Y-55999818D01*
X135887146Y-55999024D01*
X136196695Y-56076780D01*
X136525529Y-56112880D01*
X136854363Y-56102481D01*
X137183197Y-56045581D01*
X137505267Y-55944308D01*
X137511558Y-55944106D01*
X137517046Y-55947197D01*
G37*
%TD.AperFunction*%
%TD*%
%TA.AperFunction,Conductor*%
%TO.N,col1*%
G36*
X185539149Y-72346808D02*
G01*
X186522201Y-72858212D01*
X186526882Y-72862656D01*
X186528495Y-72868909D01*
X186526544Y-72875065D01*
X186306117Y-73206840D01*
X186305002Y-73208265D01*
X186071546Y-73463313D01*
X186071510Y-73463352D01*
X186071475Y-73463392D01*
X186071442Y-73463429D01*
X186071411Y-73463466D01*
X185864387Y-73707566D01*
X185864384Y-73707569D01*
X185863900Y-73708141D01*
X185863576Y-73708817D01*
X185863574Y-73708821D01*
X185715871Y-74017529D01*
X185715869Y-74017535D01*
X185715466Y-74018378D01*
X185715349Y-74019309D01*
X185715349Y-74019310D01*
X185660035Y-74460391D01*
X185656167Y-74467708D01*
X185648426Y-74470635D01*
X185419074Y-74470635D01*
X185411333Y-74467708D01*
X185407465Y-74460391D01*
X185352033Y-74018378D01*
X185203599Y-73708141D01*
X184996024Y-73463392D01*
X184762493Y-73208262D01*
X184761380Y-73206840D01*
X184540954Y-72875063D01*
X184539004Y-72868910D01*
X184540617Y-72862657D01*
X184545298Y-72858212D01*
X185528350Y-72346808D01*
X185533750Y-72345489D01*
X185539149Y-72346808D01*
G37*
%TD.AperFunction*%
%TD*%
%TA.AperFunction,Conductor*%
%TO.N,col2*%
G36*
X204713917Y-70222292D02*
G01*
X204717784Y-70229608D01*
X204773216Y-70671621D01*
X204773619Y-70672465D01*
X204773621Y-70672469D01*
X204921324Y-70981176D01*
X204921650Y-70981857D01*
X205129225Y-71226607D01*
X205129285Y-71226672D01*
X205129296Y-71226685D01*
X205362752Y-71481732D01*
X205363867Y-71483157D01*
X205584294Y-71814934D01*
X205586245Y-71821090D01*
X205584632Y-71827343D01*
X205579949Y-71831789D01*
X204596900Y-72343190D01*
X204591500Y-72344510D01*
X204586100Y-72343190D01*
X203603050Y-71831788D01*
X203598367Y-71827342D01*
X203596754Y-71821089D01*
X203598703Y-71814937D01*
X203819137Y-71483148D01*
X203820237Y-71481741D01*
X204053774Y-71226607D01*
X204261349Y-70981857D01*
X204409783Y-70671621D01*
X204465215Y-70229608D01*
X204469083Y-70222292D01*
X204476824Y-70219365D01*
X204706176Y-70219365D01*
X204713917Y-70222292D01*
G37*
%TD.AperFunction*%
%TD*%
%TA.AperFunction,Conductor*%
%TO.N,col2*%
G36*
X204713917Y-89272292D02*
G01*
X204717784Y-89279608D01*
X204773216Y-89721621D01*
X204773619Y-89722465D01*
X204773621Y-89722469D01*
X204921324Y-90031176D01*
X204921650Y-90031857D01*
X205129225Y-90276607D01*
X205129285Y-90276672D01*
X205129296Y-90276685D01*
X205362752Y-90531732D01*
X205363867Y-90533157D01*
X205584294Y-90864934D01*
X205586245Y-90871090D01*
X205584632Y-90877343D01*
X205579949Y-90881789D01*
X204596900Y-91393190D01*
X204591500Y-91394510D01*
X204586100Y-91393190D01*
X203603050Y-90881788D01*
X203598367Y-90877342D01*
X203596754Y-90871089D01*
X203598703Y-90864937D01*
X203819137Y-90533148D01*
X203820237Y-90531741D01*
X204053774Y-90276607D01*
X204261349Y-90031857D01*
X204409783Y-89721621D01*
X204465215Y-89279608D01*
X204469083Y-89272292D01*
X204476824Y-89269365D01*
X204706176Y-89269365D01*
X204713917Y-89272292D01*
G37*
%TD.AperFunction*%
%TD*%
%TA.AperFunction,Conductor*%
%TO.N,col0*%
G36*
X166606167Y-70222292D02*
G01*
X166610034Y-70229608D01*
X166665466Y-70671621D01*
X166665869Y-70672465D01*
X166665871Y-70672469D01*
X166813574Y-70981176D01*
X166813900Y-70981857D01*
X167021475Y-71226607D01*
X167021535Y-71226672D01*
X167021546Y-71226685D01*
X167255002Y-71481732D01*
X167256117Y-71483157D01*
X167476544Y-71814934D01*
X167478495Y-71821090D01*
X167476882Y-71827343D01*
X167472199Y-71831789D01*
X166489150Y-72343190D01*
X166483750Y-72344510D01*
X166478350Y-72343190D01*
X165495300Y-71831788D01*
X165490617Y-71827342D01*
X165489004Y-71821089D01*
X165490953Y-71814937D01*
X165711387Y-71483148D01*
X165712487Y-71481741D01*
X165946024Y-71226607D01*
X166153599Y-70981857D01*
X166302033Y-70671621D01*
X166357465Y-70229608D01*
X166361333Y-70222292D01*
X166369074Y-70219365D01*
X166598426Y-70219365D01*
X166606167Y-70222292D01*
G37*
%TD.AperFunction*%
%TD*%
%TA.AperFunction,Conductor*%
%TO.N,ENC1*%
G36*
X136940753Y-66717065D02*
G01*
X136944141Y-66722673D01*
X137046632Y-67108467D01*
X137046641Y-67108500D01*
X137046649Y-67108528D01*
X137152587Y-67460792D01*
X137152623Y-67460896D01*
X137152634Y-67460930D01*
X137257240Y-67762851D01*
X137258524Y-67766555D01*
X137258568Y-67766664D01*
X137258579Y-67766692D01*
X137364381Y-68025622D01*
X137364386Y-68025633D01*
X137364462Y-68025819D01*
X137364554Y-68026005D01*
X137364556Y-68026008D01*
X137466648Y-68231047D01*
X137467721Y-68238146D01*
X137464447Y-68244535D01*
X137300057Y-68408925D01*
X137293236Y-68412262D01*
X137285803Y-68410708D01*
X136982479Y-68230298D01*
X136982473Y-68230294D01*
X136982184Y-68230123D01*
X136981878Y-68229987D01*
X136981871Y-68229983D01*
X136671093Y-68091542D01*
X136671092Y-68091541D01*
X136670745Y-68091387D01*
X136670374Y-68091277D01*
X136670371Y-68091276D01*
X136359709Y-67999271D01*
X136359704Y-67999269D01*
X136359306Y-67999152D01*
X136358900Y-67999092D01*
X136358894Y-67999091D01*
X136048294Y-67953478D01*
X136048284Y-67953477D01*
X136047867Y-67953416D01*
X136047434Y-67953417D01*
X135753967Y-67954136D01*
X135746834Y-67951732D01*
X135742641Y-67945481D01*
X135743123Y-67937971D01*
X136106658Y-67057961D01*
X136109198Y-67054158D01*
X136113002Y-67051618D01*
X136928369Y-66714862D01*
X136934881Y-66714158D01*
X136940753Y-66717065D01*
G37*
%TD.AperFunction*%
%TD*%
%TA.AperFunction,Conductor*%
%TO.N,row4*%
G36*
X136940844Y-61636921D02*
G01*
X136944270Y-61642445D01*
X137050848Y-62022245D01*
X137050868Y-62022309D01*
X137050877Y-62022338D01*
X137160947Y-62368109D01*
X137160984Y-62368225D01*
X137271120Y-62667705D01*
X137381256Y-62920685D01*
X137487313Y-63119517D01*
X137488563Y-63126744D01*
X137485263Y-63133295D01*
X137320932Y-63297626D01*
X137314214Y-63300949D01*
X137306858Y-63299514D01*
X137015700Y-63133295D01*
X137001153Y-63124990D01*
X137000830Y-63124853D01*
X137000827Y-63124852D01*
X136688053Y-62992690D01*
X136688047Y-62992688D01*
X136687690Y-62992537D01*
X136687317Y-62992434D01*
X136687315Y-62992434D01*
X136374622Y-62906693D01*
X136374621Y-62906692D01*
X136374228Y-62906585D01*
X136373815Y-62906533D01*
X136061192Y-62867185D01*
X136061182Y-62867184D01*
X136060765Y-62867132D01*
X136060345Y-62867141D01*
X136060337Y-62867141D01*
X135765022Y-62873781D01*
X135757812Y-62871498D01*
X135753504Y-62865282D01*
X135753900Y-62857729D01*
X136106679Y-61978045D01*
X136109220Y-61974173D01*
X136113066Y-61971592D01*
X136928540Y-61634791D01*
X136934999Y-61634077D01*
X136940844Y-61636921D01*
G37*
%TD.AperFunction*%
%TD*%
%TA.AperFunction,Conductor*%
%TO.N,col3*%
G36*
X223639149Y-72346808D02*
G01*
X224622201Y-72858212D01*
X224626882Y-72862656D01*
X224628495Y-72868909D01*
X224626544Y-72875065D01*
X224406117Y-73206840D01*
X224405002Y-73208265D01*
X224171546Y-73463313D01*
X224171510Y-73463352D01*
X224171475Y-73463392D01*
X224171442Y-73463429D01*
X224171411Y-73463466D01*
X223964387Y-73707566D01*
X223964384Y-73707569D01*
X223963900Y-73708141D01*
X223963576Y-73708817D01*
X223963574Y-73708821D01*
X223815871Y-74017529D01*
X223815869Y-74017535D01*
X223815466Y-74018378D01*
X223815349Y-74019309D01*
X223815349Y-74019310D01*
X223760035Y-74460391D01*
X223756167Y-74467708D01*
X223748426Y-74470635D01*
X223519074Y-74470635D01*
X223511333Y-74467708D01*
X223507465Y-74460391D01*
X223452033Y-74018378D01*
X223303599Y-73708141D01*
X223096024Y-73463392D01*
X222862493Y-73208262D01*
X222861380Y-73206840D01*
X222640954Y-72875063D01*
X222639004Y-72868910D01*
X222640617Y-72862657D01*
X222645298Y-72858212D01*
X223628350Y-72346808D01*
X223633750Y-72345489D01*
X223639149Y-72346808D01*
G37*
%TD.AperFunction*%
%TD*%
%TA.AperFunction,Conductor*%
%TO.N,col2*%
G36*
X204596899Y-53296808D02*
G01*
X205579951Y-53808212D01*
X205584632Y-53812656D01*
X205586245Y-53818909D01*
X205584294Y-53825065D01*
X205363867Y-54156840D01*
X205362752Y-54158265D01*
X205129296Y-54413313D01*
X205129260Y-54413352D01*
X205129225Y-54413392D01*
X205129192Y-54413429D01*
X205129161Y-54413466D01*
X204922137Y-54657566D01*
X204922134Y-54657569D01*
X204921650Y-54658141D01*
X204921326Y-54658817D01*
X204921324Y-54658821D01*
X204773621Y-54967529D01*
X204773619Y-54967535D01*
X204773216Y-54968378D01*
X204773099Y-54969309D01*
X204773099Y-54969310D01*
X204717785Y-55410391D01*
X204713917Y-55417708D01*
X204706176Y-55420635D01*
X204476824Y-55420635D01*
X204469083Y-55417708D01*
X204465215Y-55410391D01*
X204409783Y-54968378D01*
X204261349Y-54658141D01*
X204053774Y-54413392D01*
X203820243Y-54158262D01*
X203819130Y-54156840D01*
X203598704Y-53825063D01*
X203596754Y-53818910D01*
X203598367Y-53812657D01*
X203603048Y-53808212D01*
X204586100Y-53296808D01*
X204591500Y-53295489D01*
X204596899Y-53296808D01*
G37*
%TD.AperFunction*%
%TD*%
%TA.AperFunction,Conductor*%
%TO.N,col2*%
G36*
X136465788Y-53532469D02*
G01*
X136744752Y-53756986D01*
X136913041Y-53865548D01*
X137035569Y-53944591D01*
X137035575Y-53944594D01*
X137035869Y-53944784D01*
X137326986Y-54086083D01*
X137618103Y-54180881D01*
X137618537Y-54180953D01*
X137899435Y-54227557D01*
X137906445Y-54231533D01*
X137909220Y-54239099D01*
X137909220Y-54469261D01*
X137906445Y-54476827D01*
X137899435Y-54480803D01*
X137618537Y-54527405D01*
X137618524Y-54527408D01*
X137618103Y-54527478D01*
X137617695Y-54527610D01*
X137617686Y-54527613D01*
X137327369Y-54622151D01*
X137327365Y-54622152D01*
X137326986Y-54622276D01*
X137326632Y-54622447D01*
X137326624Y-54622451D01*
X137036186Y-54763420D01*
X137036171Y-54763428D01*
X137035869Y-54763575D01*
X137035587Y-54763756D01*
X137035569Y-54763767D01*
X136745012Y-54951205D01*
X136744752Y-54951373D01*
X136744520Y-54951559D01*
X136744514Y-54951564D01*
X136465789Y-55175889D01*
X136459148Y-55178453D01*
X136452250Y-55176694D01*
X136447649Y-55171263D01*
X136110083Y-54358666D01*
X136109189Y-54354180D01*
X136110084Y-54349692D01*
X136159170Y-54231533D01*
X136447649Y-53537096D01*
X136452251Y-53531665D01*
X136459149Y-53529906D01*
X136465788Y-53532469D01*
G37*
%TD.AperFunction*%
%TD*%
%TA.AperFunction,Conductor*%
%TO.N,col0*%
G36*
X147287816Y-121607231D02*
G01*
X147464625Y-121702163D01*
X147677083Y-121816236D01*
X147678864Y-121817414D01*
X147945865Y-122031365D01*
X147945932Y-122031449D01*
X147945947Y-122031431D01*
X148174803Y-122218198D01*
X148459201Y-122350051D01*
X148460132Y-122350158D01*
X148883386Y-122398809D01*
X148890783Y-122402646D01*
X148893750Y-122410432D01*
X148893750Y-122639568D01*
X148890783Y-122647354D01*
X148883386Y-122651191D01*
X148460132Y-122699840D01*
X148460126Y-122699841D01*
X148459201Y-122699948D01*
X148458355Y-122700340D01*
X148458352Y-122700341D01*
X148175466Y-122831493D01*
X148175462Y-122831495D01*
X148174803Y-122831801D01*
X148174239Y-122832260D01*
X148174236Y-122832263D01*
X147945953Y-123018561D01*
X147945872Y-123018626D01*
X147678864Y-123232584D01*
X147677083Y-123233762D01*
X147287817Y-123442767D01*
X147281535Y-123444135D01*
X147275479Y-123441978D01*
X147271477Y-123436946D01*
X147182010Y-123221517D01*
X146894612Y-122529485D01*
X146893718Y-122525000D01*
X146894613Y-122520513D01*
X146940330Y-122410432D01*
X147271477Y-121613052D01*
X147275479Y-121608021D01*
X147281535Y-121605864D01*
X147287816Y-121607231D01*
G37*
%TD.AperFunction*%
%TD*%
%TA.AperFunction,Conductor*%
%TO.N,col2*%
G36*
X204596899Y-91396808D02*
G01*
X205579951Y-91908212D01*
X205584632Y-91912656D01*
X205586245Y-91918909D01*
X205584294Y-91925065D01*
X205363867Y-92256840D01*
X205362752Y-92258265D01*
X205129296Y-92513313D01*
X205129260Y-92513352D01*
X205129225Y-92513392D01*
X205129192Y-92513429D01*
X205129161Y-92513466D01*
X204922137Y-92757566D01*
X204922134Y-92757569D01*
X204921650Y-92758141D01*
X204921326Y-92758817D01*
X204921324Y-92758821D01*
X204773621Y-93067529D01*
X204773619Y-93067535D01*
X204773216Y-93068378D01*
X204773099Y-93069309D01*
X204773099Y-93069310D01*
X204717785Y-93510391D01*
X204713917Y-93517708D01*
X204706176Y-93520635D01*
X204476824Y-93520635D01*
X204469083Y-93517708D01*
X204465215Y-93510391D01*
X204409783Y-93068378D01*
X204261349Y-92758141D01*
X204053774Y-92513392D01*
X203820243Y-92258262D01*
X203819130Y-92256840D01*
X203598704Y-91925063D01*
X203596754Y-91918910D01*
X203598367Y-91912657D01*
X203603048Y-91908212D01*
X204586100Y-91396808D01*
X204591500Y-91395489D01*
X204596899Y-91396808D01*
G37*
%TD.AperFunction*%
%TD*%
%TA.AperFunction,Conductor*%
%TO.N,col1*%
G36*
X185539149Y-91396808D02*
G01*
X186522201Y-91908212D01*
X186526882Y-91912656D01*
X186528495Y-91918909D01*
X186526544Y-91925065D01*
X186306117Y-92256840D01*
X186305002Y-92258265D01*
X186071546Y-92513313D01*
X186071510Y-92513352D01*
X186071475Y-92513392D01*
X186071442Y-92513429D01*
X186071411Y-92513466D01*
X185864387Y-92757566D01*
X185864384Y-92757569D01*
X185863900Y-92758141D01*
X185863576Y-92758817D01*
X185863574Y-92758821D01*
X185715871Y-93067529D01*
X185715869Y-93067535D01*
X185715466Y-93068378D01*
X185715349Y-93069309D01*
X185715349Y-93069310D01*
X185660035Y-93510391D01*
X185656167Y-93517708D01*
X185648426Y-93520635D01*
X185419074Y-93520635D01*
X185411333Y-93517708D01*
X185407465Y-93510391D01*
X185352033Y-93068378D01*
X185203599Y-92758141D01*
X184996024Y-92513392D01*
X184762493Y-92258262D01*
X184761380Y-92256840D01*
X184540954Y-91925063D01*
X184539004Y-91918910D01*
X184540617Y-91912657D01*
X184545298Y-91908212D01*
X185528350Y-91396808D01*
X185533750Y-91395489D01*
X185539149Y-91396808D01*
G37*
%TD.AperFunction*%
%TD*%
%TA.AperFunction,Conductor*%
%TO.N,col1*%
G36*
X160835268Y-86961457D02*
G01*
X160839146Y-86966388D01*
X160894075Y-87098137D01*
X160940860Y-87210354D01*
X160986573Y-87319997D01*
X160987474Y-87324499D01*
X160986573Y-87329001D01*
X160839146Y-87682611D01*
X160835268Y-87687542D01*
X160829400Y-87689762D01*
X160823230Y-87688630D01*
X160678126Y-87618052D01*
X160677132Y-87617508D01*
X160568330Y-87550860D01*
X160568234Y-87550801D01*
X160568150Y-87550754D01*
X160568131Y-87550743D01*
X160473088Y-87497773D01*
X160473086Y-87497772D01*
X160472544Y-87497470D01*
X160471953Y-87497289D01*
X160471946Y-87497287D01*
X160357464Y-87462416D01*
X160357458Y-87462414D01*
X160356848Y-87462229D01*
X160356212Y-87462181D01*
X160356206Y-87462180D01*
X160198273Y-87450313D01*
X160190572Y-87446603D01*
X160187450Y-87438646D01*
X160187450Y-87210354D01*
X160190572Y-87202397D01*
X160198273Y-87198687D01*
X160289079Y-87191862D01*
X160356848Y-87186770D01*
X160472544Y-87151529D01*
X160568234Y-87098197D01*
X160677144Y-87031482D01*
X160678121Y-87030948D01*
X160823232Y-86960368D01*
X160829400Y-86959237D01*
X160835268Y-86961457D01*
G37*
%TD.AperFunction*%
%TD*%
%TA.AperFunction,Conductor*%
%TO.N,col3*%
G36*
X225101239Y-108214488D02*
G01*
X225305426Y-108276284D01*
X226167567Y-108537207D01*
X226172932Y-108540643D01*
X226175701Y-108546382D01*
X226370058Y-109653268D01*
X226369428Y-109659558D01*
X226365619Y-109664602D01*
X226359741Y-109666929D01*
X225988214Y-109705455D01*
X225987301Y-109705513D01*
X225667290Y-109713562D01*
X225667274Y-109713563D01*
X225667001Y-109713570D01*
X225666740Y-109713601D01*
X225666719Y-109713603D01*
X225377635Y-109748493D01*
X225377629Y-109748494D01*
X225376846Y-109748589D01*
X225376112Y-109748891D01*
X225376111Y-109748892D01*
X225085002Y-109868987D01*
X225085000Y-109868987D01*
X225084222Y-109869309D01*
X225083565Y-109869839D01*
X225083563Y-109869841D01*
X224764232Y-110127866D01*
X224756260Y-110130450D01*
X224748606Y-110127039D01*
X224586578Y-109965011D01*
X224583173Y-109957461D01*
X224585619Y-109949550D01*
X224857693Y-109600222D01*
X224971683Y-109278619D01*
X224997416Y-108961059D01*
X225011032Y-108616579D01*
X225011233Y-108614840D01*
X225086361Y-108223477D01*
X225089273Y-108217728D01*
X225094792Y-108214393D01*
X225101239Y-108214488D01*
G37*
%TD.AperFunction*%
%TD*%
%TA.AperFunction,Conductor*%
%TO.N,col1*%
G36*
X185656167Y-70222292D02*
G01*
X185660034Y-70229608D01*
X185715466Y-70671621D01*
X185715869Y-70672465D01*
X185715871Y-70672469D01*
X185863574Y-70981176D01*
X185863900Y-70981857D01*
X186071475Y-71226607D01*
X186071535Y-71226672D01*
X186071546Y-71226685D01*
X186305002Y-71481732D01*
X186306117Y-71483157D01*
X186526544Y-71814934D01*
X186528495Y-71821090D01*
X186526882Y-71827343D01*
X186522199Y-71831789D01*
X185539150Y-72343190D01*
X185533750Y-72344510D01*
X185528350Y-72343190D01*
X184545300Y-71831788D01*
X184540617Y-71827342D01*
X184539004Y-71821089D01*
X184540953Y-71814937D01*
X184761387Y-71483148D01*
X184762487Y-71481741D01*
X184996024Y-71226607D01*
X185203599Y-70981857D01*
X185352033Y-70671621D01*
X185407465Y-70229608D01*
X185411333Y-70222292D01*
X185419074Y-70219365D01*
X185648426Y-70219365D01*
X185656167Y-70222292D01*
G37*
%TD.AperFunction*%
%TD*%
%TA.AperFunction,Conductor*%
%TO.N,col0*%
G36*
X136940753Y-59097065D02*
G01*
X136944141Y-59102673D01*
X137046632Y-59488467D01*
X137046641Y-59488500D01*
X137046649Y-59488528D01*
X137152587Y-59840792D01*
X137152623Y-59840896D01*
X137152634Y-59840930D01*
X137257240Y-60142851D01*
X137258524Y-60146555D01*
X137258568Y-60146664D01*
X137258579Y-60146692D01*
X137364381Y-60405622D01*
X137364386Y-60405633D01*
X137364462Y-60405819D01*
X137364554Y-60406005D01*
X137364556Y-60406008D01*
X137466648Y-60611047D01*
X137467721Y-60618146D01*
X137464447Y-60624535D01*
X137300057Y-60788925D01*
X137293236Y-60792262D01*
X137285803Y-60790708D01*
X136982479Y-60610298D01*
X136982473Y-60610294D01*
X136982184Y-60610123D01*
X136981878Y-60609987D01*
X136981871Y-60609983D01*
X136671093Y-60471542D01*
X136671092Y-60471541D01*
X136670745Y-60471387D01*
X136670374Y-60471277D01*
X136670371Y-60471276D01*
X136359709Y-60379271D01*
X136359704Y-60379269D01*
X136359306Y-60379152D01*
X136358900Y-60379092D01*
X136358894Y-60379091D01*
X136048294Y-60333478D01*
X136048284Y-60333477D01*
X136047867Y-60333416D01*
X136047434Y-60333417D01*
X135753967Y-60334136D01*
X135746834Y-60331732D01*
X135742641Y-60325481D01*
X135743123Y-60317971D01*
X136106658Y-59437961D01*
X136109198Y-59434158D01*
X136113002Y-59431618D01*
X136928369Y-59094862D01*
X136934881Y-59094158D01*
X136940753Y-59097065D01*
G37*
%TD.AperFunction*%
%TD*%
%TA.AperFunction,Conductor*%
%TO.N,col3*%
G36*
X226296167Y-106417292D02*
G01*
X226300034Y-106424608D01*
X226355466Y-106866621D01*
X226355869Y-106867465D01*
X226355871Y-106867469D01*
X226503574Y-107176176D01*
X226503900Y-107176857D01*
X226711475Y-107421607D01*
X226711535Y-107421672D01*
X226711546Y-107421685D01*
X226945002Y-107676732D01*
X226946117Y-107678157D01*
X227166544Y-108009934D01*
X227168495Y-108016090D01*
X227166882Y-108022343D01*
X227162199Y-108026789D01*
X226179150Y-108538190D01*
X226173750Y-108539510D01*
X226168350Y-108538190D01*
X225185300Y-108026788D01*
X225180617Y-108022342D01*
X225179004Y-108016089D01*
X225180953Y-108009937D01*
X225401387Y-107678148D01*
X225402487Y-107676741D01*
X225636024Y-107421607D01*
X225843599Y-107176857D01*
X225992033Y-106866621D01*
X226047465Y-106424608D01*
X226051333Y-106417292D01*
X226059074Y-106414365D01*
X226288426Y-106414365D01*
X226296167Y-106417292D01*
G37*
%TD.AperFunction*%
%TD*%
%TA.AperFunction,Conductor*%
%TO.N,col0*%
G36*
X166606167Y-89272292D02*
G01*
X166610034Y-89279608D01*
X166665466Y-89721621D01*
X166665869Y-89722465D01*
X166665871Y-89722469D01*
X166813574Y-90031176D01*
X166813900Y-90031857D01*
X167021475Y-90276607D01*
X167021535Y-90276672D01*
X167021546Y-90276685D01*
X167255002Y-90531732D01*
X167256117Y-90533157D01*
X167476544Y-90864934D01*
X167478495Y-90871090D01*
X167476882Y-90877343D01*
X167472199Y-90881789D01*
X166489150Y-91393190D01*
X166483750Y-91394510D01*
X166478350Y-91393190D01*
X165495300Y-90881788D01*
X165490617Y-90877342D01*
X165489004Y-90871089D01*
X165490953Y-90864937D01*
X165711387Y-90533148D01*
X165712487Y-90531741D01*
X165946024Y-90276607D01*
X166153599Y-90031857D01*
X166302033Y-89721621D01*
X166357465Y-89279608D01*
X166361333Y-89272292D01*
X166369074Y-89269365D01*
X166598426Y-89269365D01*
X166606167Y-89272292D01*
G37*
%TD.AperFunction*%
%TD*%
%TA.AperFunction,Conductor*%
%TO.N,col3*%
G36*
X223756167Y-89272292D02*
G01*
X223760034Y-89279608D01*
X223815466Y-89721621D01*
X223815869Y-89722465D01*
X223815871Y-89722469D01*
X223963574Y-90031176D01*
X223963900Y-90031857D01*
X224171475Y-90276607D01*
X224171535Y-90276672D01*
X224171546Y-90276685D01*
X224405002Y-90531732D01*
X224406117Y-90533157D01*
X224626544Y-90864934D01*
X224628495Y-90871090D01*
X224626882Y-90877343D01*
X224622199Y-90881789D01*
X223639150Y-91393190D01*
X223633750Y-91394510D01*
X223628350Y-91393190D01*
X222645300Y-90881788D01*
X222640617Y-90877342D01*
X222639004Y-90871089D01*
X222640953Y-90864937D01*
X222861387Y-90533148D01*
X222862487Y-90531741D01*
X223096024Y-90276607D01*
X223303599Y-90031857D01*
X223452033Y-89721621D01*
X223507465Y-89279608D01*
X223511333Y-89272292D01*
X223519074Y-89269365D01*
X223748426Y-89269365D01*
X223756167Y-89272292D01*
G37*
%TD.AperFunction*%
%TD*%
%TA.AperFunction,Conductor*%
%TO.N,col3*%
G36*
X156235268Y-85512457D02*
G01*
X156239146Y-85517388D01*
X156386573Y-85870998D01*
X156387474Y-85875500D01*
X156386573Y-85880002D01*
X156239146Y-86233611D01*
X156235268Y-86238543D01*
X156229400Y-86240762D01*
X156223230Y-86239630D01*
X156078126Y-86169052D01*
X156077132Y-86168508D01*
X155968330Y-86101860D01*
X155968234Y-86101801D01*
X155968150Y-86101754D01*
X155968131Y-86101743D01*
X155873088Y-86048773D01*
X155873086Y-86048772D01*
X155872544Y-86048470D01*
X155871953Y-86048289D01*
X155871946Y-86048287D01*
X155757464Y-86013416D01*
X155757458Y-86013414D01*
X155756848Y-86013229D01*
X155756212Y-86013181D01*
X155756206Y-86013180D01*
X155598273Y-86001313D01*
X155590572Y-85997603D01*
X155587450Y-85989646D01*
X155587450Y-85761354D01*
X155590572Y-85753397D01*
X155598273Y-85749687D01*
X155689079Y-85742862D01*
X155756848Y-85737770D01*
X155872544Y-85702529D01*
X155968234Y-85649197D01*
X156077144Y-85582482D01*
X156078121Y-85581948D01*
X156223232Y-85511368D01*
X156229400Y-85510237D01*
X156235268Y-85512457D01*
G37*
%TD.AperFunction*%
%TD*%
%TA.AperFunction,Conductor*%
%TO.N,col3*%
G36*
X223639149Y-53296808D02*
G01*
X224622201Y-53808212D01*
X224626882Y-53812656D01*
X224628495Y-53818909D01*
X224626544Y-53825065D01*
X224406117Y-54156840D01*
X224405002Y-54158265D01*
X224171546Y-54413313D01*
X224171510Y-54413352D01*
X224171475Y-54413392D01*
X224171442Y-54413429D01*
X224171411Y-54413466D01*
X223964387Y-54657566D01*
X223964384Y-54657569D01*
X223963900Y-54658141D01*
X223963576Y-54658817D01*
X223963574Y-54658821D01*
X223815871Y-54967529D01*
X223815869Y-54967535D01*
X223815466Y-54968378D01*
X223815349Y-54969309D01*
X223815349Y-54969310D01*
X223760035Y-55410391D01*
X223756167Y-55417708D01*
X223748426Y-55420635D01*
X223519074Y-55420635D01*
X223511333Y-55417708D01*
X223507465Y-55410391D01*
X223452033Y-54968378D01*
X223303599Y-54658141D01*
X223096024Y-54413392D01*
X222862493Y-54158262D01*
X222861380Y-54156840D01*
X222640954Y-53825063D01*
X222639004Y-53818910D01*
X222640617Y-53812657D01*
X222645298Y-53808212D01*
X223628350Y-53296808D01*
X223633750Y-53295489D01*
X223639149Y-53296808D01*
G37*
%TD.AperFunction*%
%TD*%
%TA.AperFunction,Conductor*%
%TO.N,col3*%
G36*
X225315818Y-71134957D02*
G01*
X225477803Y-71296942D01*
X225481227Y-71304938D01*
X225478186Y-71313087D01*
X225206918Y-71611349D01*
X225206910Y-71611359D01*
X225206640Y-71611656D01*
X225206413Y-71611988D01*
X225206406Y-71611998D01*
X225032330Y-71867504D01*
X225032325Y-71867512D01*
X225032053Y-71867912D01*
X225031849Y-71868355D01*
X225031847Y-71868360D01*
X224919329Y-72113596D01*
X224919323Y-72113610D01*
X224919206Y-72113866D01*
X224919117Y-72114126D01*
X224919110Y-72114145D01*
X224825370Y-72389783D01*
X224711660Y-72724615D01*
X224708233Y-72729704D01*
X224702702Y-72732359D01*
X224696588Y-72731851D01*
X223640077Y-72348260D01*
X223634780Y-72344375D01*
X223632412Y-72338248D01*
X223592640Y-71867912D01*
X223538941Y-71232884D01*
X223540267Y-71226410D01*
X223544892Y-71221686D01*
X223551338Y-71220223D01*
X223948878Y-71245419D01*
X223951142Y-71245789D01*
X224304908Y-71340164D01*
X224630783Y-71412640D01*
X224956003Y-71372183D01*
X225300892Y-71133607D01*
X225308598Y-71131577D01*
X225315818Y-71134957D01*
G37*
%TD.AperFunction*%
%TD*%
%TA.AperFunction,Conductor*%
%TO.N,col1*%
G36*
X187003738Y-108832066D02*
G01*
X187163320Y-108991648D01*
X187166485Y-108997460D01*
X187165990Y-109004060D01*
X187091746Y-109200334D01*
X187091739Y-109200354D01*
X187091682Y-109200505D01*
X187091637Y-109200648D01*
X187091632Y-109200665D01*
X187014739Y-109449611D01*
X187014727Y-109449650D01*
X187014699Y-109449744D01*
X187014665Y-109449870D01*
X187014665Y-109449874D01*
X186937741Y-109744611D01*
X186937730Y-109744654D01*
X186937716Y-109744710D01*
X186937700Y-109744776D01*
X186937689Y-109744826D01*
X186860760Y-110085282D01*
X186860733Y-110085402D01*
X186860727Y-110085427D01*
X186860717Y-110085477D01*
X186785665Y-110462206D01*
X186781516Y-110469042D01*
X186773946Y-110471617D01*
X185540705Y-110445866D01*
X185534335Y-110443820D01*
X185530128Y-110438618D01*
X185168414Y-109558915D01*
X185167809Y-109551955D01*
X185171281Y-109545889D01*
X185177590Y-109542884D01*
X185377337Y-109514515D01*
X185378981Y-109514400D01*
X185443574Y-109514400D01*
X185443783Y-109514400D01*
X185668569Y-109499352D01*
X185963037Y-109439499D01*
X186246901Y-109340931D01*
X186515093Y-109205407D01*
X186762830Y-109035346D01*
X186985689Y-108833782D01*
X186986527Y-108832789D01*
X186991808Y-108829225D01*
X186998175Y-108828957D01*
X187003738Y-108832066D01*
G37*
%TD.AperFunction*%
%TD*%
%TA.AperFunction,Conductor*%
%TO.N,col0*%
G36*
X165914082Y-109461813D02*
G01*
X165918692Y-109466272D01*
X166481361Y-110439141D01*
X166482933Y-110444999D01*
X166481361Y-110450857D01*
X165918692Y-111423727D01*
X165914082Y-111428186D01*
X165907814Y-111429545D01*
X165901772Y-111427395D01*
X165769287Y-111332921D01*
X165579174Y-111197353D01*
X165577983Y-111196379D01*
X165462139Y-111088234D01*
X165328974Y-110963919D01*
X165089098Y-110763423D01*
X164924578Y-110687547D01*
X164785329Y-110623326D01*
X164785327Y-110623325D01*
X164784498Y-110622943D01*
X164783590Y-110622834D01*
X164783588Y-110622834D01*
X164572472Y-110597646D01*
X164351062Y-110571230D01*
X164343701Y-110567381D01*
X164340750Y-110559613D01*
X164340750Y-110330387D01*
X164343701Y-110322619D01*
X164351062Y-110318769D01*
X164784498Y-110267056D01*
X165089098Y-110126575D01*
X165328974Y-109926079D01*
X165577986Y-109693616D01*
X165579174Y-109692645D01*
X165901775Y-109462602D01*
X165907814Y-109460454D01*
X165914082Y-109461813D01*
G37*
%TD.AperFunction*%
%TD*%
%TA.AperFunction,Conductor*%
%TO.N,col3*%
G36*
X136998996Y-51814171D02*
G01*
X137006691Y-51817067D01*
X137010581Y-51824313D01*
X137039971Y-52042991D01*
X137039973Y-52042999D01*
X137039973Y-52043000D01*
X137070726Y-52245109D01*
X137101480Y-52420507D01*
X137101499Y-52420602D01*
X137101501Y-52420609D01*
X137132202Y-52569048D01*
X137132210Y-52569084D01*
X137132233Y-52569194D01*
X137132258Y-52569294D01*
X137132266Y-52569328D01*
X137161363Y-52684733D01*
X137161297Y-52690705D01*
X137158291Y-52695866D01*
X136991795Y-52862362D01*
X136985750Y-52865575D01*
X136978943Y-52864856D01*
X136736618Y-52761796D01*
X136736620Y-52761796D01*
X136736254Y-52761641D01*
X136735880Y-52761538D01*
X136735873Y-52761536D01*
X136486697Y-52693221D01*
X136486688Y-52693219D01*
X136486297Y-52693112D01*
X136485886Y-52693061D01*
X136485879Y-52693060D01*
X136236784Y-52662412D01*
X136236777Y-52662411D01*
X136236341Y-52662358D01*
X136235901Y-52662370D01*
X136235894Y-52662370D01*
X135986823Y-52669368D01*
X135986814Y-52669368D01*
X135986384Y-52669381D01*
X135985960Y-52669456D01*
X135985950Y-52669458D01*
X135757466Y-52710409D01*
X135749427Y-52708952D01*
X135744302Y-52702591D01*
X135744588Y-52694426D01*
X135745131Y-52693112D01*
X136105523Y-51820710D01*
X136109835Y-51815451D01*
X136116344Y-51813479D01*
X136998996Y-51814171D01*
G37*
%TD.AperFunction*%
%TD*%
M02*
