M48
; DRILL file {KiCad (7.0.0)} date Thu Jun 29 20:35:00 2023
; FORMAT={-:-/ absolute / inch / decimal}
; #@! TF.CreationDate,2023-06-29T20:35:00+03:00
; #@! TF.GenerationSoftware,Kicad,Pcbnew,(7.0.0)
; #@! TF.FileFunction,NonPlated,1,2,NPTH
FMAT,2
INCH
; #@! TA.AperFunction,NonPlated,NPTH,ComponentDrill
T1C0.0276
; #@! TA.AperFunction,NonPlated,NPTH,ComponentDrill
T2C0.0591
; #@! TA.AperFunction,NonPlated,NPTH,ComponentDrill
T3C0.0670
; #@! TA.AperFunction,NonPlated,NPTH,ComponentDrill
T4C0.1200
; #@! TA.AperFunction,NonPlated,NPTH,ComponentDrill
T5C0.1570
%
G90
G05
T1
X5.3031Y-3.484
X5.3051Y-3.3659
T3
X6.2545Y-2.2982
X6.2545Y-3.0482
X6.2545Y-3.7982
X6.2545Y-4.5482
X6.6295Y-4.5482
X6.6545Y-2.2982
X6.6545Y-3.0482
X6.6545Y-3.7982
X6.6545Y-4.5482
X7.0045Y-2.2982
X7.0045Y-3.0482
X7.0045Y-3.7982
X7.0045Y-4.5482
X7.0295Y-4.5482
X7.4045Y-2.2982
X7.4045Y-3.0482
X7.4045Y-3.7982
X7.4045Y-4.5482
X7.7548Y-2.2982
X7.7548Y-3.0482
X7.7548Y-3.7982
X7.7548Y-4.5482
X8.1548Y-2.2982
X8.1548Y-3.0482
X8.1548Y-3.7982
X8.1548Y-4.5482
X8.5045Y-2.2982
X8.5045Y-3.0482
X8.5045Y-3.7982
X8.5045Y-4.5482
X8.7045Y-2.4732
X8.7045Y-2.8732
X8.7045Y-3.9732
X8.7045Y-4.3732
X8.9045Y-2.2982
X8.9045Y-3.0482
X8.9045Y-3.7982
X8.9045Y-4.5482
T4
X6.361Y-4.8232
X7.298Y-4.8232
X8.9795Y-2.2047
X8.9795Y-3.1417
X8.9795Y-3.7047
X8.9795Y-4.6417
T5
X6.361Y-4.2232
X6.4545Y-2.2982
X6.4545Y-3.0482
X6.4545Y-3.7982
X6.4545Y-4.5482
X6.8295Y-4.5482
X7.2045Y-2.2982
X7.2045Y-3.0482
X7.2045Y-3.7982
X7.2045Y-4.5482
X7.298Y-4.2232
X7.9548Y-2.2982
X7.9548Y-3.0482
X7.9548Y-3.7982
X7.9548Y-4.5482
X8.3795Y-2.2047
X8.3795Y-3.1417
X8.3795Y-3.7047
X8.3795Y-4.6417
X8.7045Y-2.2982
X8.7045Y-2.6732
X8.7045Y-3.0482
X8.7045Y-3.7982
X8.7045Y-4.1732
X8.7045Y-4.5482
T2
G00X5.4643Y-4.5226
M15
G01X5.4643Y-4.5738
M16
G05
G00X5.9053Y-4.5226
M15
G01X5.9053Y-4.5738
M16
G05
T0
M30
