M48
; DRILL file {KiCad (7.0.0)} date Thu Jun 29 20:35:00 2023
; FORMAT={-:-/ absolute / inch / decimal}
; #@! TF.CreationDate,2023-06-29T20:35:00+03:00
; #@! TF.GenerationSoftware,Kicad,Pcbnew,(7.0.0)
; #@! TF.FileFunction,Plated,1,2,PTH
FMAT,2
INCH
; #@! TA.AperFunction,Plated,PTH,ViaDrill
T1C0.0157
; #@! TA.AperFunction,Plated,PTH,ComponentDrill
T2C0.0157
; #@! TA.AperFunction,Plated,PTH,ComponentDrill
T3C0.0394
; #@! TA.AperFunction,Plated,PTH,ComponentDrill
T4C0.0400
; #@! TA.AperFunction,Plated,PTH,ComponentDrill
T5C0.0590
; #@! TA.AperFunction,Plated,PTH,ComponentDrill
T6C0.0591
%
G90
G05
T1
X5.5271Y-2.6063
X6.157Y-3.3809
X6.2436Y-3.4094
X6.3381Y-3.438
X6.4227Y-3.4665
T2
X6.2289Y-2.4035
X6.2289Y-2.5335
X6.2289Y-3.1487
X6.2289Y-3.2786
X6.2289Y-3.9033
X6.2289Y-4.0332
X6.2289Y-4.6517
X6.2289Y-4.7816
X6.9789Y-2.4035
X6.9789Y-2.5335
X6.9789Y-3.1487
X6.9789Y-3.2786
X6.9789Y-3.9033
X6.9789Y-4.0332
X6.9789Y-4.6517
X6.9789Y-4.7816
X7.7279Y-2.4035
X7.7279Y-2.5335
X7.7279Y-3.1487
X7.7279Y-3.2786
X7.7279Y-3.9033
X7.7279Y-4.0332
X7.7279Y-4.6517
X7.7279Y-4.7816
X8.4795Y-3.9033
X8.4795Y-4.0332
X8.481Y-2.4035
X8.481Y-2.5335
X8.5734Y-3.1487
X8.5734Y-3.2786
X8.5734Y-4.6517
X8.5734Y-4.7816
T3
X5.3438Y-2.9688
X5.3438Y-3.0625
X5.3586Y-2.0399
X5.3586Y-2.1399
X5.3586Y-2.2399
X5.3586Y-2.3399
X5.3586Y-2.4399
X5.3586Y-2.5399
X5.3586Y-2.6399
X5.5864Y-4.253
X5.5864Y-4.8238
X5.6848Y-4.253
X5.7832Y-4.253
X5.7832Y-4.8238
X5.9586Y-2.0399
X5.9586Y-2.1399
X5.9586Y-2.2399
X5.9586Y-2.3399
X5.9586Y-2.4399
X5.9586Y-2.5399
X5.9586Y-2.6399
T4
X5.4836Y-2.2524
X5.4836Y-2.3274
X5.6086Y-2.0024
X5.6086Y-2.1024
X5.7086Y-2.0024
X5.7086Y-2.1024
T5
X6.3045Y-2.1982
X6.3045Y-2.9482
X6.3045Y-3.6982
X6.3045Y-4.4482
X6.5545Y-2.0982
X6.5545Y-2.8482
X6.5545Y-3.5982
X6.5545Y-4.3482
X6.6795Y-4.4482
X6.9295Y-4.3482
X7.0545Y-2.1982
X7.0545Y-2.9482
X7.0545Y-3.6982
X7.0545Y-4.4482
X7.3045Y-2.0982
X7.3045Y-2.8482
X7.3045Y-3.5982
X7.8048Y-2.1982
X7.8048Y-2.9482
X7.8048Y-3.6982
X7.8048Y-4.4482
X8.0548Y-2.0982
X8.0548Y-2.8482
X8.0548Y-3.5982
X8.0548Y-4.3482
X8.5545Y-2.1982
X8.5545Y-2.9482
X8.5545Y-3.6982
X8.5545Y-4.4482
X8.8045Y-2.0982
X8.8045Y-2.5232
X8.8045Y-2.8482
X8.8045Y-3.5982
X8.8045Y-4.0232
X8.8045Y-4.3482
X8.9045Y-2.7732
X8.9045Y-4.2732
T6
X7.3045Y-4.3482
T0
M30
