%TF.GenerationSoftware,KiCad,Pcbnew,(7.0.0)*%
%TF.CreationDate,2023-06-29T20:35:03+03:00*%
%TF.ProjectId,kapeebar-a,6b617065-6562-4617-922d-612e6b696361,rev?*%
%TF.SameCoordinates,Original*%
%TF.FileFunction,Soldermask,Top*%
%TF.FilePolarity,Negative*%
%FSLAX46Y46*%
G04 Gerber Fmt 4.6, Leading zero omitted, Abs format (unit mm)*
G04 Created by KiCad (PCBNEW (7.0.0)) date 2023-06-29 20:35:03*
%MOMM*%
%LPD*%
G01*
G04 APERTURE LIST*
G04 Aperture macros list*
%AMRoundRect*
0 Rectangle with rounded corners*
0 $1 Rounding radius*
0 $2 $3 $4 $5 $6 $7 $8 $9 X,Y pos of 4 corners*
0 Add a 4 corners polygon primitive as box body*
4,1,4,$2,$3,$4,$5,$6,$7,$8,$9,$2,$3,0*
0 Add four circle primitives for the rounded corners*
1,1,$1+$1,$2,$3*
1,1,$1+$1,$4,$5*
1,1,$1+$1,$6,$7*
1,1,$1+$1,$8,$9*
0 Add four rect primitives between the rounded corners*
20,1,$1+$1,$2,$3,$4,$5,0*
20,1,$1+$1,$4,$5,$6,$7,0*
20,1,$1+$1,$6,$7,$8,$9,0*
20,1,$1+$1,$8,$9,$2,$3,0*%
G04 Aperture macros list end*
%ADD10C,0.250000*%
%ADD11O,2.750000X1.800000*%
%ADD12C,1.397000*%
%ADD13C,1.701800*%
%ADD14C,3.987800*%
%ADD15C,2.286000*%
%ADD16R,2.500000X1.800000*%
%ADD17RoundRect,0.375000X-0.375000X0.375000X-0.375000X-0.375000X0.375000X-0.375000X0.375000X0.375000X0*%
%ADD18C,3.048000*%
%ADD19C,0.900000*%
%ADD20R,1.000000X0.700000*%
%ADD21R,2.800000X1.000000*%
%ADD22C,1.500000*%
%ADD23O,2.000000X3.200000*%
%ADD24R,2.000000X2.000000*%
%ADD25C,2.000000*%
G04 APERTURE END LIST*
D10*
G36*
X135249448Y-98582203D02*
G01*
X135266835Y-98592232D01*
X135287260Y-98604790D01*
X135306229Y-98617372D01*
X135323744Y-98629978D01*
X135339803Y-98642607D01*
X135357154Y-98657794D01*
X135359859Y-98660354D01*
X135375566Y-98676794D01*
X135387974Y-98691912D01*
X135399762Y-98708317D01*
X135410929Y-98726010D01*
X135421476Y-98744992D01*
X135431404Y-98765261D01*
X135433968Y-98770672D01*
X135439097Y-98790214D01*
X135438242Y-98810690D01*
X135432299Y-98828455D01*
X135417238Y-98841953D01*
X135412925Y-98843587D01*
X135392470Y-98843709D01*
X135373762Y-98837068D01*
X135372106Y-98836270D01*
X135354761Y-98824459D01*
X135339855Y-98809995D01*
X135326061Y-98793683D01*
X135313679Y-98776985D01*
X135309805Y-98771573D01*
X135298597Y-98754881D01*
X135288006Y-98737501D01*
X135278034Y-98719435D01*
X135268681Y-98700682D01*
X135259945Y-98681241D01*
X135258566Y-98677975D01*
X135251330Y-98658398D01*
X135245880Y-98638854D01*
X135242217Y-98619345D01*
X135240339Y-98599871D01*
X135240406Y-98577194D01*
X135249448Y-98582203D01*
G37*
G36*
X135194852Y-97820074D02*
G01*
X135215177Y-97830023D01*
X135234434Y-97840049D01*
X135252623Y-97850150D01*
X135269743Y-97860328D01*
X135289640Y-97873158D01*
X135307867Y-97886107D01*
X135324425Y-97899176D01*
X135333826Y-97907393D01*
X135348941Y-97922196D01*
X135363364Y-97938382D01*
X135377096Y-97955951D01*
X135390136Y-97974903D01*
X135402484Y-97995240D01*
X135411864Y-98012504D01*
X135414429Y-98018023D01*
X135419558Y-98037698D01*
X135418703Y-98057934D01*
X135411819Y-98076724D01*
X135396233Y-98089197D01*
X135386371Y-98091578D01*
X135366830Y-98089978D01*
X135346896Y-98083335D01*
X135337076Y-98078319D01*
X135320521Y-98066572D01*
X135305183Y-98052537D01*
X135291405Y-98037717D01*
X135277042Y-98020320D01*
X135272856Y-98014958D01*
X135260617Y-97998277D01*
X135248859Y-97980703D01*
X135237582Y-97962236D01*
X135226785Y-97942876D01*
X135216470Y-97922623D01*
X135214817Y-97919178D01*
X135206001Y-97898731D01*
X135199075Y-97878661D01*
X135194037Y-97858969D01*
X135190889Y-97839654D01*
X135189603Y-97817599D01*
X135194852Y-97820074D01*
G37*
G36*
X134598879Y-96559260D02*
G01*
X134618075Y-96566587D01*
X134626379Y-96571121D01*
X134643720Y-96582478D01*
X134659695Y-96594920D01*
X134676418Y-96609699D01*
X134691348Y-96624228D01*
X134693918Y-96626845D01*
X134709557Y-96643446D01*
X134722878Y-96658460D01*
X134736462Y-96674548D01*
X134750308Y-96691710D01*
X134764416Y-96709944D01*
X134778787Y-96729253D01*
X134790411Y-96745319D01*
X134802081Y-96761767D01*
X134813797Y-96778597D01*
X134825559Y-96795809D01*
X134837367Y-96813402D01*
X134849220Y-96831377D01*
X134861119Y-96849733D01*
X134873064Y-96868471D01*
X134853072Y-96861542D01*
X134833699Y-96854494D01*
X134814947Y-96847326D01*
X134796815Y-96840040D01*
X134775875Y-96831138D01*
X134755828Y-96822065D01*
X134749449Y-96819029D01*
X134731434Y-96810127D01*
X134712544Y-96800133D01*
X134693760Y-96789226D01*
X134676205Y-96777613D01*
X134660780Y-96766574D01*
X134641523Y-96751710D01*
X134623762Y-96736678D01*
X134607497Y-96721477D01*
X134592728Y-96706109D01*
X134579455Y-96690573D01*
X134567678Y-96674869D01*
X134555060Y-96655003D01*
X134547176Y-96639593D01*
X134540129Y-96618681D01*
X134539157Y-96597627D01*
X134547607Y-96577973D01*
X134563365Y-96564633D01*
X134578363Y-96558527D01*
X134598879Y-96559260D01*
G37*
G36*
X137148713Y-99881732D02*
G01*
X132982344Y-99881732D01*
X132982344Y-96032183D01*
X133643057Y-96032183D01*
X133643068Y-96034404D01*
X133644385Y-96055660D01*
X133647896Y-96075200D01*
X133654293Y-96094710D01*
X133659107Y-96104006D01*
X133673662Y-96117550D01*
X133693860Y-96122065D01*
X133702952Y-96122674D01*
X133722934Y-96124612D01*
X133745313Y-96127513D01*
X133770089Y-96131375D01*
X133790243Y-96134902D01*
X133811745Y-96138971D01*
X133834596Y-96143581D01*
X133858795Y-96148731D01*
X133884341Y-96154423D01*
X133911236Y-96160655D01*
X133920434Y-96162839D01*
X133948491Y-96169585D01*
X133967582Y-96174245D01*
X133986982Y-96179034D01*
X134006691Y-96183954D01*
X134026710Y-96189003D01*
X134047037Y-96194181D01*
X134067674Y-96199490D01*
X134088619Y-96204928D01*
X134109874Y-96210496D01*
X134131438Y-96216194D01*
X134153311Y-96222021D01*
X134175494Y-96227978D01*
X134197985Y-96234065D01*
X134220785Y-96240282D01*
X134243895Y-96246629D01*
X134267235Y-96253080D01*
X134290728Y-96259612D01*
X134314374Y-96266223D01*
X134338173Y-96272915D01*
X134362124Y-96279687D01*
X134386227Y-96286539D01*
X134410484Y-96293472D01*
X134434893Y-96300484D01*
X134459454Y-96307577D01*
X134484169Y-96314750D01*
X134509036Y-96322002D01*
X134534055Y-96329335D01*
X134559228Y-96336749D01*
X134584553Y-96344242D01*
X134610030Y-96351815D01*
X134635660Y-96359469D01*
X134661361Y-96367220D01*
X134686929Y-96374963D01*
X134712362Y-96382699D01*
X134737662Y-96390427D01*
X134762829Y-96398147D01*
X134787862Y-96405860D01*
X134812761Y-96413565D01*
X134837527Y-96421262D01*
X134862159Y-96428952D01*
X134886658Y-96436634D01*
X134911023Y-96444309D01*
X134935255Y-96451976D01*
X134959353Y-96459635D01*
X134983317Y-96467287D01*
X135007148Y-96474931D01*
X135030845Y-96482567D01*
X135041135Y-96487009D01*
X135061171Y-96495985D01*
X135080481Y-96505083D01*
X135099066Y-96514304D01*
X135116927Y-96523646D01*
X135134062Y-96533110D01*
X135158405Y-96547536D01*
X135181117Y-96562236D01*
X135202197Y-96577211D01*
X135221646Y-96592461D01*
X135239463Y-96607986D01*
X135255649Y-96623785D01*
X135270203Y-96639860D01*
X135274681Y-96645289D01*
X135286888Y-96661513D01*
X135300306Y-96682999D01*
X135310458Y-96704317D01*
X135317342Y-96725467D01*
X135320960Y-96746449D01*
X135321311Y-96767263D01*
X135318395Y-96787909D01*
X135312213Y-96808387D01*
X135303504Y-96829079D01*
X135292765Y-96847436D01*
X135279996Y-96863456D01*
X135265196Y-96877142D01*
X135248366Y-96888491D01*
X135229506Y-96897505D01*
X135208616Y-96904184D01*
X135185695Y-96908527D01*
X135179698Y-96909313D01*
X135155430Y-96911706D01*
X135130719Y-96912893D01*
X135105566Y-96912874D01*
X135079970Y-96911649D01*
X135060483Y-96909939D01*
X135040746Y-96907550D01*
X135020761Y-96904483D01*
X135000526Y-96900738D01*
X134980043Y-96896315D01*
X134972637Y-96883490D01*
X134961465Y-96864475D01*
X134950215Y-96845726D01*
X134938887Y-96827243D01*
X134927483Y-96809026D01*
X134916001Y-96791076D01*
X134904442Y-96773392D01*
X134892806Y-96755974D01*
X134881092Y-96738822D01*
X134869301Y-96721936D01*
X134857433Y-96705317D01*
X134853465Y-96699878D01*
X134841580Y-96683869D01*
X134825773Y-96663246D01*
X134810012Y-96643447D01*
X134794296Y-96624472D01*
X134778626Y-96606322D01*
X134763003Y-96588996D01*
X134747424Y-96572494D01*
X134731892Y-96556817D01*
X134716421Y-96542147D01*
X134701026Y-96528424D01*
X134685707Y-96515647D01*
X134666666Y-96501007D01*
X134647745Y-96487845D01*
X134628942Y-96476163D01*
X134610259Y-96465959D01*
X134599228Y-96460615D01*
X134581072Y-96453197D01*
X134559663Y-96446751D01*
X134538665Y-96442985D01*
X134518080Y-96441897D01*
X134497907Y-96443488D01*
X134494932Y-96443970D01*
X134475010Y-96450388D01*
X134456677Y-96462136D01*
X134442229Y-96476447D01*
X134428948Y-96494674D01*
X134418773Y-96512853D01*
X134415090Y-96520711D01*
X134407319Y-96540723D01*
X134401599Y-96561259D01*
X134397931Y-96582320D01*
X134396784Y-96597627D01*
X134396314Y-96603906D01*
X134396748Y-96626017D01*
X134399233Y-96648652D01*
X134404072Y-96673458D01*
X134410285Y-96697806D01*
X134417872Y-96721696D01*
X134426833Y-96745128D01*
X134437167Y-96768102D01*
X134448876Y-96790619D01*
X134461958Y-96812677D01*
X134476414Y-96834277D01*
X134484154Y-96844894D01*
X134496163Y-96860562D01*
X134508654Y-96875920D01*
X134521626Y-96890970D01*
X134535078Y-96905710D01*
X134549011Y-96920142D01*
X134563426Y-96934264D01*
X134578321Y-96948077D01*
X134593696Y-96961581D01*
X134609553Y-96974776D01*
X134625891Y-96987661D01*
X134637086Y-96996134D01*
X134654186Y-97008556D01*
X134671656Y-97020634D01*
X134689494Y-97032369D01*
X134707703Y-97043761D01*
X134726280Y-97054809D01*
X134745226Y-97065514D01*
X134764542Y-97075875D01*
X134784227Y-97085893D01*
X134804281Y-97095567D01*
X134824704Y-97104898D01*
X134838514Y-97110974D01*
X134859263Y-97119743D01*
X134880056Y-97128101D01*
X134900891Y-97136047D01*
X134921770Y-97143580D01*
X134942691Y-97150701D01*
X134963656Y-97157410D01*
X134984663Y-97163707D01*
X135005713Y-97169592D01*
X135026806Y-97175064D01*
X135047942Y-97180125D01*
X135058075Y-97199451D01*
X135068077Y-97218837D01*
X135077950Y-97238285D01*
X135087693Y-97257794D01*
X135097306Y-97277364D01*
X135106790Y-97296995D01*
X135116143Y-97316687D01*
X135125367Y-97336440D01*
X135134462Y-97356254D01*
X135143426Y-97376130D01*
X135152261Y-97396066D01*
X135160966Y-97416063D01*
X135169541Y-97436122D01*
X135177986Y-97456241D01*
X135186302Y-97476422D01*
X135192136Y-97490850D01*
X135172677Y-97479805D01*
X135153081Y-97469095D01*
X135133545Y-97458831D01*
X135114069Y-97449013D01*
X135094653Y-97439642D01*
X135075298Y-97430718D01*
X135062299Y-97425037D01*
X135042143Y-97416738D01*
X135021198Y-97408706D01*
X134999462Y-97400939D01*
X134976936Y-97393439D01*
X134953621Y-97386204D01*
X134929515Y-97379236D01*
X134904619Y-97372534D01*
X134878934Y-97366099D01*
X134852458Y-97359929D01*
X134825193Y-97354026D01*
X134818656Y-97352682D01*
X134799379Y-97349011D01*
X134774451Y-97344958D01*
X134750409Y-97341867D01*
X134727251Y-97339738D01*
X134704980Y-97338570D01*
X134683593Y-97338364D01*
X134663092Y-97339119D01*
X134643476Y-97340837D01*
X134620130Y-97344142D01*
X134598024Y-97348259D01*
X134577159Y-97353187D01*
X134557533Y-97358926D01*
X134535620Y-97366883D01*
X134515493Y-97376008D01*
X134499989Y-97384430D01*
X134482770Y-97395008D01*
X134464591Y-97408002D01*
X134448469Y-97421696D01*
X134434404Y-97436091D01*
X134425546Y-97446693D01*
X134413257Y-97463310D01*
X134402206Y-97481492D01*
X134393372Y-97501060D01*
X134393372Y-97521607D01*
X134393372Y-97542215D01*
X134393372Y-97562884D01*
X134393372Y-97583614D01*
X134393494Y-97592168D01*
X134394867Y-97613604D01*
X134397768Y-97635111D01*
X134402195Y-97656690D01*
X134408148Y-97678340D01*
X134415628Y-97700062D01*
X134424635Y-97721855D01*
X134432908Y-97739410D01*
X134441854Y-97756904D01*
X134451471Y-97774337D01*
X134461759Y-97791709D01*
X134472720Y-97809020D01*
X134484352Y-97826269D01*
X134496656Y-97843458D01*
X134509631Y-97860585D01*
X134523316Y-97877751D01*
X134537505Y-97894810D01*
X134552198Y-97911762D01*
X134567395Y-97928607D01*
X134583095Y-97945345D01*
X134599299Y-97961977D01*
X134616006Y-97978501D01*
X134633218Y-97994919D01*
X134650742Y-98011306D01*
X134668389Y-98027495D01*
X134686158Y-98043485D01*
X134704048Y-98059277D01*
X134722061Y-98074870D01*
X134740196Y-98090265D01*
X134758453Y-98105462D01*
X134776833Y-98120460D01*
X134764733Y-98122152D01*
X134741576Y-98126533D01*
X134719808Y-98132243D01*
X134699429Y-98139280D01*
X134680439Y-98147645D01*
X134662838Y-98157339D01*
X134642791Y-98171323D01*
X134624914Y-98187382D01*
X134615274Y-98197633D01*
X134600734Y-98214280D01*
X134588102Y-98230377D01*
X134575462Y-98248970D01*
X134565570Y-98266773D01*
X134557503Y-98286545D01*
X134555799Y-98292809D01*
X134551488Y-98312038D01*
X134548380Y-98331919D01*
X134546474Y-98352452D01*
X134545769Y-98373639D01*
X134546268Y-98395477D01*
X134546924Y-98406664D01*
X134548882Y-98429115D01*
X134551699Y-98451670D01*
X134555374Y-98474327D01*
X134559907Y-98497088D01*
X134564341Y-98516133D01*
X134566334Y-98523764D01*
X134571648Y-98542824D01*
X134577439Y-98561860D01*
X134583707Y-98580872D01*
X134590453Y-98599861D01*
X134597675Y-98618825D01*
X134605374Y-98637766D01*
X134610184Y-98649008D01*
X134618411Y-98667228D01*
X134628629Y-98688242D01*
X134639225Y-98708329D01*
X134650199Y-98727489D01*
X134661550Y-98745721D01*
X134674464Y-98764788D01*
X134687806Y-98783640D01*
X134701575Y-98802279D01*
X134715772Y-98820704D01*
X134730396Y-98838915D01*
X134745448Y-98856913D01*
X134760926Y-98874697D01*
X134776833Y-98892267D01*
X134793067Y-98909563D01*
X134809531Y-98926522D01*
X134826223Y-98943146D01*
X134843145Y-98959434D01*
X134860295Y-98975386D01*
X134877675Y-98991002D01*
X134895283Y-99006283D01*
X134913120Y-99021227D01*
X134930981Y-99035829D01*
X134948658Y-99050079D01*
X134966152Y-99063978D01*
X134983462Y-99077525D01*
X135000590Y-99090722D01*
X135017534Y-99103568D01*
X135034295Y-99116062D01*
X135050873Y-99128206D01*
X135059105Y-99134186D01*
X135075133Y-99145757D01*
X135094353Y-99159491D01*
X135112667Y-99172414D01*
X135130074Y-99184526D01*
X135146574Y-99195827D01*
X135165179Y-99208317D01*
X135181393Y-99216947D01*
X135201327Y-99221018D01*
X135212843Y-99220675D01*
X135231124Y-99213202D01*
X135235124Y-99208348D01*
X135236498Y-99188290D01*
X135232368Y-99178956D01*
X135219580Y-99163564D01*
X135204258Y-99150188D01*
X135195122Y-99143814D01*
X135178755Y-99132337D01*
X135162677Y-99121014D01*
X135144380Y-99108094D01*
X135128146Y-99096607D01*
X135110491Y-99084097D01*
X135091418Y-99070564D01*
X135081581Y-99063449D01*
X135061874Y-99048657D01*
X135042121Y-99033117D01*
X135022322Y-99016829D01*
X135007442Y-99004122D01*
X134992537Y-98990995D01*
X134977607Y-98977446D01*
X134962650Y-98963477D01*
X134947668Y-98949088D01*
X134932660Y-98934277D01*
X134922734Y-98924200D01*
X134908173Y-98908849D01*
X134894008Y-98893214D01*
X134880238Y-98877295D01*
X134866863Y-98861094D01*
X134853883Y-98844609D01*
X134841298Y-98827841D01*
X134829107Y-98810789D01*
X134817312Y-98793454D01*
X134805912Y-98775835D01*
X134794907Y-98757934D01*
X134787927Y-98745920D01*
X134778301Y-98727728D01*
X134769689Y-98709329D01*
X134762089Y-98690725D01*
X134755504Y-98671914D01*
X134749931Y-98652898D01*
X134745371Y-98633675D01*
X134741825Y-98614246D01*
X134739292Y-98594611D01*
X134737772Y-98574771D01*
X134737265Y-98554724D01*
X134738742Y-98532043D01*
X134743173Y-98511630D01*
X134750558Y-98493484D01*
X134762906Y-98475178D01*
X134779275Y-98459957D01*
X134790335Y-98452890D01*
X134808556Y-98444635D01*
X134828734Y-98439197D01*
X134850871Y-98436575D01*
X134870813Y-98436542D01*
X134892115Y-98438464D01*
X134898806Y-98439388D01*
X134918196Y-98442265D01*
X134942460Y-98446341D01*
X134964907Y-98450691D01*
X134985538Y-98455317D01*
X135008772Y-98461485D01*
X135029168Y-98468082D01*
X135049896Y-98476566D01*
X135050888Y-98500111D01*
X135052764Y-98522934D01*
X135055525Y-98545036D01*
X135059170Y-98566417D01*
X135063699Y-98587076D01*
X135067173Y-98599871D01*
X135069113Y-98607014D01*
X135075412Y-98626231D01*
X135082594Y-98644727D01*
X135093547Y-98668266D01*
X135106072Y-98690523D01*
X135116008Y-98706560D01*
X135129110Y-98727114D01*
X135142043Y-98746722D01*
X135154809Y-98765384D01*
X135167406Y-98783099D01*
X135179836Y-98799868D01*
X135192098Y-98815690D01*
X135207189Y-98834137D01*
X135222026Y-98850257D01*
X135238208Y-98864912D01*
X135255732Y-98878101D01*
X135274600Y-98889825D01*
X135277075Y-98891186D01*
X135294536Y-98899991D01*
X135314778Y-98908509D01*
X135335325Y-98915379D01*
X135356177Y-98920599D01*
X135377212Y-98923897D01*
X135397820Y-98924996D01*
X135418001Y-98923897D01*
X135437754Y-98920599D01*
X135449844Y-98917682D01*
X135470225Y-98910809D01*
X135488828Y-98901848D01*
X135505653Y-98890802D01*
X135520003Y-98875964D01*
X135530855Y-98858273D01*
X135538892Y-98839611D01*
X135545762Y-98817721D01*
X135550594Y-98797012D01*
X135551452Y-98792631D01*
X135554910Y-98770268D01*
X135556985Y-98747141D01*
X135557677Y-98723251D01*
X135557234Y-98703590D01*
X135555906Y-98683440D01*
X135553693Y-98662801D01*
X135550594Y-98641674D01*
X135546327Y-98617555D01*
X135540611Y-98593802D01*
X135533444Y-98570416D01*
X135524826Y-98547396D01*
X135514759Y-98524743D01*
X135503242Y-98502456D01*
X135490274Y-98480535D01*
X135475856Y-98458980D01*
X135460499Y-98438105D01*
X135444471Y-98417978D01*
X135427770Y-98398599D01*
X135410399Y-98379968D01*
X135392355Y-98362085D01*
X135373640Y-98344950D01*
X135354253Y-98328562D01*
X135334195Y-98312923D01*
X135322901Y-98304472D01*
X135305966Y-98292160D01*
X135289041Y-98280286D01*
X135272123Y-98268850D01*
X135255215Y-98257852D01*
X135238315Y-98247292D01*
X135221423Y-98237170D01*
X135198915Y-98224355D01*
X135176422Y-98212318D01*
X135153944Y-98201060D01*
X135148288Y-98198359D01*
X135124902Y-98187891D01*
X135106561Y-98180391D01*
X135087533Y-98173191D01*
X135067818Y-98166292D01*
X135047416Y-98159693D01*
X135026327Y-98153394D01*
X135004551Y-98147397D01*
X134982088Y-98141699D01*
X134958939Y-98136303D01*
X134935102Y-98131206D01*
X134932171Y-98130230D01*
X134924489Y-98124482D01*
X134905384Y-98110047D01*
X134886421Y-98095517D01*
X134867602Y-98080891D01*
X134848926Y-98066169D01*
X134830394Y-98051352D01*
X134812004Y-98036440D01*
X134804732Y-98030462D01*
X134787036Y-98015567D01*
X134770032Y-98000743D01*
X134753720Y-97985990D01*
X134738099Y-97971309D01*
X134723170Y-97956700D01*
X134708933Y-97942163D01*
X134706203Y-97939297D01*
X134690541Y-97922284D01*
X134676115Y-97905580D01*
X134662926Y-97889185D01*
X134650973Y-97873100D01*
X134638591Y-97854724D01*
X134628313Y-97836839D01*
X134619658Y-97817085D01*
X134614300Y-97798065D01*
X134612213Y-97777543D01*
X134613251Y-97758662D01*
X134617235Y-97738145D01*
X134625660Y-97717161D01*
X134638152Y-97699357D01*
X134654711Y-97684731D01*
X134669027Y-97676478D01*
X134688536Y-97668967D01*
X134710587Y-97664067D01*
X134730904Y-97661978D01*
X134752986Y-97661701D01*
X134776833Y-97663237D01*
X134780575Y-97663700D01*
X134802488Y-97666677D01*
X134823474Y-97669997D01*
X134843533Y-97673660D01*
X134862664Y-97677668D01*
X134883811Y-97682777D01*
X134895199Y-97685921D01*
X134915960Y-97692027D01*
X134936104Y-97698605D01*
X134956107Y-97706224D01*
X134956178Y-97714068D01*
X134957237Y-97737212D01*
X134959566Y-97759772D01*
X134963167Y-97781748D01*
X134968039Y-97803141D01*
X134972307Y-97817599D01*
X134974181Y-97823949D01*
X134976480Y-97830811D01*
X134983859Y-97850938D01*
X134991959Y-97870378D01*
X135000781Y-97889131D01*
X135010323Y-97907198D01*
X135020587Y-97924577D01*
X135029501Y-97938688D01*
X135040354Y-97954991D01*
X135053234Y-97973143D01*
X135066347Y-97990360D01*
X135079694Y-98006643D01*
X135092901Y-98022227D01*
X135107364Y-98038950D01*
X135121157Y-98054513D01*
X135135870Y-98070634D01*
X135144495Y-98079816D01*
X135160543Y-98094820D01*
X135177807Y-98108467D01*
X135196286Y-98120759D01*
X135215981Y-98131695D01*
X135227606Y-98137328D01*
X135248059Y-98146083D01*
X135268652Y-98153436D01*
X135289385Y-98159387D01*
X135310259Y-98163935D01*
X135322181Y-98165897D01*
X135342825Y-98168191D01*
X135363187Y-98169036D01*
X135383270Y-98168431D01*
X135403071Y-98166377D01*
X135425053Y-98162378D01*
X135445570Y-98156241D01*
X135464621Y-98147968D01*
X135482206Y-98137557D01*
X135486702Y-98134498D01*
X135501114Y-98120817D01*
X135513469Y-98102508D01*
X135522422Y-98083131D01*
X135528729Y-98064386D01*
X135533986Y-98043279D01*
X135538143Y-98020846D01*
X135540845Y-97997817D01*
X135542093Y-97974192D01*
X135541885Y-97949971D01*
X135540672Y-97930164D01*
X135538527Y-97909976D01*
X135535451Y-97889406D01*
X135532810Y-97876992D01*
X135526338Y-97852415D01*
X135518278Y-97828174D01*
X135508630Y-97804268D01*
X135500353Y-97786560D01*
X135491182Y-97769040D01*
X135481118Y-97751709D01*
X135470162Y-97734568D01*
X135458312Y-97717615D01*
X135445570Y-97700851D01*
X135436699Y-97689839D01*
X135423099Y-97673700D01*
X135409147Y-97658017D01*
X135394843Y-97642788D01*
X135380187Y-97628015D01*
X135365179Y-97613696D01*
X135349819Y-97599833D01*
X135334107Y-97586425D01*
X135318042Y-97573472D01*
X135301626Y-97560974D01*
X135284858Y-97548932D01*
X135271560Y-97540055D01*
X135251663Y-97527112D01*
X135250165Y-97526168D01*
X135252129Y-97515226D01*
X135252335Y-97510158D01*
X135250253Y-97490065D01*
X135244802Y-97471262D01*
X135241615Y-97462710D01*
X135233549Y-97441296D01*
X135225339Y-97419834D01*
X135216986Y-97398324D01*
X135208490Y-97376767D01*
X135199851Y-97355162D01*
X135191069Y-97333509D01*
X135187577Y-97324898D01*
X135178747Y-97303353D01*
X135169774Y-97281783D01*
X135160658Y-97260190D01*
X135151398Y-97238573D01*
X135141996Y-97216933D01*
X135132450Y-97195268D01*
X135139442Y-97196611D01*
X135159317Y-97199176D01*
X135166577Y-97199648D01*
X135186184Y-97200153D01*
X135199047Y-97201364D01*
X135223914Y-97202998D01*
X135247636Y-97203578D01*
X135270213Y-97203105D01*
X135291645Y-97201578D01*
X135311933Y-97198998D01*
X135335682Y-97194292D01*
X135357642Y-97187941D01*
X135374190Y-97181911D01*
X135393672Y-97173558D01*
X135411818Y-97164299D01*
X135431831Y-97151991D01*
X135449920Y-97138378D01*
X135466086Y-97123461D01*
X135468628Y-97120889D01*
X135482939Y-97105158D01*
X135495636Y-97088912D01*
X135506719Y-97072151D01*
X135516187Y-97054875D01*
X135525193Y-97034068D01*
X135528557Y-97025135D01*
X135535506Y-97004625D01*
X135541193Y-96984583D01*
X135545618Y-96965008D01*
X135549129Y-96943209D01*
X135550630Y-96922611D01*
X135550920Y-96902400D01*
X135550000Y-96882575D01*
X135546890Y-96856742D01*
X135541627Y-96831596D01*
X135534212Y-96807138D01*
X135524645Y-96783366D01*
X135512925Y-96760281D01*
X135502723Y-96743419D01*
X135495403Y-96732390D01*
X135483994Y-96716161D01*
X135472070Y-96700310D01*
X135459631Y-96684837D01*
X135446676Y-96669741D01*
X135433207Y-96655024D01*
X135419222Y-96640684D01*
X135404722Y-96626722D01*
X135389707Y-96613138D01*
X135374176Y-96599932D01*
X135358131Y-96587103D01*
X135375436Y-96593167D01*
X135397921Y-96601025D01*
X135419735Y-96608623D01*
X135440878Y-96615962D01*
X135461348Y-96623041D01*
X135481147Y-96629860D01*
X135500274Y-96636421D01*
X135523239Y-96644256D01*
X135536445Y-96648754D01*
X135557311Y-96655888D01*
X135576745Y-96662569D01*
X135598178Y-96669988D01*
X135617549Y-96676754D01*
X135637545Y-96683823D01*
X135658641Y-96690693D01*
X135679921Y-96695181D01*
X135701384Y-96697287D01*
X135723030Y-96697012D01*
X135744553Y-96694204D01*
X135765161Y-96688708D01*
X135784854Y-96680526D01*
X135803630Y-96669657D01*
X135812613Y-96663330D01*
X135827490Y-96650604D01*
X135841291Y-96635774D01*
X135854017Y-96618841D01*
X135865667Y-96599804D01*
X135870233Y-96591110D01*
X135878178Y-96572666D01*
X135884544Y-96552813D01*
X135889329Y-96531553D01*
X135892535Y-96508884D01*
X135894000Y-96488918D01*
X135893053Y-96476041D01*
X135888084Y-96456985D01*
X135878856Y-96438237D01*
X135865370Y-96419799D01*
X135850877Y-96404670D01*
X135833427Y-96389755D01*
X135817948Y-96378192D01*
X135801798Y-96366949D01*
X135784976Y-96356027D01*
X135767482Y-96345425D01*
X135749316Y-96335144D01*
X135730479Y-96325183D01*
X135710970Y-96315543D01*
X135690790Y-96306224D01*
X135670388Y-96297225D01*
X135649970Y-96288547D01*
X135629538Y-96280189D01*
X135609090Y-96272152D01*
X135588627Y-96264436D01*
X135568149Y-96257040D01*
X135547656Y-96249964D01*
X135527147Y-96243209D01*
X135507409Y-96236851D01*
X135484583Y-96229569D01*
X135463808Y-96223027D01*
X135445084Y-96217224D01*
X135425323Y-96211236D01*
X135406002Y-96205596D01*
X135383108Y-96199114D01*
X135360222Y-96192613D01*
X135337343Y-96186093D01*
X135314472Y-96179553D01*
X135291609Y-96172995D01*
X135268753Y-96166418D01*
X135245905Y-96159821D01*
X135223064Y-96153206D01*
X135200232Y-96146571D01*
X135177406Y-96139917D01*
X135154589Y-96133245D01*
X135131779Y-96126553D01*
X135108976Y-96119842D01*
X135086182Y-96113112D01*
X135063395Y-96106363D01*
X135040615Y-96099594D01*
X135025673Y-96095165D01*
X135012358Y-96086448D01*
X134995959Y-96075495D01*
X134979603Y-96064352D01*
X134963289Y-96053020D01*
X134947019Y-96041500D01*
X134930792Y-96029791D01*
X134914607Y-96017892D01*
X134898466Y-96005805D01*
X134893119Y-96001770D01*
X134877392Y-95989594D01*
X134857158Y-95973199D01*
X134837764Y-95956621D01*
X134819209Y-95939860D01*
X134801494Y-95922915D01*
X134784618Y-95905788D01*
X134768582Y-95888477D01*
X134753385Y-95870983D01*
X134746272Y-95862297D01*
X134733693Y-95845200D01*
X134723313Y-95828470D01*
X134713429Y-95808072D01*
X134706979Y-95788246D01*
X134703774Y-95765211D01*
X134705514Y-95743000D01*
X134709945Y-95730966D01*
X134726168Y-95718631D01*
X134746547Y-95713202D01*
X134756355Y-95711897D01*
X134777665Y-95710248D01*
X134798164Y-95709858D01*
X134820394Y-95710449D01*
X134840824Y-95711737D01*
X134854998Y-95713050D01*
X134876745Y-95715362D01*
X134899076Y-95718087D01*
X134921991Y-95721224D01*
X134941533Y-95724153D01*
X134961480Y-95727368D01*
X134977608Y-95730116D01*
X134997446Y-95733723D01*
X135016925Y-95737520D01*
X135039829Y-95742328D01*
X135062217Y-95747412D01*
X135084090Y-95752770D01*
X135105208Y-95758380D01*
X135125329Y-95763852D01*
X135144455Y-95769187D01*
X135165509Y-95775238D01*
X135185207Y-95781102D01*
X135200543Y-95785756D01*
X135220988Y-95792215D01*
X135240406Y-95799176D01*
X135257473Y-95805871D01*
X135279188Y-95813114D01*
X135299712Y-95818434D01*
X135323693Y-95822379D01*
X135345813Y-95823319D01*
X135366072Y-95821253D01*
X135387928Y-95814807D01*
X135407208Y-95805402D01*
X135424015Y-95794039D01*
X135440498Y-95778308D01*
X135453614Y-95759912D01*
X135462178Y-95742023D01*
X135464525Y-95735764D01*
X135469689Y-95716622D01*
X135472036Y-95696930D01*
X135471566Y-95676688D01*
X135468280Y-95655897D01*
X135462178Y-95634556D01*
X135459604Y-95627481D01*
X135450302Y-95607812D01*
X135438630Y-95590478D01*
X135424588Y-95575480D01*
X135408176Y-95562817D01*
X135389394Y-95552491D01*
X135383903Y-95549774D01*
X135361425Y-95538318D01*
X135344026Y-95529104D01*
X135326163Y-95519358D01*
X135307836Y-95509080D01*
X135289045Y-95498270D01*
X135269791Y-95486927D01*
X135250073Y-95475051D01*
X135229892Y-95462643D01*
X135209247Y-95449703D01*
X135188138Y-95436231D01*
X135173975Y-95427047D01*
X135152975Y-95413178D01*
X135132267Y-95399198D01*
X135111851Y-95385105D01*
X135091727Y-95370902D01*
X135071894Y-95356586D01*
X135052354Y-95342159D01*
X135033106Y-95327621D01*
X135014149Y-95312970D01*
X134995485Y-95298208D01*
X134977112Y-95283335D01*
X134965121Y-95273474D01*
X134947736Y-95258796D01*
X134931072Y-95244256D01*
X134915130Y-95229853D01*
X134899908Y-95215588D01*
X134885408Y-95201460D01*
X134871630Y-95187470D01*
X134854380Y-95169029D01*
X134838412Y-95150833D01*
X134823727Y-95132881D01*
X134817036Y-95124176D01*
X134805632Y-95107659D01*
X134795092Y-95088688D01*
X134787891Y-95068377D01*
X134786999Y-95048068D01*
X134795884Y-95029322D01*
X134805393Y-95021878D01*
X134825542Y-95016854D01*
X134846198Y-95017599D01*
X134848477Y-95017907D01*
X134867998Y-95020986D01*
X134887605Y-95025040D01*
X134908235Y-95030788D01*
X134916641Y-95033360D01*
X134937471Y-95040391D01*
X134958038Y-95048282D01*
X134978343Y-95057031D01*
X134998386Y-95066638D01*
X135018166Y-95077104D01*
X135037684Y-95088429D01*
X135045416Y-95093180D01*
X135064545Y-95105493D01*
X135083388Y-95118425D01*
X135101945Y-95131978D01*
X135120215Y-95146151D01*
X135138200Y-95160943D01*
X135155898Y-95176357D01*
X135173145Y-95192122D01*
X135188985Y-95207543D01*
X135203416Y-95222621D01*
X135218473Y-95239779D01*
X135231613Y-95256468D01*
X135243330Y-95272834D01*
X135255062Y-95290793D01*
X135265022Y-95307959D01*
X135274111Y-95326322D01*
X135281384Y-95343718D01*
X135288384Y-95363721D01*
X135293651Y-95383963D01*
X135295832Y-95393569D01*
X135300439Y-95413674D01*
X135304886Y-95432812D01*
X135305476Y-95435496D01*
X135313116Y-95454639D01*
X135325947Y-95469629D01*
X135343967Y-95480467D01*
X135363993Y-95486545D01*
X135370299Y-95487802D01*
X135391680Y-95490851D01*
X135411986Y-95491796D01*
X135433877Y-95490300D01*
X135454362Y-95486056D01*
X135456787Y-95485141D01*
X135474915Y-95475615D01*
X135490783Y-95462182D01*
X135504392Y-95444840D01*
X135514446Y-95426461D01*
X135519522Y-95415203D01*
X135526972Y-95395391D01*
X135532598Y-95375439D01*
X135536402Y-95355347D01*
X135538382Y-95335114D01*
X135539313Y-95311331D01*
X135539176Y-95287121D01*
X135537970Y-95262483D01*
X135535695Y-95237417D01*
X135532352Y-95211924D01*
X135529144Y-95192524D01*
X135525334Y-95172884D01*
X135520923Y-95153003D01*
X135515912Y-95132881D01*
X135512187Y-95119444D01*
X135505684Y-95099503D01*
X135498082Y-95079820D01*
X135489381Y-95060394D01*
X135479581Y-95041225D01*
X135468681Y-95022315D01*
X135456683Y-95003662D01*
X135443585Y-94985266D01*
X135429389Y-94967128D01*
X135414093Y-94949248D01*
X135397698Y-94931625D01*
X135382570Y-94915648D01*
X135367351Y-94900080D01*
X135352040Y-94884919D01*
X135336637Y-94870168D01*
X135321143Y-94855824D01*
X135305557Y-94841889D01*
X135289880Y-94828362D01*
X135274111Y-94815243D01*
X135258251Y-94802533D01*
X135242299Y-94790231D01*
X135226255Y-94778338D01*
X135210120Y-94766853D01*
X135193893Y-94755776D01*
X135169381Y-94739927D01*
X135144662Y-94724996D01*
X135128153Y-94715581D01*
X135103532Y-94702103D01*
X135079083Y-94689397D01*
X135054806Y-94677465D01*
X135030700Y-94666305D01*
X135006766Y-94655918D01*
X134983004Y-94646304D01*
X134959414Y-94637462D01*
X134935995Y-94629394D01*
X134912748Y-94622098D01*
X134889673Y-94615575D01*
X134866968Y-94609886D01*
X134844650Y-94604910D01*
X134822718Y-94600647D01*
X134801173Y-94597096D01*
X134780014Y-94594259D01*
X134759242Y-94592133D01*
X134738855Y-94590721D01*
X134718856Y-94590021D01*
X134692790Y-94590197D01*
X134667412Y-94591639D01*
X134655114Y-94592799D01*
X134631468Y-94595852D01*
X134609089Y-94599882D01*
X134587978Y-94604889D01*
X134568133Y-94610873D01*
X134549555Y-94617834D01*
X134528115Y-94627909D01*
X134508654Y-94639511D01*
X134501380Y-94643579D01*
X134484197Y-94654618D01*
X134468446Y-94666896D01*
X134454125Y-94680416D01*
X134441235Y-94695175D01*
X134429777Y-94711175D01*
X134419750Y-94728415D01*
X134416201Y-94735653D01*
X134408329Y-94754031D01*
X134401889Y-94772814D01*
X134396881Y-94792003D01*
X134393303Y-94811597D01*
X134391156Y-94831597D01*
X134390441Y-94852002D01*
X134390546Y-94860266D01*
X134391726Y-94881110D01*
X134394219Y-94902217D01*
X134398023Y-94923586D01*
X134403139Y-94945217D01*
X134409567Y-94967111D01*
X134417307Y-94989267D01*
X134422577Y-95002679D01*
X134432389Y-95024804D01*
X134441167Y-95042298D01*
X134450769Y-95059608D01*
X134461195Y-95076736D01*
X134472445Y-95093680D01*
X134484520Y-95110441D01*
X134497419Y-95127019D01*
X134513493Y-95146101D01*
X134530697Y-95164999D01*
X134544341Y-95179053D01*
X134558621Y-95193003D01*
X134573536Y-95206851D01*
X134589086Y-95220595D01*
X134605272Y-95234236D01*
X134622093Y-95247775D01*
X134639550Y-95261210D01*
X134657642Y-95274542D01*
X134669992Y-95283402D01*
X134688573Y-95296483D01*
X134707224Y-95309316D01*
X134725942Y-95321900D01*
X134744730Y-95334235D01*
X134763586Y-95346320D01*
X134782511Y-95358157D01*
X134801505Y-95369745D01*
X134820568Y-95381084D01*
X134839699Y-95392173D01*
X134858898Y-95403014D01*
X134871757Y-95410164D01*
X134890953Y-95420681D01*
X134910037Y-95430949D01*
X134929009Y-95440968D01*
X134947870Y-95450739D01*
X134966619Y-95460260D01*
X134985256Y-95469532D01*
X135003782Y-95478555D01*
X135022196Y-95487329D01*
X135040498Y-95495854D01*
X135058689Y-95504130D01*
X135070691Y-95509544D01*
X135093803Y-95519878D01*
X135115724Y-95529556D01*
X135136454Y-95538578D01*
X135155993Y-95546944D01*
X135174342Y-95554652D01*
X135195603Y-95563366D01*
X135215004Y-95571053D01*
X135207124Y-95568393D01*
X135183810Y-95560741D01*
X135160985Y-95553579D01*
X135138650Y-95546905D01*
X135116804Y-95540722D01*
X135095448Y-95535027D01*
X135074581Y-95529822D01*
X135054203Y-95525107D01*
X135034315Y-95520881D01*
X135014916Y-95517144D01*
X134989813Y-95512923D01*
X134977652Y-95511156D01*
X134954006Y-95508012D01*
X134931261Y-95505386D01*
X134909417Y-95503279D01*
X134888473Y-95501692D01*
X134868430Y-95500623D01*
X134844642Y-95500017D01*
X134822262Y-95500223D01*
X134813752Y-95500509D01*
X134793344Y-95501592D01*
X134770492Y-95503584D01*
X134749426Y-95506331D01*
X134730146Y-95509835D01*
X134709910Y-95514877D01*
X134701965Y-95517372D01*
X134682792Y-95524233D01*
X134662947Y-95533240D01*
X134646407Y-95543698D01*
X134642440Y-95547175D01*
X134627831Y-95561639D01*
X134615238Y-95576988D01*
X134602329Y-95597420D01*
X134592569Y-95619235D01*
X134585957Y-95642433D01*
X134582934Y-95661988D01*
X134581927Y-95682428D01*
X134582851Y-95703730D01*
X134585621Y-95725628D01*
X134590239Y-95748121D01*
X134596704Y-95771210D01*
X134605016Y-95794894D01*
X134612462Y-95813048D01*
X134620947Y-95831536D01*
X134630471Y-95850359D01*
X134641034Y-95869518D01*
X134643351Y-95873451D01*
X134655751Y-95892959D01*
X134669511Y-95912205D01*
X134684631Y-95931189D01*
X134697706Y-95946187D01*
X134711650Y-95961017D01*
X134726465Y-95975679D01*
X134742150Y-95990174D01*
X134754748Y-96001136D01*
X134772841Y-96016233D01*
X134790514Y-96030360D01*
X134788677Y-96029888D01*
X134765567Y-96024032D01*
X134742423Y-96018256D01*
X134719245Y-96012560D01*
X134696032Y-96006944D01*
X134672785Y-96001409D01*
X134650172Y-95996005D01*
X134627516Y-95990662D01*
X134604819Y-95985380D01*
X134582080Y-95980160D01*
X134559298Y-95975000D01*
X134536475Y-95969902D01*
X134513610Y-95964864D01*
X134490702Y-95959888D01*
X134467753Y-95954972D01*
X134444762Y-95950118D01*
X134421728Y-95945325D01*
X134398653Y-95940592D01*
X134375536Y-95935921D01*
X134352377Y-95931311D01*
X134329176Y-95926762D01*
X134305933Y-95922274D01*
X134282701Y-95917864D01*
X134259534Y-95913550D01*
X134236432Y-95909331D01*
X134213395Y-95905208D01*
X134190423Y-95901180D01*
X134167516Y-95897247D01*
X134144673Y-95893410D01*
X134121896Y-95889668D01*
X134099183Y-95886021D01*
X134076535Y-95882470D01*
X134053952Y-95879015D01*
X134031434Y-95875654D01*
X134008981Y-95872389D01*
X133986593Y-95869220D01*
X133964269Y-95866146D01*
X133942011Y-95863167D01*
X133925354Y-95860886D01*
X133904040Y-95858726D01*
X133883749Y-95857574D01*
X133859823Y-95857550D01*
X133837495Y-95859100D01*
X133816766Y-95862225D01*
X133794000Y-95868052D01*
X133773226Y-95875259D01*
X133754135Y-95883325D01*
X133736727Y-95892249D01*
X133718544Y-95903747D01*
X133702653Y-95916412D01*
X133690586Y-95927707D01*
X133676847Y-95943140D01*
X133664602Y-95961013D01*
X133655758Y-95979427D01*
X133650809Y-95993472D01*
X133645488Y-96012709D01*
X133643057Y-96032183D01*
X132982344Y-96032183D01*
X132982344Y-93853049D01*
X134237056Y-93853049D01*
X134237100Y-93857764D01*
X134238384Y-93877801D01*
X134241895Y-93897798D01*
X134248291Y-93917040D01*
X134252220Y-93924511D01*
X134267660Y-93938830D01*
X134287859Y-93943419D01*
X134305913Y-93945113D01*
X134326373Y-93947632D01*
X134349236Y-93950975D01*
X134370125Y-93954390D01*
X134392685Y-93958379D01*
X134411934Y-93961981D01*
X134432061Y-93966034D01*
X134452875Y-93970377D01*
X134474376Y-93975010D01*
X134496564Y-93979933D01*
X134519439Y-93985146D01*
X134543001Y-93990649D01*
X134567250Y-93996442D01*
X134592185Y-94002525D01*
X134604951Y-94005729D01*
X134624342Y-94010642D01*
X134644026Y-94015684D01*
X134664001Y-94020855D01*
X134684269Y-94026154D01*
X134704828Y-94031582D01*
X134725679Y-94037139D01*
X134746822Y-94042825D01*
X134768258Y-94048640D01*
X134789985Y-94054583D01*
X134812004Y-94060655D01*
X134826874Y-94064765D01*
X134849301Y-94071002D01*
X134871874Y-94077325D01*
X134894593Y-94083733D01*
X134917457Y-94090228D01*
X134940468Y-94096808D01*
X134963625Y-94103474D01*
X134986928Y-94110226D01*
X135010377Y-94117064D01*
X135033971Y-94123988D01*
X135057712Y-94130997D01*
X135057712Y-94133928D01*
X135052343Y-94141670D01*
X135040532Y-94158729D01*
X135028678Y-94175877D01*
X135017168Y-94192546D01*
X135005200Y-94210284D01*
X134993232Y-94228328D01*
X134981264Y-94246677D01*
X134969296Y-94265331D01*
X134966319Y-94270042D01*
X134954718Y-94289078D01*
X134943605Y-94308419D01*
X134934282Y-94325592D01*
X134925332Y-94343000D01*
X134919429Y-94355279D01*
X134910827Y-94373933D01*
X134902391Y-94393459D01*
X134894558Y-94413342D01*
X134887514Y-94432638D01*
X134881424Y-94454345D01*
X134877909Y-94474472D01*
X134877064Y-94495957D01*
X134880392Y-94517878D01*
X134882657Y-94525348D01*
X134891360Y-94545080D01*
X134904383Y-94562292D01*
X134920936Y-94574542D01*
X134926570Y-94577241D01*
X134946033Y-94582889D01*
X134966546Y-94583385D01*
X134985905Y-94579427D01*
X134998561Y-94574487D01*
X135015550Y-94563663D01*
X135030143Y-94548744D01*
X135041104Y-94532044D01*
X135048500Y-94514802D01*
X135057331Y-94495738D01*
X135066016Y-94477822D01*
X135073543Y-94463126D01*
X135083358Y-94443750D01*
X135092211Y-94426073D01*
X135101187Y-94407969D01*
X135108183Y-94394585D01*
X135117616Y-94377274D01*
X135128376Y-94358529D01*
X135139289Y-94340558D01*
X135147631Y-94327558D01*
X135159038Y-94309869D01*
X135170552Y-94292197D01*
X135181385Y-94277207D01*
X135195887Y-94262362D01*
X135215493Y-94254584D01*
X135223484Y-94256576D01*
X135240633Y-94267722D01*
X135255135Y-94281918D01*
X135269226Y-94298548D01*
X135283339Y-94315400D01*
X135297345Y-94332253D01*
X135311244Y-94349106D01*
X135325036Y-94365959D01*
X135338721Y-94382812D01*
X135352299Y-94399664D01*
X135365771Y-94416517D01*
X135379136Y-94433370D01*
X135392477Y-94450314D01*
X135405636Y-94467442D01*
X135418611Y-94484752D01*
X135431404Y-94502246D01*
X135444013Y-94519923D01*
X135456438Y-94537784D01*
X135468681Y-94555827D01*
X135480741Y-94574054D01*
X135491400Y-94588714D01*
X135505718Y-94605429D01*
X135521973Y-94620366D01*
X135538382Y-94631206D01*
X135549882Y-94637166D01*
X135568357Y-94645782D01*
X135588299Y-94654013D01*
X135607258Y-94661004D01*
X135621302Y-94664149D01*
X135641910Y-94664172D01*
X135661969Y-94658562D01*
X135674792Y-94652242D01*
X135691736Y-94640129D01*
X135705933Y-94624856D01*
X135714197Y-94611482D01*
X135721009Y-94591367D01*
X135723030Y-94570634D01*
X135723010Y-94568682D01*
X135720213Y-94547462D01*
X135713563Y-94528571D01*
X135703002Y-94510062D01*
X135699147Y-94504401D01*
X135687492Y-94487622D01*
X135675700Y-94471153D01*
X135663770Y-94454993D01*
X135651703Y-94439142D01*
X135639499Y-94423600D01*
X135625464Y-94405768D01*
X135611569Y-94387750D01*
X135599771Y-94372156D01*
X135588076Y-94356426D01*
X135576484Y-94340558D01*
X135571985Y-94334640D01*
X135558628Y-94318451D01*
X135545221Y-94303921D01*
X135540031Y-94298438D01*
X135526536Y-94284292D01*
X135512004Y-94269239D01*
X135514935Y-94269727D01*
X135544732Y-94278735D01*
X135574164Y-94287687D01*
X135603228Y-94296580D01*
X135631927Y-94305417D01*
X135660259Y-94314196D01*
X135688225Y-94322919D01*
X135715824Y-94331583D01*
X135743057Y-94340191D01*
X135769924Y-94348742D01*
X135796425Y-94357235D01*
X135822559Y-94365671D01*
X135848326Y-94374049D01*
X135873727Y-94382371D01*
X135898762Y-94390635D01*
X135923431Y-94398842D01*
X135947733Y-94406992D01*
X135959722Y-94411023D01*
X135983097Y-94418911D01*
X136005667Y-94426567D01*
X136027431Y-94433989D01*
X136048390Y-94441179D01*
X136068544Y-94448136D01*
X136087893Y-94454861D01*
X136115406Y-94464511D01*
X136141107Y-94473637D01*
X136164997Y-94482239D01*
X136187074Y-94490318D01*
X136207340Y-94497873D01*
X136231543Y-94507131D01*
X136252640Y-94514184D01*
X136273919Y-94518733D01*
X136295382Y-94520778D01*
X136317028Y-94520320D01*
X136338552Y-94517450D01*
X136359160Y-94511772D01*
X136378852Y-94503284D01*
X136397628Y-94491988D01*
X136406612Y-94485432D01*
X136421488Y-94472379D01*
X136435289Y-94457315D01*
X136448015Y-94440241D01*
X136459666Y-94421158D01*
X136464231Y-94412376D01*
X136472177Y-94393783D01*
X136478542Y-94373817D01*
X136483328Y-94352476D01*
X136486534Y-94329761D01*
X136487998Y-94309783D01*
X136487052Y-94296800D01*
X136482083Y-94277640D01*
X136472855Y-94258858D01*
X136459368Y-94240454D01*
X136444876Y-94225406D01*
X136427426Y-94210620D01*
X136411947Y-94199065D01*
X136395796Y-94187845D01*
X136378974Y-94176961D01*
X136361480Y-94166412D01*
X136343315Y-94156200D01*
X136324478Y-94146323D01*
X136304969Y-94136783D01*
X136284788Y-94127578D01*
X136264386Y-94118686D01*
X136243969Y-94110084D01*
X136223537Y-94101772D01*
X136203089Y-94093750D01*
X136182626Y-94086018D01*
X136162148Y-94078577D01*
X136141654Y-94071425D01*
X136121145Y-94064563D01*
X136101408Y-94058098D01*
X136078581Y-94050726D01*
X136057806Y-94044140D01*
X136039083Y-94038342D01*
X136019322Y-94032423D01*
X136000001Y-94026950D01*
X135976758Y-94020701D01*
X135953557Y-94014409D01*
X135930397Y-94008076D01*
X135907280Y-94001701D01*
X135884205Y-93995284D01*
X135861172Y-93988825D01*
X135838181Y-93982324D01*
X135815231Y-93975781D01*
X135792324Y-93969196D01*
X135769459Y-93962569D01*
X135746635Y-93955900D01*
X135723854Y-93949189D01*
X135701114Y-93942436D01*
X135678417Y-93935641D01*
X135655762Y-93928804D01*
X135633148Y-93921925D01*
X135610594Y-93915067D01*
X135587994Y-93908293D01*
X135565348Y-93901603D01*
X135542656Y-93894997D01*
X135519919Y-93888475D01*
X135497135Y-93882037D01*
X135474306Y-93875683D01*
X135451432Y-93869413D01*
X135428511Y-93863227D01*
X135405544Y-93857125D01*
X135382532Y-93851106D01*
X135359474Y-93845172D01*
X135336370Y-93839322D01*
X135313221Y-93833555D01*
X135290025Y-93827873D01*
X135266784Y-93822274D01*
X135244170Y-93816874D01*
X135221515Y-93811543D01*
X135198818Y-93806280D01*
X135176078Y-93801086D01*
X135153297Y-93795961D01*
X135130474Y-93790904D01*
X135107608Y-93785916D01*
X135084701Y-93780997D01*
X135061752Y-93776147D01*
X135038760Y-93771365D01*
X135015727Y-93766652D01*
X134992652Y-93762007D01*
X134969535Y-93757432D01*
X134946375Y-93752924D01*
X134923174Y-93748486D01*
X134899931Y-93744116D01*
X134876688Y-93739871D01*
X134853487Y-93735682D01*
X134830328Y-93731551D01*
X134807210Y-93727477D01*
X134784135Y-93723461D01*
X134761102Y-93719501D01*
X134738111Y-93715599D01*
X134715161Y-93711754D01*
X134692254Y-93707967D01*
X134669389Y-93704236D01*
X134646565Y-93700563D01*
X134623784Y-93696947D01*
X134601045Y-93693388D01*
X134578347Y-93689887D01*
X134555692Y-93686443D01*
X134533078Y-93683056D01*
X134516509Y-93680858D01*
X134495298Y-93678782D01*
X134475095Y-93677682D01*
X134451257Y-93677682D01*
X134428994Y-93679209D01*
X134408305Y-93682262D01*
X134385556Y-93687941D01*
X134368022Y-93694028D01*
X134348651Y-93702088D01*
X134328351Y-93712533D01*
X134310530Y-93724100D01*
X134295186Y-93736789D01*
X134283617Y-93748398D01*
X134270382Y-93764091D01*
X134258485Y-93782037D01*
X134249757Y-93800292D01*
X134244808Y-93814170D01*
X134239487Y-93833334D01*
X134237056Y-93853049D01*
X132982344Y-93853049D01*
X132982344Y-93016968D01*
X137148713Y-93016968D01*
X137148713Y-99881732D01*
G37*
D11*
%TO.C,U1*%
X135634219Y-51814179D03*
X135634219Y-54354179D03*
X135634219Y-56894179D03*
X135634219Y-59434179D03*
X135634219Y-61974179D03*
X135634219Y-64514179D03*
X135634219Y-67054179D03*
X151824219Y-67054179D03*
X151824219Y-64514179D03*
X151824219Y-61974179D03*
X151824219Y-59434179D03*
X151824219Y-56894179D03*
X151824219Y-54354179D03*
X151824219Y-51814179D03*
D12*
X142459220Y-50862180D03*
X144999220Y-50862180D03*
X142459220Y-53402180D03*
X144999220Y-53402180D03*
X139284220Y-59117180D03*
X139284220Y-57212180D03*
%TD*%
D13*
%TO.C,SW9*%
X196971500Y-77425000D03*
D14*
X202051500Y-77425000D03*
D13*
X207131500Y-77425000D03*
D15*
X204591500Y-72345000D03*
X198241500Y-74885000D03*
%TD*%
D13*
%TO.C,SW5*%
X158863750Y-77425000D03*
D14*
X163943750Y-77425000D03*
D13*
X169023750Y-77425000D03*
D15*
X166483750Y-72345000D03*
X160133750Y-74885000D03*
%TD*%
D13*
%TO.C,SW14*%
X158863750Y-115525000D03*
D14*
X163943750Y-115525000D03*
D13*
X169023750Y-115525000D03*
D15*
X166483750Y-110445000D03*
X160133750Y-112985000D03*
%TD*%
D13*
%TO.C,SW16*%
X177913750Y-115525000D03*
D14*
X182993750Y-115525000D03*
D13*
X188073750Y-115525000D03*
D16*
X185533749Y-110444999D03*
D15*
X179183750Y-112985000D03*
%TD*%
D13*
%TO.C,SW17*%
X196971500Y-115525000D03*
D14*
X202051500Y-115525000D03*
D13*
X207131500Y-115525000D03*
D15*
X204591500Y-110445000D03*
X198241500Y-112985000D03*
%TD*%
D13*
%TO.C,SW7*%
X177913750Y-96475000D03*
D14*
X182993750Y-96475000D03*
D13*
X188073750Y-96475000D03*
D15*
X185533750Y-91395000D03*
X179183750Y-93935000D03*
%TD*%
D13*
%TO.C,SW2*%
X177913750Y-58375000D03*
D14*
X182993750Y-58375000D03*
D13*
X188073750Y-58375000D03*
D15*
X185533750Y-53295000D03*
X179183750Y-55835000D03*
%TD*%
D13*
%TO.C,SW11*%
X216013750Y-96475000D03*
D14*
X221093750Y-96475000D03*
D13*
X226173750Y-96475000D03*
D15*
X223633750Y-91395000D03*
X217283750Y-93935000D03*
%TD*%
D17*
%TO.C,J1*%
X135731250Y-77787500D03*
%TD*%
D13*
%TO.C,SW10*%
X196971500Y-96475000D03*
D14*
X202051500Y-96475000D03*
D13*
X207131500Y-96475000D03*
D15*
X204591500Y-91395000D03*
X198241500Y-93935000D03*
%TD*%
D13*
%TO.C,SW12*%
X221093750Y-62820000D03*
D14*
X221093750Y-67900000D03*
D13*
X221093750Y-72980000D03*
D15*
X226173750Y-70440000D03*
X223633750Y-64090000D03*
%TD*%
D13*
%TO.C,SW13*%
X216013750Y-77425000D03*
D14*
X221093750Y-77425000D03*
D13*
X226173750Y-77425000D03*
D15*
X223633750Y-72345000D03*
X217283750Y-74885000D03*
%TD*%
D13*
%TO.C,SW4*%
X216013750Y-58375000D03*
D14*
X221093750Y-58375000D03*
D13*
X226173750Y-58375000D03*
D15*
X223633750Y-53295000D03*
X217283750Y-55835000D03*
%TD*%
D18*
%TO.C,ST3*%
X185368750Y-122510000D03*
D14*
X185368750Y-107270000D03*
D18*
X161568750Y-122510000D03*
D14*
X161568750Y-107270000D03*
%TD*%
D13*
%TO.C,SW18*%
X216013750Y-115525000D03*
D14*
X221093750Y-115525000D03*
D13*
X226173750Y-115525000D03*
D15*
X223633750Y-110445000D03*
X217283750Y-112985000D03*
%TD*%
D19*
%TO.C,switch*%
X134700000Y-88493750D03*
X134750000Y-85493750D03*
D20*
X136549999Y-84743749D03*
X136549999Y-87743749D03*
X136549999Y-89243749D03*
D21*
X134649999Y-83143749D03*
X134649999Y-91093749D03*
%TD*%
D13*
%TO.C,SW8*%
X177913750Y-77425000D03*
D14*
X182993750Y-77425000D03*
D13*
X188073750Y-77425000D03*
D15*
X185533750Y-72345000D03*
X179183750Y-74885000D03*
%TD*%
D13*
%TO.C,2u*%
X168388750Y-115525000D03*
D14*
X173468750Y-115525000D03*
D13*
X178548750Y-115525000D03*
D15*
X176008750Y-110445000D03*
X169658750Y-112985000D03*
%TD*%
D22*
%TO.C,J2*%
X135731250Y-75406250D03*
%TD*%
D13*
%TO.C,SW1*%
X158863750Y-58375000D03*
D14*
X163943750Y-58375000D03*
D13*
X169023750Y-58375000D03*
D15*
X166483750Y-53295000D03*
X160133750Y-55835000D03*
%TD*%
D13*
%TO.C,SW6*%
X158863750Y-96475000D03*
D14*
X163943750Y-96475000D03*
D13*
X169023750Y-96475000D03*
D15*
X166483750Y-91395000D03*
X160133750Y-93935000D03*
%TD*%
D18*
%TO.C,ST1*%
X228078750Y-56000000D03*
D14*
X212838750Y-56000000D03*
D18*
X228078750Y-79800000D03*
D14*
X212838750Y-79800000D03*
%TD*%
D13*
%TO.C,SW3*%
X196971500Y-58375000D03*
D14*
X202051500Y-58375000D03*
D13*
X207131500Y-58375000D03*
D15*
X204591500Y-53295000D03*
X198241500Y-55835000D03*
%TD*%
D23*
%TO.C,SW15*%
X149993749Y-115524999D03*
X138793749Y-115524999D03*
D24*
X146893749Y-108024999D03*
D25*
X141893750Y-108025000D03*
X144393750Y-108025000D03*
X141893750Y-122525000D03*
X146893750Y-122525000D03*
%TD*%
D13*
%TO.C,SW19*%
X221093750Y-100920000D03*
D14*
X221093750Y-106000000D03*
D13*
X221093750Y-111080000D03*
D15*
X226173750Y-108540000D03*
X223633750Y-102190000D03*
%TD*%
D18*
%TO.C,ST2*%
X228078750Y-94100000D03*
D14*
X212838750Y-94100000D03*
D18*
X228078750Y-117900000D03*
D14*
X212838750Y-117900000D03*
%TD*%
M02*
