%TF.GenerationSoftware,KiCad,Pcbnew,(7.0.0)*%
%TF.CreationDate,2023-06-29T20:35:01+03:00*%
%TF.ProjectId,kapeebar-a,6b617065-6562-4617-922d-612e6b696361,rev?*%
%TF.SameCoordinates,Original*%
%TF.FileFunction,Drillmap*%
%TF.FilePolarity,Positive*%
%FSLAX45Y45*%
G04 Gerber Fmt 4.5, Leading zero omitted, Abs format (unit mm)*
G04 Created by KiCad (PCBNEW (7.0.0)) date 2023-06-29 20:35:01*
%MOMM*%
%LPD*%
G01*
G04 APERTURE LIST*
%ADD10C,0.100000*%
%ADD11C,0.200000*%
%ADD12C,0.040000*%
%ADD13C,0.101600*%
%ADD14C,0.149860*%
%ADD15C,0.150000*%
G04 APERTURE END LIST*
D10*
X22903120Y-12505000D02*
X13457495Y-12505000D01*
X22903125Y-12505005D02*
G75*
G03*
X23061875Y-12346250I-5J158755D01*
G01*
X13457495Y-4884995D02*
G75*
G03*
X13298745Y-5043750I5J-158755D01*
G01*
X23061870Y-5043750D02*
G75*
G03*
X22903125Y-4885000I-158750J0D01*
G01*
X13457495Y-4885000D02*
X22903125Y-4885000D01*
X23061875Y-12346250D02*
X23061875Y-5043750D01*
X13298750Y-12346250D02*
G75*
G03*
X13457495Y-12505000I158750J0D01*
G01*
X13298745Y-12346250D02*
X13298745Y-5043750D01*
D11*
D12*
X14018745Y-6600000D02*
X14058745Y-6640000D01*
X14058745Y-6600000D02*
X14018745Y-6640000D01*
X15618745Y-8567550D02*
X15658745Y-8607550D01*
X15658745Y-8567550D02*
X15618745Y-8607550D01*
X15838745Y-8640000D02*
X15878745Y-8680000D01*
X15878745Y-8640000D02*
X15838745Y-8680000D01*
X16078745Y-8712450D02*
X16118745Y-8752450D01*
X16118745Y-8712450D02*
X16078745Y-8752450D01*
X16293775Y-8784900D02*
X16333775Y-8824900D01*
X16333775Y-8784900D02*
X16293775Y-8824900D01*
X15841375Y-6105000D02*
G75*
G03*
X15841375Y-6105000I-20000J0D01*
G01*
X15841375Y-6435000D02*
G75*
G03*
X15841375Y-6435000I-20000J0D01*
G01*
X15841375Y-7997630D02*
G75*
G03*
X15841375Y-7997630I-20000J0D01*
G01*
X15841375Y-8327630D02*
G75*
G03*
X15841375Y-8327630I-20000J0D01*
G01*
X15841375Y-9914300D02*
G75*
G03*
X15841375Y-9914300I-20000J0D01*
G01*
X15841375Y-10244300D02*
G75*
G03*
X15841375Y-10244300I-20000J0D01*
G01*
X15841375Y-11815200D02*
G75*
G03*
X15841375Y-11815200I-20000J0D01*
G01*
X15841375Y-12145200D02*
G75*
G03*
X15841375Y-12145200I-20000J0D01*
G01*
X17746375Y-6105000D02*
G75*
G03*
X17746375Y-6105000I-20000J0D01*
G01*
X17746375Y-6435000D02*
G75*
G03*
X17746375Y-6435000I-20000J0D01*
G01*
X17746375Y-7997630D02*
G75*
G03*
X17746375Y-7997630I-20000J0D01*
G01*
X17746375Y-8327630D02*
G75*
G03*
X17746375Y-8327630I-20000J0D01*
G01*
X17746375Y-9914300D02*
G75*
G03*
X17746375Y-9914300I-20000J0D01*
G01*
X17746375Y-10244300D02*
G75*
G03*
X17746375Y-10244300I-20000J0D01*
G01*
X17746375Y-11815200D02*
G75*
G03*
X17746375Y-11815200I-20000J0D01*
G01*
X17746375Y-12145200D02*
G75*
G03*
X17746375Y-12145200I-20000J0D01*
G01*
X19648745Y-6105000D02*
G75*
G03*
X19648745Y-6105000I-20000J0D01*
G01*
X19648745Y-6435000D02*
G75*
G03*
X19648745Y-6435000I-20000J0D01*
G01*
X19648745Y-7997630D02*
G75*
G03*
X19648745Y-7997630I-20000J0D01*
G01*
X19648745Y-8327630D02*
G75*
G03*
X19648745Y-8327630I-20000J0D01*
G01*
X19648745Y-9914300D02*
G75*
G03*
X19648745Y-9914300I-20000J0D01*
G01*
X19648745Y-10244300D02*
G75*
G03*
X19648745Y-10244300I-20000J0D01*
G01*
X19648745Y-11815200D02*
G75*
G03*
X19648745Y-11815200I-20000J0D01*
G01*
X19648745Y-12145200D02*
G75*
G03*
X19648745Y-12145200I-20000J0D01*
G01*
X21558040Y-9914300D02*
G75*
G03*
X21558040Y-9914300I-20000J0D01*
G01*
X21558040Y-10244300D02*
G75*
G03*
X21558040Y-10244300I-20000J0D01*
G01*
X21561745Y-6105000D02*
G75*
G03*
X21561745Y-6105000I-20000J0D01*
G01*
X21561745Y-6435000D02*
G75*
G03*
X21561745Y-6435000I-20000J0D01*
G01*
X21796375Y-7997630D02*
G75*
G03*
X21796375Y-7997630I-20000J0D01*
G01*
X21796375Y-8327630D02*
G75*
G03*
X21796375Y-8327630I-20000J0D01*
G01*
X21796375Y-11815200D02*
G75*
G03*
X21796375Y-11815200I-20000J0D01*
G01*
X21796375Y-12145200D02*
G75*
G03*
X21796375Y-12145200I-20000J0D01*
G01*
D10*
X13573125Y-7490625D02*
X13573125Y-7590625D01*
X13523125Y-7540625D02*
X13623125Y-7540625D01*
X13573125Y-7728750D02*
X13573125Y-7828750D01*
X13523125Y-7778750D02*
X13623125Y-7778750D01*
X13610922Y-5131418D02*
X13610922Y-5231418D01*
X13560922Y-5181418D02*
X13660922Y-5181418D01*
X13610922Y-5385418D02*
X13610922Y-5485418D01*
X13560922Y-5435418D02*
X13660922Y-5435418D01*
X13610922Y-5639418D02*
X13610922Y-5739418D01*
X13560922Y-5689418D02*
X13660922Y-5689418D01*
X13610922Y-5893418D02*
X13610922Y-5993418D01*
X13560922Y-5943418D02*
X13660922Y-5943418D01*
X13610922Y-6147418D02*
X13610922Y-6247418D01*
X13560922Y-6197418D02*
X13660922Y-6197418D01*
X13610922Y-6401418D02*
X13610922Y-6501418D01*
X13560922Y-6451418D02*
X13660922Y-6451418D01*
X13610922Y-6655418D02*
X13610922Y-6755418D01*
X13560922Y-6705418D02*
X13660922Y-6705418D01*
X14189375Y-10752500D02*
X14189375Y-10852500D01*
X14139375Y-10802500D02*
X14239375Y-10802500D01*
X14189375Y-12202500D02*
X14189375Y-12302500D01*
X14139375Y-12252500D02*
X14239375Y-12252500D01*
X14439375Y-10752500D02*
X14439375Y-10852500D01*
X14389375Y-10802500D02*
X14489375Y-10802500D01*
X14689375Y-10752500D02*
X14689375Y-10852500D01*
X14639375Y-10802500D02*
X14739375Y-10802500D01*
X14689375Y-12202500D02*
X14689375Y-12302500D01*
X14639375Y-12252500D02*
X14739375Y-12252500D01*
X15134922Y-5131418D02*
X15134922Y-5231418D01*
X15084922Y-5181418D02*
X15184922Y-5181418D01*
X15134922Y-5385418D02*
X15134922Y-5485418D01*
X15084922Y-5435418D02*
X15184922Y-5435418D01*
X15134922Y-5639418D02*
X15134922Y-5739418D01*
X15084922Y-5689418D02*
X15184922Y-5689418D01*
X15134922Y-5893418D02*
X15134922Y-5993418D01*
X15084922Y-5943418D02*
X15184922Y-5943418D01*
X15134922Y-6147418D02*
X15134922Y-6247418D01*
X15084922Y-6197418D02*
X15184922Y-6197418D01*
X15134922Y-6401418D02*
X15134922Y-6501418D01*
X15084922Y-6451418D02*
X15184922Y-6451418D01*
X15134922Y-6655418D02*
X15134922Y-6755418D01*
X15084922Y-6705418D02*
X15184922Y-6705418D01*
D13*
X13964343Y-5757139D02*
X13964343Y-5685297D01*
X13892501Y-5685297D01*
X13892501Y-5757139D01*
X13964343Y-5757139D01*
X13964343Y-5947639D02*
X13964343Y-5875797D01*
X13892501Y-5875797D01*
X13892501Y-5947639D01*
X13964343Y-5947639D01*
X14281843Y-5122139D02*
X14281843Y-5050297D01*
X14210001Y-5050297D01*
X14210001Y-5122139D01*
X14281843Y-5122139D01*
X14281843Y-5376139D02*
X14281843Y-5304297D01*
X14210001Y-5304297D01*
X14210001Y-5376139D01*
X14281843Y-5376139D01*
X14535843Y-5122139D02*
X14535843Y-5050297D01*
X14464001Y-5050297D01*
X14464001Y-5122139D01*
X14535843Y-5122139D01*
X14535843Y-5376139D02*
X14535843Y-5304297D01*
X14464001Y-5304297D01*
X14464001Y-5376139D01*
X14535843Y-5376139D01*
D14*
X16013375Y-5658430D02*
X16088305Y-5583500D01*
X16013375Y-5508570D01*
X15938445Y-5583500D01*
X16013375Y-5658430D01*
X16013375Y-7563430D02*
X16088305Y-7488500D01*
X16013375Y-7413570D01*
X15938445Y-7488500D01*
X16013375Y-7563430D01*
X16013375Y-9468430D02*
X16088305Y-9393500D01*
X16013375Y-9318570D01*
X15938445Y-9393500D01*
X16013375Y-9468430D01*
X16013375Y-11373430D02*
X16088305Y-11298500D01*
X16013375Y-11223570D01*
X15938445Y-11298500D01*
X16013375Y-11373430D01*
X16648375Y-5404430D02*
X16723305Y-5329500D01*
X16648375Y-5254570D01*
X16573445Y-5329500D01*
X16648375Y-5404430D01*
X16648375Y-7309430D02*
X16723305Y-7234500D01*
X16648375Y-7159570D01*
X16573445Y-7234500D01*
X16648375Y-7309430D01*
X16648375Y-9214430D02*
X16723305Y-9139500D01*
X16648375Y-9064570D01*
X16573445Y-9139500D01*
X16648375Y-9214430D01*
X16648375Y-11119430D02*
X16723305Y-11044500D01*
X16648375Y-10969570D01*
X16573445Y-11044500D01*
X16648375Y-11119430D01*
X16965875Y-11373430D02*
X17040805Y-11298500D01*
X16965875Y-11223570D01*
X16890945Y-11298500D01*
X16965875Y-11373430D01*
X17600875Y-11119430D02*
X17675805Y-11044500D01*
X17600875Y-10969570D01*
X17525945Y-11044500D01*
X17600875Y-11119430D01*
X17918375Y-5658430D02*
X17993305Y-5583500D01*
X17918375Y-5508570D01*
X17843445Y-5583500D01*
X17918375Y-5658430D01*
X17918375Y-7563430D02*
X17993305Y-7488500D01*
X17918375Y-7413570D01*
X17843445Y-7488500D01*
X17918375Y-7563430D01*
X17918375Y-9468430D02*
X17993305Y-9393500D01*
X17918375Y-9318570D01*
X17843445Y-9393500D01*
X17918375Y-9468430D01*
X17918375Y-11373430D02*
X17993305Y-11298500D01*
X17918375Y-11223570D01*
X17843445Y-11298500D01*
X17918375Y-11373430D01*
X18553375Y-5404430D02*
X18628305Y-5329500D01*
X18553375Y-5254570D01*
X18478445Y-5329500D01*
X18553375Y-5404430D01*
X18553375Y-7309430D02*
X18628305Y-7234500D01*
X18553375Y-7159570D01*
X18478445Y-7234500D01*
X18553375Y-7309430D01*
X18553375Y-9214430D02*
X18628305Y-9139500D01*
X18553375Y-9064570D01*
X18478445Y-9139500D01*
X18553375Y-9214430D01*
X19824150Y-5658430D02*
X19899080Y-5583500D01*
X19824150Y-5508570D01*
X19749220Y-5583500D01*
X19824150Y-5658430D01*
X19824150Y-7563430D02*
X19899080Y-7488500D01*
X19824150Y-7413570D01*
X19749220Y-7488500D01*
X19824150Y-7563430D01*
X19824150Y-9468430D02*
X19899080Y-9393500D01*
X19824150Y-9318570D01*
X19749220Y-9393500D01*
X19824150Y-9468430D01*
X19824150Y-11373430D02*
X19899080Y-11298500D01*
X19824150Y-11223570D01*
X19749220Y-11298500D01*
X19824150Y-11373430D01*
X20459150Y-5404430D02*
X20534080Y-5329500D01*
X20459150Y-5254570D01*
X20384220Y-5329500D01*
X20459150Y-5404430D01*
X20459150Y-7309430D02*
X20534080Y-7234500D01*
X20459150Y-7159570D01*
X20384220Y-7234500D01*
X20459150Y-7309430D01*
X20459150Y-9214430D02*
X20534080Y-9139500D01*
X20459150Y-9064570D01*
X20384220Y-9139500D01*
X20459150Y-9214430D01*
X20459150Y-11119430D02*
X20534080Y-11044500D01*
X20459150Y-10969570D01*
X20384220Y-11044500D01*
X20459150Y-11119430D01*
X21728375Y-5658430D02*
X21803305Y-5583500D01*
X21728375Y-5508570D01*
X21653445Y-5583500D01*
X21728375Y-5658430D01*
X21728375Y-7563430D02*
X21803305Y-7488500D01*
X21728375Y-7413570D01*
X21653445Y-7488500D01*
X21728375Y-7563430D01*
X21728375Y-9468430D02*
X21803305Y-9393500D01*
X21728375Y-9318570D01*
X21653445Y-9393500D01*
X21728375Y-9468430D01*
X21728375Y-11373430D02*
X21803305Y-11298500D01*
X21728375Y-11223570D01*
X21653445Y-11298500D01*
X21728375Y-11373430D01*
X22363375Y-5404430D02*
X22438305Y-5329500D01*
X22363375Y-5254570D01*
X22288445Y-5329500D01*
X22363375Y-5404430D01*
X22363375Y-6483930D02*
X22438305Y-6409000D01*
X22363375Y-6334070D01*
X22288445Y-6409000D01*
X22363375Y-6483930D01*
X22363375Y-7309430D02*
X22438305Y-7234500D01*
X22363375Y-7159570D01*
X22288445Y-7234500D01*
X22363375Y-7309430D01*
X22363375Y-9214430D02*
X22438305Y-9139500D01*
X22363375Y-9064570D01*
X22288445Y-9139500D01*
X22363375Y-9214430D01*
X22363375Y-10293930D02*
X22438305Y-10219000D01*
X22363375Y-10144070D01*
X22288445Y-10219000D01*
X22363375Y-10293930D01*
X22363375Y-11119430D02*
X22438305Y-11044500D01*
X22363375Y-10969570D01*
X22288445Y-11044500D01*
X22363375Y-11119430D01*
X22617375Y-7118930D02*
X22692305Y-7044000D01*
X22617375Y-6969070D01*
X22542445Y-7044000D01*
X22617375Y-7118930D01*
X22617375Y-10928930D02*
X22692305Y-10854000D01*
X22617375Y-10779070D01*
X22542445Y-10854000D01*
X22617375Y-10928930D01*
D15*
X18478375Y-10969500D02*
X18628375Y-11119500D01*
X18628375Y-10969500D02*
X18478375Y-11119500D01*
X18628375Y-11044500D02*
G75*
G03*
X18628375Y-11044500I-75000J0D01*
G01*
D11*
X13541364Y-12803476D02*
X13541364Y-12603476D01*
X13541364Y-12603476D02*
X13588983Y-12603476D01*
X13588983Y-12603476D02*
X13617554Y-12613000D01*
X13617554Y-12613000D02*
X13636602Y-12632048D01*
X13636602Y-12632048D02*
X13646126Y-12651095D01*
X13646126Y-12651095D02*
X13655650Y-12689190D01*
X13655650Y-12689190D02*
X13655650Y-12717762D01*
X13655650Y-12717762D02*
X13646126Y-12755857D01*
X13646126Y-12755857D02*
X13636602Y-12774905D01*
X13636602Y-12774905D02*
X13617554Y-12793952D01*
X13617554Y-12793952D02*
X13588983Y-12803476D01*
X13588983Y-12803476D02*
X13541364Y-12803476D01*
X13741364Y-12803476D02*
X13741364Y-12670143D01*
X13741364Y-12708238D02*
X13750888Y-12689190D01*
X13750888Y-12689190D02*
X13760412Y-12679667D01*
X13760412Y-12679667D02*
X13779459Y-12670143D01*
X13779459Y-12670143D02*
X13798507Y-12670143D01*
X13865173Y-12803476D02*
X13865173Y-12670143D01*
X13865173Y-12603476D02*
X13855650Y-12613000D01*
X13855650Y-12613000D02*
X13865173Y-12622524D01*
X13865173Y-12622524D02*
X13874697Y-12613000D01*
X13874697Y-12613000D02*
X13865173Y-12603476D01*
X13865173Y-12603476D02*
X13865173Y-12622524D01*
X13988983Y-12803476D02*
X13969935Y-12793952D01*
X13969935Y-12793952D02*
X13960412Y-12774905D01*
X13960412Y-12774905D02*
X13960412Y-12603476D01*
X14093745Y-12803476D02*
X14074697Y-12793952D01*
X14074697Y-12793952D02*
X14065173Y-12774905D01*
X14065173Y-12774905D02*
X14065173Y-12603476D01*
X14289935Y-12803476D02*
X14289935Y-12603476D01*
X14289935Y-12603476D02*
X14356602Y-12746333D01*
X14356602Y-12746333D02*
X14423269Y-12603476D01*
X14423269Y-12603476D02*
X14423269Y-12803476D01*
X14604221Y-12803476D02*
X14604221Y-12698714D01*
X14604221Y-12698714D02*
X14594697Y-12679667D01*
X14594697Y-12679667D02*
X14575650Y-12670143D01*
X14575650Y-12670143D02*
X14537554Y-12670143D01*
X14537554Y-12670143D02*
X14518507Y-12679667D01*
X14604221Y-12793952D02*
X14585173Y-12803476D01*
X14585173Y-12803476D02*
X14537554Y-12803476D01*
X14537554Y-12803476D02*
X14518507Y-12793952D01*
X14518507Y-12793952D02*
X14508983Y-12774905D01*
X14508983Y-12774905D02*
X14508983Y-12755857D01*
X14508983Y-12755857D02*
X14518507Y-12736809D01*
X14518507Y-12736809D02*
X14537554Y-12727286D01*
X14537554Y-12727286D02*
X14585173Y-12727286D01*
X14585173Y-12727286D02*
X14604221Y-12717762D01*
X14699459Y-12670143D02*
X14699459Y-12870143D01*
X14699459Y-12679667D02*
X14718507Y-12670143D01*
X14718507Y-12670143D02*
X14756602Y-12670143D01*
X14756602Y-12670143D02*
X14775650Y-12679667D01*
X14775650Y-12679667D02*
X14785173Y-12689190D01*
X14785173Y-12689190D02*
X14794697Y-12708238D01*
X14794697Y-12708238D02*
X14794697Y-12765381D01*
X14794697Y-12765381D02*
X14785173Y-12784428D01*
X14785173Y-12784428D02*
X14775650Y-12793952D01*
X14775650Y-12793952D02*
X14756602Y-12803476D01*
X14756602Y-12803476D02*
X14718507Y-12803476D01*
X14718507Y-12803476D02*
X14699459Y-12793952D01*
X14880412Y-12784428D02*
X14889935Y-12793952D01*
X14889935Y-12793952D02*
X14880412Y-12803476D01*
X14880412Y-12803476D02*
X14870888Y-12793952D01*
X14870888Y-12793952D02*
X14880412Y-12784428D01*
X14880412Y-12784428D02*
X14880412Y-12803476D01*
X14880412Y-12679667D02*
X14889935Y-12689190D01*
X14889935Y-12689190D02*
X14880412Y-12698714D01*
X14880412Y-12698714D02*
X14870888Y-12689190D01*
X14870888Y-12689190D02*
X14880412Y-12679667D01*
X14880412Y-12679667D02*
X14880412Y-12698714D01*
D12*
X13253745Y-13130000D02*
X13293745Y-13170000D01*
X13293745Y-13130000D02*
X13253745Y-13170000D01*
D11*
X13579459Y-13023476D02*
X13598507Y-13023476D01*
X13598507Y-13023476D02*
X13617554Y-13033000D01*
X13617554Y-13033000D02*
X13627078Y-13042524D01*
X13627078Y-13042524D02*
X13636602Y-13061571D01*
X13636602Y-13061571D02*
X13646126Y-13099667D01*
X13646126Y-13099667D02*
X13646126Y-13147286D01*
X13646126Y-13147286D02*
X13636602Y-13185381D01*
X13636602Y-13185381D02*
X13627078Y-13204428D01*
X13627078Y-13204428D02*
X13617554Y-13213952D01*
X13617554Y-13213952D02*
X13598507Y-13223476D01*
X13598507Y-13223476D02*
X13579459Y-13223476D01*
X13579459Y-13223476D02*
X13560412Y-13213952D01*
X13560412Y-13213952D02*
X13550888Y-13204428D01*
X13550888Y-13204428D02*
X13541364Y-13185381D01*
X13541364Y-13185381D02*
X13531840Y-13147286D01*
X13531840Y-13147286D02*
X13531840Y-13099667D01*
X13531840Y-13099667D02*
X13541364Y-13061571D01*
X13541364Y-13061571D02*
X13550888Y-13042524D01*
X13550888Y-13042524D02*
X13560412Y-13033000D01*
X13560412Y-13033000D02*
X13579459Y-13023476D01*
X13731840Y-13204428D02*
X13741364Y-13213952D01*
X13741364Y-13213952D02*
X13731840Y-13223476D01*
X13731840Y-13223476D02*
X13722316Y-13213952D01*
X13722316Y-13213952D02*
X13731840Y-13204428D01*
X13731840Y-13204428D02*
X13731840Y-13223476D01*
X13912793Y-13090143D02*
X13912793Y-13223476D01*
X13865173Y-13013952D02*
X13817554Y-13156809D01*
X13817554Y-13156809D02*
X13941364Y-13156809D01*
X14055650Y-13023476D02*
X14074697Y-13023476D01*
X14074697Y-13023476D02*
X14093745Y-13033000D01*
X14093745Y-13033000D02*
X14103269Y-13042524D01*
X14103269Y-13042524D02*
X14112793Y-13061571D01*
X14112793Y-13061571D02*
X14122316Y-13099667D01*
X14122316Y-13099667D02*
X14122316Y-13147286D01*
X14122316Y-13147286D02*
X14112793Y-13185381D01*
X14112793Y-13185381D02*
X14103269Y-13204428D01*
X14103269Y-13204428D02*
X14093745Y-13213952D01*
X14093745Y-13213952D02*
X14074697Y-13223476D01*
X14074697Y-13223476D02*
X14055650Y-13223476D01*
X14055650Y-13223476D02*
X14036602Y-13213952D01*
X14036602Y-13213952D02*
X14027078Y-13204428D01*
X14027078Y-13204428D02*
X14017554Y-13185381D01*
X14017554Y-13185381D02*
X14008031Y-13147286D01*
X14008031Y-13147286D02*
X14008031Y-13099667D01*
X14008031Y-13099667D02*
X14017554Y-13061571D01*
X14017554Y-13061571D02*
X14027078Y-13042524D01*
X14027078Y-13042524D02*
X14036602Y-13033000D01*
X14036602Y-13033000D02*
X14055650Y-13023476D01*
X14246126Y-13023476D02*
X14265174Y-13023476D01*
X14265174Y-13023476D02*
X14284221Y-13033000D01*
X14284221Y-13033000D02*
X14293745Y-13042524D01*
X14293745Y-13042524D02*
X14303269Y-13061571D01*
X14303269Y-13061571D02*
X14312793Y-13099667D01*
X14312793Y-13099667D02*
X14312793Y-13147286D01*
X14312793Y-13147286D02*
X14303269Y-13185381D01*
X14303269Y-13185381D02*
X14293745Y-13204428D01*
X14293745Y-13204428D02*
X14284221Y-13213952D01*
X14284221Y-13213952D02*
X14265174Y-13223476D01*
X14265174Y-13223476D02*
X14246126Y-13223476D01*
X14246126Y-13223476D02*
X14227078Y-13213952D01*
X14227078Y-13213952D02*
X14217554Y-13204428D01*
X14217554Y-13204428D02*
X14208031Y-13185381D01*
X14208031Y-13185381D02*
X14198507Y-13147286D01*
X14198507Y-13147286D02*
X14198507Y-13099667D01*
X14198507Y-13099667D02*
X14208031Y-13061571D01*
X14208031Y-13061571D02*
X14217554Y-13042524D01*
X14217554Y-13042524D02*
X14227078Y-13033000D01*
X14227078Y-13033000D02*
X14246126Y-13023476D01*
X14398507Y-13223476D02*
X14398507Y-13090143D01*
X14398507Y-13109190D02*
X14408031Y-13099667D01*
X14408031Y-13099667D02*
X14427078Y-13090143D01*
X14427078Y-13090143D02*
X14455650Y-13090143D01*
X14455650Y-13090143D02*
X14474697Y-13099667D01*
X14474697Y-13099667D02*
X14484221Y-13118714D01*
X14484221Y-13118714D02*
X14484221Y-13223476D01*
X14484221Y-13118714D02*
X14493745Y-13099667D01*
X14493745Y-13099667D02*
X14512793Y-13090143D01*
X14512793Y-13090143D02*
X14541364Y-13090143D01*
X14541364Y-13090143D02*
X14560412Y-13099667D01*
X14560412Y-13099667D02*
X14569935Y-13118714D01*
X14569935Y-13118714D02*
X14569935Y-13223476D01*
X14665174Y-13223476D02*
X14665174Y-13090143D01*
X14665174Y-13109190D02*
X14674697Y-13099667D01*
X14674697Y-13099667D02*
X14693745Y-13090143D01*
X14693745Y-13090143D02*
X14722316Y-13090143D01*
X14722316Y-13090143D02*
X14741364Y-13099667D01*
X14741364Y-13099667D02*
X14750888Y-13118714D01*
X14750888Y-13118714D02*
X14750888Y-13223476D01*
X14750888Y-13118714D02*
X14760412Y-13099667D01*
X14760412Y-13099667D02*
X14779459Y-13090143D01*
X14779459Y-13090143D02*
X14808031Y-13090143D01*
X14808031Y-13090143D02*
X14827078Y-13099667D01*
X14827078Y-13099667D02*
X14836602Y-13118714D01*
X14836602Y-13118714D02*
X14836602Y-13223476D01*
X15194697Y-13013952D02*
X15023269Y-13271095D01*
X15419459Y-13023476D02*
X15438507Y-13023476D01*
X15438507Y-13023476D02*
X15457555Y-13033000D01*
X15457555Y-13033000D02*
X15467078Y-13042524D01*
X15467078Y-13042524D02*
X15476602Y-13061571D01*
X15476602Y-13061571D02*
X15486126Y-13099667D01*
X15486126Y-13099667D02*
X15486126Y-13147286D01*
X15486126Y-13147286D02*
X15476602Y-13185381D01*
X15476602Y-13185381D02*
X15467078Y-13204428D01*
X15467078Y-13204428D02*
X15457555Y-13213952D01*
X15457555Y-13213952D02*
X15438507Y-13223476D01*
X15438507Y-13223476D02*
X15419459Y-13223476D01*
X15419459Y-13223476D02*
X15400412Y-13213952D01*
X15400412Y-13213952D02*
X15390888Y-13204428D01*
X15390888Y-13204428D02*
X15381364Y-13185381D01*
X15381364Y-13185381D02*
X15371840Y-13147286D01*
X15371840Y-13147286D02*
X15371840Y-13099667D01*
X15371840Y-13099667D02*
X15381364Y-13061571D01*
X15381364Y-13061571D02*
X15390888Y-13042524D01*
X15390888Y-13042524D02*
X15400412Y-13033000D01*
X15400412Y-13033000D02*
X15419459Y-13023476D01*
X15571840Y-13204428D02*
X15581364Y-13213952D01*
X15581364Y-13213952D02*
X15571840Y-13223476D01*
X15571840Y-13223476D02*
X15562316Y-13213952D01*
X15562316Y-13213952D02*
X15571840Y-13204428D01*
X15571840Y-13204428D02*
X15571840Y-13223476D01*
X15705174Y-13023476D02*
X15724221Y-13023476D01*
X15724221Y-13023476D02*
X15743269Y-13033000D01*
X15743269Y-13033000D02*
X15752793Y-13042524D01*
X15752793Y-13042524D02*
X15762316Y-13061571D01*
X15762316Y-13061571D02*
X15771840Y-13099667D01*
X15771840Y-13099667D02*
X15771840Y-13147286D01*
X15771840Y-13147286D02*
X15762316Y-13185381D01*
X15762316Y-13185381D02*
X15752793Y-13204428D01*
X15752793Y-13204428D02*
X15743269Y-13213952D01*
X15743269Y-13213952D02*
X15724221Y-13223476D01*
X15724221Y-13223476D02*
X15705174Y-13223476D01*
X15705174Y-13223476D02*
X15686126Y-13213952D01*
X15686126Y-13213952D02*
X15676602Y-13204428D01*
X15676602Y-13204428D02*
X15667078Y-13185381D01*
X15667078Y-13185381D02*
X15657555Y-13147286D01*
X15657555Y-13147286D02*
X15657555Y-13099667D01*
X15657555Y-13099667D02*
X15667078Y-13061571D01*
X15667078Y-13061571D02*
X15676602Y-13042524D01*
X15676602Y-13042524D02*
X15686126Y-13033000D01*
X15686126Y-13033000D02*
X15705174Y-13023476D01*
X15962316Y-13223476D02*
X15848031Y-13223476D01*
X15905174Y-13223476D02*
X15905174Y-13023476D01*
X15905174Y-13023476D02*
X15886126Y-13052048D01*
X15886126Y-13052048D02*
X15867078Y-13071095D01*
X15867078Y-13071095D02*
X15848031Y-13080619D01*
X16143269Y-13023476D02*
X16048031Y-13023476D01*
X16048031Y-13023476D02*
X16038507Y-13118714D01*
X16038507Y-13118714D02*
X16048031Y-13109190D01*
X16048031Y-13109190D02*
X16067078Y-13099667D01*
X16067078Y-13099667D02*
X16114697Y-13099667D01*
X16114697Y-13099667D02*
X16133745Y-13109190D01*
X16133745Y-13109190D02*
X16143269Y-13118714D01*
X16143269Y-13118714D02*
X16152793Y-13137762D01*
X16152793Y-13137762D02*
X16152793Y-13185381D01*
X16152793Y-13185381D02*
X16143269Y-13204428D01*
X16143269Y-13204428D02*
X16133745Y-13213952D01*
X16133745Y-13213952D02*
X16114697Y-13223476D01*
X16114697Y-13223476D02*
X16067078Y-13223476D01*
X16067078Y-13223476D02*
X16048031Y-13213952D01*
X16048031Y-13213952D02*
X16038507Y-13204428D01*
X16219459Y-13023476D02*
X16352793Y-13023476D01*
X16352793Y-13023476D02*
X16267078Y-13223476D01*
X16419459Y-13023476D02*
X16419459Y-13061571D01*
X16495650Y-13023476D02*
X16495650Y-13061571D01*
X16758507Y-13299667D02*
X16748983Y-13290143D01*
X16748983Y-13290143D02*
X16729936Y-13261571D01*
X16729936Y-13261571D02*
X16720412Y-13242524D01*
X16720412Y-13242524D02*
X16710888Y-13213952D01*
X16710888Y-13213952D02*
X16701364Y-13166333D01*
X16701364Y-13166333D02*
X16701364Y-13128238D01*
X16701364Y-13128238D02*
X16710888Y-13080619D01*
X16710888Y-13080619D02*
X16720412Y-13052048D01*
X16720412Y-13052048D02*
X16729936Y-13033000D01*
X16729936Y-13033000D02*
X16748983Y-13004428D01*
X16748983Y-13004428D02*
X16758507Y-12994905D01*
X16929936Y-13023476D02*
X16834698Y-13023476D01*
X16834698Y-13023476D02*
X16825174Y-13118714D01*
X16825174Y-13118714D02*
X16834698Y-13109190D01*
X16834698Y-13109190D02*
X16853745Y-13099667D01*
X16853745Y-13099667D02*
X16901364Y-13099667D01*
X16901364Y-13099667D02*
X16920412Y-13109190D01*
X16920412Y-13109190D02*
X16929936Y-13118714D01*
X16929936Y-13118714D02*
X16939459Y-13137762D01*
X16939459Y-13137762D02*
X16939459Y-13185381D01*
X16939459Y-13185381D02*
X16929936Y-13204428D01*
X16929936Y-13204428D02*
X16920412Y-13213952D01*
X16920412Y-13213952D02*
X16901364Y-13223476D01*
X16901364Y-13223476D02*
X16853745Y-13223476D01*
X16853745Y-13223476D02*
X16834698Y-13213952D01*
X16834698Y-13213952D02*
X16825174Y-13204428D01*
X17145174Y-13223476D02*
X17145174Y-13023476D01*
X17230888Y-13223476D02*
X17230888Y-13118714D01*
X17230888Y-13118714D02*
X17221364Y-13099667D01*
X17221364Y-13099667D02*
X17202317Y-13090143D01*
X17202317Y-13090143D02*
X17173745Y-13090143D01*
X17173745Y-13090143D02*
X17154698Y-13099667D01*
X17154698Y-13099667D02*
X17145174Y-13109190D01*
X17354698Y-13223476D02*
X17335650Y-13213952D01*
X17335650Y-13213952D02*
X17326126Y-13204428D01*
X17326126Y-13204428D02*
X17316602Y-13185381D01*
X17316602Y-13185381D02*
X17316602Y-13128238D01*
X17316602Y-13128238D02*
X17326126Y-13109190D01*
X17326126Y-13109190D02*
X17335650Y-13099667D01*
X17335650Y-13099667D02*
X17354698Y-13090143D01*
X17354698Y-13090143D02*
X17383269Y-13090143D01*
X17383269Y-13090143D02*
X17402317Y-13099667D01*
X17402317Y-13099667D02*
X17411840Y-13109190D01*
X17411840Y-13109190D02*
X17421364Y-13128238D01*
X17421364Y-13128238D02*
X17421364Y-13185381D01*
X17421364Y-13185381D02*
X17411840Y-13204428D01*
X17411840Y-13204428D02*
X17402317Y-13213952D01*
X17402317Y-13213952D02*
X17383269Y-13223476D01*
X17383269Y-13223476D02*
X17354698Y-13223476D01*
X17535650Y-13223476D02*
X17516602Y-13213952D01*
X17516602Y-13213952D02*
X17507079Y-13194905D01*
X17507079Y-13194905D02*
X17507079Y-13023476D01*
X17688031Y-13213952D02*
X17668983Y-13223476D01*
X17668983Y-13223476D02*
X17630888Y-13223476D01*
X17630888Y-13223476D02*
X17611840Y-13213952D01*
X17611840Y-13213952D02*
X17602317Y-13194905D01*
X17602317Y-13194905D02*
X17602317Y-13118714D01*
X17602317Y-13118714D02*
X17611840Y-13099667D01*
X17611840Y-13099667D02*
X17630888Y-13090143D01*
X17630888Y-13090143D02*
X17668983Y-13090143D01*
X17668983Y-13090143D02*
X17688031Y-13099667D01*
X17688031Y-13099667D02*
X17697555Y-13118714D01*
X17697555Y-13118714D02*
X17697555Y-13137762D01*
X17697555Y-13137762D02*
X17602317Y-13156809D01*
X17773745Y-13213952D02*
X17792793Y-13223476D01*
X17792793Y-13223476D02*
X17830888Y-13223476D01*
X17830888Y-13223476D02*
X17849936Y-13213952D01*
X17849936Y-13213952D02*
X17859460Y-13194905D01*
X17859460Y-13194905D02*
X17859460Y-13185381D01*
X17859460Y-13185381D02*
X17849936Y-13166333D01*
X17849936Y-13166333D02*
X17830888Y-13156809D01*
X17830888Y-13156809D02*
X17802317Y-13156809D01*
X17802317Y-13156809D02*
X17783269Y-13147286D01*
X17783269Y-13147286D02*
X17773745Y-13128238D01*
X17773745Y-13128238D02*
X17773745Y-13118714D01*
X17773745Y-13118714D02*
X17783269Y-13099667D01*
X17783269Y-13099667D02*
X17802317Y-13090143D01*
X17802317Y-13090143D02*
X17830888Y-13090143D01*
X17830888Y-13090143D02*
X17849936Y-13099667D01*
X17926126Y-13299667D02*
X17935650Y-13290143D01*
X17935650Y-13290143D02*
X17954698Y-13261571D01*
X17954698Y-13261571D02*
X17964221Y-13242524D01*
X17964221Y-13242524D02*
X17973745Y-13213952D01*
X17973745Y-13213952D02*
X17983269Y-13166333D01*
X17983269Y-13166333D02*
X17983269Y-13128238D01*
X17983269Y-13128238D02*
X17973745Y-13080619D01*
X17973745Y-13080619D02*
X17964221Y-13052048D01*
X17964221Y-13052048D02*
X17954698Y-13033000D01*
X17954698Y-13033000D02*
X17935650Y-13004428D01*
X17935650Y-13004428D02*
X17926126Y-12994905D01*
D12*
X13293745Y-13414000D02*
G75*
G03*
X13293745Y-13414000I-20000J0D01*
G01*
D11*
X13579459Y-13287476D02*
X13598507Y-13287476D01*
X13598507Y-13287476D02*
X13617554Y-13297000D01*
X13617554Y-13297000D02*
X13627078Y-13306524D01*
X13627078Y-13306524D02*
X13636602Y-13325571D01*
X13636602Y-13325571D02*
X13646126Y-13363667D01*
X13646126Y-13363667D02*
X13646126Y-13411286D01*
X13646126Y-13411286D02*
X13636602Y-13449381D01*
X13636602Y-13449381D02*
X13627078Y-13468428D01*
X13627078Y-13468428D02*
X13617554Y-13477952D01*
X13617554Y-13477952D02*
X13598507Y-13487476D01*
X13598507Y-13487476D02*
X13579459Y-13487476D01*
X13579459Y-13487476D02*
X13560412Y-13477952D01*
X13560412Y-13477952D02*
X13550888Y-13468428D01*
X13550888Y-13468428D02*
X13541364Y-13449381D01*
X13541364Y-13449381D02*
X13531840Y-13411286D01*
X13531840Y-13411286D02*
X13531840Y-13363667D01*
X13531840Y-13363667D02*
X13541364Y-13325571D01*
X13541364Y-13325571D02*
X13550888Y-13306524D01*
X13550888Y-13306524D02*
X13560412Y-13297000D01*
X13560412Y-13297000D02*
X13579459Y-13287476D01*
X13731840Y-13468428D02*
X13741364Y-13477952D01*
X13741364Y-13477952D02*
X13731840Y-13487476D01*
X13731840Y-13487476D02*
X13722316Y-13477952D01*
X13722316Y-13477952D02*
X13731840Y-13468428D01*
X13731840Y-13468428D02*
X13731840Y-13487476D01*
X13912793Y-13354143D02*
X13912793Y-13487476D01*
X13865173Y-13277952D02*
X13817554Y-13420809D01*
X13817554Y-13420809D02*
X13941364Y-13420809D01*
X14055650Y-13287476D02*
X14074697Y-13287476D01*
X14074697Y-13287476D02*
X14093745Y-13297000D01*
X14093745Y-13297000D02*
X14103269Y-13306524D01*
X14103269Y-13306524D02*
X14112793Y-13325571D01*
X14112793Y-13325571D02*
X14122316Y-13363667D01*
X14122316Y-13363667D02*
X14122316Y-13411286D01*
X14122316Y-13411286D02*
X14112793Y-13449381D01*
X14112793Y-13449381D02*
X14103269Y-13468428D01*
X14103269Y-13468428D02*
X14093745Y-13477952D01*
X14093745Y-13477952D02*
X14074697Y-13487476D01*
X14074697Y-13487476D02*
X14055650Y-13487476D01*
X14055650Y-13487476D02*
X14036602Y-13477952D01*
X14036602Y-13477952D02*
X14027078Y-13468428D01*
X14027078Y-13468428D02*
X14017554Y-13449381D01*
X14017554Y-13449381D02*
X14008031Y-13411286D01*
X14008031Y-13411286D02*
X14008031Y-13363667D01*
X14008031Y-13363667D02*
X14017554Y-13325571D01*
X14017554Y-13325571D02*
X14027078Y-13306524D01*
X14027078Y-13306524D02*
X14036602Y-13297000D01*
X14036602Y-13297000D02*
X14055650Y-13287476D01*
X14246126Y-13287476D02*
X14265174Y-13287476D01*
X14265174Y-13287476D02*
X14284221Y-13297000D01*
X14284221Y-13297000D02*
X14293745Y-13306524D01*
X14293745Y-13306524D02*
X14303269Y-13325571D01*
X14303269Y-13325571D02*
X14312793Y-13363667D01*
X14312793Y-13363667D02*
X14312793Y-13411286D01*
X14312793Y-13411286D02*
X14303269Y-13449381D01*
X14303269Y-13449381D02*
X14293745Y-13468428D01*
X14293745Y-13468428D02*
X14284221Y-13477952D01*
X14284221Y-13477952D02*
X14265174Y-13487476D01*
X14265174Y-13487476D02*
X14246126Y-13487476D01*
X14246126Y-13487476D02*
X14227078Y-13477952D01*
X14227078Y-13477952D02*
X14217554Y-13468428D01*
X14217554Y-13468428D02*
X14208031Y-13449381D01*
X14208031Y-13449381D02*
X14198507Y-13411286D01*
X14198507Y-13411286D02*
X14198507Y-13363667D01*
X14198507Y-13363667D02*
X14208031Y-13325571D01*
X14208031Y-13325571D02*
X14217554Y-13306524D01*
X14217554Y-13306524D02*
X14227078Y-13297000D01*
X14227078Y-13297000D02*
X14246126Y-13287476D01*
X14398507Y-13487476D02*
X14398507Y-13354143D01*
X14398507Y-13373190D02*
X14408031Y-13363667D01*
X14408031Y-13363667D02*
X14427078Y-13354143D01*
X14427078Y-13354143D02*
X14455650Y-13354143D01*
X14455650Y-13354143D02*
X14474697Y-13363667D01*
X14474697Y-13363667D02*
X14484221Y-13382714D01*
X14484221Y-13382714D02*
X14484221Y-13487476D01*
X14484221Y-13382714D02*
X14493745Y-13363667D01*
X14493745Y-13363667D02*
X14512793Y-13354143D01*
X14512793Y-13354143D02*
X14541364Y-13354143D01*
X14541364Y-13354143D02*
X14560412Y-13363667D01*
X14560412Y-13363667D02*
X14569935Y-13382714D01*
X14569935Y-13382714D02*
X14569935Y-13487476D01*
X14665174Y-13487476D02*
X14665174Y-13354143D01*
X14665174Y-13373190D02*
X14674697Y-13363667D01*
X14674697Y-13363667D02*
X14693745Y-13354143D01*
X14693745Y-13354143D02*
X14722316Y-13354143D01*
X14722316Y-13354143D02*
X14741364Y-13363667D01*
X14741364Y-13363667D02*
X14750888Y-13382714D01*
X14750888Y-13382714D02*
X14750888Y-13487476D01*
X14750888Y-13382714D02*
X14760412Y-13363667D01*
X14760412Y-13363667D02*
X14779459Y-13354143D01*
X14779459Y-13354143D02*
X14808031Y-13354143D01*
X14808031Y-13354143D02*
X14827078Y-13363667D01*
X14827078Y-13363667D02*
X14836602Y-13382714D01*
X14836602Y-13382714D02*
X14836602Y-13487476D01*
X15194697Y-13277952D02*
X15023269Y-13535095D01*
X15419459Y-13287476D02*
X15438507Y-13287476D01*
X15438507Y-13287476D02*
X15457555Y-13297000D01*
X15457555Y-13297000D02*
X15467078Y-13306524D01*
X15467078Y-13306524D02*
X15476602Y-13325571D01*
X15476602Y-13325571D02*
X15486126Y-13363667D01*
X15486126Y-13363667D02*
X15486126Y-13411286D01*
X15486126Y-13411286D02*
X15476602Y-13449381D01*
X15476602Y-13449381D02*
X15467078Y-13468428D01*
X15467078Y-13468428D02*
X15457555Y-13477952D01*
X15457555Y-13477952D02*
X15438507Y-13487476D01*
X15438507Y-13487476D02*
X15419459Y-13487476D01*
X15419459Y-13487476D02*
X15400412Y-13477952D01*
X15400412Y-13477952D02*
X15390888Y-13468428D01*
X15390888Y-13468428D02*
X15381364Y-13449381D01*
X15381364Y-13449381D02*
X15371840Y-13411286D01*
X15371840Y-13411286D02*
X15371840Y-13363667D01*
X15371840Y-13363667D02*
X15381364Y-13325571D01*
X15381364Y-13325571D02*
X15390888Y-13306524D01*
X15390888Y-13306524D02*
X15400412Y-13297000D01*
X15400412Y-13297000D02*
X15419459Y-13287476D01*
X15571840Y-13468428D02*
X15581364Y-13477952D01*
X15581364Y-13477952D02*
X15571840Y-13487476D01*
X15571840Y-13487476D02*
X15562316Y-13477952D01*
X15562316Y-13477952D02*
X15571840Y-13468428D01*
X15571840Y-13468428D02*
X15571840Y-13487476D01*
X15705174Y-13287476D02*
X15724221Y-13287476D01*
X15724221Y-13287476D02*
X15743269Y-13297000D01*
X15743269Y-13297000D02*
X15752793Y-13306524D01*
X15752793Y-13306524D02*
X15762316Y-13325571D01*
X15762316Y-13325571D02*
X15771840Y-13363667D01*
X15771840Y-13363667D02*
X15771840Y-13411286D01*
X15771840Y-13411286D02*
X15762316Y-13449381D01*
X15762316Y-13449381D02*
X15752793Y-13468428D01*
X15752793Y-13468428D02*
X15743269Y-13477952D01*
X15743269Y-13477952D02*
X15724221Y-13487476D01*
X15724221Y-13487476D02*
X15705174Y-13487476D01*
X15705174Y-13487476D02*
X15686126Y-13477952D01*
X15686126Y-13477952D02*
X15676602Y-13468428D01*
X15676602Y-13468428D02*
X15667078Y-13449381D01*
X15667078Y-13449381D02*
X15657555Y-13411286D01*
X15657555Y-13411286D02*
X15657555Y-13363667D01*
X15657555Y-13363667D02*
X15667078Y-13325571D01*
X15667078Y-13325571D02*
X15676602Y-13306524D01*
X15676602Y-13306524D02*
X15686126Y-13297000D01*
X15686126Y-13297000D02*
X15705174Y-13287476D01*
X15962316Y-13487476D02*
X15848031Y-13487476D01*
X15905174Y-13487476D02*
X15905174Y-13287476D01*
X15905174Y-13287476D02*
X15886126Y-13316048D01*
X15886126Y-13316048D02*
X15867078Y-13335095D01*
X15867078Y-13335095D02*
X15848031Y-13344619D01*
X16143269Y-13287476D02*
X16048031Y-13287476D01*
X16048031Y-13287476D02*
X16038507Y-13382714D01*
X16038507Y-13382714D02*
X16048031Y-13373190D01*
X16048031Y-13373190D02*
X16067078Y-13363667D01*
X16067078Y-13363667D02*
X16114697Y-13363667D01*
X16114697Y-13363667D02*
X16133745Y-13373190D01*
X16133745Y-13373190D02*
X16143269Y-13382714D01*
X16143269Y-13382714D02*
X16152793Y-13401762D01*
X16152793Y-13401762D02*
X16152793Y-13449381D01*
X16152793Y-13449381D02*
X16143269Y-13468428D01*
X16143269Y-13468428D02*
X16133745Y-13477952D01*
X16133745Y-13477952D02*
X16114697Y-13487476D01*
X16114697Y-13487476D02*
X16067078Y-13487476D01*
X16067078Y-13487476D02*
X16048031Y-13477952D01*
X16048031Y-13477952D02*
X16038507Y-13468428D01*
X16219459Y-13287476D02*
X16352793Y-13287476D01*
X16352793Y-13287476D02*
X16267078Y-13487476D01*
X16419459Y-13287476D02*
X16419459Y-13325571D01*
X16495650Y-13287476D02*
X16495650Y-13325571D01*
X16758507Y-13563667D02*
X16748983Y-13554143D01*
X16748983Y-13554143D02*
X16729936Y-13525571D01*
X16729936Y-13525571D02*
X16720412Y-13506524D01*
X16720412Y-13506524D02*
X16710888Y-13477952D01*
X16710888Y-13477952D02*
X16701364Y-13430333D01*
X16701364Y-13430333D02*
X16701364Y-13392238D01*
X16701364Y-13392238D02*
X16710888Y-13344619D01*
X16710888Y-13344619D02*
X16720412Y-13316048D01*
X16720412Y-13316048D02*
X16729936Y-13297000D01*
X16729936Y-13297000D02*
X16748983Y-13268428D01*
X16748983Y-13268428D02*
X16758507Y-13258905D01*
X16815650Y-13287476D02*
X16939459Y-13287476D01*
X16939459Y-13287476D02*
X16872793Y-13363667D01*
X16872793Y-13363667D02*
X16901364Y-13363667D01*
X16901364Y-13363667D02*
X16920412Y-13373190D01*
X16920412Y-13373190D02*
X16929936Y-13382714D01*
X16929936Y-13382714D02*
X16939459Y-13401762D01*
X16939459Y-13401762D02*
X16939459Y-13449381D01*
X16939459Y-13449381D02*
X16929936Y-13468428D01*
X16929936Y-13468428D02*
X16920412Y-13477952D01*
X16920412Y-13477952D02*
X16901364Y-13487476D01*
X16901364Y-13487476D02*
X16844221Y-13487476D01*
X16844221Y-13487476D02*
X16825174Y-13477952D01*
X16825174Y-13477952D02*
X16815650Y-13468428D01*
X17015650Y-13306524D02*
X17025174Y-13297000D01*
X17025174Y-13297000D02*
X17044221Y-13287476D01*
X17044221Y-13287476D02*
X17091840Y-13287476D01*
X17091840Y-13287476D02*
X17110888Y-13297000D01*
X17110888Y-13297000D02*
X17120412Y-13306524D01*
X17120412Y-13306524D02*
X17129936Y-13325571D01*
X17129936Y-13325571D02*
X17129936Y-13344619D01*
X17129936Y-13344619D02*
X17120412Y-13373190D01*
X17120412Y-13373190D02*
X17006126Y-13487476D01*
X17006126Y-13487476D02*
X17129936Y-13487476D01*
X17335650Y-13487476D02*
X17335650Y-13287476D01*
X17421364Y-13487476D02*
X17421364Y-13382714D01*
X17421364Y-13382714D02*
X17411840Y-13363667D01*
X17411840Y-13363667D02*
X17392793Y-13354143D01*
X17392793Y-13354143D02*
X17364221Y-13354143D01*
X17364221Y-13354143D02*
X17345174Y-13363667D01*
X17345174Y-13363667D02*
X17335650Y-13373190D01*
X17545174Y-13487476D02*
X17526126Y-13477952D01*
X17526126Y-13477952D02*
X17516602Y-13468428D01*
X17516602Y-13468428D02*
X17507079Y-13449381D01*
X17507079Y-13449381D02*
X17507079Y-13392238D01*
X17507079Y-13392238D02*
X17516602Y-13373190D01*
X17516602Y-13373190D02*
X17526126Y-13363667D01*
X17526126Y-13363667D02*
X17545174Y-13354143D01*
X17545174Y-13354143D02*
X17573745Y-13354143D01*
X17573745Y-13354143D02*
X17592793Y-13363667D01*
X17592793Y-13363667D02*
X17602317Y-13373190D01*
X17602317Y-13373190D02*
X17611840Y-13392238D01*
X17611840Y-13392238D02*
X17611840Y-13449381D01*
X17611840Y-13449381D02*
X17602317Y-13468428D01*
X17602317Y-13468428D02*
X17592793Y-13477952D01*
X17592793Y-13477952D02*
X17573745Y-13487476D01*
X17573745Y-13487476D02*
X17545174Y-13487476D01*
X17726126Y-13487476D02*
X17707079Y-13477952D01*
X17707079Y-13477952D02*
X17697555Y-13458905D01*
X17697555Y-13458905D02*
X17697555Y-13287476D01*
X17878507Y-13477952D02*
X17859460Y-13487476D01*
X17859460Y-13487476D02*
X17821364Y-13487476D01*
X17821364Y-13487476D02*
X17802317Y-13477952D01*
X17802317Y-13477952D02*
X17792793Y-13458905D01*
X17792793Y-13458905D02*
X17792793Y-13382714D01*
X17792793Y-13382714D02*
X17802317Y-13363667D01*
X17802317Y-13363667D02*
X17821364Y-13354143D01*
X17821364Y-13354143D02*
X17859460Y-13354143D01*
X17859460Y-13354143D02*
X17878507Y-13363667D01*
X17878507Y-13363667D02*
X17888031Y-13382714D01*
X17888031Y-13382714D02*
X17888031Y-13401762D01*
X17888031Y-13401762D02*
X17792793Y-13420809D01*
X17964221Y-13477952D02*
X17983269Y-13487476D01*
X17983269Y-13487476D02*
X18021364Y-13487476D01*
X18021364Y-13487476D02*
X18040412Y-13477952D01*
X18040412Y-13477952D02*
X18049936Y-13458905D01*
X18049936Y-13458905D02*
X18049936Y-13449381D01*
X18049936Y-13449381D02*
X18040412Y-13430333D01*
X18040412Y-13430333D02*
X18021364Y-13420809D01*
X18021364Y-13420809D02*
X17992793Y-13420809D01*
X17992793Y-13420809D02*
X17973745Y-13411286D01*
X17973745Y-13411286D02*
X17964221Y-13392238D01*
X17964221Y-13392238D02*
X17964221Y-13382714D01*
X17964221Y-13382714D02*
X17973745Y-13363667D01*
X17973745Y-13363667D02*
X17992793Y-13354143D01*
X17992793Y-13354143D02*
X18021364Y-13354143D01*
X18021364Y-13354143D02*
X18040412Y-13363667D01*
X18116602Y-13563667D02*
X18126126Y-13554143D01*
X18126126Y-13554143D02*
X18145174Y-13525571D01*
X18145174Y-13525571D02*
X18154698Y-13506524D01*
X18154698Y-13506524D02*
X18164221Y-13477952D01*
X18164221Y-13477952D02*
X18173745Y-13430333D01*
X18173745Y-13430333D02*
X18173745Y-13392238D01*
X18173745Y-13392238D02*
X18164221Y-13344619D01*
X18164221Y-13344619D02*
X18154698Y-13316048D01*
X18154698Y-13316048D02*
X18145174Y-13297000D01*
X18145174Y-13297000D02*
X18126126Y-13268428D01*
X18126126Y-13268428D02*
X18116602Y-13258905D01*
D10*
X13243745Y-13628000D02*
X13243745Y-13728000D01*
X13193745Y-13678000D02*
X13293745Y-13678000D01*
D11*
X13646126Y-13751476D02*
X13531840Y-13751476D01*
X13588983Y-13751476D02*
X13588983Y-13551476D01*
X13588983Y-13551476D02*
X13569935Y-13580048D01*
X13569935Y-13580048D02*
X13550888Y-13599095D01*
X13550888Y-13599095D02*
X13531840Y-13608619D01*
X13731840Y-13732428D02*
X13741364Y-13741952D01*
X13741364Y-13741952D02*
X13731840Y-13751476D01*
X13731840Y-13751476D02*
X13722316Y-13741952D01*
X13722316Y-13741952D02*
X13731840Y-13732428D01*
X13731840Y-13732428D02*
X13731840Y-13751476D01*
X13865173Y-13551476D02*
X13884221Y-13551476D01*
X13884221Y-13551476D02*
X13903269Y-13561000D01*
X13903269Y-13561000D02*
X13912793Y-13570524D01*
X13912793Y-13570524D02*
X13922316Y-13589571D01*
X13922316Y-13589571D02*
X13931840Y-13627667D01*
X13931840Y-13627667D02*
X13931840Y-13675286D01*
X13931840Y-13675286D02*
X13922316Y-13713381D01*
X13922316Y-13713381D02*
X13912793Y-13732428D01*
X13912793Y-13732428D02*
X13903269Y-13741952D01*
X13903269Y-13741952D02*
X13884221Y-13751476D01*
X13884221Y-13751476D02*
X13865173Y-13751476D01*
X13865173Y-13751476D02*
X13846126Y-13741952D01*
X13846126Y-13741952D02*
X13836602Y-13732428D01*
X13836602Y-13732428D02*
X13827078Y-13713381D01*
X13827078Y-13713381D02*
X13817554Y-13675286D01*
X13817554Y-13675286D02*
X13817554Y-13627667D01*
X13817554Y-13627667D02*
X13827078Y-13589571D01*
X13827078Y-13589571D02*
X13836602Y-13570524D01*
X13836602Y-13570524D02*
X13846126Y-13561000D01*
X13846126Y-13561000D02*
X13865173Y-13551476D01*
X14055650Y-13551476D02*
X14074697Y-13551476D01*
X14074697Y-13551476D02*
X14093745Y-13561000D01*
X14093745Y-13561000D02*
X14103269Y-13570524D01*
X14103269Y-13570524D02*
X14112793Y-13589571D01*
X14112793Y-13589571D02*
X14122316Y-13627667D01*
X14122316Y-13627667D02*
X14122316Y-13675286D01*
X14122316Y-13675286D02*
X14112793Y-13713381D01*
X14112793Y-13713381D02*
X14103269Y-13732428D01*
X14103269Y-13732428D02*
X14093745Y-13741952D01*
X14093745Y-13741952D02*
X14074697Y-13751476D01*
X14074697Y-13751476D02*
X14055650Y-13751476D01*
X14055650Y-13751476D02*
X14036602Y-13741952D01*
X14036602Y-13741952D02*
X14027078Y-13732428D01*
X14027078Y-13732428D02*
X14017554Y-13713381D01*
X14017554Y-13713381D02*
X14008031Y-13675286D01*
X14008031Y-13675286D02*
X14008031Y-13627667D01*
X14008031Y-13627667D02*
X14017554Y-13589571D01*
X14017554Y-13589571D02*
X14027078Y-13570524D01*
X14027078Y-13570524D02*
X14036602Y-13561000D01*
X14036602Y-13561000D02*
X14055650Y-13551476D01*
X14246126Y-13551476D02*
X14265174Y-13551476D01*
X14265174Y-13551476D02*
X14284221Y-13561000D01*
X14284221Y-13561000D02*
X14293745Y-13570524D01*
X14293745Y-13570524D02*
X14303269Y-13589571D01*
X14303269Y-13589571D02*
X14312793Y-13627667D01*
X14312793Y-13627667D02*
X14312793Y-13675286D01*
X14312793Y-13675286D02*
X14303269Y-13713381D01*
X14303269Y-13713381D02*
X14293745Y-13732428D01*
X14293745Y-13732428D02*
X14284221Y-13741952D01*
X14284221Y-13741952D02*
X14265174Y-13751476D01*
X14265174Y-13751476D02*
X14246126Y-13751476D01*
X14246126Y-13751476D02*
X14227078Y-13741952D01*
X14227078Y-13741952D02*
X14217554Y-13732428D01*
X14217554Y-13732428D02*
X14208031Y-13713381D01*
X14208031Y-13713381D02*
X14198507Y-13675286D01*
X14198507Y-13675286D02*
X14198507Y-13627667D01*
X14198507Y-13627667D02*
X14208031Y-13589571D01*
X14208031Y-13589571D02*
X14217554Y-13570524D01*
X14217554Y-13570524D02*
X14227078Y-13561000D01*
X14227078Y-13561000D02*
X14246126Y-13551476D01*
X14398507Y-13751476D02*
X14398507Y-13618143D01*
X14398507Y-13637190D02*
X14408031Y-13627667D01*
X14408031Y-13627667D02*
X14427078Y-13618143D01*
X14427078Y-13618143D02*
X14455650Y-13618143D01*
X14455650Y-13618143D02*
X14474697Y-13627667D01*
X14474697Y-13627667D02*
X14484221Y-13646714D01*
X14484221Y-13646714D02*
X14484221Y-13751476D01*
X14484221Y-13646714D02*
X14493745Y-13627667D01*
X14493745Y-13627667D02*
X14512793Y-13618143D01*
X14512793Y-13618143D02*
X14541364Y-13618143D01*
X14541364Y-13618143D02*
X14560412Y-13627667D01*
X14560412Y-13627667D02*
X14569935Y-13646714D01*
X14569935Y-13646714D02*
X14569935Y-13751476D01*
X14665174Y-13751476D02*
X14665174Y-13618143D01*
X14665174Y-13637190D02*
X14674697Y-13627667D01*
X14674697Y-13627667D02*
X14693745Y-13618143D01*
X14693745Y-13618143D02*
X14722316Y-13618143D01*
X14722316Y-13618143D02*
X14741364Y-13627667D01*
X14741364Y-13627667D02*
X14750888Y-13646714D01*
X14750888Y-13646714D02*
X14750888Y-13751476D01*
X14750888Y-13646714D02*
X14760412Y-13627667D01*
X14760412Y-13627667D02*
X14779459Y-13618143D01*
X14779459Y-13618143D02*
X14808031Y-13618143D01*
X14808031Y-13618143D02*
X14827078Y-13627667D01*
X14827078Y-13627667D02*
X14836602Y-13646714D01*
X14836602Y-13646714D02*
X14836602Y-13751476D01*
X15194697Y-13541952D02*
X15023269Y-13799095D01*
X15419459Y-13551476D02*
X15438507Y-13551476D01*
X15438507Y-13551476D02*
X15457555Y-13561000D01*
X15457555Y-13561000D02*
X15467078Y-13570524D01*
X15467078Y-13570524D02*
X15476602Y-13589571D01*
X15476602Y-13589571D02*
X15486126Y-13627667D01*
X15486126Y-13627667D02*
X15486126Y-13675286D01*
X15486126Y-13675286D02*
X15476602Y-13713381D01*
X15476602Y-13713381D02*
X15467078Y-13732428D01*
X15467078Y-13732428D02*
X15457555Y-13741952D01*
X15457555Y-13741952D02*
X15438507Y-13751476D01*
X15438507Y-13751476D02*
X15419459Y-13751476D01*
X15419459Y-13751476D02*
X15400412Y-13741952D01*
X15400412Y-13741952D02*
X15390888Y-13732428D01*
X15390888Y-13732428D02*
X15381364Y-13713381D01*
X15381364Y-13713381D02*
X15371840Y-13675286D01*
X15371840Y-13675286D02*
X15371840Y-13627667D01*
X15371840Y-13627667D02*
X15381364Y-13589571D01*
X15381364Y-13589571D02*
X15390888Y-13570524D01*
X15390888Y-13570524D02*
X15400412Y-13561000D01*
X15400412Y-13561000D02*
X15419459Y-13551476D01*
X15571840Y-13732428D02*
X15581364Y-13741952D01*
X15581364Y-13741952D02*
X15571840Y-13751476D01*
X15571840Y-13751476D02*
X15562316Y-13741952D01*
X15562316Y-13741952D02*
X15571840Y-13732428D01*
X15571840Y-13732428D02*
X15571840Y-13751476D01*
X15705174Y-13551476D02*
X15724221Y-13551476D01*
X15724221Y-13551476D02*
X15743269Y-13561000D01*
X15743269Y-13561000D02*
X15752793Y-13570524D01*
X15752793Y-13570524D02*
X15762316Y-13589571D01*
X15762316Y-13589571D02*
X15771840Y-13627667D01*
X15771840Y-13627667D02*
X15771840Y-13675286D01*
X15771840Y-13675286D02*
X15762316Y-13713381D01*
X15762316Y-13713381D02*
X15752793Y-13732428D01*
X15752793Y-13732428D02*
X15743269Y-13741952D01*
X15743269Y-13741952D02*
X15724221Y-13751476D01*
X15724221Y-13751476D02*
X15705174Y-13751476D01*
X15705174Y-13751476D02*
X15686126Y-13741952D01*
X15686126Y-13741952D02*
X15676602Y-13732428D01*
X15676602Y-13732428D02*
X15667078Y-13713381D01*
X15667078Y-13713381D02*
X15657555Y-13675286D01*
X15657555Y-13675286D02*
X15657555Y-13627667D01*
X15657555Y-13627667D02*
X15667078Y-13589571D01*
X15667078Y-13589571D02*
X15676602Y-13570524D01*
X15676602Y-13570524D02*
X15686126Y-13561000D01*
X15686126Y-13561000D02*
X15705174Y-13551476D01*
X15838507Y-13551476D02*
X15962316Y-13551476D01*
X15962316Y-13551476D02*
X15895650Y-13627667D01*
X15895650Y-13627667D02*
X15924221Y-13627667D01*
X15924221Y-13627667D02*
X15943269Y-13637190D01*
X15943269Y-13637190D02*
X15952793Y-13646714D01*
X15952793Y-13646714D02*
X15962316Y-13665762D01*
X15962316Y-13665762D02*
X15962316Y-13713381D01*
X15962316Y-13713381D02*
X15952793Y-13732428D01*
X15952793Y-13732428D02*
X15943269Y-13741952D01*
X15943269Y-13741952D02*
X15924221Y-13751476D01*
X15924221Y-13751476D02*
X15867078Y-13751476D01*
X15867078Y-13751476D02*
X15848031Y-13741952D01*
X15848031Y-13741952D02*
X15838507Y-13732428D01*
X16057555Y-13751476D02*
X16095650Y-13751476D01*
X16095650Y-13751476D02*
X16114697Y-13741952D01*
X16114697Y-13741952D02*
X16124221Y-13732428D01*
X16124221Y-13732428D02*
X16143269Y-13703857D01*
X16143269Y-13703857D02*
X16152793Y-13665762D01*
X16152793Y-13665762D02*
X16152793Y-13589571D01*
X16152793Y-13589571D02*
X16143269Y-13570524D01*
X16143269Y-13570524D02*
X16133745Y-13561000D01*
X16133745Y-13561000D02*
X16114697Y-13551476D01*
X16114697Y-13551476D02*
X16076602Y-13551476D01*
X16076602Y-13551476D02*
X16057555Y-13561000D01*
X16057555Y-13561000D02*
X16048031Y-13570524D01*
X16048031Y-13570524D02*
X16038507Y-13589571D01*
X16038507Y-13589571D02*
X16038507Y-13637190D01*
X16038507Y-13637190D02*
X16048031Y-13656238D01*
X16048031Y-13656238D02*
X16057555Y-13665762D01*
X16057555Y-13665762D02*
X16076602Y-13675286D01*
X16076602Y-13675286D02*
X16114697Y-13675286D01*
X16114697Y-13675286D02*
X16133745Y-13665762D01*
X16133745Y-13665762D02*
X16143269Y-13656238D01*
X16143269Y-13656238D02*
X16152793Y-13637190D01*
X16324221Y-13618143D02*
X16324221Y-13751476D01*
X16276602Y-13541952D02*
X16228983Y-13684809D01*
X16228983Y-13684809D02*
X16352793Y-13684809D01*
X16419459Y-13551476D02*
X16419459Y-13589571D01*
X16495650Y-13551476D02*
X16495650Y-13589571D01*
X16758507Y-13827667D02*
X16748983Y-13818143D01*
X16748983Y-13818143D02*
X16729936Y-13789571D01*
X16729936Y-13789571D02*
X16720412Y-13770524D01*
X16720412Y-13770524D02*
X16710888Y-13741952D01*
X16710888Y-13741952D02*
X16701364Y-13694333D01*
X16701364Y-13694333D02*
X16701364Y-13656238D01*
X16701364Y-13656238D02*
X16710888Y-13608619D01*
X16710888Y-13608619D02*
X16720412Y-13580048D01*
X16720412Y-13580048D02*
X16729936Y-13561000D01*
X16729936Y-13561000D02*
X16748983Y-13532428D01*
X16748983Y-13532428D02*
X16758507Y-13522905D01*
X16825174Y-13570524D02*
X16834698Y-13561000D01*
X16834698Y-13561000D02*
X16853745Y-13551476D01*
X16853745Y-13551476D02*
X16901364Y-13551476D01*
X16901364Y-13551476D02*
X16920412Y-13561000D01*
X16920412Y-13561000D02*
X16929936Y-13570524D01*
X16929936Y-13570524D02*
X16939459Y-13589571D01*
X16939459Y-13589571D02*
X16939459Y-13608619D01*
X16939459Y-13608619D02*
X16929936Y-13637190D01*
X16929936Y-13637190D02*
X16815650Y-13751476D01*
X16815650Y-13751476D02*
X16939459Y-13751476D01*
X17129936Y-13751476D02*
X17015650Y-13751476D01*
X17072793Y-13751476D02*
X17072793Y-13551476D01*
X17072793Y-13551476D02*
X17053745Y-13580048D01*
X17053745Y-13580048D02*
X17034698Y-13599095D01*
X17034698Y-13599095D02*
X17015650Y-13608619D01*
X17335650Y-13751476D02*
X17335650Y-13551476D01*
X17421364Y-13751476D02*
X17421364Y-13646714D01*
X17421364Y-13646714D02*
X17411840Y-13627667D01*
X17411840Y-13627667D02*
X17392793Y-13618143D01*
X17392793Y-13618143D02*
X17364221Y-13618143D01*
X17364221Y-13618143D02*
X17345174Y-13627667D01*
X17345174Y-13627667D02*
X17335650Y-13637190D01*
X17545174Y-13751476D02*
X17526126Y-13741952D01*
X17526126Y-13741952D02*
X17516602Y-13732428D01*
X17516602Y-13732428D02*
X17507079Y-13713381D01*
X17507079Y-13713381D02*
X17507079Y-13656238D01*
X17507079Y-13656238D02*
X17516602Y-13637190D01*
X17516602Y-13637190D02*
X17526126Y-13627667D01*
X17526126Y-13627667D02*
X17545174Y-13618143D01*
X17545174Y-13618143D02*
X17573745Y-13618143D01*
X17573745Y-13618143D02*
X17592793Y-13627667D01*
X17592793Y-13627667D02*
X17602317Y-13637190D01*
X17602317Y-13637190D02*
X17611840Y-13656238D01*
X17611840Y-13656238D02*
X17611840Y-13713381D01*
X17611840Y-13713381D02*
X17602317Y-13732428D01*
X17602317Y-13732428D02*
X17592793Y-13741952D01*
X17592793Y-13741952D02*
X17573745Y-13751476D01*
X17573745Y-13751476D02*
X17545174Y-13751476D01*
X17726126Y-13751476D02*
X17707079Y-13741952D01*
X17707079Y-13741952D02*
X17697555Y-13722905D01*
X17697555Y-13722905D02*
X17697555Y-13551476D01*
X17878507Y-13741952D02*
X17859460Y-13751476D01*
X17859460Y-13751476D02*
X17821364Y-13751476D01*
X17821364Y-13751476D02*
X17802317Y-13741952D01*
X17802317Y-13741952D02*
X17792793Y-13722905D01*
X17792793Y-13722905D02*
X17792793Y-13646714D01*
X17792793Y-13646714D02*
X17802317Y-13627667D01*
X17802317Y-13627667D02*
X17821364Y-13618143D01*
X17821364Y-13618143D02*
X17859460Y-13618143D01*
X17859460Y-13618143D02*
X17878507Y-13627667D01*
X17878507Y-13627667D02*
X17888031Y-13646714D01*
X17888031Y-13646714D02*
X17888031Y-13665762D01*
X17888031Y-13665762D02*
X17792793Y-13684809D01*
X17964221Y-13741952D02*
X17983269Y-13751476D01*
X17983269Y-13751476D02*
X18021364Y-13751476D01*
X18021364Y-13751476D02*
X18040412Y-13741952D01*
X18040412Y-13741952D02*
X18049936Y-13722905D01*
X18049936Y-13722905D02*
X18049936Y-13713381D01*
X18049936Y-13713381D02*
X18040412Y-13694333D01*
X18040412Y-13694333D02*
X18021364Y-13684809D01*
X18021364Y-13684809D02*
X17992793Y-13684809D01*
X17992793Y-13684809D02*
X17973745Y-13675286D01*
X17973745Y-13675286D02*
X17964221Y-13656238D01*
X17964221Y-13656238D02*
X17964221Y-13646714D01*
X17964221Y-13646714D02*
X17973745Y-13627667D01*
X17973745Y-13627667D02*
X17992793Y-13618143D01*
X17992793Y-13618143D02*
X18021364Y-13618143D01*
X18021364Y-13618143D02*
X18040412Y-13627667D01*
X18116602Y-13827667D02*
X18126126Y-13818143D01*
X18126126Y-13818143D02*
X18145174Y-13789571D01*
X18145174Y-13789571D02*
X18154698Y-13770524D01*
X18154698Y-13770524D02*
X18164221Y-13741952D01*
X18164221Y-13741952D02*
X18173745Y-13694333D01*
X18173745Y-13694333D02*
X18173745Y-13656238D01*
X18173745Y-13656238D02*
X18164221Y-13608619D01*
X18164221Y-13608619D02*
X18154698Y-13580048D01*
X18154698Y-13580048D02*
X18145174Y-13561000D01*
X18145174Y-13561000D02*
X18126126Y-13532428D01*
X18126126Y-13532428D02*
X18116602Y-13522905D01*
D13*
X13278866Y-13977921D02*
X13278866Y-13906079D01*
X13207024Y-13906079D01*
X13207024Y-13977921D01*
X13278866Y-13977921D01*
D11*
X13646126Y-14015476D02*
X13531840Y-14015476D01*
X13588983Y-14015476D02*
X13588983Y-13815476D01*
X13588983Y-13815476D02*
X13569935Y-13844048D01*
X13569935Y-13844048D02*
X13550888Y-13863095D01*
X13550888Y-13863095D02*
X13531840Y-13872619D01*
X13731840Y-13996428D02*
X13741364Y-14005952D01*
X13741364Y-14005952D02*
X13731840Y-14015476D01*
X13731840Y-14015476D02*
X13722316Y-14005952D01*
X13722316Y-14005952D02*
X13731840Y-13996428D01*
X13731840Y-13996428D02*
X13731840Y-14015476D01*
X13865173Y-13815476D02*
X13884221Y-13815476D01*
X13884221Y-13815476D02*
X13903269Y-13825000D01*
X13903269Y-13825000D02*
X13912793Y-13834524D01*
X13912793Y-13834524D02*
X13922316Y-13853571D01*
X13922316Y-13853571D02*
X13931840Y-13891667D01*
X13931840Y-13891667D02*
X13931840Y-13939286D01*
X13931840Y-13939286D02*
X13922316Y-13977381D01*
X13922316Y-13977381D02*
X13912793Y-13996428D01*
X13912793Y-13996428D02*
X13903269Y-14005952D01*
X13903269Y-14005952D02*
X13884221Y-14015476D01*
X13884221Y-14015476D02*
X13865173Y-14015476D01*
X13865173Y-14015476D02*
X13846126Y-14005952D01*
X13846126Y-14005952D02*
X13836602Y-13996428D01*
X13836602Y-13996428D02*
X13827078Y-13977381D01*
X13827078Y-13977381D02*
X13817554Y-13939286D01*
X13817554Y-13939286D02*
X13817554Y-13891667D01*
X13817554Y-13891667D02*
X13827078Y-13853571D01*
X13827078Y-13853571D02*
X13836602Y-13834524D01*
X13836602Y-13834524D02*
X13846126Y-13825000D01*
X13846126Y-13825000D02*
X13865173Y-13815476D01*
X14122316Y-14015476D02*
X14008031Y-14015476D01*
X14065173Y-14015476D02*
X14065173Y-13815476D01*
X14065173Y-13815476D02*
X14046126Y-13844048D01*
X14046126Y-13844048D02*
X14027078Y-13863095D01*
X14027078Y-13863095D02*
X14008031Y-13872619D01*
X14293745Y-13815476D02*
X14255650Y-13815476D01*
X14255650Y-13815476D02*
X14236602Y-13825000D01*
X14236602Y-13825000D02*
X14227078Y-13834524D01*
X14227078Y-13834524D02*
X14208031Y-13863095D01*
X14208031Y-13863095D02*
X14198507Y-13901190D01*
X14198507Y-13901190D02*
X14198507Y-13977381D01*
X14198507Y-13977381D02*
X14208031Y-13996428D01*
X14208031Y-13996428D02*
X14217554Y-14005952D01*
X14217554Y-14005952D02*
X14236602Y-14015476D01*
X14236602Y-14015476D02*
X14274697Y-14015476D01*
X14274697Y-14015476D02*
X14293745Y-14005952D01*
X14293745Y-14005952D02*
X14303269Y-13996428D01*
X14303269Y-13996428D02*
X14312793Y-13977381D01*
X14312793Y-13977381D02*
X14312793Y-13929762D01*
X14312793Y-13929762D02*
X14303269Y-13910714D01*
X14303269Y-13910714D02*
X14293745Y-13901190D01*
X14293745Y-13901190D02*
X14274697Y-13891667D01*
X14274697Y-13891667D02*
X14236602Y-13891667D01*
X14236602Y-13891667D02*
X14217554Y-13901190D01*
X14217554Y-13901190D02*
X14208031Y-13910714D01*
X14208031Y-13910714D02*
X14198507Y-13929762D01*
X14398507Y-14015476D02*
X14398507Y-13882143D01*
X14398507Y-13901190D02*
X14408031Y-13891667D01*
X14408031Y-13891667D02*
X14427078Y-13882143D01*
X14427078Y-13882143D02*
X14455650Y-13882143D01*
X14455650Y-13882143D02*
X14474697Y-13891667D01*
X14474697Y-13891667D02*
X14484221Y-13910714D01*
X14484221Y-13910714D02*
X14484221Y-14015476D01*
X14484221Y-13910714D02*
X14493745Y-13891667D01*
X14493745Y-13891667D02*
X14512793Y-13882143D01*
X14512793Y-13882143D02*
X14541364Y-13882143D01*
X14541364Y-13882143D02*
X14560412Y-13891667D01*
X14560412Y-13891667D02*
X14569935Y-13910714D01*
X14569935Y-13910714D02*
X14569935Y-14015476D01*
X14665174Y-14015476D02*
X14665174Y-13882143D01*
X14665174Y-13901190D02*
X14674697Y-13891667D01*
X14674697Y-13891667D02*
X14693745Y-13882143D01*
X14693745Y-13882143D02*
X14722316Y-13882143D01*
X14722316Y-13882143D02*
X14741364Y-13891667D01*
X14741364Y-13891667D02*
X14750888Y-13910714D01*
X14750888Y-13910714D02*
X14750888Y-14015476D01*
X14750888Y-13910714D02*
X14760412Y-13891667D01*
X14760412Y-13891667D02*
X14779459Y-13882143D01*
X14779459Y-13882143D02*
X14808031Y-13882143D01*
X14808031Y-13882143D02*
X14827078Y-13891667D01*
X14827078Y-13891667D02*
X14836602Y-13910714D01*
X14836602Y-13910714D02*
X14836602Y-14015476D01*
X15194697Y-13805952D02*
X15023269Y-14063095D01*
X15419459Y-13815476D02*
X15438507Y-13815476D01*
X15438507Y-13815476D02*
X15457555Y-13825000D01*
X15457555Y-13825000D02*
X15467078Y-13834524D01*
X15467078Y-13834524D02*
X15476602Y-13853571D01*
X15476602Y-13853571D02*
X15486126Y-13891667D01*
X15486126Y-13891667D02*
X15486126Y-13939286D01*
X15486126Y-13939286D02*
X15476602Y-13977381D01*
X15476602Y-13977381D02*
X15467078Y-13996428D01*
X15467078Y-13996428D02*
X15457555Y-14005952D01*
X15457555Y-14005952D02*
X15438507Y-14015476D01*
X15438507Y-14015476D02*
X15419459Y-14015476D01*
X15419459Y-14015476D02*
X15400412Y-14005952D01*
X15400412Y-14005952D02*
X15390888Y-13996428D01*
X15390888Y-13996428D02*
X15381364Y-13977381D01*
X15381364Y-13977381D02*
X15371840Y-13939286D01*
X15371840Y-13939286D02*
X15371840Y-13891667D01*
X15371840Y-13891667D02*
X15381364Y-13853571D01*
X15381364Y-13853571D02*
X15390888Y-13834524D01*
X15390888Y-13834524D02*
X15400412Y-13825000D01*
X15400412Y-13825000D02*
X15419459Y-13815476D01*
X15571840Y-13996428D02*
X15581364Y-14005952D01*
X15581364Y-14005952D02*
X15571840Y-14015476D01*
X15571840Y-14015476D02*
X15562316Y-14005952D01*
X15562316Y-14005952D02*
X15571840Y-13996428D01*
X15571840Y-13996428D02*
X15571840Y-14015476D01*
X15705174Y-13815476D02*
X15724221Y-13815476D01*
X15724221Y-13815476D02*
X15743269Y-13825000D01*
X15743269Y-13825000D02*
X15752793Y-13834524D01*
X15752793Y-13834524D02*
X15762316Y-13853571D01*
X15762316Y-13853571D02*
X15771840Y-13891667D01*
X15771840Y-13891667D02*
X15771840Y-13939286D01*
X15771840Y-13939286D02*
X15762316Y-13977381D01*
X15762316Y-13977381D02*
X15752793Y-13996428D01*
X15752793Y-13996428D02*
X15743269Y-14005952D01*
X15743269Y-14005952D02*
X15724221Y-14015476D01*
X15724221Y-14015476D02*
X15705174Y-14015476D01*
X15705174Y-14015476D02*
X15686126Y-14005952D01*
X15686126Y-14005952D02*
X15676602Y-13996428D01*
X15676602Y-13996428D02*
X15667078Y-13977381D01*
X15667078Y-13977381D02*
X15657555Y-13939286D01*
X15657555Y-13939286D02*
X15657555Y-13891667D01*
X15657555Y-13891667D02*
X15667078Y-13853571D01*
X15667078Y-13853571D02*
X15676602Y-13834524D01*
X15676602Y-13834524D02*
X15686126Y-13825000D01*
X15686126Y-13825000D02*
X15705174Y-13815476D01*
X15943269Y-13882143D02*
X15943269Y-14015476D01*
X15895650Y-13805952D02*
X15848031Y-13948809D01*
X15848031Y-13948809D02*
X15971840Y-13948809D01*
X16086126Y-13815476D02*
X16105174Y-13815476D01*
X16105174Y-13815476D02*
X16124221Y-13825000D01*
X16124221Y-13825000D02*
X16133745Y-13834524D01*
X16133745Y-13834524D02*
X16143269Y-13853571D01*
X16143269Y-13853571D02*
X16152793Y-13891667D01*
X16152793Y-13891667D02*
X16152793Y-13939286D01*
X16152793Y-13939286D02*
X16143269Y-13977381D01*
X16143269Y-13977381D02*
X16133745Y-13996428D01*
X16133745Y-13996428D02*
X16124221Y-14005952D01*
X16124221Y-14005952D02*
X16105174Y-14015476D01*
X16105174Y-14015476D02*
X16086126Y-14015476D01*
X16086126Y-14015476D02*
X16067078Y-14005952D01*
X16067078Y-14005952D02*
X16057555Y-13996428D01*
X16057555Y-13996428D02*
X16048031Y-13977381D01*
X16048031Y-13977381D02*
X16038507Y-13939286D01*
X16038507Y-13939286D02*
X16038507Y-13891667D01*
X16038507Y-13891667D02*
X16048031Y-13853571D01*
X16048031Y-13853571D02*
X16057555Y-13834524D01*
X16057555Y-13834524D02*
X16067078Y-13825000D01*
X16067078Y-13825000D02*
X16086126Y-13815476D01*
X16276602Y-13815476D02*
X16295650Y-13815476D01*
X16295650Y-13815476D02*
X16314697Y-13825000D01*
X16314697Y-13825000D02*
X16324221Y-13834524D01*
X16324221Y-13834524D02*
X16333745Y-13853571D01*
X16333745Y-13853571D02*
X16343269Y-13891667D01*
X16343269Y-13891667D02*
X16343269Y-13939286D01*
X16343269Y-13939286D02*
X16333745Y-13977381D01*
X16333745Y-13977381D02*
X16324221Y-13996428D01*
X16324221Y-13996428D02*
X16314697Y-14005952D01*
X16314697Y-14005952D02*
X16295650Y-14015476D01*
X16295650Y-14015476D02*
X16276602Y-14015476D01*
X16276602Y-14015476D02*
X16257555Y-14005952D01*
X16257555Y-14005952D02*
X16248031Y-13996428D01*
X16248031Y-13996428D02*
X16238507Y-13977381D01*
X16238507Y-13977381D02*
X16228983Y-13939286D01*
X16228983Y-13939286D02*
X16228983Y-13891667D01*
X16228983Y-13891667D02*
X16238507Y-13853571D01*
X16238507Y-13853571D02*
X16248031Y-13834524D01*
X16248031Y-13834524D02*
X16257555Y-13825000D01*
X16257555Y-13825000D02*
X16276602Y-13815476D01*
X16419459Y-13815476D02*
X16419459Y-13853571D01*
X16495650Y-13815476D02*
X16495650Y-13853571D01*
X16758507Y-14091667D02*
X16748983Y-14082143D01*
X16748983Y-14082143D02*
X16729936Y-14053571D01*
X16729936Y-14053571D02*
X16720412Y-14034524D01*
X16720412Y-14034524D02*
X16710888Y-14005952D01*
X16710888Y-14005952D02*
X16701364Y-13958333D01*
X16701364Y-13958333D02*
X16701364Y-13920238D01*
X16701364Y-13920238D02*
X16710888Y-13872619D01*
X16710888Y-13872619D02*
X16720412Y-13844048D01*
X16720412Y-13844048D02*
X16729936Y-13825000D01*
X16729936Y-13825000D02*
X16748983Y-13796428D01*
X16748983Y-13796428D02*
X16758507Y-13786905D01*
X16920412Y-13815476D02*
X16882317Y-13815476D01*
X16882317Y-13815476D02*
X16863269Y-13825000D01*
X16863269Y-13825000D02*
X16853745Y-13834524D01*
X16853745Y-13834524D02*
X16834698Y-13863095D01*
X16834698Y-13863095D02*
X16825174Y-13901190D01*
X16825174Y-13901190D02*
X16825174Y-13977381D01*
X16825174Y-13977381D02*
X16834698Y-13996428D01*
X16834698Y-13996428D02*
X16844221Y-14005952D01*
X16844221Y-14005952D02*
X16863269Y-14015476D01*
X16863269Y-14015476D02*
X16901364Y-14015476D01*
X16901364Y-14015476D02*
X16920412Y-14005952D01*
X16920412Y-14005952D02*
X16929936Y-13996428D01*
X16929936Y-13996428D02*
X16939459Y-13977381D01*
X16939459Y-13977381D02*
X16939459Y-13929762D01*
X16939459Y-13929762D02*
X16929936Y-13910714D01*
X16929936Y-13910714D02*
X16920412Y-13901190D01*
X16920412Y-13901190D02*
X16901364Y-13891667D01*
X16901364Y-13891667D02*
X16863269Y-13891667D01*
X16863269Y-13891667D02*
X16844221Y-13901190D01*
X16844221Y-13901190D02*
X16834698Y-13910714D01*
X16834698Y-13910714D02*
X16825174Y-13929762D01*
X17145174Y-14015476D02*
X17145174Y-13815476D01*
X17230888Y-14015476D02*
X17230888Y-13910714D01*
X17230888Y-13910714D02*
X17221364Y-13891667D01*
X17221364Y-13891667D02*
X17202317Y-13882143D01*
X17202317Y-13882143D02*
X17173745Y-13882143D01*
X17173745Y-13882143D02*
X17154698Y-13891667D01*
X17154698Y-13891667D02*
X17145174Y-13901190D01*
X17354698Y-14015476D02*
X17335650Y-14005952D01*
X17335650Y-14005952D02*
X17326126Y-13996428D01*
X17326126Y-13996428D02*
X17316602Y-13977381D01*
X17316602Y-13977381D02*
X17316602Y-13920238D01*
X17316602Y-13920238D02*
X17326126Y-13901190D01*
X17326126Y-13901190D02*
X17335650Y-13891667D01*
X17335650Y-13891667D02*
X17354698Y-13882143D01*
X17354698Y-13882143D02*
X17383269Y-13882143D01*
X17383269Y-13882143D02*
X17402317Y-13891667D01*
X17402317Y-13891667D02*
X17411840Y-13901190D01*
X17411840Y-13901190D02*
X17421364Y-13920238D01*
X17421364Y-13920238D02*
X17421364Y-13977381D01*
X17421364Y-13977381D02*
X17411840Y-13996428D01*
X17411840Y-13996428D02*
X17402317Y-14005952D01*
X17402317Y-14005952D02*
X17383269Y-14015476D01*
X17383269Y-14015476D02*
X17354698Y-14015476D01*
X17535650Y-14015476D02*
X17516602Y-14005952D01*
X17516602Y-14005952D02*
X17507079Y-13986905D01*
X17507079Y-13986905D02*
X17507079Y-13815476D01*
X17688031Y-14005952D02*
X17668983Y-14015476D01*
X17668983Y-14015476D02*
X17630888Y-14015476D01*
X17630888Y-14015476D02*
X17611840Y-14005952D01*
X17611840Y-14005952D02*
X17602317Y-13986905D01*
X17602317Y-13986905D02*
X17602317Y-13910714D01*
X17602317Y-13910714D02*
X17611840Y-13891667D01*
X17611840Y-13891667D02*
X17630888Y-13882143D01*
X17630888Y-13882143D02*
X17668983Y-13882143D01*
X17668983Y-13882143D02*
X17688031Y-13891667D01*
X17688031Y-13891667D02*
X17697555Y-13910714D01*
X17697555Y-13910714D02*
X17697555Y-13929762D01*
X17697555Y-13929762D02*
X17602317Y-13948809D01*
X17773745Y-14005952D02*
X17792793Y-14015476D01*
X17792793Y-14015476D02*
X17830888Y-14015476D01*
X17830888Y-14015476D02*
X17849936Y-14005952D01*
X17849936Y-14005952D02*
X17859460Y-13986905D01*
X17859460Y-13986905D02*
X17859460Y-13977381D01*
X17859460Y-13977381D02*
X17849936Y-13958333D01*
X17849936Y-13958333D02*
X17830888Y-13948809D01*
X17830888Y-13948809D02*
X17802317Y-13948809D01*
X17802317Y-13948809D02*
X17783269Y-13939286D01*
X17783269Y-13939286D02*
X17773745Y-13920238D01*
X17773745Y-13920238D02*
X17773745Y-13910714D01*
X17773745Y-13910714D02*
X17783269Y-13891667D01*
X17783269Y-13891667D02*
X17802317Y-13882143D01*
X17802317Y-13882143D02*
X17830888Y-13882143D01*
X17830888Y-13882143D02*
X17849936Y-13891667D01*
X17926126Y-14091667D02*
X17935650Y-14082143D01*
X17935650Y-14082143D02*
X17954698Y-14053571D01*
X17954698Y-14053571D02*
X17964221Y-14034524D01*
X17964221Y-14034524D02*
X17973745Y-14005952D01*
X17973745Y-14005952D02*
X17983269Y-13958333D01*
X17983269Y-13958333D02*
X17983269Y-13920238D01*
X17983269Y-13920238D02*
X17973745Y-13872619D01*
X17973745Y-13872619D02*
X17964221Y-13844048D01*
X17964221Y-13844048D02*
X17954698Y-13825000D01*
X17954698Y-13825000D02*
X17935650Y-13796428D01*
X17935650Y-13796428D02*
X17926126Y-13786905D01*
D14*
X13218815Y-14280930D02*
X13293745Y-14206000D01*
X13218815Y-14131070D01*
X13143885Y-14206000D01*
X13218815Y-14280930D01*
D11*
X13646126Y-14279476D02*
X13531840Y-14279476D01*
X13588983Y-14279476D02*
X13588983Y-14079476D01*
X13588983Y-14079476D02*
X13569935Y-14108048D01*
X13569935Y-14108048D02*
X13550888Y-14127095D01*
X13550888Y-14127095D02*
X13531840Y-14136619D01*
X13731840Y-14260428D02*
X13741364Y-14269952D01*
X13741364Y-14269952D02*
X13731840Y-14279476D01*
X13731840Y-14279476D02*
X13722316Y-14269952D01*
X13722316Y-14269952D02*
X13731840Y-14260428D01*
X13731840Y-14260428D02*
X13731840Y-14279476D01*
X13912793Y-14146143D02*
X13912793Y-14279476D01*
X13865173Y-14069952D02*
X13817554Y-14212809D01*
X13817554Y-14212809D02*
X13941364Y-14212809D01*
X14027078Y-14279476D02*
X14065173Y-14279476D01*
X14065173Y-14279476D02*
X14084221Y-14269952D01*
X14084221Y-14269952D02*
X14093745Y-14260428D01*
X14093745Y-14260428D02*
X14112793Y-14231857D01*
X14112793Y-14231857D02*
X14122316Y-14193762D01*
X14122316Y-14193762D02*
X14122316Y-14117571D01*
X14122316Y-14117571D02*
X14112793Y-14098524D01*
X14112793Y-14098524D02*
X14103269Y-14089000D01*
X14103269Y-14089000D02*
X14084221Y-14079476D01*
X14084221Y-14079476D02*
X14046126Y-14079476D01*
X14046126Y-14079476D02*
X14027078Y-14089000D01*
X14027078Y-14089000D02*
X14017554Y-14098524D01*
X14017554Y-14098524D02*
X14008031Y-14117571D01*
X14008031Y-14117571D02*
X14008031Y-14165190D01*
X14008031Y-14165190D02*
X14017554Y-14184238D01*
X14017554Y-14184238D02*
X14027078Y-14193762D01*
X14027078Y-14193762D02*
X14046126Y-14203286D01*
X14046126Y-14203286D02*
X14084221Y-14203286D01*
X14084221Y-14203286D02*
X14103269Y-14193762D01*
X14103269Y-14193762D02*
X14112793Y-14184238D01*
X14112793Y-14184238D02*
X14122316Y-14165190D01*
X14217554Y-14279476D02*
X14255650Y-14279476D01*
X14255650Y-14279476D02*
X14274697Y-14269952D01*
X14274697Y-14269952D02*
X14284221Y-14260428D01*
X14284221Y-14260428D02*
X14303269Y-14231857D01*
X14303269Y-14231857D02*
X14312793Y-14193762D01*
X14312793Y-14193762D02*
X14312793Y-14117571D01*
X14312793Y-14117571D02*
X14303269Y-14098524D01*
X14303269Y-14098524D02*
X14293745Y-14089000D01*
X14293745Y-14089000D02*
X14274697Y-14079476D01*
X14274697Y-14079476D02*
X14236602Y-14079476D01*
X14236602Y-14079476D02*
X14217554Y-14089000D01*
X14217554Y-14089000D02*
X14208031Y-14098524D01*
X14208031Y-14098524D02*
X14198507Y-14117571D01*
X14198507Y-14117571D02*
X14198507Y-14165190D01*
X14198507Y-14165190D02*
X14208031Y-14184238D01*
X14208031Y-14184238D02*
X14217554Y-14193762D01*
X14217554Y-14193762D02*
X14236602Y-14203286D01*
X14236602Y-14203286D02*
X14274697Y-14203286D01*
X14274697Y-14203286D02*
X14293745Y-14193762D01*
X14293745Y-14193762D02*
X14303269Y-14184238D01*
X14303269Y-14184238D02*
X14312793Y-14165190D01*
X14398507Y-14279476D02*
X14398507Y-14146143D01*
X14398507Y-14165190D02*
X14408031Y-14155667D01*
X14408031Y-14155667D02*
X14427078Y-14146143D01*
X14427078Y-14146143D02*
X14455650Y-14146143D01*
X14455650Y-14146143D02*
X14474697Y-14155667D01*
X14474697Y-14155667D02*
X14484221Y-14174714D01*
X14484221Y-14174714D02*
X14484221Y-14279476D01*
X14484221Y-14174714D02*
X14493745Y-14155667D01*
X14493745Y-14155667D02*
X14512793Y-14146143D01*
X14512793Y-14146143D02*
X14541364Y-14146143D01*
X14541364Y-14146143D02*
X14560412Y-14155667D01*
X14560412Y-14155667D02*
X14569935Y-14174714D01*
X14569935Y-14174714D02*
X14569935Y-14279476D01*
X14665174Y-14279476D02*
X14665174Y-14146143D01*
X14665174Y-14165190D02*
X14674697Y-14155667D01*
X14674697Y-14155667D02*
X14693745Y-14146143D01*
X14693745Y-14146143D02*
X14722316Y-14146143D01*
X14722316Y-14146143D02*
X14741364Y-14155667D01*
X14741364Y-14155667D02*
X14750888Y-14174714D01*
X14750888Y-14174714D02*
X14750888Y-14279476D01*
X14750888Y-14174714D02*
X14760412Y-14155667D01*
X14760412Y-14155667D02*
X14779459Y-14146143D01*
X14779459Y-14146143D02*
X14808031Y-14146143D01*
X14808031Y-14146143D02*
X14827078Y-14155667D01*
X14827078Y-14155667D02*
X14836602Y-14174714D01*
X14836602Y-14174714D02*
X14836602Y-14279476D01*
X15194697Y-14069952D02*
X15023269Y-14327095D01*
X15419459Y-14079476D02*
X15438507Y-14079476D01*
X15438507Y-14079476D02*
X15457555Y-14089000D01*
X15457555Y-14089000D02*
X15467078Y-14098524D01*
X15467078Y-14098524D02*
X15476602Y-14117571D01*
X15476602Y-14117571D02*
X15486126Y-14155667D01*
X15486126Y-14155667D02*
X15486126Y-14203286D01*
X15486126Y-14203286D02*
X15476602Y-14241381D01*
X15476602Y-14241381D02*
X15467078Y-14260428D01*
X15467078Y-14260428D02*
X15457555Y-14269952D01*
X15457555Y-14269952D02*
X15438507Y-14279476D01*
X15438507Y-14279476D02*
X15419459Y-14279476D01*
X15419459Y-14279476D02*
X15400412Y-14269952D01*
X15400412Y-14269952D02*
X15390888Y-14260428D01*
X15390888Y-14260428D02*
X15381364Y-14241381D01*
X15381364Y-14241381D02*
X15371840Y-14203286D01*
X15371840Y-14203286D02*
X15371840Y-14155667D01*
X15371840Y-14155667D02*
X15381364Y-14117571D01*
X15381364Y-14117571D02*
X15390888Y-14098524D01*
X15390888Y-14098524D02*
X15400412Y-14089000D01*
X15400412Y-14089000D02*
X15419459Y-14079476D01*
X15571840Y-14260428D02*
X15581364Y-14269952D01*
X15581364Y-14269952D02*
X15571840Y-14279476D01*
X15571840Y-14279476D02*
X15562316Y-14269952D01*
X15562316Y-14269952D02*
X15571840Y-14260428D01*
X15571840Y-14260428D02*
X15571840Y-14279476D01*
X15705174Y-14079476D02*
X15724221Y-14079476D01*
X15724221Y-14079476D02*
X15743269Y-14089000D01*
X15743269Y-14089000D02*
X15752793Y-14098524D01*
X15752793Y-14098524D02*
X15762316Y-14117571D01*
X15762316Y-14117571D02*
X15771840Y-14155667D01*
X15771840Y-14155667D02*
X15771840Y-14203286D01*
X15771840Y-14203286D02*
X15762316Y-14241381D01*
X15762316Y-14241381D02*
X15752793Y-14260428D01*
X15752793Y-14260428D02*
X15743269Y-14269952D01*
X15743269Y-14269952D02*
X15724221Y-14279476D01*
X15724221Y-14279476D02*
X15705174Y-14279476D01*
X15705174Y-14279476D02*
X15686126Y-14269952D01*
X15686126Y-14269952D02*
X15676602Y-14260428D01*
X15676602Y-14260428D02*
X15667078Y-14241381D01*
X15667078Y-14241381D02*
X15657555Y-14203286D01*
X15657555Y-14203286D02*
X15657555Y-14155667D01*
X15657555Y-14155667D02*
X15667078Y-14117571D01*
X15667078Y-14117571D02*
X15676602Y-14098524D01*
X15676602Y-14098524D02*
X15686126Y-14089000D01*
X15686126Y-14089000D02*
X15705174Y-14079476D01*
X15952793Y-14079476D02*
X15857555Y-14079476D01*
X15857555Y-14079476D02*
X15848031Y-14174714D01*
X15848031Y-14174714D02*
X15857555Y-14165190D01*
X15857555Y-14165190D02*
X15876602Y-14155667D01*
X15876602Y-14155667D02*
X15924221Y-14155667D01*
X15924221Y-14155667D02*
X15943269Y-14165190D01*
X15943269Y-14165190D02*
X15952793Y-14174714D01*
X15952793Y-14174714D02*
X15962316Y-14193762D01*
X15962316Y-14193762D02*
X15962316Y-14241381D01*
X15962316Y-14241381D02*
X15952793Y-14260428D01*
X15952793Y-14260428D02*
X15943269Y-14269952D01*
X15943269Y-14269952D02*
X15924221Y-14279476D01*
X15924221Y-14279476D02*
X15876602Y-14279476D01*
X15876602Y-14279476D02*
X15857555Y-14269952D01*
X15857555Y-14269952D02*
X15848031Y-14260428D01*
X16057555Y-14279476D02*
X16095650Y-14279476D01*
X16095650Y-14279476D02*
X16114697Y-14269952D01*
X16114697Y-14269952D02*
X16124221Y-14260428D01*
X16124221Y-14260428D02*
X16143269Y-14231857D01*
X16143269Y-14231857D02*
X16152793Y-14193762D01*
X16152793Y-14193762D02*
X16152793Y-14117571D01*
X16152793Y-14117571D02*
X16143269Y-14098524D01*
X16143269Y-14098524D02*
X16133745Y-14089000D01*
X16133745Y-14089000D02*
X16114697Y-14079476D01*
X16114697Y-14079476D02*
X16076602Y-14079476D01*
X16076602Y-14079476D02*
X16057555Y-14089000D01*
X16057555Y-14089000D02*
X16048031Y-14098524D01*
X16048031Y-14098524D02*
X16038507Y-14117571D01*
X16038507Y-14117571D02*
X16038507Y-14165190D01*
X16038507Y-14165190D02*
X16048031Y-14184238D01*
X16048031Y-14184238D02*
X16057555Y-14193762D01*
X16057555Y-14193762D02*
X16076602Y-14203286D01*
X16076602Y-14203286D02*
X16114697Y-14203286D01*
X16114697Y-14203286D02*
X16133745Y-14193762D01*
X16133745Y-14193762D02*
X16143269Y-14184238D01*
X16143269Y-14184238D02*
X16152793Y-14165190D01*
X16276602Y-14079476D02*
X16295650Y-14079476D01*
X16295650Y-14079476D02*
X16314697Y-14089000D01*
X16314697Y-14089000D02*
X16324221Y-14098524D01*
X16324221Y-14098524D02*
X16333745Y-14117571D01*
X16333745Y-14117571D02*
X16343269Y-14155667D01*
X16343269Y-14155667D02*
X16343269Y-14203286D01*
X16343269Y-14203286D02*
X16333745Y-14241381D01*
X16333745Y-14241381D02*
X16324221Y-14260428D01*
X16324221Y-14260428D02*
X16314697Y-14269952D01*
X16314697Y-14269952D02*
X16295650Y-14279476D01*
X16295650Y-14279476D02*
X16276602Y-14279476D01*
X16276602Y-14279476D02*
X16257555Y-14269952D01*
X16257555Y-14269952D02*
X16248031Y-14260428D01*
X16248031Y-14260428D02*
X16238507Y-14241381D01*
X16238507Y-14241381D02*
X16228983Y-14203286D01*
X16228983Y-14203286D02*
X16228983Y-14155667D01*
X16228983Y-14155667D02*
X16238507Y-14117571D01*
X16238507Y-14117571D02*
X16248031Y-14098524D01*
X16248031Y-14098524D02*
X16257555Y-14089000D01*
X16257555Y-14089000D02*
X16276602Y-14079476D01*
X16419459Y-14079476D02*
X16419459Y-14117571D01*
X16495650Y-14079476D02*
X16495650Y-14117571D01*
X16758507Y-14355667D02*
X16748983Y-14346143D01*
X16748983Y-14346143D02*
X16729936Y-14317571D01*
X16729936Y-14317571D02*
X16720412Y-14298524D01*
X16720412Y-14298524D02*
X16710888Y-14269952D01*
X16710888Y-14269952D02*
X16701364Y-14222333D01*
X16701364Y-14222333D02*
X16701364Y-14184238D01*
X16701364Y-14184238D02*
X16710888Y-14136619D01*
X16710888Y-14136619D02*
X16720412Y-14108048D01*
X16720412Y-14108048D02*
X16729936Y-14089000D01*
X16729936Y-14089000D02*
X16748983Y-14060428D01*
X16748983Y-14060428D02*
X16758507Y-14050905D01*
X16815650Y-14079476D02*
X16939459Y-14079476D01*
X16939459Y-14079476D02*
X16872793Y-14155667D01*
X16872793Y-14155667D02*
X16901364Y-14155667D01*
X16901364Y-14155667D02*
X16920412Y-14165190D01*
X16920412Y-14165190D02*
X16929936Y-14174714D01*
X16929936Y-14174714D02*
X16939459Y-14193762D01*
X16939459Y-14193762D02*
X16939459Y-14241381D01*
X16939459Y-14241381D02*
X16929936Y-14260428D01*
X16929936Y-14260428D02*
X16920412Y-14269952D01*
X16920412Y-14269952D02*
X16901364Y-14279476D01*
X16901364Y-14279476D02*
X16844221Y-14279476D01*
X16844221Y-14279476D02*
X16825174Y-14269952D01*
X16825174Y-14269952D02*
X16815650Y-14260428D01*
X17006126Y-14079476D02*
X17139459Y-14079476D01*
X17139459Y-14079476D02*
X17053745Y-14279476D01*
X17335650Y-14279476D02*
X17335650Y-14079476D01*
X17421364Y-14279476D02*
X17421364Y-14174714D01*
X17421364Y-14174714D02*
X17411840Y-14155667D01*
X17411840Y-14155667D02*
X17392793Y-14146143D01*
X17392793Y-14146143D02*
X17364221Y-14146143D01*
X17364221Y-14146143D02*
X17345174Y-14155667D01*
X17345174Y-14155667D02*
X17335650Y-14165190D01*
X17545174Y-14279476D02*
X17526126Y-14269952D01*
X17526126Y-14269952D02*
X17516602Y-14260428D01*
X17516602Y-14260428D02*
X17507079Y-14241381D01*
X17507079Y-14241381D02*
X17507079Y-14184238D01*
X17507079Y-14184238D02*
X17516602Y-14165190D01*
X17516602Y-14165190D02*
X17526126Y-14155667D01*
X17526126Y-14155667D02*
X17545174Y-14146143D01*
X17545174Y-14146143D02*
X17573745Y-14146143D01*
X17573745Y-14146143D02*
X17592793Y-14155667D01*
X17592793Y-14155667D02*
X17602317Y-14165190D01*
X17602317Y-14165190D02*
X17611840Y-14184238D01*
X17611840Y-14184238D02*
X17611840Y-14241381D01*
X17611840Y-14241381D02*
X17602317Y-14260428D01*
X17602317Y-14260428D02*
X17592793Y-14269952D01*
X17592793Y-14269952D02*
X17573745Y-14279476D01*
X17573745Y-14279476D02*
X17545174Y-14279476D01*
X17726126Y-14279476D02*
X17707079Y-14269952D01*
X17707079Y-14269952D02*
X17697555Y-14250905D01*
X17697555Y-14250905D02*
X17697555Y-14079476D01*
X17878507Y-14269952D02*
X17859460Y-14279476D01*
X17859460Y-14279476D02*
X17821364Y-14279476D01*
X17821364Y-14279476D02*
X17802317Y-14269952D01*
X17802317Y-14269952D02*
X17792793Y-14250905D01*
X17792793Y-14250905D02*
X17792793Y-14174714D01*
X17792793Y-14174714D02*
X17802317Y-14155667D01*
X17802317Y-14155667D02*
X17821364Y-14146143D01*
X17821364Y-14146143D02*
X17859460Y-14146143D01*
X17859460Y-14146143D02*
X17878507Y-14155667D01*
X17878507Y-14155667D02*
X17888031Y-14174714D01*
X17888031Y-14174714D02*
X17888031Y-14193762D01*
X17888031Y-14193762D02*
X17792793Y-14212809D01*
X17964221Y-14269952D02*
X17983269Y-14279476D01*
X17983269Y-14279476D02*
X18021364Y-14279476D01*
X18021364Y-14279476D02*
X18040412Y-14269952D01*
X18040412Y-14269952D02*
X18049936Y-14250905D01*
X18049936Y-14250905D02*
X18049936Y-14241381D01*
X18049936Y-14241381D02*
X18040412Y-14222333D01*
X18040412Y-14222333D02*
X18021364Y-14212809D01*
X18021364Y-14212809D02*
X17992793Y-14212809D01*
X17992793Y-14212809D02*
X17973745Y-14203286D01*
X17973745Y-14203286D02*
X17964221Y-14184238D01*
X17964221Y-14184238D02*
X17964221Y-14174714D01*
X17964221Y-14174714D02*
X17973745Y-14155667D01*
X17973745Y-14155667D02*
X17992793Y-14146143D01*
X17992793Y-14146143D02*
X18021364Y-14146143D01*
X18021364Y-14146143D02*
X18040412Y-14155667D01*
X18116602Y-14355667D02*
X18126126Y-14346143D01*
X18126126Y-14346143D02*
X18145174Y-14317571D01*
X18145174Y-14317571D02*
X18154698Y-14298524D01*
X18154698Y-14298524D02*
X18164221Y-14269952D01*
X18164221Y-14269952D02*
X18173745Y-14222333D01*
X18173745Y-14222333D02*
X18173745Y-14184238D01*
X18173745Y-14184238D02*
X18164221Y-14136619D01*
X18164221Y-14136619D02*
X18154698Y-14108048D01*
X18154698Y-14108048D02*
X18145174Y-14089000D01*
X18145174Y-14089000D02*
X18126126Y-14060428D01*
X18126126Y-14060428D02*
X18116602Y-14050905D01*
D15*
X13143745Y-14400860D02*
X13293745Y-14550860D01*
X13293745Y-14400860D02*
X13143745Y-14550860D01*
X13293745Y-14475860D02*
G75*
G03*
X13293745Y-14475860I-75000J0D01*
G01*
D11*
X13646126Y-14549336D02*
X13531840Y-14549336D01*
X13588983Y-14549336D02*
X13588983Y-14349336D01*
X13588983Y-14349336D02*
X13569935Y-14377908D01*
X13569935Y-14377908D02*
X13550888Y-14396955D01*
X13550888Y-14396955D02*
X13531840Y-14406479D01*
X13731840Y-14530288D02*
X13741364Y-14539812D01*
X13741364Y-14539812D02*
X13731840Y-14549336D01*
X13731840Y-14549336D02*
X13722316Y-14539812D01*
X13722316Y-14539812D02*
X13731840Y-14530288D01*
X13731840Y-14530288D02*
X13731840Y-14549336D01*
X13922316Y-14349336D02*
X13827078Y-14349336D01*
X13827078Y-14349336D02*
X13817554Y-14444574D01*
X13817554Y-14444574D02*
X13827078Y-14435050D01*
X13827078Y-14435050D02*
X13846126Y-14425527D01*
X13846126Y-14425527D02*
X13893745Y-14425527D01*
X13893745Y-14425527D02*
X13912793Y-14435050D01*
X13912793Y-14435050D02*
X13922316Y-14444574D01*
X13922316Y-14444574D02*
X13931840Y-14463622D01*
X13931840Y-14463622D02*
X13931840Y-14511241D01*
X13931840Y-14511241D02*
X13922316Y-14530288D01*
X13922316Y-14530288D02*
X13912793Y-14539812D01*
X13912793Y-14539812D02*
X13893745Y-14549336D01*
X13893745Y-14549336D02*
X13846126Y-14549336D01*
X13846126Y-14549336D02*
X13827078Y-14539812D01*
X13827078Y-14539812D02*
X13817554Y-14530288D01*
X14055650Y-14349336D02*
X14074697Y-14349336D01*
X14074697Y-14349336D02*
X14093745Y-14358860D01*
X14093745Y-14358860D02*
X14103269Y-14368384D01*
X14103269Y-14368384D02*
X14112793Y-14387431D01*
X14112793Y-14387431D02*
X14122316Y-14425527D01*
X14122316Y-14425527D02*
X14122316Y-14473146D01*
X14122316Y-14473146D02*
X14112793Y-14511241D01*
X14112793Y-14511241D02*
X14103269Y-14530288D01*
X14103269Y-14530288D02*
X14093745Y-14539812D01*
X14093745Y-14539812D02*
X14074697Y-14549336D01*
X14074697Y-14549336D02*
X14055650Y-14549336D01*
X14055650Y-14549336D02*
X14036602Y-14539812D01*
X14036602Y-14539812D02*
X14027078Y-14530288D01*
X14027078Y-14530288D02*
X14017554Y-14511241D01*
X14017554Y-14511241D02*
X14008031Y-14473146D01*
X14008031Y-14473146D02*
X14008031Y-14425527D01*
X14008031Y-14425527D02*
X14017554Y-14387431D01*
X14017554Y-14387431D02*
X14027078Y-14368384D01*
X14027078Y-14368384D02*
X14036602Y-14358860D01*
X14036602Y-14358860D02*
X14055650Y-14349336D01*
X14246126Y-14349336D02*
X14265174Y-14349336D01*
X14265174Y-14349336D02*
X14284221Y-14358860D01*
X14284221Y-14358860D02*
X14293745Y-14368384D01*
X14293745Y-14368384D02*
X14303269Y-14387431D01*
X14303269Y-14387431D02*
X14312793Y-14425527D01*
X14312793Y-14425527D02*
X14312793Y-14473146D01*
X14312793Y-14473146D02*
X14303269Y-14511241D01*
X14303269Y-14511241D02*
X14293745Y-14530288D01*
X14293745Y-14530288D02*
X14284221Y-14539812D01*
X14284221Y-14539812D02*
X14265174Y-14549336D01*
X14265174Y-14549336D02*
X14246126Y-14549336D01*
X14246126Y-14549336D02*
X14227078Y-14539812D01*
X14227078Y-14539812D02*
X14217554Y-14530288D01*
X14217554Y-14530288D02*
X14208031Y-14511241D01*
X14208031Y-14511241D02*
X14198507Y-14473146D01*
X14198507Y-14473146D02*
X14198507Y-14425527D01*
X14198507Y-14425527D02*
X14208031Y-14387431D01*
X14208031Y-14387431D02*
X14217554Y-14368384D01*
X14217554Y-14368384D02*
X14227078Y-14358860D01*
X14227078Y-14358860D02*
X14246126Y-14349336D01*
X14398507Y-14549336D02*
X14398507Y-14416003D01*
X14398507Y-14435050D02*
X14408031Y-14425527D01*
X14408031Y-14425527D02*
X14427078Y-14416003D01*
X14427078Y-14416003D02*
X14455650Y-14416003D01*
X14455650Y-14416003D02*
X14474697Y-14425527D01*
X14474697Y-14425527D02*
X14484221Y-14444574D01*
X14484221Y-14444574D02*
X14484221Y-14549336D01*
X14484221Y-14444574D02*
X14493745Y-14425527D01*
X14493745Y-14425527D02*
X14512793Y-14416003D01*
X14512793Y-14416003D02*
X14541364Y-14416003D01*
X14541364Y-14416003D02*
X14560412Y-14425527D01*
X14560412Y-14425527D02*
X14569935Y-14444574D01*
X14569935Y-14444574D02*
X14569935Y-14549336D01*
X14665174Y-14549336D02*
X14665174Y-14416003D01*
X14665174Y-14435050D02*
X14674697Y-14425527D01*
X14674697Y-14425527D02*
X14693745Y-14416003D01*
X14693745Y-14416003D02*
X14722316Y-14416003D01*
X14722316Y-14416003D02*
X14741364Y-14425527D01*
X14741364Y-14425527D02*
X14750888Y-14444574D01*
X14750888Y-14444574D02*
X14750888Y-14549336D01*
X14750888Y-14444574D02*
X14760412Y-14425527D01*
X14760412Y-14425527D02*
X14779459Y-14416003D01*
X14779459Y-14416003D02*
X14808031Y-14416003D01*
X14808031Y-14416003D02*
X14827078Y-14425527D01*
X14827078Y-14425527D02*
X14836602Y-14444574D01*
X14836602Y-14444574D02*
X14836602Y-14549336D01*
X15194697Y-14339812D02*
X15023269Y-14596955D01*
X15419459Y-14349336D02*
X15438507Y-14349336D01*
X15438507Y-14349336D02*
X15457555Y-14358860D01*
X15457555Y-14358860D02*
X15467078Y-14368384D01*
X15467078Y-14368384D02*
X15476602Y-14387431D01*
X15476602Y-14387431D02*
X15486126Y-14425527D01*
X15486126Y-14425527D02*
X15486126Y-14473146D01*
X15486126Y-14473146D02*
X15476602Y-14511241D01*
X15476602Y-14511241D02*
X15467078Y-14530288D01*
X15467078Y-14530288D02*
X15457555Y-14539812D01*
X15457555Y-14539812D02*
X15438507Y-14549336D01*
X15438507Y-14549336D02*
X15419459Y-14549336D01*
X15419459Y-14549336D02*
X15400412Y-14539812D01*
X15400412Y-14539812D02*
X15390888Y-14530288D01*
X15390888Y-14530288D02*
X15381364Y-14511241D01*
X15381364Y-14511241D02*
X15371840Y-14473146D01*
X15371840Y-14473146D02*
X15371840Y-14425527D01*
X15371840Y-14425527D02*
X15381364Y-14387431D01*
X15381364Y-14387431D02*
X15390888Y-14368384D01*
X15390888Y-14368384D02*
X15400412Y-14358860D01*
X15400412Y-14358860D02*
X15419459Y-14349336D01*
X15571840Y-14530288D02*
X15581364Y-14539812D01*
X15581364Y-14539812D02*
X15571840Y-14549336D01*
X15571840Y-14549336D02*
X15562316Y-14539812D01*
X15562316Y-14539812D02*
X15571840Y-14530288D01*
X15571840Y-14530288D02*
X15571840Y-14549336D01*
X15705174Y-14349336D02*
X15724221Y-14349336D01*
X15724221Y-14349336D02*
X15743269Y-14358860D01*
X15743269Y-14358860D02*
X15752793Y-14368384D01*
X15752793Y-14368384D02*
X15762316Y-14387431D01*
X15762316Y-14387431D02*
X15771840Y-14425527D01*
X15771840Y-14425527D02*
X15771840Y-14473146D01*
X15771840Y-14473146D02*
X15762316Y-14511241D01*
X15762316Y-14511241D02*
X15752793Y-14530288D01*
X15752793Y-14530288D02*
X15743269Y-14539812D01*
X15743269Y-14539812D02*
X15724221Y-14549336D01*
X15724221Y-14549336D02*
X15705174Y-14549336D01*
X15705174Y-14549336D02*
X15686126Y-14539812D01*
X15686126Y-14539812D02*
X15676602Y-14530288D01*
X15676602Y-14530288D02*
X15667078Y-14511241D01*
X15667078Y-14511241D02*
X15657555Y-14473146D01*
X15657555Y-14473146D02*
X15657555Y-14425527D01*
X15657555Y-14425527D02*
X15667078Y-14387431D01*
X15667078Y-14387431D02*
X15676602Y-14368384D01*
X15676602Y-14368384D02*
X15686126Y-14358860D01*
X15686126Y-14358860D02*
X15705174Y-14349336D01*
X15952793Y-14349336D02*
X15857555Y-14349336D01*
X15857555Y-14349336D02*
X15848031Y-14444574D01*
X15848031Y-14444574D02*
X15857555Y-14435050D01*
X15857555Y-14435050D02*
X15876602Y-14425527D01*
X15876602Y-14425527D02*
X15924221Y-14425527D01*
X15924221Y-14425527D02*
X15943269Y-14435050D01*
X15943269Y-14435050D02*
X15952793Y-14444574D01*
X15952793Y-14444574D02*
X15962316Y-14463622D01*
X15962316Y-14463622D02*
X15962316Y-14511241D01*
X15962316Y-14511241D02*
X15952793Y-14530288D01*
X15952793Y-14530288D02*
X15943269Y-14539812D01*
X15943269Y-14539812D02*
X15924221Y-14549336D01*
X15924221Y-14549336D02*
X15876602Y-14549336D01*
X15876602Y-14549336D02*
X15857555Y-14539812D01*
X15857555Y-14539812D02*
X15848031Y-14530288D01*
X16057555Y-14549336D02*
X16095650Y-14549336D01*
X16095650Y-14549336D02*
X16114697Y-14539812D01*
X16114697Y-14539812D02*
X16124221Y-14530288D01*
X16124221Y-14530288D02*
X16143269Y-14501717D01*
X16143269Y-14501717D02*
X16152793Y-14463622D01*
X16152793Y-14463622D02*
X16152793Y-14387431D01*
X16152793Y-14387431D02*
X16143269Y-14368384D01*
X16143269Y-14368384D02*
X16133745Y-14358860D01*
X16133745Y-14358860D02*
X16114697Y-14349336D01*
X16114697Y-14349336D02*
X16076602Y-14349336D01*
X16076602Y-14349336D02*
X16057555Y-14358860D01*
X16057555Y-14358860D02*
X16048031Y-14368384D01*
X16048031Y-14368384D02*
X16038507Y-14387431D01*
X16038507Y-14387431D02*
X16038507Y-14435050D01*
X16038507Y-14435050D02*
X16048031Y-14454098D01*
X16048031Y-14454098D02*
X16057555Y-14463622D01*
X16057555Y-14463622D02*
X16076602Y-14473146D01*
X16076602Y-14473146D02*
X16114697Y-14473146D01*
X16114697Y-14473146D02*
X16133745Y-14463622D01*
X16133745Y-14463622D02*
X16143269Y-14454098D01*
X16143269Y-14454098D02*
X16152793Y-14435050D01*
X16343269Y-14549336D02*
X16228983Y-14549336D01*
X16286126Y-14549336D02*
X16286126Y-14349336D01*
X16286126Y-14349336D02*
X16267078Y-14377908D01*
X16267078Y-14377908D02*
X16248031Y-14396955D01*
X16248031Y-14396955D02*
X16228983Y-14406479D01*
X16419459Y-14349336D02*
X16419459Y-14387431D01*
X16495650Y-14349336D02*
X16495650Y-14387431D01*
X16758507Y-14625527D02*
X16748983Y-14616003D01*
X16748983Y-14616003D02*
X16729936Y-14587431D01*
X16729936Y-14587431D02*
X16720412Y-14568384D01*
X16720412Y-14568384D02*
X16710888Y-14539812D01*
X16710888Y-14539812D02*
X16701364Y-14492193D01*
X16701364Y-14492193D02*
X16701364Y-14454098D01*
X16701364Y-14454098D02*
X16710888Y-14406479D01*
X16710888Y-14406479D02*
X16720412Y-14377908D01*
X16720412Y-14377908D02*
X16729936Y-14358860D01*
X16729936Y-14358860D02*
X16748983Y-14330288D01*
X16748983Y-14330288D02*
X16758507Y-14320765D01*
X16939459Y-14549336D02*
X16825174Y-14549336D01*
X16882317Y-14549336D02*
X16882317Y-14349336D01*
X16882317Y-14349336D02*
X16863269Y-14377908D01*
X16863269Y-14377908D02*
X16844221Y-14396955D01*
X16844221Y-14396955D02*
X16825174Y-14406479D01*
X17145174Y-14549336D02*
X17145174Y-14349336D01*
X17230888Y-14549336D02*
X17230888Y-14444574D01*
X17230888Y-14444574D02*
X17221364Y-14425527D01*
X17221364Y-14425527D02*
X17202317Y-14416003D01*
X17202317Y-14416003D02*
X17173745Y-14416003D01*
X17173745Y-14416003D02*
X17154698Y-14425527D01*
X17154698Y-14425527D02*
X17145174Y-14435050D01*
X17354698Y-14549336D02*
X17335650Y-14539812D01*
X17335650Y-14539812D02*
X17326126Y-14530288D01*
X17326126Y-14530288D02*
X17316602Y-14511241D01*
X17316602Y-14511241D02*
X17316602Y-14454098D01*
X17316602Y-14454098D02*
X17326126Y-14435050D01*
X17326126Y-14435050D02*
X17335650Y-14425527D01*
X17335650Y-14425527D02*
X17354698Y-14416003D01*
X17354698Y-14416003D02*
X17383269Y-14416003D01*
X17383269Y-14416003D02*
X17402317Y-14425527D01*
X17402317Y-14425527D02*
X17411840Y-14435050D01*
X17411840Y-14435050D02*
X17421364Y-14454098D01*
X17421364Y-14454098D02*
X17421364Y-14511241D01*
X17421364Y-14511241D02*
X17411840Y-14530288D01*
X17411840Y-14530288D02*
X17402317Y-14539812D01*
X17402317Y-14539812D02*
X17383269Y-14549336D01*
X17383269Y-14549336D02*
X17354698Y-14549336D01*
X17535650Y-14549336D02*
X17516602Y-14539812D01*
X17516602Y-14539812D02*
X17507079Y-14520765D01*
X17507079Y-14520765D02*
X17507079Y-14349336D01*
X17688031Y-14539812D02*
X17668983Y-14549336D01*
X17668983Y-14549336D02*
X17630888Y-14549336D01*
X17630888Y-14549336D02*
X17611840Y-14539812D01*
X17611840Y-14539812D02*
X17602317Y-14520765D01*
X17602317Y-14520765D02*
X17602317Y-14444574D01*
X17602317Y-14444574D02*
X17611840Y-14425527D01*
X17611840Y-14425527D02*
X17630888Y-14416003D01*
X17630888Y-14416003D02*
X17668983Y-14416003D01*
X17668983Y-14416003D02*
X17688031Y-14425527D01*
X17688031Y-14425527D02*
X17697555Y-14444574D01*
X17697555Y-14444574D02*
X17697555Y-14463622D01*
X17697555Y-14463622D02*
X17602317Y-14482669D01*
X17764221Y-14625527D02*
X17773745Y-14616003D01*
X17773745Y-14616003D02*
X17792793Y-14587431D01*
X17792793Y-14587431D02*
X17802317Y-14568384D01*
X17802317Y-14568384D02*
X17811840Y-14539812D01*
X17811840Y-14539812D02*
X17821364Y-14492193D01*
X17821364Y-14492193D02*
X17821364Y-14454098D01*
X17821364Y-14454098D02*
X17811840Y-14406479D01*
X17811840Y-14406479D02*
X17802317Y-14377908D01*
X17802317Y-14377908D02*
X17792793Y-14358860D01*
X17792793Y-14358860D02*
X17773745Y-14330288D01*
X17773745Y-14330288D02*
X17764221Y-14320765D01*
M02*
