%TF.GenerationSoftware,KiCad,Pcbnew,(7.0.0)*%
%TF.CreationDate,2023-06-29T20:35:03+03:00*%
%TF.ProjectId,kapeebar-a,6b617065-6562-4617-922d-612e6b696361,rev?*%
%TF.SameCoordinates,Original*%
%TF.FileFunction,Profile,NP*%
%FSLAX46Y46*%
G04 Gerber Fmt 4.6, Leading zero omitted, Abs format (unit mm)*
G04 Created by KiCad (PCBNEW (7.0.0)) date 2023-06-29 20:35:03*
%MOMM*%
%LPD*%
G01*
G04 APERTURE LIST*
%TA.AperFunction,Profile*%
%ADD10C,0.100000*%
%TD*%
%TA.AperFunction,Profile*%
%ADD11C,0.120000*%
%TD*%
G04 APERTURE END LIST*
D10*
X229031200Y-125050000D02*
X134574950Y-125050000D01*
X229031250Y-125050050D02*
G75*
G03*
X230618750Y-123462500I-50J1587550D01*
G01*
X134574950Y-48849950D02*
G75*
G03*
X132987450Y-50437500I50J-1587550D01*
G01*
X230618700Y-50437500D02*
G75*
G03*
X229031250Y-48850000I-1587500J0D01*
G01*
X134574950Y-48850000D02*
X229031250Y-48850000D01*
X230618750Y-123462500D02*
X230618750Y-50437500D01*
X132987500Y-123462500D02*
G75*
G03*
X134574950Y-125050000I1587500J0D01*
G01*
X132987450Y-123462500D02*
X132987450Y-50437500D01*
D11*
%TO.C,U1*%
X139030220Y-58685380D02*
X139030220Y-57643980D01*
X139716020Y-56958180D02*
X141316220Y-56958180D01*
X141316220Y-59371180D02*
X139716020Y-59371180D01*
X141697220Y-57339180D02*
X141697220Y-58990180D01*
X142205220Y-52970380D02*
X142205220Y-51293980D01*
X142891020Y-50608180D02*
X144567420Y-50608180D01*
X142891020Y-53656180D02*
X144567420Y-53656180D01*
X145253220Y-52970380D02*
X145253220Y-51293980D01*
X139716020Y-59371180D02*
G75*
G03*
X139030220Y-58685380I-438047J247753D01*
G01*
X139030220Y-57643980D02*
G75*
G03*
X139716020Y-56958180I247753J438047D01*
G01*
X141697220Y-57339180D02*
G75*
G03*
X141316220Y-56958180I-380999J1D01*
G01*
X141316220Y-59371180D02*
G75*
G03*
X141697220Y-58990180I1J380999D01*
G01*
X142891020Y-53656180D02*
G75*
G03*
X142205220Y-52970380I-438047J247753D01*
G01*
X142205220Y-51293980D02*
G75*
G03*
X142891020Y-50608180I247753J438047D01*
G01*
X145253220Y-52970380D02*
G75*
G03*
X144567420Y-53656180I-247753J-438047D01*
G01*
X144567420Y-50608180D02*
G75*
G03*
X145253220Y-51293980I438050J-247750D01*
G01*
%TD*%
M02*
