%TF.GenerationSoftware,KiCad,Pcbnew,(7.0.0)*%
%TF.CreationDate,2023-06-29T20:35:03+03:00*%
%TF.ProjectId,kapeebar-a,6b617065-6562-4617-922d-612e6b696361,rev?*%
%TF.SameCoordinates,Original*%
%TF.FileFunction,Soldermask,Bot*%
%TF.FilePolarity,Negative*%
%FSLAX46Y46*%
G04 Gerber Fmt 4.6, Leading zero omitted, Abs format (unit mm)*
G04 Created by KiCad (PCBNEW (7.0.0)) date 2023-06-29 20:35:03*
%MOMM*%
%LPD*%
G01*
G04 APERTURE LIST*
G04 Aperture macros list*
%AMRoundRect*
0 Rectangle with rounded corners*
0 $1 Rounding radius*
0 $2 $3 $4 $5 $6 $7 $8 $9 X,Y pos of 4 corners*
0 Add a 4 corners polygon primitive as box body*
4,1,4,$2,$3,$4,$5,$6,$7,$8,$9,$2,$3,0*
0 Add four circle primitives for the rounded corners*
1,1,$1+$1,$2,$3*
1,1,$1+$1,$4,$5*
1,1,$1+$1,$6,$7*
1,1,$1+$1,$8,$9*
0 Add four rect primitives between the rounded corners*
20,1,$1+$1,$2,$3,$4,$5,0*
20,1,$1+$1,$4,$5,$6,$7,0*
20,1,$1+$1,$6,$7,$8,$9,0*
20,1,$1+$1,$8,$9,$2,$3,0*%
G04 Aperture macros list end*
%ADD10O,2.750000X1.800000*%
%ADD11C,1.397000*%
%ADD12C,1.701800*%
%ADD13C,3.987800*%
%ADD14C,2.286000*%
%ADD15R,2.500000X1.800000*%
%ADD16RoundRect,0.375000X-0.375000X0.375000X-0.375000X-0.375000X0.375000X-0.375000X0.375000X0.375000X0*%
%ADD17C,3.048000*%
%ADD18C,0.900000*%
%ADD19C,1.500000*%
%ADD20O,2.000000X3.200000*%
%ADD21R,2.000000X2.000000*%
%ADD22C,2.000000*%
%ADD23C,0.800000*%
%ADD24RoundRect,0.225000X0.375000X-0.225000X0.375000X0.225000X-0.375000X0.225000X-0.375000X-0.225000X0*%
G04 APERTURE END LIST*
D10*
%TO.C,U1*%
X135634219Y-51814179D03*
X135634219Y-54354179D03*
X135634219Y-56894179D03*
X135634219Y-59434179D03*
X135634219Y-61974179D03*
X135634219Y-64514179D03*
X135634219Y-67054179D03*
X151824219Y-67054179D03*
X151824219Y-64514179D03*
X151824219Y-61974179D03*
X151824219Y-59434179D03*
X151824219Y-56894179D03*
X151824219Y-54354179D03*
X151824219Y-51814179D03*
D11*
X142459220Y-50862180D03*
X144999220Y-50862180D03*
X142459220Y-53402180D03*
X144999220Y-53402180D03*
X139284220Y-59117180D03*
X139284220Y-57212180D03*
%TD*%
D12*
%TO.C,SW9*%
X196971500Y-77425000D03*
D13*
X202051500Y-77425000D03*
D12*
X207131500Y-77425000D03*
D14*
X204591500Y-72345000D03*
X198241500Y-74885000D03*
%TD*%
D12*
%TO.C,SW5*%
X158863750Y-77425000D03*
D13*
X163943750Y-77425000D03*
D12*
X169023750Y-77425000D03*
D14*
X166483750Y-72345000D03*
X160133750Y-74885000D03*
%TD*%
D12*
%TO.C,SW14*%
X158863750Y-115525000D03*
D13*
X163943750Y-115525000D03*
D12*
X169023750Y-115525000D03*
D14*
X166483750Y-110445000D03*
X160133750Y-112985000D03*
%TD*%
D12*
%TO.C,SW16*%
X177913750Y-115525000D03*
D13*
X182993750Y-115525000D03*
D12*
X188073750Y-115525000D03*
D15*
X185533749Y-110444999D03*
D14*
X179183750Y-112985000D03*
%TD*%
D12*
%TO.C,SW17*%
X196971500Y-115525000D03*
D13*
X202051500Y-115525000D03*
D12*
X207131500Y-115525000D03*
D14*
X204591500Y-110445000D03*
X198241500Y-112985000D03*
%TD*%
D12*
%TO.C,SW7*%
X177913750Y-96475000D03*
D13*
X182993750Y-96475000D03*
D12*
X188073750Y-96475000D03*
D14*
X185533750Y-91395000D03*
X179183750Y-93935000D03*
%TD*%
D12*
%TO.C,SW2*%
X177913750Y-58375000D03*
D13*
X182993750Y-58375000D03*
D12*
X188073750Y-58375000D03*
D14*
X185533750Y-53295000D03*
X179183750Y-55835000D03*
%TD*%
D12*
%TO.C,SW11*%
X216013750Y-96475000D03*
D13*
X221093750Y-96475000D03*
D12*
X226173750Y-96475000D03*
D14*
X223633750Y-91395000D03*
X217283750Y-93935000D03*
%TD*%
D16*
%TO.C,J1*%
X135731250Y-77787500D03*
%TD*%
D12*
%TO.C,SW10*%
X196971500Y-96475000D03*
D13*
X202051500Y-96475000D03*
D12*
X207131500Y-96475000D03*
D14*
X204591500Y-91395000D03*
X198241500Y-93935000D03*
%TD*%
D12*
%TO.C,SW12*%
X221093750Y-62820000D03*
D13*
X221093750Y-67900000D03*
D12*
X221093750Y-72980000D03*
D14*
X226173750Y-70440000D03*
X223633750Y-64090000D03*
%TD*%
D12*
%TO.C,SW13*%
X216013750Y-77425000D03*
D13*
X221093750Y-77425000D03*
D12*
X226173750Y-77425000D03*
D14*
X223633750Y-72345000D03*
X217283750Y-74885000D03*
%TD*%
D12*
%TO.C,SW4*%
X216013750Y-58375000D03*
D13*
X221093750Y-58375000D03*
D12*
X226173750Y-58375000D03*
D14*
X223633750Y-53295000D03*
X217283750Y-55835000D03*
%TD*%
D17*
%TO.C,ST3*%
X185368750Y-122510000D03*
D13*
X185368750Y-107270000D03*
D17*
X161568750Y-122510000D03*
D13*
X161568750Y-107270000D03*
%TD*%
D12*
%TO.C,SW18*%
X216013750Y-115525000D03*
D13*
X221093750Y-115525000D03*
D12*
X226173750Y-115525000D03*
D14*
X223633750Y-110445000D03*
X217283750Y-112985000D03*
%TD*%
D18*
%TO.C,switch*%
X134700000Y-88493750D03*
X134750000Y-85493750D03*
%TD*%
D12*
%TO.C,SW8*%
X177913750Y-77425000D03*
D13*
X182993750Y-77425000D03*
D12*
X188073750Y-77425000D03*
D14*
X185533750Y-72345000D03*
X179183750Y-74885000D03*
%TD*%
D12*
%TO.C,2u*%
X168388750Y-115525000D03*
D13*
X173468750Y-115525000D03*
D12*
X178548750Y-115525000D03*
D14*
X176008750Y-110445000D03*
X169658750Y-112985000D03*
%TD*%
D19*
%TO.C,J2*%
X135731250Y-75406250D03*
%TD*%
D12*
%TO.C,SW1*%
X158863750Y-58375000D03*
D13*
X163943750Y-58375000D03*
D12*
X169023750Y-58375000D03*
D14*
X166483750Y-53295000D03*
X160133750Y-55835000D03*
%TD*%
D12*
%TO.C,SW6*%
X158863750Y-96475000D03*
D13*
X163943750Y-96475000D03*
D12*
X169023750Y-96475000D03*
D14*
X166483750Y-91395000D03*
X160133750Y-93935000D03*
%TD*%
D17*
%TO.C,ST1*%
X228078750Y-56000000D03*
D13*
X212838750Y-56000000D03*
D17*
X228078750Y-79800000D03*
D13*
X212838750Y-79800000D03*
%TD*%
D12*
%TO.C,SW3*%
X196971500Y-58375000D03*
D13*
X202051500Y-58375000D03*
D12*
X207131500Y-58375000D03*
D14*
X204591500Y-53295000D03*
X198241500Y-55835000D03*
%TD*%
D20*
%TO.C,SW15*%
X149993749Y-115524999D03*
X138793749Y-115524999D03*
D21*
X146893749Y-108024999D03*
D22*
X141893750Y-108025000D03*
X144393750Y-108025000D03*
X141893750Y-122525000D03*
X146893750Y-122525000D03*
%TD*%
D12*
%TO.C,SW19*%
X221093750Y-100920000D03*
D13*
X221093750Y-106000000D03*
D12*
X221093750Y-111080000D03*
D14*
X226173750Y-108540000D03*
X223633750Y-102190000D03*
%TD*%
D17*
%TO.C,ST2*%
X228078750Y-94100000D03*
D13*
X212838750Y-94100000D03*
D17*
X228078750Y-117900000D03*
D13*
X212838750Y-117900000D03*
%TD*%
D23*
%TO.C,D6*%
X196287450Y-83276300D03*
D24*
X196287450Y-83276300D03*
D23*
X196287450Y-79976300D03*
D24*
X196287450Y-79976300D03*
%TD*%
D23*
%TO.C,D13*%
X217763750Y-121452000D03*
D24*
X217763750Y-121452000D03*
D23*
X217763750Y-118152000D03*
D24*
X217763750Y-118152000D03*
%TD*%
D23*
%TO.C,D8*%
X158213750Y-83276300D03*
D24*
X158213750Y-83276300D03*
D23*
X158213750Y-79976300D03*
D24*
X158213750Y-79976300D03*
%TD*%
D23*
%TO.C,D4*%
X158213750Y-64350000D03*
D24*
X158213750Y-64350000D03*
D23*
X158213750Y-61050000D03*
D24*
X158213750Y-61050000D03*
%TD*%
D23*
%TO.C,D14*%
X196287450Y-121452000D03*
D24*
X196287450Y-121452000D03*
D23*
X196287450Y-118152000D03*
D24*
X196287450Y-118152000D03*
%TD*%
D23*
%TO.C,D15*%
X177263750Y-121452000D03*
D24*
X177263750Y-121452000D03*
D23*
X177263750Y-118152000D03*
D24*
X177263750Y-118152000D03*
%TD*%
D23*
%TO.C,D2*%
X196287450Y-64350000D03*
D24*
X196287450Y-64350000D03*
D23*
X196287450Y-61050000D03*
D24*
X196287450Y-61050000D03*
%TD*%
D23*
%TO.C,D11*%
X177263750Y-102443000D03*
D24*
X177263750Y-102443000D03*
D23*
X177263750Y-99143000D03*
D24*
X177263750Y-99143000D03*
%TD*%
D23*
%TO.C,D9*%
X215380400Y-102443000D03*
D24*
X215380400Y-102443000D03*
D23*
X215380400Y-99143000D03*
D24*
X215380400Y-99143000D03*
%TD*%
D23*
%TO.C,D7*%
X177263750Y-83276300D03*
D24*
X177263750Y-83276300D03*
D23*
X177263750Y-79976300D03*
D24*
X177263750Y-79976300D03*
%TD*%
D23*
%TO.C,D3*%
X177263750Y-64350000D03*
D24*
X177263750Y-64350000D03*
D23*
X177263750Y-61050000D03*
D24*
X177263750Y-61050000D03*
%TD*%
D23*
%TO.C,D10*%
X196287450Y-102443000D03*
D24*
X196287450Y-102443000D03*
D23*
X196287450Y-99143000D03*
D24*
X196287450Y-99143000D03*
%TD*%
D23*
%TO.C,D16*%
X158213750Y-121452000D03*
D24*
X158213750Y-121452000D03*
D23*
X158213750Y-118152000D03*
D24*
X158213750Y-118152000D03*
%TD*%
D23*
%TO.C,D12*%
X158213750Y-102443000D03*
D24*
X158213750Y-102443000D03*
D23*
X158213750Y-99143000D03*
D24*
X158213750Y-99143000D03*
%TD*%
D23*
%TO.C,D1*%
X215417450Y-64350000D03*
D24*
X215417450Y-64350000D03*
D23*
X215417450Y-61050000D03*
D24*
X215417450Y-61050000D03*
%TD*%
D23*
%TO.C,D5*%
X217763750Y-83276300D03*
D24*
X217763750Y-83276300D03*
D23*
X217763750Y-79976300D03*
D24*
X217763750Y-79976300D03*
%TD*%
M02*
