%TF.GenerationSoftware,KiCad,Pcbnew,(7.0.0)*%
%TF.CreationDate,2023-06-29T20:35:03+03:00*%
%TF.ProjectId,kapeebar-a,6b617065-6562-4617-922d-612e6b696361,rev?*%
%TF.SameCoordinates,Original*%
%TF.FileFunction,Legend,Top*%
%TF.FilePolarity,Positive*%
%FSLAX46Y46*%
G04 Gerber Fmt 4.6, Leading zero omitted, Abs format (unit mm)*
G04 Created by KiCad (PCBNEW (7.0.0)) date 2023-06-29 20:35:03*
%MOMM*%
%LPD*%
G01*
G04 APERTURE LIST*
G04 Aperture macros list*
%AMRoundRect*
0 Rectangle with rounded corners*
0 $1 Rounding radius*
0 $2 $3 $4 $5 $6 $7 $8 $9 X,Y pos of 4 corners*
0 Add a 4 corners polygon primitive as box body*
4,1,4,$2,$3,$4,$5,$6,$7,$8,$9,$2,$3,0*
0 Add four circle primitives for the rounded corners*
1,1,$1+$1,$2,$3*
1,1,$1+$1,$4,$5*
1,1,$1+$1,$6,$7*
1,1,$1+$1,$8,$9*
0 Add four rect primitives between the rounded corners*
20,1,$1+$1,$2,$3,$4,$5,0*
20,1,$1+$1,$4,$5,$6,$7,0*
20,1,$1+$1,$6,$7,$8,$9,0*
20,1,$1+$1,$8,$9,$2,$3,0*%
G04 Aperture macros list end*
%ADD10C,0.100000*%
%ADD11C,0.120000*%
%ADD12RoundRect,0.375000X-0.375000X0.375000X-0.375000X-0.375000X0.375000X-0.375000X0.375000X0.375000X0*%
%ADD13C,1.500000*%
G04 APERTURE END LIST*
D10*
%TO.C,J1*%
X136926785Y-77610571D02*
X137117261Y-78143904D01*
X137117261Y-78143904D02*
X137307738Y-77610571D01*
X137612500Y-77839142D02*
X138222024Y-77839142D01*
X137917262Y-78143904D02*
X137917262Y-77534380D01*
%TO.C,J2*%
X136926785Y-75329321D02*
X137117261Y-75862654D01*
X137117261Y-75862654D02*
X137307738Y-75329321D01*
X137612500Y-75557892D02*
X138222024Y-75557892D01*
D11*
%TO.C,switch*%
X133150000Y-90493750D02*
X133150000Y-83743750D01*
X136110000Y-89703750D02*
X136110000Y-90493750D01*
X136120000Y-84273750D02*
X136120000Y-83743750D01*
X136120000Y-85233750D02*
X136120000Y-87273750D01*
X136120000Y-88203750D02*
X136120000Y-88783750D01*
%TO.C,SW15*%
X148493750Y-107725000D02*
X148493750Y-108325000D01*
X148193750Y-108025000D02*
X148493750Y-107725000D01*
X148493750Y-108325000D02*
X148193750Y-108025000D01*
X150293750Y-109425000D02*
X138493750Y-109425000D01*
X150293750Y-113525000D02*
X150293750Y-109425000D01*
X138493750Y-113525000D02*
X138493750Y-109425000D01*
X144393750Y-115025000D02*
X144393750Y-116025000D01*
X144893750Y-115525000D02*
X143893750Y-115525000D01*
X150293750Y-117525000D02*
X150293750Y-121625000D01*
X150293750Y-121625000D02*
X147893750Y-121625000D01*
X145693750Y-121625000D02*
X143093750Y-121625000D01*
X140893750Y-121625000D02*
X138493750Y-121625000D01*
X138493750Y-121625000D02*
X138493750Y-117525000D01*
X147393750Y-115525000D02*
G75*
G03*
X147393750Y-115525000I-3000000J0D01*
G01*
%TD*%
D12*
%TO.C,J1*%
X135731250Y-77787500D03*
%TD*%
D13*
%TO.C,J2*%
X135731250Y-75406250D03*
%TD*%
M02*
